<svg id="Layer_1" data-name="Layer 1" xmlns="http://www.w3.org/2000/svg" viewBox="0 0 602.18 570.32"><defs><style>.cls-1{fill:#781570;}.cls-2{fill:#61125b;}.cls-3{fill:#3f2299;}.cls-4{fill:#4a24ba;}.cls-5{fill:#32197d;}.cls-6{fill:#ee7ee0;}.cls-7{fill:#6f31b0;}.cls-8{fill:#deea5c;}.cls-9{fill:#fff;}.cls-10{fill:#8f0049;}.cls-11{fill:none;stroke:#000;stroke-linecap:round;stroke-linejoin:round;stroke-width:6.23px;}</style></defs><g id="ear_02_0_Layer0_0_FILL" data-name="ear 02 0 Layer0 0 FILL"><path d="M616.92,856a78.48,78.48,0,0,0-1.3,24A178.72,178.72,0,0,0,620,904.9a432.68,432.68,0,0,0,28.76,83.32,364.59,364.59,0,0,0,46.41,75,341.87,341.87,0,0,0,71.34,66.45q2.88,2,4.66,1.68a3.29,3.29,0,0,0,2.39-2.08,4.71,4.71,0,0,0,.11-3.42,8.57,8.57,0,0,0-1.76-2.83c-.62-.6-1.49-1.36-2.62-2.27s-2.5-2.08-3.73-3.07a.29.29,0,0,0,.16,0q6.22-1.07,13.66-6a95.74,95.74,0,0,0,13.83-11.39q4.35-4.2,12.41-13.1c1.74-1.9,3.31-3.62,4.69-5.17s2.68-3,3.74-4.24a5.53,5.53,0,0,0,1.51.18,5.39,5.39,0,0,0,2.41-.56,3.14,3.14,0,0,0,1.54-1.66,2,2,0,0,0,.12-.45,3.69,3.69,0,0,0-.78-3.24,204.83,204.83,0,0,0,44.25-140.94,72.82,72.82,0,0,0-2.1-13.68,80.52,80.52,0,0,0-4-10.07q-3-6.75-4.07-10a2.72,2.72,0,0,1-.15-.42q.78-1.47-.54-3.6a15.3,15.3,0,0,0-4.27-4.21,38.28,38.28,0,0,0-5.48-2.88,198.64,198.64,0,0,0-21.18-7.94q-7.14-2.33-21.82-6.4-17.72-4.92-26.21-7-14.64-3.69-26.5-5.83-15-2.65-33.78-4.26-12.12-1-34-2.22-17.83-.87-28-1.15-15.48-.45-28-.11a9.73,9.73,0,0,0-4.4,1.1c-1.49.77-2.1,1.79-1.84,3.07a3.7,3.7,0,0,0,.11.49m6.43,11.18,0-4.38a22.75,22.75,0,0,1,.3-4.32l69.37,4.92q19.23,1.36,28.8,2.49a410.43,410.43,0,0,1,55.55,10.72q22.23,5.83,54.27,16.45c4.56,1.52,8.4,2.75,11.55,3.69.13.58.31,1.2.53,1.88q1.13,3.31,4.83,11.18a66.08,66.08,0,0,1,4.5,11.26,47.85,47.85,0,0,1,1.12,7l-.09-.07a64.51,64.51,0,0,0-6.67-3.21,61.43,61.43,0,0,0-6.78-1.83c-.83-.17-1.58-.31-2.23-.41q-23.84-13.14-55.16-19.87a354.15,354.15,0,0,0-37.73-5.81q-15.12-1.57-38.08-2.73-13.65-.74-21.22-.65a125.45,125.45,0,0,0-21,1.65,6.14,6.14,0,0,0-1.77.57,1.1,1.1,0,0,0-1,0c-.59.28-.82.93-.68,1.95a1.77,1.77,0,0,0,.27,1.22,312.61,312.61,0,0,0,37,81.83q28.68,45.07,65.61,68.77a38.45,38.45,0,0,0,4.45,2.55,13,13,0,0,0,2,.76q3.32,2.28,7,4.63,7.94,5.11,24.43,14.57c1.6.91,3,1.71,4.35,2.43l-.89,1c-1.24,1.42-2.53,2.87-3.89,4.37q-6.42,7.17-14.55,15.62-4.5,4.68-7.16,7a53.67,53.67,0,0,1-8,6.07,36.13,36.13,0,0,1-9.28,3.91,29,29,0,0,1-3.22.64q-17.44-14.52-29.5-26a304.65,304.65,0,0,1-34.27-37.87,335.71,335.71,0,0,1-21-32.18,427.72,427.72,0,0,1-35.73-77.44,343.69,343.69,0,0,1-14.31-58.05q-1-7-1.77-14v-.44m54.92,56.11q-3.28-7.83-4.85-11.45l-.63-2-.8-2.85a59.53,59.53,0,0,0-2-6.1c1.32,0,2.67-.07,4-.09q9-.13,19.44.36,8.88.48,25.7,1.93,22.35,2,33.4,3.3a289.28,289.28,0,0,1,33,5.79q12.2,3,33.14,10,11.38,3.76,19.58,6.39a20,20,0,0,0,2.07,1c2.63,1.12,4.19,1.82,4.68,2.08a42.39,42.39,0,0,1,4,2.57l5.06,3.4.66.43q1.33,39.06-10.62,71.57-2.57,7-7,16.84c-1,2.32-2,4.47-3,6.46q-2.19,4.62-4,8a176.55,176.55,0,0,1-17.62,26.51q-3.35-2.06-7.32-4.32-3-1.74-10.64-5.92l-14.86-8.07q-5.49-3-8.17-4.27a31.52,31.52,0,0,0-2.91-1.3c-2.83-2.23-5-3.92-6.4-5.08A250.25,250.25,0,0,1,713,986.16,328.72,328.72,0,0,1,678.27,923.26Z" transform="translate(-615.26 -694.2)"/><path class="cls-1" d="M693.5,901.11q-10.47-.5-19.44-.36,2.24,4.23,7,12.55,7.89,14,9,14.89,6.51,11.89,15.19,25.54,17.38,27.35,29.21,36.94.94.75,11.42,8t11.37,8.06a59.3,59.3,0,0,0,6,3.52,63,63,0,0,1,6,3.52q5.74,4.66,37.61,12.53,13.06,3.21,27.4,6.56c.94-2,1.94-4.14,3-6.46q4.41-9.84,7-16.84,11.94-32.51,10.62-71.57l-.66-.43-5.06-3.4a42.39,42.39,0,0,0-4-2.57c-.49-.26-2.05-1-4.68-2.08a20,20,0,0,1-2.07-1q-8.21-2.62-19.58-6.39-21-7.05-33.14-10a289.28,289.28,0,0,0-33-5.79q-11-1.32-33.4-3.3Q702.39,901.6,693.5,901.11Z" transform="translate(-615.26 -694.2)"/><path class="cls-2" d="M673.42,911.81q1.56,3.62,4.85,11.45A328.72,328.72,0,0,0,713,986.16a250.25,250.25,0,0,0,49.32,52.33c1.43,1.16,3.57,2.85,6.4,5.08a31.52,31.52,0,0,1,2.91,1.3q2.68,1.28,8.17,4.27l14.86,8.07q7.64,4.18,10.64,5.92,4,2.26,7.32,4.32a176.55,176.55,0,0,0,17.62-26.51q1.82-3.42,4-8-14.34-3.35-27.4-6.56-31.86-7.87-37.61-12.53a63,63,0,0,0-6-3.52,59.3,59.3,0,0,1-6-3.52q-.94-.76-11.37-8.06t-11.42-8q-11.84-9.58-29.21-36.94-8.68-13.65-15.19-25.54-1.15-.93-9-14.89-4.72-8.32-7-12.55c-1.37,0-2.72,0-4,.09a59.53,59.53,0,0,1,2,6.1l.8,2.85Z" transform="translate(-615.26 -694.2)"/><path class="cls-3" d="M623.35,867.59q.74,7,1.77,14a343.69,343.69,0,0,0,14.31,58.05A427.72,427.72,0,0,0,675.16,1017a335.71,335.71,0,0,0,21,32.18,304.65,304.65,0,0,0,34.27,37.87q12,11.48,29.5,26a29,29,0,0,0,3.22-.64,36.13,36.13,0,0,0,9.28-3.91,53.67,53.67,0,0,0,8-6.07q2.67-2.35,7.16-7,8.13-8.45,14.55-15.62c1.36-1.5,2.65-3,3.89-4.37a103.52,103.52,0,0,1-22.81-5.25,151.74,151.74,0,0,1-33.48-16.69q-3.09-2.05-6-4.35-7-5.43-13.49-11.48-14-13.07-27.18-27Q693,1000.1,684,988.55q-11.78-15-22.18-30.7-4.8-7.25-9.41-14.49a112,112,0,0,1-9.23-18q-2.24-5.52-4.61-11t-4.35-11.09q-6.16-17.87-10.83-36.12Z" transform="translate(-615.26 -694.2)"/><path class="cls-4" d="M623.39,862.77l0,4.38q4.67,18.24,10.83,36.12,2,5.67,4.35,11.09t4.61,11a112,112,0,0,0,9.23,18q4.61,7.25,9.41,14.49,10.4,15.74,22.18,30.7,9.09,11.55,19.07,22.11,13.22,14,27.18,27,6.46,6,13.49,11.48,3,2.29,6,4.35a151.74,151.74,0,0,0,33.48,16.69,103.52,103.52,0,0,0,22.81,5.25l.89-1c-1.3-.72-2.75-1.52-4.35-2.43q-16.5-9.45-24.43-14.57-3.71-2.36-7-4.63a13,13,0,0,1-2-.76,38.45,38.45,0,0,1-4.45-2.55q-36.93-23.7-65.61-68.77a312.61,312.61,0,0,1-37-81.83,1.77,1.77,0,0,1-.27-1.22c-.14-1,.09-1.67.68-1.95a1.1,1.1,0,0,1,1,0,6.14,6.14,0,0,1,1.77-.57,125.45,125.45,0,0,1,21-1.65q7.57-.07,21.22.65,23,1.15,38.08,2.73a354.15,354.15,0,0,1,37.73,5.81q31.32,6.74,55.16,19.87c.65.1,1.4.24,2.23.41a61.43,61.43,0,0,1,6.78,1.83,64.51,64.51,0,0,1,6.67,3.21l.09.07a47.85,47.85,0,0,0-1.12-7,66.08,66.08,0,0,0-4.5-11.26q-3.71-7.86-4.83-11.18c-.22-.68-.4-1.3-.53-1.88-3.15-.94-7-2.17-11.55-3.69q-32-10.62-54.27-16.45a410.43,410.43,0,0,0-55.55-10.72q-9.55-1.12-28.8-2.49l-69.37-4.92A22.75,22.75,0,0,0,623.39,862.77Z" transform="translate(-615.26 -694.2)"/></g><g id="ear_01_0_Layer0_0_FILL" data-name="ear 01 0 Layer0 0 FILL"><path d="M1057.23,694.28a9.68,9.68,0,0,0-4.1,2q-9.89,7.62-21.44,17.68-7.67,6.68-20.75,18.53-16.05,14.64-24.67,23.07-13.35,13-23.15,24.56-7.68,9.11-16.5,21.14-5.1,7-15.45,21.87-8.61,12.33-12.57,18.56a203.77,203.77,0,0,0-11.06,19.41,44.29,44.29,0,0,0-2.26,5.67,14.12,14.12,0,0,0-.48,5.94,3.49,3.49,0,0,0,1.88,3.08c0,.11.08.25.15.43a102.28,102.28,0,0,1,3.43,10.18,78.36,78.36,0,0,0,3.59,10.14,55.45,55.45,0,0,0,5.25,8.84c.65,1,1.36,1.93,2.11,2.93l.88,1.17a204,204,0,0,0,41.6,41.09Q971,956.06,979,961a211.13,211.13,0,0,0,68.76,27.34,3.54,3.54,0,0,0,1.85,3.23,3.49,3.49,0,0,0,2.33.27,4.83,4.83,0,0,0,2.16-1,6.37,6.37,0,0,0,1.07-1.18q4.78.85,12.66,2,12,1.68,18.11,2.19a109.2,109.2,0,0,0,18.11,0q8.94-.94,14.41-4a.4.4,0,0,0,.16,0c-.28,1.53-.58,3.08-.9,4.66-.23,1.41-.38,2.56-.45,3.44a7.19,7.19,0,0,0,.49,3.24,4.59,4.59,0,0,0,2.33,2.46,3,3,0,0,0,3.15.12q1.63-.78,2.55-4.14a330.75,330.75,0,0,0,11.09-95.71,359.69,359.69,0,0,0-13.63-86.61,429.71,429.71,0,0,0-32.59-81.81,182.85,182.85,0,0,0-13-21.81c-1.33-1.84-2.68-3.6-4.06-5.26a82,82,0,0,0-8.6-9q-2-1.77-4.13-3.34a.86.86,0,0,0-.2-.39c-.65-1.11-1.78-1.54-3.4-1.28m.08,7.88a14.79,14.79,0,0,1,2.17,2c.29.35.59.71.9,1.1l3.16,3.62q1.73,2.49,3.4,5a336.2,336.2,0,0,1,31.5,60.22,421.26,421.26,0,0,1,23.49,81.64,325.12,325.12,0,0,1,5,37.86,295.09,295.09,0,0,1-1.45,50.52q-1.71,16.33-5.57,38.4a23.8,23.8,0,0,1-2.89,1.56,34.63,34.63,0,0,1-9.71,2.84,57.77,57.77,0,0,1-10.09.39q-3.59-.17-10.05-.79-16.45-1.9-28.71-4c.57-1.34,1.16-2.86,1.8-4.56q6.38-17.67,9.21-26.55,1.3-4.09,2.27-7.92c.38-.58.75-1.21,1.1-1.88a29.37,29.37,0,0,0,1.75-4.77q12.7-41.29,5.16-93.86a310.26,310.26,0,0,0-24.23-83.5c-.34-.76-.68-1.54-1-2.31a2.6,2.6,0,0,0-.64-1.16c-.52-.83-1.1-1.15-1.75-1a.93.93,0,0,0-.78.55,10.17,10.17,0,0,0-1.71.77,126.41,126.41,0,0,0-17.3,11.92q-5.79,4.71-15.86,13.84-12.48,11.43-21.56,20.24c-2.09,2-4,4-5.86,5.81a333.5,333.5,0,0,0-25.16,28.21q-19.62,24.84-29.25,49.91c-.42.5-.9,1.09-1.43,1.78a48,48,0,0,0-4,5.62,57.28,57.28,0,0,0-3.05,6.65l0,.08c-.3-.42-.59-.84-.86-1.24a40.48,40.48,0,0,1-2.88-4.83c-.06-.14-.13-.29-.19-.44A73.77,73.77,0,0,1,918.38,883a114.15,114.15,0,0,0-3.61-11.66,12.21,12.21,0,0,0-.9-1.81q2.79-4,6.52-10.08,17.58-28.28,30.86-46.65a397.65,397.65,0,0,1,35.52-43.16q6.65-6.92,20.52-20.17l50-47.3m-12.88,65.6c1.74-1.41,3.44-2.77,5.11-4,.18.51.4,1.1.68,1.76.47,1.15,1.08,2.51,1.83,4.11l1.27,2.76c.29.64.59,1.27.89,1.88Q1055.32,778,1058,786a323.73,323.73,0,0,1,14.59,70,244.6,244.6,0,0,1-3.44,71q-.54,2.67-1.67,7.88c-.42.9-.88,1.85-1.37,2.87q-1.18,2.7-3.41,8.4l-6.15,15.53q-3.09,8-4.29,11.21c-1.07,2.8-2,5.43-2.78,7.9a186.28,186.28,0,0,1-30.89-9.14q-6-2.43-14.85-6.73-9.93-4.69-16.47-8.52a176.83,176.83,0,0,1-23.19-15.8A193.44,193.44,0,0,1,949,927.22a222.44,222.44,0,0,1-16.88-18.74,5.93,5.93,0,0,0,.21-.83l1.68-5.74c.56-2,1-3.54,1.39-4.52.23-.49,1-2,2.22-4.52.36-.75.69-1.44,1-2.07q4.54-7.14,10.78-17.21Q960.9,855,968.3,845.07a292.57,292.57,0,0,1,21.47-25.14c1.24-1.3,2.64-2.75,4.22-4.35l.11-.14q7.23-7.41,19.22-19.08t18.4-17.58Q1038.34,772.74,1044.43,767.76Z" transform="translate(-615.26 -694.2)"/><path class="cls-2" d="M1049.54,763.71c-1.67,1.28-3.37,2.64-5.11,4q-6.09,5-12.71,11-6.46,5.88-18.4,17.58T994.1,815.44l-.11.14c-1.58,1.6-3,3-4.22,4.35a292.57,292.57,0,0,0-21.47,25.14q-7.41,9.95-18.91,28.52-6.24,10.06-10.78,17.21c-.28.63-.61,1.32-1,2.07-1.25,2.53-2,4-2.22,4.52-.36,1-.83,2.49-1.39,4.52l-1.68,5.74a5.93,5.93,0,0,1-.21.83A222.44,222.44,0,0,0,949,927.22a193.44,193.44,0,0,0,15.05,13.41,176.83,176.83,0,0,0,23.19,15.8q6.54,3.81,16.47,8.52,8.87,4.29,14.85,6.73a186.28,186.28,0,0,0,30.89,9.14c.79-2.47,1.71-5.1,2.78-7.9q1.2-3.18,4.29-11.21l6.15-15.53q2.22-5.7,3.41-8.4c.49-1,1-2,1.37-2.87q1.13-5.2,1.67-7.88a244.6,244.6,0,0,0,3.44-71A323.73,323.73,0,0,0,1058,786q-2.67-8.06-3.78-11.81c-.3-.61-.6-1.24-.89-1.88l-1.27-2.76c-.75-1.6-1.36-3-1.83-4.11C1049.94,764.81,1049.72,764.22,1049.54,763.71Z" transform="translate(-615.26 -694.2)"/><path class="cls-3" d="M1054.43,757.19c.36.77.7,1.55,1,2.31A310.26,310.26,0,0,1,1079.7,843q7.54,52.56-5.16,93.86a29.37,29.37,0,0,1-1.75,4.77c-.35.67-.72,1.3-1.1,1.88q-1,3.82-2.27,7.92-2.84,8.9-9.21,26.55c-.64,1.7-1.23,3.22-1.8,4.56q12.25,2.12,28.71,4,6.47.63,10.05.79a57.77,57.77,0,0,0,10.09-.39,34.63,34.63,0,0,0,9.71-2.84,23.8,23.8,0,0,0,2.89-1.56q3.86-22.06,5.57-38.4a295.09,295.09,0,0,0,1.45-50.52,325.12,325.12,0,0,0-5-37.86,421.26,421.26,0,0,0-23.49-81.64,336.2,336.2,0,0,0-31.5-60.22q-18.42,15.83-37,31.59A339.5,339.5,0,0,0,969.13,813a377.66,377.66,0,0,0-43.93,86.19c.27.4.56.82.86,1.24l0-.08a57.28,57.28,0,0,1,3.05-6.65,48,48,0,0,1,4-5.62c.53-.69,1-1.28,1.43-1.78q9.62-25.06,29.25-49.91A333.5,333.5,0,0,1,989,808.17c1.82-1.83,3.77-3.76,5.86-5.81q9.07-8.8,21.56-20.24,10.06-9.12,15.86-13.84a126.41,126.41,0,0,1,17.3-11.92,10.17,10.17,0,0,1,1.71-.77.93.93,0,0,1,.78-.55c.65-.16,1.23.16,1.75,1A2.6,2.6,0,0,1,1054.43,757.19Z" transform="translate(-615.26 -694.2)"/><path class="cls-4" d="M1059.48,704.18a14.79,14.79,0,0,0-2.17-2l-50,47.3q-13.87,13.24-20.52,20.17a397.65,397.65,0,0,0-35.52,43.16Q938,831.17,920.39,859.44q-3.74,6.07-6.52,10.08a12.21,12.21,0,0,1,.9,1.81A114.15,114.15,0,0,1,918.38,883a73.77,73.77,0,0,0,3.75,10.92c.06.15.13.3.19.44a40.48,40.48,0,0,0,2.88,4.83A377.66,377.66,0,0,1,969.13,813,339.5,339.5,0,0,1,1030,745.5q18.54-15.76,37-31.59-1.68-2.52-3.4-5l-3.16-3.62C1060.07,704.89,1059.77,704.53,1059.48,704.18Z" transform="translate(-615.26 -694.2)"/></g><g id="fur02_0_Layer0_0_FILL" data-name="fur02 0 Layer0 0 FILL"><path class="cls-4" d="M1113.9,1007.77c-3.13.51-5.47.89-7,1.12a38.71,38.71,0,0,1-7.15.54,5,5,0,0,1-3.27-1.13q-16.34,22.08-12.41,74.93,2,27,10,48,4.73,12.28,9.87,19.12a40.5,40.5,0,0,0,5.23,5.51c.14-.36.3-.71.46-1.07a32.72,32.72,0,0,1,3.67-5.92q1.47-1.82,4.42-5.1,4.17-4.54,6.59-6.87a46.29,46.29,0,0,1,7.25-5.79,47.77,47.77,0,0,1,6.58-3.4q2.46-1,6.79-2.61,6.78-2.46,20.15-7a47.56,47.56,0,0,0-12.52-4.09,77.43,77.43,0,0,0-10-1.28l-.55.14a4.5,4.5,0,0,1-2.33-.24c-.13,0-.24-.1-.35-.13a3.33,3.33,0,0,1-2.38-1,3.25,3.25,0,0,1-.77-2.6,4.4,4.4,0,0,1,1.07-2.57c.16-.13.33-.25.51-.38a12.12,12.12,0,0,1,2-2.81,36.63,36.63,0,0,1,7.22-4.86q19.2-10.29,37-8.9a55.08,55.08,0,0,1,16.23,3.82,40.47,40.47,0,0,1,4.76,2.15,90.52,90.52,0,0,0-14.41-16.07,81,81,0,0,0-17.94-12,66,66,0,0,0-19.55-6,58,58,0,0,0-19.69.49,15.68,15.68,0,0,1-1.88.29,5.87,5.87,0,0,1-1.83-.18,3.47,3.47,0,0,1-1.59-1.14,3.17,3.17,0,0,1-.76-2c-.08-1.4.71-2.53,2.38-3.38l.83-1.38q8.48-13.27,21-19.31a72.39,72.39,0,0,1,8.65-3.37c3.76-1.25,6.18-2,7.29-2.36a60.66,60.66,0,0,1,10.32-2.34,20.78,20.78,0,0,1,4,0,105.59,105.59,0,0,0-29.41-15A84.21,84.21,0,0,0,1113.9,1007.77Z" transform="translate(-615.26 -694.2)"/><path d="M1106.89,1008.89c1.54-.23,3.88-.61,7-1.12a84.21,84.21,0,0,1,38.49,3.69,105.59,105.59,0,0,1,29.41,15,20.78,20.78,0,0,0-4,0,60.66,60.66,0,0,0-10.32,2.34c-1.11.33-3.53,1.11-7.29,2.36a72.39,72.39,0,0,0-8.65,3.37q-12.51,6-21,19.31l-.83,1.38c-1.67.85-2.46,2-2.38,3.38a3.17,3.17,0,0,0,.76,2,3.47,3.47,0,0,0,1.59,1.14,5.87,5.87,0,0,0,1.83.18,15.68,15.68,0,0,0,1.88-.29,58,58,0,0,1,19.69-.49,66,66,0,0,1,19.55,6,81,81,0,0,1,17.94,12,90.52,90.52,0,0,1,14.41,16.07,40.47,40.47,0,0,0-4.76-2.15,55.08,55.08,0,0,0-16.23-3.82q-17.84-1.39-37,8.9a36.63,36.63,0,0,0-7.22,4.86,12.12,12.12,0,0,0-2,2.81c-.18.13-.35.25-.51.38a4.4,4.4,0,0,0-1.07,2.57,3.25,3.25,0,0,0,.77,2.6,3.33,3.33,0,0,0,2.38,1c.11,0,.22.08.35.13a4.5,4.5,0,0,0,2.33.24l.55-.14a77.43,77.43,0,0,1,10,1.28A47.56,47.56,0,0,1,1165,1118q-13.36,4.56-20.15,7-4.34,1.56-6.79,2.61a47.77,47.77,0,0,0-6.58,3.4,46.29,46.29,0,0,0-7.25,5.79q-2.41,2.33-6.59,6.87-3,3.29-4.42,5.1a32.72,32.72,0,0,0-3.67,5.92c-.16.36-.32.71-.46,1.07a11.56,11.56,0,0,0-.57,2.83,5.89,5.89,0,0,0,.6,3,5.6,5.6,0,0,1,.49.68,3.23,3.23,0,0,0,1.84.8,3.06,3.06,0,0,0,1.88-.36,9.59,9.59,0,0,0,2.9-2.83q5.34-6.9,8-9.93a61.59,61.59,0,0,1,9-8.46,102.69,102.69,0,0,1,9.91-6.09,155.93,155.93,0,0,1,15.34-7.54,45.89,45.89,0,0,1,16.33-3.62c2.7-.06,4.13-1,4.3-2.65a5.19,5.19,0,0,0-2.1-3.78,44.69,44.69,0,0,0-16.87-10,48,48,0,0,0-7.38-1.85,61,61,0,0,1,18.66-6.8,59.56,59.56,0,0,1,27.84,1.49,43.26,43.26,0,0,1,15.74,8,4.32,4.32,0,0,0,1.91,1.19.65.65,0,0,0,.39,0,19,19,0,0,1,0-2.11,28.06,28.06,0,0,0-.18-4.91,23.56,23.56,0,0,0-1.07-3,42.09,42.09,0,0,0-3.24-5.56,114.45,114.45,0,0,0-14.65-18.07,97.05,97.05,0,0,0-17.49-13.77,78.31,78.31,0,0,0-19.28-8.18,60.8,60.8,0,0,0-19-1.85q2.46-2.49,3.7-3.58a41.38,41.38,0,0,1,8.78-5.85q3.29-1.8,9.43-4.63a66.87,66.87,0,0,1,8.8-3.44,37.6,37.6,0,0,1,7.3-1.43q.46,0,7.46-.64a4,4,0,0,0,1.73-.56,1.24,1.24,0,0,0,1.36.08,1.27,1.27,0,0,0,.54-.95,2.71,2.71,0,0,0,0-1.33,3.48,3.48,0,0,0-.43-1.07,6.85,6.85,0,0,0-1-1.28,85.48,85.48,0,0,0-18.29-16.55,80.31,80.31,0,0,0-21.08-10.19q-20.62-6.51-43.76-2.31a21.66,21.66,0,0,0-5.22,1.34,13.21,13.21,0,0,0-4,2.28,4.35,4.35,0,0,0-.64.56q-2.05,2-1.5,4a3.15,3.15,0,0,0,.85,1.47,5,5,0,0,0,3.27,1.13A38.71,38.71,0,0,0,1106.89,1008.89Z" transform="translate(-615.26 -694.2)"/></g><g id="fur03_0_Layer0_0_FILL" data-name="fur03 0 Layer0 0 FILL"><path class="cls-5" d="M763.64,1210.26a2,2,0,0,0,.6-1.11,2,2,0,0,1,1.36-1.17,3.87,3.87,0,0,0,1.48-.87,59.87,59.87,0,0,0-6.22,3.49,47.29,47.29,0,0,0-9.21,7.72q13.25-.83,19.83-1.12c2.93-.09,5.23-.12,6.92-.11a40.53,40.53,0,0,1,6.91.56,45.44,45.44,0,0,1,6.59,1.69q-1.83-1-3.87-2-16.35-8.1-21.85-6.32a15.43,15.43,0,0,0-2.7,1.13l.16-1.85m-30-32c.52-1.45,1-2.26,1.57-2.43a2.39,2.39,0,0,0,1.43-1.55,2.36,2.36,0,0,1,1.4-1.5,1.27,1.27,0,0,0,1-1.21,1.17,1.17,0,0,1,1-1.18,2.6,2.6,0,0,0,1.51-1.55,2.38,2.38,0,0,1,1.42-1.55,2.37,2.37,0,0,0,1.48-1.54,7,7,0,0,1,.33-.62,42.25,42.25,0,0,0-4,2.06,61.59,61.59,0,0,0-14.63,11.63,72.07,72.07,0,0,0-10.93,16.1,86.52,86.52,0,0,0-6.34,18.16c1-1.16,2.08-2.29,3.23-3.4a51,51,0,0,1,12.54-8.66q14.85-7.26,35.15-5.32c.32,0,.63.06.93.08q-2.94-2.14-13.87-4.08-7.24-1.35-17.37-3c.17-1.18.4-2.37.69-3.59s.54-1.72.68-1.77c.71-.23.9-.67.58-1.33s-.09-1.13.56-1.35,1.08-1,1.66-2.43m-30.55-29.92a18.5,18.5,0,0,1,3.42-1.38,56.28,56.28,0,0,1,9.78-1.51q1.61-.13,7.13-.53a63.9,63.9,0,0,1,8.67-.21,40.69,40.69,0,0,1,4.51.43l-3.27-1.17q-.19-.52-4.62-2.53c-3-1.29-4.71-2.67-5.19-4.12l-.81-2.52q-.07-.8,1.26-1.2a1.24,1.24,0,0,0,1-1.23c0-.58.32-1,1-1.19s1-.57.91-1.1a1.2,1.2,0,0,1,1-1.21,3.93,3.93,0,0,0,1.89-1.5,4.14,4.14,0,0,1,1.83-1.45c.7-.23,1.06-.61,1.07-1.15a1.12,1.12,0,0,1,.94-1.12,4.77,4.77,0,0,0,1.92-1.37,4.09,4.09,0,0,1,1.91-1.46c.09,0,2.26-1.7,6.49-5s6.45-5,6.6-5a2.57,2.57,0,0,0,.39-.17A80.11,80.11,0,0,0,722.66,1126,94.26,94.26,0,0,0,703.05,1148.39Z" transform="translate(-615.26 -694.2)"/><path class="cls-4" d="M726.81,1130.13c.05.53-.25.9-.91,1.1s-1,.61-1,1.19a1.24,1.24,0,0,1-1,1.23q-1.33.4-1.26,1.2l.81,2.52c.48,1.45,2.21,2.83,5.19,4.12s4.49,2.18,4.62,2.53l3.27,1.17a52.76,52.76,0,0,1,20.78,8.29c.44.33.85.62,1.23.89,1.72.14,2.82.79,3.29,2a2.76,2.76,0,0,1,.08,1.89,3.33,3.33,0,0,1-1,1.52,4.59,4.59,0,0,1-1.51.81c-.26.08-.81.2-1.67.36a53.21,53.21,0,0,0-13.07,4.27,7,7,0,0,0-.33.62,2.37,2.37,0,0,1-1.48,1.54,2.38,2.38,0,0,0-1.42,1.55,2.6,2.6,0,0,1-1.51,1.55,1.17,1.17,0,0,0-1,1.18,1.27,1.27,0,0,1-1,1.21,2.36,2.36,0,0,0-1.4,1.5,2.39,2.39,0,0,1-1.43,1.55c-.53.17-1,1-1.57,2.43s-1.13,2.26-1.66,2.43-.83.68-.56,1.35.13,1.1-.58,1.33c-.14,0-.37.64-.68,1.77s-.52,2.41-.69,3.59q10.13,1.62,17.37,3,10.92,1.93,13.87,4.08a34.86,34.86,0,0,1,7.13,1.45,9.87,9.87,0,0,1,2.83,1.67l.54.11a3.81,3.81,0,0,1,1.91,1.76,2.67,2.67,0,0,1,.32,2.43,3.56,3.56,0,0,1-1.71,1.67.6.6,0,0,0-.21.19,4.21,4.21,0,0,1-1.92.94,1.65,1.65,0,0,1-.52.1c-.69.31-1.35.63-2,1a3.87,3.87,0,0,1-1.48.87,2,2,0,0,0-1.36,1.17,2,2,0,0,1-.6,1.11l-.16,1.85a15.43,15.43,0,0,1,2.7-1.13q5.51-1.79,21.85,6.32,2,1,3.87,2c.6.18,1.2.37,1.81.58,2,.71,4.71,1.86,8.22,3.43q3.8,1.64,5.74,2.72a30.94,30.94,0,0,1,5.39,3.66l.73.71a31.13,31.13,0,0,0,2.41-6.31q1.95-7.44,1.44-19.25-1-19.87-9.39-43-16.38-45-38.7-57.65a4.24,4.24,0,0,1-2.3,2.06,45.66,45.66,0,0,1-6.34,2q-2.16.5-6.49,1.39c-1.23.3-2.43.63-3.62,1a2.57,2.57,0,0,1-.39.17q-.23.07-6.6,5c-4.23,3.26-6.4,4.91-6.49,5a4.09,4.09,0,0,0-1.91,1.46,4.77,4.77,0,0,1-1.92,1.37,1.12,1.12,0,0,0-.94,1.12c0,.54-.37.92-1.07,1.15a4.14,4.14,0,0,0-1.83,1.45,3.93,3.93,0,0,1-1.89,1.5A1.2,1.2,0,0,0,726.81,1130.13Z" transform="translate(-615.26 -694.2)"/><path d="M698.46,1155.91a3.92,3.92,0,0,0,1.67-.18c4.19-1.24,6.41-1.9,6.65-2a42.61,42.61,0,0,1,6.81-1.29,63.1,63.1,0,0,1,8.88-.15q6.33.21,9.83.55a46.69,46.69,0,0,1,9.73,1.87c1,.29,2.44.86,4.49,1.72a55.72,55.72,0,0,0-15.6,8,66.74,66.74,0,0,0-13.59,13.33,84.75,84.75,0,0,0-9.9,17.37,98.93,98.93,0,0,0-5.84,19.92,31.76,31.76,0,0,0-.67,5.7,17,17,0,0,0,.13,2.8,22.3,22.3,0,0,0,1.69,4.08,16,16,0,0,1,.83,1.81,2.33,2.33,0,0,0,.36-.15,3.43,3.43,0,0,0,1.18-1.6,37,37,0,0,1,10.56-12A55.35,55.35,0,0,1,739.08,1205a57.23,57.23,0,0,1,18.55-.79,41.56,41.56,0,0,0-5.68,4,39.22,39.22,0,0,0-10.72,14.09c-.78,1.56-.89,2.85-.31,3.87.73,1.32,2.25,1.54,4.58.65a47.5,47.5,0,0,1,15.4-2.56,156.52,156.52,0,0,1,16,1,77.65,77.65,0,0,1,10.75,1.64,56.69,56.69,0,0,1,10.94,3.88q3.42,1.62,10.57,5.44a11.89,11.89,0,0,0,3.47,1.37l.11,0a2.71,2.71,0,0,0,1.71-.34,2.16,2.16,0,0,0,1.24-1.32,3.94,3.94,0,0,0-.35-3.39,12.32,12.32,0,0,0-1.57-2.12l-.73-.71a30.94,30.94,0,0,0-5.39-3.66q-1.95-1.08-5.74-2.72c-3.51-1.57-6.25-2.72-8.22-3.43-.61-.21-1.21-.4-1.81-.58a45.44,45.44,0,0,0-6.59-1.69,40.53,40.53,0,0,0-6.91-.56c-1.69,0-4,0-6.92.11q-6.59.3-19.83,1.12a47.29,47.29,0,0,1,9.21-7.72,59.87,59.87,0,0,1,6.22-3.49c.61-.33,1.27-.65,2-1a1.65,1.65,0,0,0,.52-.1,4.21,4.21,0,0,0,1.92-.94.6.6,0,0,1,.21-.19,3.56,3.56,0,0,0,1.71-1.67,2.67,2.67,0,0,0-.32-2.43,3.81,3.81,0,0,0-1.91-1.76l-.54-.11a9.87,9.87,0,0,0-2.83-1.67,34.86,34.86,0,0,0-7.13-1.45c-.3,0-.61,0-.93-.08q-20.29-1.93-35.15,5.32a51,51,0,0,0-12.54,8.66c-1.15,1.11-2.22,2.24-3.23,3.4a86.52,86.52,0,0,1,6.34-18.16,72.07,72.07,0,0,1,10.93-16.1,61.59,61.59,0,0,1,14.63-11.63,42.25,42.25,0,0,1,4-2.06,53.21,53.21,0,0,1,13.07-4.27c.86-.16,1.41-.28,1.67-.36a4.59,4.59,0,0,0,1.51-.81,3.33,3.33,0,0,0,1-1.52,2.76,2.76,0,0,0-.08-1.89c-.47-1.17-1.57-1.82-3.29-2-.38-.27-.79-.56-1.23-.89a52.76,52.76,0,0,0-20.78-8.29,40.69,40.69,0,0,0-4.51-.43,63.9,63.9,0,0,0-8.67.21q-5.52.39-7.13.53a56.28,56.28,0,0,0-9.78,1.51,18.5,18.5,0,0,0-3.42,1.38A94.26,94.26,0,0,1,722.66,1126a80.11,80.11,0,0,1,28.14-15.25c1.19-.37,2.39-.7,3.62-1q4.33-.9,6.49-1.39a45.66,45.66,0,0,0,6.34-2,4.24,4.24,0,0,0,2.3-2.06,2.55,2.55,0,0,0,.23-1.49A3.74,3.74,0,0,0,767,1100a13.49,13.49,0,0,0-5-.76,26.73,26.73,0,0,0-5,.69q-21.53,4.45-36.79,16.82a74,74,0,0,0-23.93,35.65,6.39,6.39,0,0,0-.26,2.26,2.72,2.72,0,0,0,.47,1.2,1.17,1.17,0,0,0,.8.59A1.25,1.25,0,0,0,698.46,1155.91Z" transform="translate(-615.26 -694.2)"/></g><g id="face_0_Layer0_0_FILL" data-name="face 0 Layer0 0 FILL"><path class="cls-6" d="M1037.29,1004.61q-2,1.73-4.32,3.43a69.68,69.68,0,0,0-14.37,14l-3,2.6a3,3,0,0,1-.63.77,26.4,26.4,0,0,0-6,6.88,3.52,3.52,0,0,1-2.34,1.71l-2.21,2.64-.06.56A293,293,0,0,1,972.7,1070l-.44.7-4.91,2.59-1.07.3-.47.75c-2.48,1.36-5,2.61-7.58,3.75a68.18,68.18,0,0,1-15.13,4.56,396.93,396.93,0,0,0-62.4,13.63l-1.26,1.18a3.71,3.71,0,0,1-1,.72c-.38.2-.75.38-1.13.54l-1.39.18-4.17,2.55-.47.75a110.72,110.72,0,0,1-63.43,9.52.84.84,0,0,0-.28-.41,37.1,37.1,0,0,0-20.44-3,77.15,77.15,0,0,0-23.59,17.78,14.36,14.36,0,0,0-3.6,9.23,90,90,0,0,0,9.64,45,124.66,124.66,0,0,0,29.95,38.56,139.25,139.25,0,0,0,40.45,24.6,170.56,170.56,0,0,0,44.23,11.09,205.9,205.9,0,0,0,49.56-.82,195.89,195.89,0,0,0,88.72-36,232,232,0,0,0,32.7-28.71,357.92,357.92,0,0,0,31.4-38.06,156,156,0,0,0,21.3-42.16,177.13,177.13,0,0,0,8.69-49.63c0-1.15.05-2.31,0-3.48a54,54,0,0,0-18.93-30.67q-8.62-7-17-14.16Q1060.41,993.64,1037.29,1004.61Z" transform="translate(-615.26 -694.2)"/><path d="M928.52,871.74q23.26-2.6,42.69,1.34a155.89,155.89,0,0,1,16.51,4.39q37.92,11.92,65,32.11a157.12,157.12,0,0,1,26.58,24.85A133.72,133.72,0,0,1,1098.78,965a162.2,162.2,0,0,1,11.09,36.13q2.63,13.35,5.34,37.74,1.2,10.33,1.4,16.84c0,1.17,0,2.33,0,3.48a177.13,177.13,0,0,1-8.69,49.63,156,156,0,0,1-21.3,42.16,357.92,357.92,0,0,1-31.4,38.06,232,232,0,0,1-32.7,28.71,195.89,195.89,0,0,1-88.72,36,205.9,205.9,0,0,1-49.56.82A170.56,170.56,0,0,1,840,1243.44a139.25,139.25,0,0,1-40.45-24.6,124.66,124.66,0,0,1-29.95-38.56,90,90,0,0,1-9.64-45,14.36,14.36,0,0,1,3.6-9.23,77.15,77.15,0,0,1,23.59-17.78h0c-.12-.41-.55-.74-1.31-1a17.12,17.12,0,0,0-9.25-.2,40.56,40.56,0,0,0-9,3.46c-1.62.84-3.1,1.68-4.41,2.5l-1.59,1.72a39.05,39.05,0,0,1-3.24,3.36q-.54.06-1.41,1.59l-.91,1.5c-.38,0-1.09.86-2.14,2.47a31.14,31.14,0,0,0-1.78,6.28q-.32.91-.6,1.86A50.36,50.36,0,0,0,749.2,1147q0,13.77,6.95,29.68a51.1,51.1,0,0,0,4.31,8.19,26.79,26.79,0,0,0,2.24,2.88A131.44,131.44,0,0,0,779,1212.07a129.86,129.86,0,0,0,52.58,37.51q5.1,2,10.28,3.5a115.21,115.21,0,0,0,18.26,5.55q5.46,1.14,16.49,2.66,12.67,1.71,18.84,2.32a174.9,174.9,0,0,0,18.91.91,167.52,167.52,0,0,0,32-3.89,212.89,212.89,0,0,0,61.8-22.7q24.25-13.7,46.75-35.94a323.71,323.71,0,0,0,26.89-30.46,35,35,0,0,0,6.75-6.33,123.93,123.93,0,0,0,18.52-30,246.45,246.45,0,0,0,11.8-33.65q3.38-12,5-21a119.21,119.21,0,0,0,2.15-21.41,192.69,192.69,0,0,0-1.53-21.06q-2.7-24.5-5.62-38.92a174.24,174.24,0,0,0-11.56-37.34A141.1,141.1,0,0,0,1087,929.61a163.5,163.5,0,0,0-27.74-26.26q-28.61-21.48-68.17-33.76-9.44-2.88-16.14-4.27-30.42-6.27-68.14,2.07a326.23,326.23,0,0,0-33,9.38q-10.45,3.48-32.32,11.63-3.88,1.47-5.88,2.33a39.9,39.9,0,0,0-5.54,2.92c-.39.26-.85.56-1.36.92-.33.12-.69.27-1.09.45q-5.57,2.7-8.21,4.09a76.8,76.8,0,0,0-7.84,4.71A73.92,73.92,0,0,0,802,912q-3.13,3.12-8.57,9.24-6.29,7-9.17,10.75a147.6,147.6,0,0,0-8.95,13,215.19,215.19,0,0,0-24.77,164.87q2-.26,6.83-11.38a216.52,216.52,0,0,1-4.38-41.59,201.66,201.66,0,0,1,8.32-59.84,188.74,188.74,0,0,1,26.33-54.43,179,179,0,0,1,34.68-37.32c.57-.27,1.1-.54,1.6-.82q1.45-.76,4.75-2.73,3-1.77,4.74-2.69a113.13,113.13,0,0,1,11.15-4.83q20.68-7.87,41.63-13.74A266.53,266.53,0,0,1,928.52,871.74Z" transform="translate(-615.26 -694.2)"/><path class="cls-4" d="M971.21,873.08q-19.43-3.95-42.69-1.34a266.53,266.53,0,0,0-42.29,8.8q-21,5.87-41.63,13.74a113.13,113.13,0,0,0-11.15,4.83q-1.71.92-4.74,2.69-3.3,2-4.75,2.73c-.5.28-1,.55-1.6.82a179,179,0,0,0-34.68,37.32,188.74,188.74,0,0,0-26.33,54.43,201.66,201.66,0,0,0-8.32,59.84,216.52,216.52,0,0,0,4.38,41.59q-4.86,11.13-6.83,11.38c.63,2.39,1.31,4.78,2,7.16a30.9,30.9,0,0,0,1.13,3.17,10,10,0,0,0,.94,1.63c-.28.6-.55,1.19-.8,1.8,1-1.61,1.76-2.44,2.14-2.47l.91-1.5q.87-1.53,1.41-1.59a39.05,39.05,0,0,0,3.24-3.36l1.59-1.72c1.31-.82,2.79-1.66,4.41-2.5a40.56,40.56,0,0,1,9-3.46,17.12,17.12,0,0,1,9.25.2c.76.27,1.19.6,1.31,1h0a37.1,37.1,0,0,1,20.44,3,.84.84,0,0,1,.28.41,110.72,110.72,0,0,0,63.43-9.52l.47-.75,4.17-2.55,1.39-.18c.38-.16.75-.34,1.13-.54a3.71,3.71,0,0,0,1-.72l1.26-1.18a396.93,396.93,0,0,1,62.4-13.63,68.18,68.18,0,0,0,15.13-4.56c2.58-1.14,5.1-2.39,7.58-3.75l.47-.75,1.07-.3,4.91-2.59.44-.7a293,293,0,0,0,31.64-32.8l.06-.56,2.21-2.64a3.52,3.52,0,0,0,2.34-1.71,26.4,26.4,0,0,1,6-6.88,3,3,0,0,0,.63-.77l3-2.6a69.68,69.68,0,0,1,14.37-14q2.33-1.71,4.32-3.43,23.12-11,43.4,6.28,8.37,7.13,17,14.16a54,54,0,0,1,18.93,30.67q-.21-6.51-1.4-16.84-2.71-24.39-5.34-37.74A162.2,162.2,0,0,0,1098.78,965a133.72,133.72,0,0,0-19.48-30.58,157.12,157.12,0,0,0-26.58-24.85q-27.08-20.18-65-32.11A155.89,155.89,0,0,0,971.21,873.08Z" transform="translate(-615.26 -694.2)"/></g><g id="fur04_0_Layer0_0_FILL" data-name="fur04 0 Layer0 0 FILL"><path class="cls-4" d="M769.59,879.81a10.21,10.21,0,0,1,1.82-1,40.43,40.43,0,0,1,8.33-3.07c2.57-.76,4.49-1.31,5.75-1.63a38.42,38.42,0,0,1,10.35-1,19.56,19.56,0,0,1,9.23,2.63,3.75,3.75,0,0,1,1.49,1.39,1.71,1.71,0,0,1,.07,1.93,6.35,6.35,0,0,1-.42.54v.21a39.38,39.38,0,0,0-5.56,2.46,40.79,40.79,0,0,0-6.75,4.26c-.75.65-1.72,1.61-2.9,2.87q-1.49,1.56-3,3.26a6.31,6.31,0,0,0-.63.53,1.53,1.53,0,0,0,.31-.16c-1.43,1.63-2.84,3.33-4.22,5.08q2.4-2.76,8.3-6.19c1.85-1,3.58-2,5.2-2.86q6.63-1.85,10.89.24a9.5,9.5,0,0,1,4.82,5.49,22.5,22.5,0,0,1,1.28,7.14,21.31,21.31,0,0,1-.36,5.48,8.35,8.35,0,0,1-1.28,2.86,86.4,86.4,0,0,0,18.8.63,84.19,84.19,0,0,0,25.66-5.5q1.56-.6,22.18-7.21l9.17-4.15q8.25-3.7,9.06-4A45.35,45.35,0,0,0,902,887a37.5,37.5,0,0,1,5.49-3.4,27.15,27.15,0,0,0,7.71-5.12c1.43-1.27,2.77-2.5,4-3.67a3,3,0,0,0,1.32-1.22,3,3,0,0,1,1.38-1.32,9.21,9.21,0,0,0,1.52-1.67,5.89,5.89,0,0,1,2.08-2,1.91,1.91,0,0,0,.32-.16,10.27,10.27,0,0,1-3.77-1.35,14.86,14.86,0,0,1-3-2.14,1.17,1.17,0,0,0,.48-.81,1.37,1.37,0,0,0-.43-1.12,6.36,6.36,0,0,1-1.64-2.21,4.53,4.53,0,0,1-.12-2.16,11.07,11.07,0,0,1,.51-2.58,9.56,9.56,0,0,1,.67-1.3,17.81,17.81,0,0,1,3.69-4.29,19.71,19.71,0,0,1,4.93-2.93l0,0a4.13,4.13,0,0,0,1.6-.07,1.42,1.42,0,0,0,1.09-.54l1.45.2,1.24.19a9.57,9.57,0,0,1,1.72-.2l2.48,0A21.69,21.69,0,0,0,931,845a34.82,34.82,0,0,0-5.77-.79c-.5,0-1,0-1.51.08-1.2-.07-2.31-.11-3.35-.13-1.39.06-2.6.16-3.63.31a42.51,42.51,0,0,0-6.09,1.2l-2.87,1.52a36.3,36.3,0,0,1-3.78,1.79c-.53.23-.89.21-1.1,0q-.07-.09.06-.48a8.3,8.3,0,0,1,.38-.86l-.07,0,.1-.08a11.05,11.05,0,0,1,3.14-3.75,22.59,22.59,0,0,1,5.42-3.16l.73-.28a11.76,11.76,0,0,1,2-1c.23-.06.45-.14.67-.22.88-.45,1.92-.9,3.1-1.36a94.17,94.17,0,0,1,10.94-4,48,48,0,0,1,8.09-1.43,36.14,36.14,0,0,0-4.34-1.42,40.3,40.3,0,0,0-11.87-1.37,62.87,62.87,0,0,0-23.93,5.89c-1.58.68-3.86,1.77-6.85,3.25a50.53,50.53,0,0,0-4.6,2.47,2.23,2.23,0,0,1-.06-.93c0-.89,0-1.57.05-2a14.15,14.15,0,0,0,.26-1.51,41.56,41.56,0,0,1,4.16-5.56,77.51,77.51,0,0,1,5.73-5.83,96.81,96.81,0,0,1,9.07-7.56,42.32,42.32,0,0,1,9.37-4.6l-2.12-.1a44.6,44.6,0,0,0-13,2.16,67.74,67.74,0,0,0-9.53,4.07,96,96,0,0,0-11.29,6.45,67.72,67.72,0,0,0-11,10q-6.28,7.42-9.45,11.14a1.48,1.48,0,0,0-.26.3,42,42,0,0,1,1.46-17.61c.25-.94.67-2.29,1.24-4.06.21-.75.5-1.88.87-3.38a14.93,14.93,0,0,1,1.32-3.18l-1.92,2.49a28.1,28.1,0,0,1,2.3-3.8,53.84,53.84,0,0,0-13.36,14.21A76.13,76.13,0,0,0,844.81,842c-1.57,3.83-2.75,6.68-3.57,8.54-.37,1.29-.68,2.53-.94,3.74a9.85,9.85,0,0,1-1.14,2.9,2.67,2.67,0,0,1-.6.61,3,3,0,0,1-.23-.5,25.08,25.08,0,0,0-2.65-3.19,23,23,0,0,1-1.42-1.88,18.28,18.28,0,0,0-1.7-1.6,8,8,0,0,0-2.18-1,21.63,21.63,0,0,0-3.74-2.57,36.25,36.25,0,0,0-9.84-3.81,24.88,24.88,0,0,0-6.93-.56A35.82,35.82,0,0,0,796.6,846a22.59,22.59,0,0,1,17.72,3,67.82,67.82,0,0,1,5.6,4.18l0,0a24.61,24.61,0,0,1,3.12,7.27c.1.54.2,1,.29,1.51a3.58,3.58,0,0,1-.59.65,4.38,4.38,0,0,1-3,1.1,6.79,6.79,0,0,1-1.22-.12,12.62,12.62,0,0,0-1.9.15q-2,.09-6.18.62-6.86,1-10.22,1.63a90.52,90.52,0,0,0-10.08,2.32,63.4,63.4,0,0,0-14.06,6.31,34,34,0,0,0-4.8,3.34A11.21,11.21,0,0,0,769.59,879.81Z" transform="translate(-615.26 -694.2)"/><path d="M759.3,890.81c-.09,1.28-.17,2.18-.22,2.7a.92.92,0,0,1,.16.2s0,0,.06,0a3.93,3.93,0,0,1,.59-.64l1.77-1.59a24.6,24.6,0,0,1,2.07-1.67,23,23,0,0,1,2.56-1.69,27.25,27.25,0,0,1,4.94-2.44,31.24,31.24,0,0,1,2.95-1.68,33.37,33.37,0,0,1,5.55-2,78,78,0,0,1,9.14-2.38,34.64,34.64,0,0,1,3.63-.22,39.8,39.8,0,0,0-3.57,2.32q-2.25,1.74-7.69,6.5-.9.79-1.56,1.47l-.88,1.3q-2.38,3.78-3,5A28.12,28.12,0,0,0,773,907.14a48.23,48.23,0,0,0,.32,7.05,27.24,27.24,0,0,0,4-3.37q6.79-6.08,10.24-8.52A34.46,34.46,0,0,1,800,896.56a5.06,5.06,0,0,1,2.32-.14c.9.24,1.65,1.08,2.26,2.52a15.86,15.86,0,0,1,.83,2.6,14.35,14.35,0,0,1,2.66,5,18.56,18.56,0,0,1,.55,6.75,11.11,11.11,0,0,0,1.79-1,7.76,7.76,0,0,0,2-2,8.35,8.35,0,0,0,1.28-2.86,21.31,21.31,0,0,0,.36-5.48,22.5,22.5,0,0,0-1.28-7.14,9.5,9.5,0,0,0-4.82-5.49q-4.26-2.09-10.89-.24c-1.62.86-3.35,1.82-5.2,2.86q-5.89,3.44-8.3,6.19c1.38-1.75,2.79-3.45,4.22-5.08a1.53,1.53,0,0,1-.31.16,6.31,6.31,0,0,1,.63-.53q1.47-1.7,3-3.26c1.18-1.26,2.15-2.22,2.9-2.87a40.79,40.79,0,0,1,6.75-4.26,39.38,39.38,0,0,1,5.56-2.46v-.21a6.35,6.35,0,0,0,.42-.54,1.71,1.71,0,0,0-.07-1.93,3.75,3.75,0,0,0-1.49-1.39,19.56,19.56,0,0,0-9.23-2.63,38.42,38.42,0,0,0-10.35,1c-1.26.32-3.18.87-5.75,1.63a40.43,40.43,0,0,0-8.33,3.07,10.21,10.21,0,0,0-1.82,1,11.21,11.21,0,0,1,1.72-1.83,34,34,0,0,1,4.8-3.34,63.4,63.4,0,0,1,14.06-6.31A90.52,90.52,0,0,1,800.25,866q3.36-.68,10.22-1.63,4.21-.52,6.18-.62a12.62,12.62,0,0,1,1.9-.15,6.79,6.79,0,0,0,1.22.12,4.38,4.38,0,0,0,3-1.1,3.58,3.58,0,0,0,.59-.65c-.09-.46-.19-1-.29-1.51a24.61,24.61,0,0,0-3.12-7.27l0,0a67.82,67.82,0,0,0-5.6-4.18,22.59,22.59,0,0,0-17.72-3,35.82,35.82,0,0,1,13.27-3.26,24.88,24.88,0,0,1,6.93.56,36.25,36.25,0,0,1,9.84,3.81,21.63,21.63,0,0,1,3.74,2.57,8,8,0,0,1,2.18,1,18.28,18.28,0,0,1,1.7,1.6,23,23,0,0,0,1.42,1.88,25.08,25.08,0,0,1,2.65,3.19,3,3,0,0,0,.23.5,2.67,2.67,0,0,0,.6-.61,9.85,9.85,0,0,0,1.14-2.9c.26-1.21.57-2.45.94-3.74.82-1.86,2-4.71,3.57-8.54a76.13,76.13,0,0,1,4.93-10.19,53.84,53.84,0,0,1,13.36-14.21,28.1,28.1,0,0,0-2.3,3.8l1.92-2.49a14.93,14.93,0,0,0-1.32,3.18c-.37,1.5-.66,2.63-.87,3.38-.57,1.77-1,3.12-1.24,4.06a42,42,0,0,0-1.46,17.61,1.48,1.48,0,0,1,.26-.3q3.17-3.72,9.45-11.14a67.72,67.72,0,0,1,11-10,96,96,0,0,1,11.29-6.45,67.74,67.74,0,0,1,9.53-4.07,44.6,44.6,0,0,1,13-2.16l2.12.1a42.32,42.32,0,0,0-9.37,4.6,96.81,96.81,0,0,0-9.07,7.56,77.51,77.51,0,0,0-5.73,5.83,41.56,41.56,0,0,0-4.16,5.56,14.15,14.15,0,0,1-.26,1.51c0,.46-.06,1.14-.05,2a2.23,2.23,0,0,0,.06.93,50.53,50.53,0,0,1,4.6-2.47c3-1.48,5.27-2.57,6.85-3.25a62.87,62.87,0,0,1,23.93-5.89,40.3,40.3,0,0,1,11.87,1.37,36.14,36.14,0,0,1,4.34,1.42,48,48,0,0,0-8.09,1.43,94.17,94.17,0,0,0-10.94,4c-1.18.46-2.22.91-3.1,1.36-.22.08-.44.16-.67.22a11.76,11.76,0,0,0-2,1l-.73.28a22.59,22.59,0,0,0-5.42,3.16,11.05,11.05,0,0,0-3.14,3.75l-.1.08.07,0a8.3,8.3,0,0,0-.38.86q-.13.39-.06.48c.21.25.57.27,1.1,0a36.3,36.3,0,0,0,3.78-1.79l2.87-1.52a42.51,42.51,0,0,1,6.09-1.2c1-.15,2.24-.25,3.63-.31,1,0,2.15.06,3.35.13.51,0,1-.08,1.51-.08A34.82,34.82,0,0,1,931,845a21.69,21.69,0,0,1,5.72,2.1l-2.48,0a9.57,9.57,0,0,0-1.72.2l-1.24-.19-1.45-.2a1.42,1.42,0,0,1-1.09.54,4.13,4.13,0,0,1-1.6.07l0,0a19.71,19.71,0,0,0-4.93,2.93,17.81,17.81,0,0,0-3.69,4.29,9.56,9.56,0,0,0-.67,1.3,11.07,11.07,0,0,0-.51,2.58,4.53,4.53,0,0,0,.12,2.16,6.36,6.36,0,0,0,1.64,2.21,1.37,1.37,0,0,1,.43,1.12,1.17,1.17,0,0,1-.48.81,14.86,14.86,0,0,0,3,2.14,10.27,10.27,0,0,0,3.77,1.35,9.29,9.29,0,0,1,1.06.05,5.73,5.73,0,0,0,2.67-.86,3,3,0,0,0,1.47-1.94,2.52,2.52,0,0,0-.41-2,26,26,0,0,1-4.3-2.52,9.66,9.66,0,0,1-1.58-1.82.33.33,0,0,1-.08-.22,7.05,7.05,0,0,1,.59-1.93,11.23,11.23,0,0,1,3.51-3.14,18.66,18.66,0,0,1,3-1.72,13.62,13.62,0,0,1,3.68-.62c.89,0,2.16,0,3.82.07a1.07,1.07,0,0,1,.27-.06l.62.1a9.88,9.88,0,0,1,2.13.43,12.73,12.73,0,0,0,2.11-.06,1.92,1.92,0,0,0,1-.23,1.43,1.43,0,0,0,.46-1.63,6,6,0,0,0-.7-1.82.55.55,0,0,0,0-.23,4.91,4.91,0,0,0-1.08-1.84,19.41,19.41,0,0,0-8.68-5.22,26.84,26.84,0,0,0-5.18-1.1l-.34,0c.89-.2,1.74-.37,2.55-.52l5-.35a41.93,41.93,0,0,1,5.57-.26,55.65,55.65,0,0,1,7,.86,3.44,3.44,0,0,0,2.26-.2,3.17,3.17,0,0,0,1.23-.06,2.82,2.82,0,0,0,0-2.73,8.64,8.64,0,0,0-1.93-2.18q-9.69-8.43-19.27-11.75-6.85-2.34-12.08-1.29a7.19,7.19,0,0,0-1.31.29c-.67,0-1.56,0-2.65.06a14.76,14.76,0,0,0-2.28.12l-1.21.22a3.24,3.24,0,0,1-.52.07l1-.6a28.54,28.54,0,0,1,14.33-2.66l.43-.08c2-.21,3.27-.38,3.81-.5a10.47,10.47,0,0,0,2.48-.91c-.25-.3-.49-.61-.73-.93-.35-.56-.86-1.3-1.51-2.21a15.26,15.26,0,0,0-3-2.77,37.18,37.18,0,0,0-4.81-3.07l-1.22-.37a39.09,39.09,0,0,0-12.21-1.16,74.15,74.15,0,0,0-8.13,1,58.52,58.52,0,0,0-9.37,2.1,65.39,65.39,0,0,0-10.45,4.93q-5.09,2.73-7.78,4.52a51.16,51.16,0,0,0-4.57,3.3l0,0a.9.9,0,0,0,0-.18,4.33,4.33,0,0,1,.16-.56c.33-1.6.58-2.67.76-3.21s.48-1.62.93-2.9c.64-1.89,1.17-3.29,1.57-4.19a1.66,1.66,0,0,1,.18-.4,46.11,46.11,0,0,1,2.46-4,.3.3,0,0,1,.11-.13v0a1.64,1.64,0,0,0,0-1,8.35,8.35,0,0,0,1-1.09,7.4,7.4,0,0,1-2.19.17c-1.17,0-1.91,0-2.22,0a17.74,17.74,0,0,0-2.49.58,25.5,25.5,0,0,0-2.38,1,66.84,66.84,0,0,0-11.58,6,56.91,56.91,0,0,0-7.5,6.54q-1.77,1.68-3.38,3.47a43.62,43.62,0,0,0-4,5.45A54.69,54.69,0,0,0,835,844a22.09,22.09,0,0,0-2.88-2.27,34.59,34.59,0,0,0-17.33-5.83c-.76,0-1.51-.06-2.23-.06-1.49.19-3.32.48-5.5.9a56,56,0,0,0-8.34,2.16q-6.76,2.6-13.62,9.94a1.49,1.49,0,0,0,.38.68c1.17-.08,2-.12,2.62-.13a18.06,18.06,0,0,1,3.83.41l1.65.29a14.9,14.9,0,0,1,1.65.28l1.12.2,1.6.26,1.45.28a24.35,24.35,0,0,1,7,1.87,29.11,29.11,0,0,1,5.3,3.81,84.62,84.62,0,0,0-15.73,1.73A83.25,83.25,0,0,0,778,864.1a45.63,45.63,0,0,0-15.39,17A23.45,23.45,0,0,0,759.3,890.81Z" transform="translate(-615.26 -694.2)"/></g><g id="eyebrow_R_0_Layer0_0_STROKES_1_FILL" data-name="eyebrow R 0 Layer0 0 STROKES 1 FILL"><path d="M818.34,949.28l-7.36-.14-.27.06-.56,0-4.25.72-5.37,1.67-1.69.73-.52.27a4.23,4.23,0,0,0-.57.26l-3.19,1.79c-.23.12-.58.34-1.06.66l-3.88,2.9-4.32,4.15-.07.13-.12.1L782.36,966l-3.56,5.56-2.7,5.54L774.35,982l-1.62,6.9-.72,8.42,0,.2v.23l0,1.65,0,.25v.22l.07.63.09.08.07,0,3.72-4.19.15-.22.6-.62.1-.14,6.14-7.51,11.53-13.16.15-.12,1.24-1.24.19-.14.08-.09,0-.07.67-.58a3.51,3.51,0,0,0,.32-.3l2.15-1.85.05-.07.08-.09,6.19-4.36,3.56-1.94a5.57,5.57,0,0,0,.71-.33l.22-.07.17-.1,5.21-2,.17-.09,1-.25.07,0,.12,0,1.87-.55.21,0,4.38-1,1.06-.17.19-.06h.17l5.47-.75.16,0h.14l.55-.11,5-.55h.26l.19-.06.63-.06c.07,0,.1-.07.08-.09l0-.07-2.17-1.76-.2-.11-.16-.14-3.27-2-.14-.1-6.49-2.72-4.78-1.11-.14,0-.1,0h-.23Z" transform="translate(-615.26 -694.2)"/></g><g id="eyebrow_L_0_Layer0_0_STROKES_1_FILL" data-name="eyebrow L 0 Layer0 0 STROKES 1 FILL"><path d="M950.11,912.69l-6-1a5.88,5.88,0,0,1-.74-.08l-8.16-.33-7,.63-7.63,1.66-5.75,2-.3.14-.67.24-8,4.13a3,3,0,0,0-.58.34l-3.06,2-.1.1-3.12,2.35-.2.2-.22.16-5.2,4.8-.15.18-.19.16-5.48,6.69a1.54,1.54,0,0,1-.27.43l-1.63,2.57,0,.12h.08l1-.38.26-.15,3-1.19.52-.26,2.5-1c1.22-.53,2.19-.92,2.89-1.17l3.26-1.3c2-.76,3.18-1.21,3.54-1.33l2.61-.94.26-.11,8.82-2.65a2.3,2.3,0,0,1,.58-.13l3-.75.28,0,2.55-.55,12.64-1.4H934l.28,0,8.69.25,4.49.53a3.33,3.33,0,0,1,.62.07l.58.1h.31L959.68,930l.3.09.27,0,1.39.39.31,0,29.76,10.09a.07.07,0,0,0,.09-.06l-.59-.93-4.37-5.45-4.2-4.27-4.23-3.72-.11-.06-.1-.1-8.06-5.56-5.21-2.78-.33-.14-.29-.16-7.81-3.11L951.56,913a4.5,4.5,0,0,1-.72-.16A5.82,5.82,0,0,1,950.11,912.69Z" transform="translate(-615.26 -694.2)"/></g><g id="eyes_0_Layer3_0_FILL" data-name="eyes 0 Layer3 0 FILL"><path class="cls-7" d="M793.35,1012.1q-14.4,14.62-15,37.15t13,39.62q13.64,17.16,33.35,19T858.84,1095q14.4-14.62,15-37.17t-13-39.62Q847.3,1001,827.5,999.26t-34.15,12.84m186-30.28Q963.88,963.46,941,961.88t-40,14.56Q884,992.6,882.89,1017.11t14.42,42.9q15.45,18.45,38.43,20t39.93-14.57q17-16.26,18.08-40.76T979.34,981.82Z" transform="translate(-615.26 -694.2)"/></g><g id="eyes_0_Layer2_0_FILL" data-name="eyes 0 Layer2 0 FILL"><path class="cls-8" d="M778.24,1061.68a1,1,0,0,0,0,.44,46.81,46.81,0,0,0,12.64,34.32h0A46.39,46.39,0,0,0,824.31,1112a45.58,45.58,0,0,0,34.36-12.53A46.73,46.73,0,0,0,874,1066l0,0a47,47,0,0,0-5.64-24.72,49.88,49.88,0,0,0-7.16-10,47.84,47.84,0,0,0-67.71-3,46.64,46.64,0,0,0-15.32,33.44m11-11.69a3.69,3.69,0,0,1-1.13-2.23,5.84,5.84,0,0,1,.33-2.4,15.2,15.2,0,0,1,.94-2.37l1.66-3.8a24.83,24.83,0,0,1,2.31-4.11,6.64,6.64,0,0,1,3.91-2.58,3,3,0,0,1,2.31.15,2.5,2.5,0,0,1,.91.75,1.76,1.76,0,0,1,.39,1.06,2.21,2.21,0,0,1-.5,1.4,6.48,6.48,0,0,1-1,1.05,19.41,19.41,0,0,0-4.74,8.89q-.17.57-.36,1.56a5.35,5.35,0,0,1-.51,1.48,3.29,3.29,0,0,1-2.35,2,2.66,2.66,0,0,1-2.22-.83m-1.34,4.24a3,3,0,0,1,1.16-.34,2.35,2.35,0,0,1,1.28.65,1.94,1.94,0,0,1,.79,1.19,4.84,4.84,0,0,1,.09,2.85c-.08.21-.14.41-.2.58a2.56,2.56,0,0,1-1,1.46,1.76,1.76,0,0,1-1.9.3,2.45,2.45,0,0,1-1.12-.81,2.69,2.69,0,0,1-.34-.48,6.55,6.55,0,0,1-.28-2.39,5.75,5.75,0,0,1,.56-2.14,2.49,2.49,0,0,1,.92-.87m99.92-27.17a52.25,52.25,0,0,0,.13,6.52q1.32,17.16,13.73,30.33a50.62,50.62,0,0,0,36.23,16.3q21.66.84,37.49-13.47A49.12,49.12,0,0,0,992,1031.1a49.73,49.73,0,0,0-3.46-20.8,52.79,52.79,0,0,0-84.1-18.77q-15.87,14.4-16.66,35.53m27.73-35.91a2.18,2.18,0,0,1,.4,1.67,6.66,6.66,0,0,1-.61,1.67c-.44.75-.87,1.41-1.29,2a13.58,13.58,0,0,1-1.52,1.49l-1.64,1.48a16.53,16.53,0,0,0-1.36,1.49l-1.32,1.59a61.18,61.18,0,0,0-4,5.19,13.47,13.47,0,0,1-1.57,2.16,3.65,3.65,0,0,1-2.76.83,3.1,3.1,0,0,1-2.33-1.64,3.89,3.89,0,0,1-.18-2.46,12.31,12.31,0,0,1,.9-2.21,35.18,35.18,0,0,1,3-4.33,66.92,66.92,0,0,1,5-5.21,22.74,22.74,0,0,1,1.9-1.72,13.66,13.66,0,0,1,4.13-2.24,6.52,6.52,0,0,1,1.66-.31,2.45,2.45,0,0,1,1.57.56m-18.79,25.56a1.81,1.81,0,0,1,1.62.43,2.07,2.07,0,0,1,.66,1.59,14.32,14.32,0,0,1-.39,1.45c0,.28-.08.87-.14,1.78a4.27,4.27,0,0,1-.33,1.68,2.3,2.3,0,0,1-1.88,1.35,2,2,0,0,1-2.07-.87q-.75-.91-.51-3.33a4.75,4.75,0,0,1,.43-1.59,8.11,8.11,0,0,1,.74-1.26A4.35,4.35,0,0,1,896.71,1016.71Z" transform="translate(-615.26 -694.2)"/><path class="cls-9" d="M789,1053.89a3,3,0,0,0-1.16.34,2.49,2.49,0,0,0-.92.87,5.75,5.75,0,0,0-.56,2.14,6.55,6.55,0,0,0,.28,2.39,2.69,2.69,0,0,0,.34.48,2.45,2.45,0,0,0,1.12.81,1.76,1.76,0,0,0,1.9-.3,2.56,2.56,0,0,0,1-1.46c.06-.17.12-.37.2-.58a4.84,4.84,0,0,0-.09-2.85,1.94,1.94,0,0,0-.79-1.19,2.35,2.35,0,0,0-1.28-.65m-1-6.13a3.69,3.69,0,0,0,1.13,2.23,2.66,2.66,0,0,0,2.22.83,3.29,3.29,0,0,0,2.35-2,5.35,5.35,0,0,0,.51-1.48q.19-1,.36-1.56a19.41,19.41,0,0,1,4.74-8.89,6.48,6.48,0,0,0,1-1.05,2.21,2.21,0,0,0,.5-1.4,1.76,1.76,0,0,0-.39-1.06,2.5,2.5,0,0,0-.91-.75,3,3,0,0,0-2.31-.15,6.64,6.64,0,0,0-3.91,2.58,24.83,24.83,0,0,0-2.31,4.11l-1.66,3.8a15.2,15.2,0,0,0-.94,2.37,5.84,5.84,0,0,0-.33,2.4m110.27-30.62a1.81,1.81,0,0,0-1.62-.43,4.35,4.35,0,0,0-1.87,1.23,8.11,8.11,0,0,0-.74,1.26,4.75,4.75,0,0,0-.43,1.59q-.24,2.41.51,3.33a2,2,0,0,0,2.07.87,2.3,2.3,0,0,0,1.88-1.35,4.27,4.27,0,0,0,.33-1.68c.06-.91.11-1.5.14-1.78a14.32,14.32,0,0,0,.39-1.45,2.07,2.07,0,0,0-.66-1.59m17.57-24.32a2.18,2.18,0,0,0-.4-1.67,2.45,2.45,0,0,0-1.57-.56,6.52,6.52,0,0,0-1.66.31,13.66,13.66,0,0,0-4.13,2.24,22.74,22.74,0,0,0-1.9,1.72,66.92,66.92,0,0,0-5,5.21,35.18,35.18,0,0,0-3,4.33,12.31,12.31,0,0,0-.9,2.21,3.89,3.89,0,0,0,.18,2.46,3.1,3.1,0,0,0,2.33,1.64,3.65,3.65,0,0,0,2.76-.83,13.47,13.47,0,0,0,1.57-2.16,61.18,61.18,0,0,1,4-5.19l1.32-1.59a16.53,16.53,0,0,1,1.36-1.49l1.64-1.48a13.58,13.58,0,0,0,1.52-1.49c.42-.58.85-1.24,1.29-2A6.66,6.66,0,0,0,915.9,992.82Z" transform="translate(-615.26 -694.2)"/></g><g id="pupil_0_Layer0_0_FILL" data-name="pupil 0 Layer0 0 FILL"><path d="M921.78,1022.08a15.14,15.14,0,0,0-10.22,13.74,14.41,14.41,0,0,0,3.13,9.73,1.17,1.17,0,0,1,.12.2l.84.93a17.26,17.26,0,0,0,2.24,2,15.31,15.31,0,0,0,8.47,2.83,14.91,14.91,0,0,0,11-4,14.87,14.87,0,0,0,.81-21.45,14.82,14.82,0,0,0-6.74-4.25,15.1,15.1,0,0,0-3.93-.59,10,10,0,0,0-1.22,0,15.32,15.32,0,0,0-4.54.83m-1.06,5.95a1.66,1.66,0,0,1,1.16.6,2,2,0,0,1,.46,1.28,4.94,4.94,0,0,1-1.09,2.49,34.38,34.38,0,0,1-2.38,2.89,2.09,2.09,0,0,1-.91.63.93.93,0,0,1-.91-.06,1.77,1.77,0,0,1-.71-.66,4.32,4.32,0,0,1-.38-1.83,4.59,4.59,0,0,1,.36-2.19,7.36,7.36,0,0,1,1.35-1.46,12.1,12.1,0,0,1,1.8-1.4A3.18,3.18,0,0,1,920.72,1028Z" transform="translate(-615.26 -694.2)"/><path class="cls-9" d="M921.88,1028.63a1.66,1.66,0,0,0-1.16-.6,3.18,3.18,0,0,0-1.25.29,12.1,12.1,0,0,0-1.8,1.4,7.36,7.36,0,0,0-1.35,1.46,4.59,4.59,0,0,0-.36,2.19,4.32,4.32,0,0,0,.38,1.83,1.77,1.77,0,0,0,.71.66.93.93,0,0,0,.91.06,2.09,2.09,0,0,0,.91-.63,34.38,34.38,0,0,0,2.38-2.89,4.94,4.94,0,0,0,1.09-2.49A2,2,0,0,0,921.88,1028.63Z" transform="translate(-615.26 -694.2)"/></g><g id="pupil02_0_Layer0_0_FILL" data-name="pupil02 0 Layer0 0 FILL"><path d="M842.81,1051.21a14.3,14.3,0,0,0-4.76,10.29,13.93,13.93,0,0,0,3.05,9.46,1.42,1.42,0,0,0,.14.23c.24.29.5.58.78.88a14.73,14.73,0,0,0,9.19,4.66c.41,0,.82.06,1.23.07a14.47,14.47,0,0,0,10.78-3.89,14.76,14.76,0,0,0-5.79-25,4.15,4.15,0,0,0-.48-.11,15.31,15.31,0,0,0-3.36-.52,6.69,6.69,0,0,0-1.18,0,14.56,14.56,0,0,0-9.6,3.85M847,1054a1.44,1.44,0,0,1,1.12.55,1.88,1.88,0,0,1,.44,1.21,4.84,4.84,0,0,1-1.06,2.43,24.72,24.72,0,0,1-2.31,2.83,2.08,2.08,0,0,1-.86.62,1,1,0,0,1-.88-.06,1.92,1.92,0,0,1-.72-.64,4,4,0,0,1-.37-1.78,4.15,4.15,0,0,1,.37-2.17,5.76,5.76,0,0,1,1.29-1.39,9.56,9.56,0,0,1,1.75-1.36A2.8,2.8,0,0,1,847,1054Z" transform="translate(-615.26 -694.2)"/><path class="cls-9" d="M848.1,1054.54A1.44,1.44,0,0,0,847,1054a2.8,2.8,0,0,0-1.23.24,9.56,9.56,0,0,0-1.75,1.36,5.76,5.76,0,0,0-1.29,1.39,4.15,4.15,0,0,0-.37,2.17,4,4,0,0,0,.37,1.78,1.92,1.92,0,0,0,.72.64,1,1,0,0,0,.88.06,2.08,2.08,0,0,0,.86-.62,24.72,24.72,0,0,0,2.31-2.83,4.84,4.84,0,0,0,1.06-2.43A1.88,1.88,0,0,0,848.1,1054.54Z" transform="translate(-615.26 -694.2)"/></g><g id="eyes_0_Layer0_0_FILL" data-name="eyes 0 Layer0 0 FILL"><path d="M790.25,1024.74a50.63,50.63,0,0,0-16.88,36.76,53.25,53.25,0,0,0,50.71,55.33A50.52,50.52,0,0,0,862,1102.94a52,52,0,0,0,12.72-17.78,52.68,52.68,0,0,0,4.16-18.94l.06-.1a52.22,52.22,0,0,0-4.84-24.62,53.85,53.85,0,0,0-9.12-13.42,52.81,52.81,0,0,0-74.76-3.34m-12,36.94a46.64,46.64,0,0,1,15.32-33.44,47.84,47.84,0,0,1,67.71,3,47.12,47.12,0,0,1,12.8,34.73l0,0a46.73,46.73,0,0,1-15.37,33.41A45.58,45.58,0,0,1,824.31,1112,46.39,46.39,0,0,1,791,1096.43h0a47.18,47.18,0,0,1-12.69-34.76M981.85,991A58,58,0,0,0,901,987.85q-17.34,15.82-18.33,39A53.7,53.7,0,0,0,898,1067.23q16.08,17.07,39.8,18a55.89,55.89,0,0,0,41-14.89,53.61,53.61,0,0,0,18.17-39q.91-23.24-15.13-40.3m-94.08,36.07q.78-21.13,16.66-35.53a52.86,52.86,0,0,1,73.78,2.85,50.68,50.68,0,0,1-2.86,72.36q-15.83,14.31-37.49,13.47a50.62,50.62,0,0,1-36.23-16.3A49,49,0,0,1,887.77,1027.06Z" transform="translate(-615.26 -694.2)"/></g><g id="mouth_0_Layer0_0_FILL" data-name="mouth 0 Layer0 0 FILL"><path d="M879.41,1141.66q0,.1-.09.09a1.52,1.52,0,0,0-1,.38,1.46,1.46,0,0,0-.57.83,2.11,2.11,0,0,0,.4,2,1.49,1.49,0,0,0,1.64.76,1.6,1.6,0,0,0,.91-.79,2.32,2.32,0,0,0,.43-1.25,1.8,1.8,0,0,0-.36-1.26,3.11,3.11,0,0,0-1.41-.75m9.91,9.33a2,2,0,0,0-1.73-1.33,1,1,0,0,1-.43.18,1.79,1.79,0,0,0-1.49,1.1,1.91,1.91,0,0,0,.12,1.88,2.67,2.67,0,0,0,.61.65,2.11,2.11,0,0,0,1.68.34,1.76,1.76,0,0,0,.91-.62,2.08,2.08,0,0,0,.33-2.2m-13-21.63a2,2,0,0,0-.92.44,1.84,1.84,0,0,0-.66,1.15,2.37,2.37,0,0,0,.14,1.34,2.6,2.6,0,0,0,2.11,1.56,1.54,1.54,0,0,0,.8,0,1.4,1.4,0,0,0,.74-.61,3.27,3.27,0,0,0,.73-1.77,2.15,2.15,0,0,0-.67-1.75,2.3,2.3,0,0,0-2.27-.38m-13.1,14.26A27.28,27.28,0,0,0,860,1146l-1.83,1.77a25.59,25.59,0,0,0-2.69,2.41,23.51,23.51,0,0,0-1.6,2.3c-1.43,2.39-2.38,4.08-2.84,5.09-.24.6-.55,1.54-.92,2.83-.21.73-.15,1.21.16,1.46a8.39,8.39,0,0,0,2.19-2c.19-.25.58-.82,1.16-1.72l3.27-5.45a10,10,0,0,1,1.33-1.81c.28-.3.73-.73,1.34-1.29a8.84,8.84,0,0,0,1.31-1.44c.58-.73,1-1.25,1.28-1.57s.79-.7,1.48-1.27l2.92-2.48c.7-.61,1.57-1.31,2.59-2.09q-.27-.17-.81.3a3,3,0,0,1-1,.55l-1.14.43a20.92,20.92,0,0,0-3,1.63m-24,7.86a29.53,29.53,0,0,1,6-6.91,51.16,51.16,0,0,1,8.19-5c2.12-1.1,3.39-1.73,3.8-1.89,1.42-.61,3.22-1.28,5.4-2l2.78-1a8.53,8.53,0,0,0,2-.88c-.29-.37-1-.4-2.16-.08-.53.11-1.18.22-1.94.33l-2,.21a24.72,24.72,0,0,0-5.75,1.7q-2.16.93-5.38,2.73a34.14,34.14,0,0,0-7.38,5,17.08,17.08,0,0,0-4.55,8.77,2.27,2.27,0,0,0,.88-1m15.56-26.2a58.9,58.9,0,0,0-7.18,1.18,75.46,75.46,0,0,0-8,2,39.14,39.14,0,0,0-9.41,4.44,41.2,41.2,0,0,0-7.76,6.38,75.67,75.67,0,0,1,13.8-7.79q10.82-4.39,25.71-4.17a32.53,32.53,0,0,1,6,.49,2.26,2.26,0,0,0,1,0,.72.72,0,0,0,.48-.26.4.4,0,0,0,.16-.44q-.08-.22-.51-.39a14,14,0,0,0-3.16-1,35.47,35.47,0,0,0-5.1-.46c-2.68-.11-4.71-.11-6.1,0m128.29,87.93a4.64,4.64,0,0,0,1.55-1.89l-8.44,3.61q-12.87,5.58-20.12,8c-1.61.56-3.49,1.13-5.62,1.71s-6.66,1.65-13.21,3.11c-4,.82-6.69,1.33-8,1.51a36.62,36.62,0,0,1-6.09.42,1.4,1.4,0,0,0-.81.21c-.3.16-.38.35-.23.57a41.87,41.87,0,0,0,10.5.09q3.19-.37,3.81-.39a33.89,33.89,0,0,0,3.75.16,22.61,22.61,0,0,0,3-.39,91.83,91.83,0,0,0,13.75-3.27c1-.33,2.42-.9,4.35-1.69q7.2-3,11.33-5.07a58.11,58.11,0,0,0,10.4-6.64m-36.5-83.58a2.65,2.65,0,0,0-.28-.69,2.54,2.54,0,0,0-.38-.63,3.35,3.35,0,0,0-1.23-.58c0,.08-.27.16-.68.22a1.44,1.44,0,0,0-.6.37,2.61,2.61,0,0,0-.59,1.2,1.94,1.94,0,0,0,.1,1.27,2.13,2.13,0,0,0,.54.68,1.94,1.94,0,0,0,1.11.42,2,2,0,0,0,1.11-.23,2.08,2.08,0,0,0,.76-.89,1.83,1.83,0,0,0,.14-1.14m-3.4-9.7a3.4,3.4,0,0,0,.16-1.19,2.22,2.22,0,0,0-.75-1.5,2.38,2.38,0,0,0-1.55-.67l-.09.09a1.85,1.85,0,0,0-1.57.61,2.45,2.45,0,0,0-.69,1.61,2.58,2.58,0,0,0,.32,1.42,2.33,2.33,0,0,0,1,1,2.38,2.38,0,0,0,1.41.25,1.89,1.89,0,0,0,1.24-.65,2.41,2.41,0,0,0,.57-1m48.8-16.47a10.11,10.11,0,0,0-3-1.37,28.92,28.92,0,0,0-3.31-.66,46.66,46.66,0,0,0-9.58-.59c-1.44.12-3.53.43-6.3.93a49.06,49.06,0,0,0-5.42,1.17,22,22,0,0,0-9.75,4.88,21.27,21.27,0,0,0-2.14,2.11c-.45.48-1.12,1.29-2,2.44-.24.33-.28.56-.12.68a8.72,8.72,0,0,0,2.55-1.84,20.59,20.59,0,0,1,5.41-3.68,26.37,26.37,0,0,1,4.56-1.46c1-.25,2.62-.57,4.75-.94a69.53,69.53,0,0,1,11.49-1.27l6.55.35a19.84,19.84,0,0,0,6.3-.75m62.62-69.94a13,13,0,0,0-.63,1.79,2.8,2.8,0,0,0-.19,1.47,1.34,1.34,0,0,0,.6.87,1.38,1.38,0,0,0,1,.32,4.16,4.16,0,0,0,1.38-.64q2.57-1.72,4.71-3.09l-.86,3a4.09,4.09,0,0,0-.16.7l-.07,0q-1.2,1.88-3.38,5.82a244.26,244.26,0,0,1-66.09,76,38.41,38.41,0,0,0-4.67-3.21,30.23,30.23,0,0,0-10.21-2.76,44.52,44.52,0,0,0-11.65.07,23.67,23.67,0,0,0-10.75,4.41,4.42,4.42,0,0,0,1.38-.3c.56-.27,1-.45,1.21-.55a4.41,4.41,0,0,1,1.52-.37l1.51-.14c.63-.1,1.56-.28,2.81-.53a44.11,44.11,0,0,1,15.21-.43,43.65,43.65,0,0,1,13.36,4,225.83,225.83,0,0,1-34.3,21.33,207.17,207.17,0,0,1-37.11,14.47,9.19,9.19,0,0,0-1-3.09l-4.89-10.67q-2.66-5.73-3.83-8.68a57.25,57.25,0,0,1-2.9-9q-.21-.73-.33-1.2c-.15-.74-.36-1.53-.6-2.37a13.87,13.87,0,0,0-2.68-5.28,1.78,1.78,0,0,0-1.24-.75,1.08,1.08,0,0,0-1,.62,2.08,2.08,0,0,0-.35,1.25,10.9,10.9,0,0,0,.57,2.73l1.12,3.25a16.78,16.78,0,0,0,.28,2.19c.17.82.52,2.13,1,3.94q3,9.75,4.63,13.9l1.34,3.18q2.6,6,4.67,10.34a5.65,5.65,0,0,0,.46.86,206,206,0,0,1-26.68,5q-36.69,4.41-68.68-5.11-22-6.51-33.24-18.16c-.52-.78-1-1.43-1.34-1.93a12.21,12.21,0,0,1,6-2.51c1-.07,1.66-.14,2.1-.19a6.75,6.75,0,0,0,2.1-.46,3.84,3.84,0,0,0,1.69-1.3,2.34,2.34,0,0,0,.4-2c-.28-1-1.18-1.74-2.69-2.14a13.09,13.09,0,0,0-7.9.41c-.56.19-1.12.41-1.69.64a4.45,4.45,0,0,0-1-.06,11.71,11.71,0,0,0-1.67.27q-1.18.33-1.71.51a12.24,12.24,0,0,0-2.17,1.07,8.59,8.59,0,0,0-2.51,2.31,4.87,4.87,0,0,0-.75,1.68,12.81,12.81,0,0,0-.73,4,10.45,10.45,0,0,0-.52,3.89,10.58,10.58,0,0,0,1.54,5.14c.74,1.16,1.54,1.66,2.39,1.5a2.22,2.22,0,0,0,1.51-1.46,10.63,10.63,0,0,0,.63-2.15l.41-2.2a12.18,12.18,0,0,1,1-2.69,97.61,97.61,0,0,0,13.44,19.18,222.51,222.51,0,0,0,18.63,18.4q7,6.24,11.35,9.7a142.27,142.27,0,0,0,29.35,18.16,126.81,126.81,0,0,0,33.06,10.14,147.14,147.14,0,0,0,37,.9,137.69,137.69,0,0,0,16.71-2.5q24.27-5.29,50.48-22.44c2.93-1.94,5.69-3.86,8.28-5.73s5.17-4.08,7.78-6.35a149.11,149.11,0,0,0,29.55-37q10.35-17.91,19.3-43.1,3-8.47,4.4-14.09.9-3.46,2.47-11.68,1.35-7.24,1.56-8.51,2.4-13.8,3.6-27.6a29.68,29.68,0,0,0,0-6.58c0-.19-.08-.36-.1-.52a4.37,4.37,0,0,1,1.26-.11,5.89,5.89,0,0,1,1.92.79q1.17.8,2.4,1.77a5.7,5.7,0,0,0,1.93,1.22,2.35,2.35,0,0,0,1.58-.27,2.53,2.53,0,0,0,1-1.12,3.31,3.31,0,0,0,0-3,7.38,7.38,0,0,0-1.89-2.48,14.26,14.26,0,0,0-3.57-2.47,8.88,8.88,0,0,0-3.59-.86,13.54,13.54,0,0,0-2.75.23,14.41,14.41,0,0,0-2.58.53,5.09,5.09,0,0,0-.83.36,21.55,21.55,0,0,0-3.58,2.3,15.58,15.58,0,0,0-4.66,5.09m4.88,18.18c-.17,1.18-.32,2.35-.46,3.51q-1.53,11-4,21.57a36.81,36.81,0,0,0-5.14-6.26,8.56,8.56,0,0,0-1.32-1.15q2.5-3.67,4.86-7.45,3.59-5.52,6-10.22m-13,20.72c.6,1.29,1.43,2.9,2.48,4.81a56.8,56.8,0,0,1,3.24,6.75c.16.35.36.87.61,1.57l.08.13q-2,7.13-4.26,14l-1.26,3.58-3.25-6.83a68.8,68.8,0,0,0-5.2-9.44c-.41-.61-.88-1.24-1.41-1.9l-.43-.48q4.89-6,9.4-12.24m-19.86,24.25q4.17-4.51,8.11-9.12c.5,1.14,1,2.29,1.52,3.42l7.16,15.77a17.3,17.3,0,0,0,1.09,2,2.84,2.84,0,0,0,.61.73q-4.06,10.29-8.89,19.92l-.17-.31-5-10.29c-.78-1.58-1.4-2.76-1.85-3.55q-.95-1.62-3.77-5.67l-3.18-4.4a14.08,14.08,0,0,0-1.85-2.14q3.17-3.11,6.26-6.39m-7.53,13.11c.76,1.32,2,3.29,3.62,5.88q1,1.78,2.91,5.64l1.51,3.08q3.11,6.33,4.08,8.81a10.67,10.67,0,0,0,1.08,2.11,3.49,3.49,0,0,0,.49.58c-1,1.85-2.12,3.71-3.22,5.56a181.25,181.25,0,0,1-10.32,15.42l-1.76-3.74q-4.2-8.7-5.14-10.54a141.06,141.06,0,0,0-11.12-19.31,17.51,17.51,0,0,0-1.59-1.89q9.18-7.23,17.67-15.37a23.59,23.59,0,0,0,1.79,3.77m-64.46,39.33q7.13-3.36,14.06-7.23a8.43,8.43,0,0,0,.52,1.14c1.07,2,2.81,5.56,5.22,10.8q4.05,8.75,6.18,13.74,3.28,7.61,5.55,14l1.28,3.55c.21.56.42,1.07.63,1.52-1.06.71-2.17,1.43-3.31,2.16a189.59,189.59,0,0,1-18.65,10.46c-1.25.64-2.49,1.23-3.73,1.77l-.19-.52q-1.31-3.45-4.08-9.16-3.25-6.6-4.32-9.09l-3.22-8.29q-3-8.06-7.16-16.57c-.57-1.14-1.08-2.06-1.51-2.77q6.4-2.53,12.73-5.5m38.61-22.92c1.11-.79,2.21-1.6,3.3-2.42a6.42,6.42,0,0,0,.34.71c.19.42.77,1.43,1.73,3a145.15,145.15,0,0,1,7,14.56l7.9,18.07a14.94,14.94,0,0,0,1.27,2.37,121.9,121.9,0,0,1-20.82,20,1.38,1.38,0,0,1-.23.16q-1.24-3.75-4-10.37-4.54-10.93-7-16a84.71,84.71,0,0,0-9.13-14.9,15.35,15.35,0,0,0-1.26-1.54,225.84,225.84,0,0,0,20.88-13.64m-192.16,31.35c-1.73-1.81-3.37-3.62-4.91-5.41a82.76,82.76,0,0,0,10.14,5.36q4.26,2,8.66,3.51a1.91,1.91,0,0,1,0,.2,60.55,60.55,0,0,0,1.16,6.49l.51,1.62c.41,1.43.86,2.83,1.35,4.18q-10.39-9.15-16.93-16m19.75,6.51c-.09-.39-.19-.77-.29-1.13a135.11,135.11,0,0,0,14.12,3.65,12.78,12.78,0,0,0,.33,2.2l2.22,9.54a55.81,55.81,0,0,0,1.52,5.67c.28.8.72,1.94,1.34,3.44L842,1192a143.85,143.85,0,0,1-14.4-10.29c-.34-.26-.71-.58-1.12-1l-2.81-7.59c-1-2.8-1.92-5.83-2.81-9.09m83.87,1.73q3.82-.77,7.62-1.68a222.57,222.57,0,0,0,25.94-8,80.78,80.78,0,0,0,3.3,11.26q1.5,4.14,4.82,11.86l5.53,13.11q2.52,5.89,3.58,9a14.49,14.49,0,0,0,.93,2.24,99.82,99.82,0,0,1-10.21,3.45,118.2,118.2,0,0,1-21.71,3.8,12.63,12.63,0,0,0-1-1.87,116.18,116.18,0,0,1-7.84-15.28q-2.85-6.69-6.06-16.18-1.54-4.56-2.27-6.43a38,38,0,0,0-2.59-5.19m-3.42.72,0,.29a81.11,81.11,0,0,0,2.05,9.41q.82,3.09,2.74,9.26,2.92,9.48,4.89,14.25a60.14,60.14,0,0,0,6.12,11.48q-4.11.15-8.41.2-7.46-.09-13-.55c-2.72-.24-5.42-.59-8.11-1.07a6.19,6.19,0,0,0-.39-.63c-.15-.24-.56-.75-1.2-1.52a31.85,31.85,0,0,1-4.37-7.12q-.72-1.43-2.94-6.59-6.69-15.72-9.36-23.87c0-.15-.1-.29-.13-.41a188.69,188.69,0,0,0,32.12-3.13m-36.08,3.16a22.8,22.8,0,0,0,.52,3.7c.23,1,.64,2.39,1.22,4.2q3.18,9.69,5.64,15.79a126,126,0,0,0,6.94,14.78,125.58,125.58,0,0,1-20-6.88q-5-2.22-9.92-4.86l-2.22-5a78.86,78.86,0,0,1-4.08-10.48c-.21-.66-.47-1.68-.8-3.07l-1.38-5.74q-.66-2.65-1-4.53a172.19,172.19,0,0,0,17.44,1.83c2.54.15,5.09.23,7.63.26m111.54-85.54a81.27,81.27,0,0,0-9.74,4.08c-2.47,1.2-4.29,2.13-5.45,2.77a43.63,43.63,0,0,0-5.18,3.2,36.15,36.15,0,0,0-5,4.45,17.59,17.59,0,0,0-3.42,5.09c-.19.52-.37.93-.52,1.25a2.17,2.17,0,0,1-.29.46c-.32.44-.49.68-.5.71a.36.36,0,0,0,.1.43.23.23,0,0,0,.3.15,2.85,2.85,0,0,1,.51-.53c.66-.86,1.16-1.54,1.51-2l1.53-2c.38-.41.89-.88,1.53-1.44a60,60,0,0,1,9.8-6.62c1.49-.8,3.22-1.68,5.21-2.65l5-2.18a63.22,63.22,0,0,1,6.67-2.63l4.9-1.42c.74-.25,2.11-.8,4.1-1.65,0-.21-.23-.38-.71-.51a24.17,24.17,0,0,0-10.32,1.09m-45.08,23.53a2.2,2.2,0,0,0-1.27.1,1.68,1.68,0,0,0-.91.71,1.94,1.94,0,0,0-.33,1.19,2.18,2.18,0,0,0,.39,1.16,2.13,2.13,0,0,0,1.82.84,2,2,0,0,0,1.88-1.27,1.83,1.83,0,0,0-.16-1.72A2.16,2.16,0,0,0,931.66,1107.65Z" transform="translate(-615.26 -694.2)"/><path class="cls-9" d="M865.72,1173.36a22.8,22.8,0,0,1-.52-3.7c-2.54,0-5.09-.11-7.63-.26a172.19,172.19,0,0,1-17.44-1.83q.3,1.88,1,4.53l1.38,5.74c.33,1.39.59,2.41.8,3.07a78.86,78.86,0,0,0,4.08,10.48l2.22,5q4.9,2.64,9.92,4.86a125.58,125.58,0,0,0,20,6.88,126,126,0,0,1-6.94-14.78q-2.46-6.11-5.64-15.79c-.58-1.81-1-3.21-1.22-4.2m35.59-6.57,0-.29a188.69,188.69,0,0,1-32.12,3.13c0,.12.08.26.13.41q2.67,8.16,9.36,23.87,2.22,5.16,2.94,6.59a31.85,31.85,0,0,0,4.37,7.12c.64.77,1,1.28,1.2,1.52a6.19,6.19,0,0,1,.39.63c2.69.48,5.39.83,8.11,1.07q5.58.47,13,.55,4.31,0,8.41-.2a60.14,60.14,0,0,1-6.12-11.48q-2-4.77-4.89-14.25-1.92-6.17-2.74-9.26a81.11,81.11,0,0,1-2.05-9.41m11-2.69q-3.8.92-7.62,1.68a38,38,0,0,1,2.59,5.19q.72,1.88,2.27,6.43,3.21,9.49,6.06,16.18a116.18,116.18,0,0,0,7.84,15.28,12.63,12.63,0,0,1,1,1.87,118.2,118.2,0,0,0,21.71-3.8,99.82,99.82,0,0,0,10.21-3.45,14.49,14.49,0,0,1-.93-2.24q-1.07-3.06-3.58-9l-5.53-13.11q-3.32-7.73-4.82-11.86a80.78,80.78,0,0,1-3.3-11.26,222.57,222.57,0,0,1-25.94,8m-91.78-1.18c.1.36.2.74.29,1.13.89,3.26,1.82,6.29,2.81,9.09l2.81,7.59c.41.37.78.69,1.12,1A143.85,143.85,0,0,0,842,1192l-1.9-4.55c-.62-1.5-1.06-2.64-1.34-3.44a55.81,55.81,0,0,1-1.52-5.67l-2.22-9.54a12.78,12.78,0,0,1-.33-2.2,135.11,135.11,0,0,1-14.12-3.65m-24.37-10.79c1.54,1.79,3.18,3.6,4.91,5.41q6.54,6.8,16.93,16c-.49-1.35-.94-2.75-1.35-4.18l-.51-1.62a60.55,60.55,0,0,1-1.16-6.49,1.91,1.91,0,0,0,0-.2q-4.4-1.55-8.66-3.51a82.76,82.76,0,0,1-10.14-5.36m200.37-28.36c-1.09.82-2.19,1.63-3.3,2.42a225.84,225.84,0,0,1-20.88,13.64,15.35,15.35,0,0,1,1.26,1.54,84.71,84.71,0,0,1,9.13,14.9q2.5,5.12,7,16,2.75,6.63,4,10.37a1.38,1.38,0,0,0,.23-.16,121.9,121.9,0,0,0,20.82-20,14.94,14.94,0,0,1-1.27-2.37l-7.9-18.07a145.15,145.15,0,0,0-7-14.56c-1-1.57-1.54-2.58-1.73-3a6.42,6.42,0,0,1-.34-.71m-27.85,18.11q-6.95,3.87-14.06,7.23-6.32,3-12.73,5.5c.43.71.94,1.63,1.51,2.77q4.14,8.5,7.16,16.57l3.22,8.29q1.07,2.49,4.32,9.09,2.77,5.72,4.08,9.16l.19.52c1.24-.54,2.48-1.13,3.73-1.77a189.59,189.59,0,0,0,18.65-10.46c1.14-.73,2.25-1.45,3.31-2.16-.21-.45-.42-1-.63-1.52l-1.28-3.55q-2.25-6.39-5.55-14-2.15-5-6.18-13.74c-2.41-5.24-4.15-8.85-5.22-10.8a8.43,8.43,0,0,1-.52-1.14m54-26.22c-1.65-2.59-2.86-4.56-3.62-5.88a23.59,23.59,0,0,1-1.79-3.77q-8.49,8.15-17.67,15.37a17.51,17.51,0,0,1,1.59,1.89,141.06,141.06,0,0,1,11.12,19.31q.95,1.85,5.14,10.54l1.76,3.74a181.25,181.25,0,0,0,10.32-15.42c1.1-1.85,2.17-3.71,3.22-5.56a3.49,3.49,0,0,1-.49-.58,10.67,10.67,0,0,1-1.08-2.11q-1-2.49-4.08-8.81l-1.51-3.08q-1.87-3.85-2.91-5.64m12-28.11q-3.95,4.6-8.11,9.12-3.1,3.28-6.26,6.39a14.08,14.08,0,0,1,1.85,2.14l3.18,4.4q2.82,4.05,3.77,5.67c.45.79,1.07,2,1.85,3.55l5,10.29.17.31q4.83-9.64,8.89-19.92a2.84,2.84,0,0,1-.61-.73,17.3,17.3,0,0,1-1.09-2l-7.16-15.77c-.52-1.13-1-2.28-1.52-3.42m14.23-10.32c-1-1.91-1.88-3.52-2.48-4.81q-4.5,6.28-9.4,12.24l.43.48c.53.66,1,1.29,1.41,1.9a68.8,68.8,0,0,1,5.2,9.44l3.25,6.83,1.26-3.58q2.31-6.93,4.26-14l-.08-.13c-.25-.7-.45-1.22-.61-1.57a56.8,56.8,0,0,0-3.24-6.75m10.11-22c.14-1.16.29-2.33.46-3.51q-2.43,4.69-6,10.22-2.35,3.78-4.86,7.45a8.56,8.56,0,0,1,1.32,1.15,36.81,36.81,0,0,1,5.14,6.26Q1057.54,1066.18,1059.07,1055.21Z" transform="translate(-615.26 -694.2)"/></g><g id="nose_0_Layer0_0_FILL" data-name="nose 0 Layer0 0 FILL"><path class="cls-10" d="M902.72,1084.83a48.63,48.63,0,0,0-10,2.15c-3.47,1.12-5.86,2-7.18,2.51l-5,2.2a21.89,21.89,0,0,0-6.09,4.39,62.55,62.55,0,0,0-5.37,5.82,10.17,10.17,0,0,0-1,3.56,8.26,8.26,0,0,0,.15,3.27,5.44,5.44,0,0,0,2.11,3.38,51.53,51.53,0,0,0,6.19,4.5,30.77,30.77,0,0,0,6.7,3c2.38.7,4.69,1.41,7,2.12a43.86,43.86,0,0,0,4.92.86,13.64,13.64,0,0,0,3.27-.24,11.12,11.12,0,0,0,3.43-.68,13.73,13.73,0,0,0,6.45-4q1.76-2,3.47-4a55.64,55.64,0,0,0,4.4-6.23,31.22,31.22,0,0,0,2.82-6.71,26.09,26.09,0,0,0,.47-2.59,24.9,24.9,0,0,0,.16-2.52,17.82,17.82,0,0,0-.15-5.17,5.36,5.36,0,0,0-1.47-2.92,10.78,10.78,0,0,0-7.49-2.89,43.44,43.44,0,0,0-7.8.19M884,1116.93a6.22,6.22,0,0,0-2.79-.36l-1.55.07a2.09,2.09,0,0,1-1.35-.47,1.78,1.78,0,0,1-.54-2,3.06,3.06,0,0,1,2-2.26,7.64,7.64,0,0,1,3-.57,9.33,9.33,0,0,1,3.71.59A11.27,11.27,0,0,1,890,1115a4.94,4.94,0,0,1,1.15,2.08,3.33,3.33,0,0,1-.13,1.57c-.36,1.43-.92,2.21-1.67,2.35a1.93,1.93,0,0,1-1.85-.83c-.51-.79-.9-1.37-1.19-1.74a4.85,4.85,0,0,0-2.31-1.51m28.47-17.29a3,3,0,0,1,2.57.27,2.89,2.89,0,0,1,1.55,2.08,5.43,5.43,0,0,1-1.13,3.92c-.54.75-.94,1.33-1.19,1.73a8,8,0,0,0-.92,1.86c-.07.3-.17.78-.29,1.43a4,4,0,0,1-.5,1.38,2.53,2.53,0,0,1-2.06,1.27,2.39,2.39,0,0,1-2.22-1,4.75,4.75,0,0,1-.81-2.84,11.61,11.61,0,0,1,.5-4.19,14,14,0,0,1,1.66-3.18,14.75,14.75,0,0,1,1.22-1.62A3.91,3.91,0,0,1,912.42,1099.64Z" transform="translate(-615.26 -694.2)"/><path d="M915,1099.91a3,3,0,0,0-2.57-.27,3.91,3.91,0,0,0-1.62,1.09,14.75,14.75,0,0,0-1.22,1.62,14,14,0,0,0-1.66,3.18,11.61,11.61,0,0,0-.5,4.19,4.75,4.75,0,0,0,.81,2.84,2.39,2.39,0,0,0,2.22,1,2.53,2.53,0,0,0,2.06-1.27,4,4,0,0,0,.5-1.38c.12-.65.22-1.13.29-1.43a8,8,0,0,1,.92-1.86c.25-.4.65-1,1.19-1.73a5.43,5.43,0,0,0,1.13-3.92,2.89,2.89,0,0,0-1.55-2.08m-33.83,16.66a6.22,6.22,0,0,1,2.79.36,4.85,4.85,0,0,1,2.31,1.51c.29.37.68,1,1.19,1.74a1.93,1.93,0,0,0,1.85.83c.75-.14,1.31-.92,1.67-2.35a3.33,3.33,0,0,0,.13-1.57A4.94,4.94,0,0,0,890,1115a11.27,11.27,0,0,0-3.46-3.09,9.33,9.33,0,0,0-3.71-.59,7.64,7.64,0,0,0-3,.57,3.06,3.06,0,0,0-2,2.26,1.78,1.78,0,0,0,.54,2,2.09,2.09,0,0,0,1.35.47Z" transform="translate(-615.26 -694.2)"/></g><path id="nose_0_Layer0_0_1_STROKES" data-name="nose 0 Layer0 0 1 STROKES" class="cls-11" d="M869.11,1101.9a62.55,62.55,0,0,1,5.37-5.82,21.89,21.89,0,0,1,6.09-4.39l5-2.2c1.32-.56,3.71-1.39,7.18-2.51a48.63,48.63,0,0,1,10-2.15,43.44,43.44,0,0,1,7.8-.19,10.78,10.78,0,0,1,7.49,2.89,5.36,5.36,0,0,1,1.47,2.92,17.82,17.82,0,0,1,.15,5.17,24.9,24.9,0,0,1-.16,2.52,26.09,26.09,0,0,1-.47,2.59,31.22,31.22,0,0,1-2.82,6.71,55.64,55.64,0,0,1-4.4,6.23q-1.71,2-3.47,4a13.73,13.73,0,0,1-6.45,4,11.12,11.12,0,0,1-3.43.68,13.64,13.64,0,0,1-3.27.24,43.86,43.86,0,0,1-4.92-.86c-2.26-.71-4.57-1.42-7-2.12a30.77,30.77,0,0,1-6.7-3,51.53,51.53,0,0,1-6.19-4.5,5.44,5.44,0,0,1-2.11-3.38,8.26,8.26,0,0,1-.15-3.27A10.17,10.17,0,0,1,869.11,1101.9Z" transform="translate(-615.26 -694.2)"/></svg>