<?xml version="1.0" encoding="utf-8"?>
<!-- Generator: Adobe Illustrator 26.0.3, SVG Export Plug-In . SVG Version: 6.00 Build 0)  -->
<svg version="1.1" id="Layer_1" xmlns="http://www.w3.org/2000/svg" xmlns:xlink="http://www.w3.org/1999/xlink" x="0px" y="0px"
	 viewBox="0 0 1920 1080" style="enable-background:new 0 0 1920 1080;" xml:space="preserve">
<style type="text/css">
	.st0{opacity:0.99;}
	.st1{stroke:#000000;stroke-width:10.2437;stroke-miterlimit:10;}
	.st2{fill:#EFBB0A;}
	.st3{fill:#E1AB24;}
	.st4{fill:#EBB610;}
	.st5{fill:#E2AE17;}
	.st6{fill:#E2A81D;}
	.st7{fill:#E4AD16;}
	.st8{fill:#DEB314;}
	.st9{fill:#E7F0FF;}
</style>
<g>
	<g class="st0">
		<path class="st1" d="M929.02,898.26c-43.59,0.22-87.16-1.19-130.68-3.38c-32.24-1.62-64.42-4.17-96.42-8.55
			c-31.64-4.33-62.97-10.16-93.12-21.13c-17.77-6.47-34.62-14.68-50-25.78c-26.19-18.92-43.32-44.44-54.35-74.43
			c-8.27-22.46-13.4-45.7-17.3-69.26c-6.19-37.57-9.22-75.44-11.02-113.43c-1.7-35.84-2.39-71.69-0.69-107.54
			c1.8-38.38,5.6-76.51,15.92-113.72c7.62-27.51,20.4-52.33,38.18-74.6c16.2-20.31,37.01-34.2,61.08-43.33
			c21.67-8.21,44.34-12.83,67.01-17.22c24.28-4.71,48.72-8.49,73.24-11.62c17.96-2.3,35.94-4.23,53.97-5.94
			c28.57-2.72,57.19-4.62,85.84-5.99c33.5-1.58,67.02-2.62,100.56-2.62c23.14,0,46.27,0.03,69.41,0.26
			c25.83,0.25,51.63,1.4,77.41,2.81c22.39,1.23,44.71,3.07,66.96,5.77c42.44,5.12,84.26,12.92,124.18,28.92
			c21.75,8.71,42.12,19.84,60.66,34.21c33.63,26.08,55.95,60.06,69.76,99.96c8.24,23.78,13.45,48.29,17.27,73.11
			c5.05,32.81,7.98,65.84,10.01,98.97c1.95,31.7,2.99,63.42,2.5,95.16c-0.45,29.78-2.31,59.47-8.15,88.78
			c-4.11,20.66-10.24,40.64-19.99,59.4c-18.12,34.86-46.35,58.23-82.48,72.66c-21.42,8.55-43.74,13.64-66.47,17.12
			c-29.79,4.55-59.84,6.75-89.9,8.71c-31.3,2.05-62.6,4.26-93.92,6.13c-33.64,2-67.3,3.94-100.99,5.03
			C981.38,897.58,955.2,898.15,929.02,898.26z"/>
		<path d="M612.15,240.78c8.69-3.42,17.87-5.15,26.93-7.19c26.77-6,53.78-10.55,80.93-14.44c31.59-4.55,63.32-7.9,95.12-10.39
			c20.91-1.64,41.85-2.75,62.82-3.69c54.5-2.43,109.01-2.65,163.52-1.54c29.05,0.59,58.07,1.83,87.04,4.01
			c46.7,3.53,93.13,8.9,138.45,21.35c24.28,6.67,47.68,15.56,69.75,27.78c46.57,25.81,78.48,63.96,96.35,114.03
			c8.17,22.87,13.52,46.43,17.36,70.35c5.75,35.79,8.97,71.84,11.06,108.03c2.12,36.54,3.15,73.1,1.7,109.68
			c-0.95,24.2-3.2,48.29-8.4,72.03c-0.22,1.04-0.63,2.03-0.95,3.04c-0.53,3.57-3.1,5.44-5.97,6.94
			c-27.86,14.41-55.58,29.03-85.29,39.57c-54.73,19.39-111.09,31.23-168.63,37.93c-22.24,2.59-44.55,4.16-66.92,5.39
			c-31.02,1.71-62.03,1.1-93.03,0.61c-21.26-0.32-42.54-2.14-63.79-3.79c-37.55-2.93-74.9-7.49-112.08-13.29
			c-32.96-5.14-65.96-10.64-98.05-19.77c-39.31-11.18-74.69-29.82-104.33-58.8c-34.45-33.7-61.48-72.77-85.18-114.35
			c-16.76-29.37-28.24-60.76-34.48-94.02c-5.18-27.58-7.8-55.46-6.04-83.47c1.21-19.32,4.73-38.44,9.01-57.35
			c4.87-21.53,9.94-43.05,18.6-63.41c10.98-25.81,26.63-48.69,45.75-69.22C605.89,244.1,608.76,242.08,612.15,240.78z"/>
		<path d="M612.15,240.78c-8.12,6.57-14.84,14.43-21.15,22.67c-10.58,13.79-20,28.27-27.88,43.81c-5.78,11.41-9.66,23.49-13.2,35.65
			c-3.42,11.81-6.66,23.69-9.18,35.77c-2.43,11.68-4.84,23.34-6.28,35.21c-0.82,6.7-2.06,13.36-3,20.05
			c-0.26,1.93-0.15,3.94-0.15,5.91c-0.01,9.86-0.28,19.74,0.09,29.59c0.32,9.06,1.46,18.07,2.69,27.09
			c1.13,8.28,2.15,16.61,3.75,24.8c4,20.56,9.85,40.55,18.23,59.81c4.08,9.37,8.18,18.69,12.92,27.73
			c9.06,17.3,19.9,33.5,30.86,49.61c8.22,12.1,16.67,24.07,25.84,35.49c11.91,14.81,25.23,28.38,39.15,41.25
			c11.68,10.81,24.91,19.65,38.96,27.28c15.44,8.4,31.4,15.56,48.03,21.16c12.51,4.21,25.52,6.63,38.46,9.29
			c9.42,1.93,18.82,4,28.26,5.82c9.09,1.76,18.22,3.25,27.32,4.92c12.44,2.28,24.97,3.88,37.49,5.49c11.99,1.55,23.91,3.78,35.93,5
			c5.12,0.53,10.26,1.23,15.44,1.45c4.96,0.2,9.91,1.02,14.82,1.77c4.05,0.61,8.21,0.8,12.23,1.04c6.76,0.38,13.57,0.89,20.27,1.6
			c8.52,0.89,17.15,0,25.58,1.84c0.51,0.12,1.07,0.07,1.61,0.1c36.35,1.58,72.72,1.38,109.08,0.91c12.26-0.16,24.58-1.23,36.85-2.09
			c8.17-0.57,16.3-1.57,24.48-2.15c7.26-0.51,14.41-2.33,21.67-2.9c9.25-0.73,18.37-2.41,27.54-3.6
			c10.58-1.36,21.09-3.44,31.55-5.56c16.59-3.38,33.16-6.89,49.49-11.39c11.53-3.16,22.96-6.66,34.35-10.35
			c13.61-4.4,27.1-9.12,40.27-14.65c12.85-5.4,25.65-10.93,37.81-17.9c6.18-3.53,12.29-7.27,19.05-9.83
			c4.76-1.81,9.37-4.23,12.47-8.62c-1.58,10.51-5.05,20.49-8.74,30.38c-10.38,27.86-26.72,51.39-50.91,69.09
			c-19.65,14.39-41.79,23.39-65.16,29.62c-0.67,0.18-1.42,0.07-2.12,0.1c-8.24,0.34-16.1,2.96-24.2,4.07
			c-15.72,2.18-31.39,4.62-47.22,6.15c-19.36,1.87-38.75,3.32-58.13,4.9c-9.26,0.76-18.54,1.13-27.18,1.48
			c3.61,1.23,8.17-2.12,12.37,0.64c-5.4,1.23-10.89,1.08-16.38,1.01c-2.66-1.52-5.6-0.04-8.36-0.72c2.49,0.53,5.19-0.75,7.55,0.86
			c-7.77,1.36-15.64,1.24-23.47,1.76c-28.71,1.86-57.45,3.57-86.18,5.17c-14.63,0.8-29.3,1.26-43.95,1.84
			c-0.88,0.03-1.77-0.16-2.65-0.25c-0.1-2.44,1.65-1.48,2.84-1.67c-6.75,0.91-13.54,0.28-19.42,0.48
			c4.58,1.01,10.33-1.76,15.63,1.35c-4.77,1.07-9.63,0.61-14.44,0.76c-33.15,0.94-66.31,1.39-99.47,0.85
			c-31.01-0.5-62-1.27-92.97-3.04c-32.56-1.87-65.08-4.35-97.43-8.56c-1.23-0.16-2.43-0.56-3.63-0.85c2.2-2.4,4.51-0.48,6.8-0.72
			c-9.57,0.67-18.45-4.99-28.23-2.66c-8.06-0.63-15.88-2.63-23.75-4.35c-23.53-5.11-46.42-12.18-68.12-22.83
			c-38.02-18.69-63.28-48.44-77.28-88.2c-8.14-23.09-13.27-46.87-17.06-70.97c-5.37-34.21-8.21-68.66-9.97-103.24
			c-1.71-33.67-2.52-67.36-1.48-101.08c1-32.09,3.51-64.07,9.41-95.69c0.16-0.86,0.57-1.67,0.86-2.5c0.6,0.51,0.72,1.17,0.61,1.92
			c0.29-0.13,0.2-0.44,0.25-0.66c2.46-13.13,6.56-25.83,9.85-38.74c0.26-1.01,0.5-2.08,0.15-3.16c2.14-8.18,5.66-15.8,9.67-23.17
			c11.02-20.24,23.93-39.06,41.98-53.79c11.4-9.31,23.39-17.69,37.74-21.97c3,0.95,5.22-0.32,7.11-2.52
			C603.05,242.91,607.45,241.36,612.15,240.78z"/>
		<path d="M1182.54,880.23c-4.62,0-9.26,0-13.89,0c3.25-1.77,6.82-1.73,10.1-1.96c5.69-0.41,11.34-1.26,17.05-1.6
			c6.73-0.4,13.54-0.4,20.19-1.79c1.21-0.25,2.5-0.18,3.75-0.19c7.49-0.09,14.9-1.23,22.35-1.92c4.96-0.45,9.95-1.08,14.91-1.23
			c7.7-0.2,15.18-2.03,22.81-2.66c6.19-0.51,12.28-2,18.45-2.75c7.79-0.95,15.48-2.34,23.15-3.89c1.96-0.4,3.85-1.04,5.49,0.73
			l-0.19-0.04c-1,0.79-2.44,0.04-3.38,1.01l-0.22,0.22l-0.28-0.15c-1.45,0.91-3.34-0.22-4.7,1.05h-0.04
			c-1.33,1.01-3.18-0.16-4.46,1.05l-0.22,0.2l-0.25-0.16c-1.52,0.89-3.47-0.18-4.92,1.05c-7.19,2.28-14.66,3.09-22.07,4.13
			c-28.35,3.95-56.87,6.15-85.42,7.95C1194.67,879.68,1188.63,880.4,1182.54,880.23z"/>
		<path d="M502.28,346.35c1.29,0.88,1.1,2.12,0.83,3.38c-2.78,13.27-6.8,26.22-10.33,39.31c-0.13,0.5-0.4,0.95-0.63,1.51
			c-1.11-1.1-0.42-2.43-0.75-3.54c1.52-11.53,4.79-22.64,8.21-33.69C500.35,350.94,500.8,348.44,502.28,346.35z"/>
		<path d="M678.78,875.83c0.15-1.49,1-2.11,2.47-2.2c3.22-0.2,6.34,0.31,9.47,1.01c5.65,1.27,11.33,2.36,16.99,4.16
			c-2.5,0.13-5,0.26-7.49,0.41C692.97,878.71,685.82,877.63,678.78,875.83z"/>
		<path d="M1008.16,890.05c-7.24,0-14.47,0-21.91,0c0.63-2.82,2.28-2.41,3.6-2.41c7.81-0.04,15.64-0.03,23.93-0.03
			c-1.38,1.84-3.89,0.34-4.67,2.28l-0.45,0.23L1008.16,890.05z"/>
		<path d="M598.79,244.9c-1.4,4.23-3.94,5.12-7.11,2.52C593.87,246.1,596.2,245.15,598.79,244.9z"/>
		<path d="M1165.37,881.39c-2.88-0.18-5.77-0.35-8.65-0.53c3.19-0.4,6.47-1.86,9.47,0.4l-0.38,0.22L1165.37,881.39z"/>
		<path d="M1318.12,865.09c1.24-1.76,3.06-1.04,4.7-1.04C1321.43,865.19,1319.82,865.32,1318.12,865.09z"/>
		<path d="M1313.61,866.14c1.2-1.55,2.87-1.14,4.46-1.05C1316.8,866.36,1315.21,866.26,1313.61,866.14z"/>
		<path d="M1308.23,867.24c1.36-1.64,3.19-1.11,4.92-1.04C1311.68,867.39,1309.97,867.4,1308.23,867.24z"/>
		<path d="M1323.33,863.96c0.86-1.24,2.11-1.19,3.38-1.01C1325.86,864.2,1324.57,864.05,1323.33,863.96z"/>
		<path d="M1214.43,233.61c9.72,0.48,18.76,1.79,27.61,4.07c16.8,4.33,33.7,8.37,50.14,13.93c23.17,7.84,44.17,19.52,61.93,36.57
			c1.93,1.86,3.75,3.86,5.37,6c3.1,4.08,3.54,7.23,1.49,9.79c-2.58,3.22-5.96,2.8-9.34,1.7c-2.72-0.88-5.44-1.8-8.05-2.99
			c-11.87-5.46-23.71-11-35.53-16.55c-23.11-10.86-47.4-18.23-71.94-24.91c-7.24-1.98-14.5-4-21.32-7.24
			c-3.41-1.62-6.73-3.44-9.41-6.12c-2.2-2.2-3.98-4.8-3.01-8.14c1.02-3.56,3.92-4.9,7.29-5.46
			C1211.43,233.94,1213.21,233.77,1214.43,233.61z"/>
		<path d="M1411.85,350.12c0.03,4.1-1.01,7.2-4.38,9.07c-3.29,1.83-6.25,0.57-9.06-1.19c-2.46-1.52-4.43-3.61-6.34-5.75
			c-5.85-6.56-10.84-13.76-15.53-21.18c-0.95-1.49-1.79-3.15-2.3-4.83c-0.85-2.81-1.13-5.77,1.39-7.96c2.49-2.18,5.4-1.77,8.03-0.35
			c5.03,2.71,10.07,5.44,14.43,9.22c4.93,4.26,8.96,9.22,11.68,15.19C1410.99,344.96,1411.91,347.66,1411.85,350.12z"/>
	</g>
	<g>
		<g>
			<path class="st1" d="M905.02,881.26c-43.59,0.22-87.16-1.19-130.68-3.38c-32.24-1.62-64.42-4.17-96.42-8.55
				c-31.64-4.33-62.97-10.16-93.12-21.13c-17.77-6.47-34.62-14.68-50-25.78c-26.19-18.92-43.32-44.44-54.35-74.43
				c-8.27-22.46-13.4-45.7-17.3-69.26c-6.19-37.57-9.22-75.44-11.02-113.43c-1.7-35.84-2.39-71.69-0.69-107.54
				c1.8-38.38,5.6-76.51,15.92-113.72c7.62-27.51,20.4-52.33,38.18-74.6c16.2-20.31,37.01-34.2,61.08-43.33
				c21.67-8.21,44.34-12.83,67.01-17.22c24.28-4.71,48.72-8.49,73.24-11.62c17.96-2.3,35.94-4.23,53.97-5.94
				c28.57-2.72,57.19-4.62,85.84-5.99c33.5-1.58,67.02-2.62,100.56-2.62c23.14,0,46.27,0.03,69.41,0.26
				c25.83,0.25,51.63,1.4,77.41,2.81c22.39,1.23,44.71,3.07,66.96,5.77c42.44,5.12,84.26,12.92,124.18,28.92
				c21.75,8.71,42.12,19.84,60.66,34.21c33.63,26.08,55.95,60.06,69.76,99.96c8.24,23.78,13.45,48.29,17.27,73.11
				c5.05,32.81,7.98,65.84,10.01,98.97c1.95,31.7,2.99,63.42,2.5,95.16c-0.45,29.78-2.31,59.47-8.15,88.78
				c-4.11,20.66-10.24,40.64-19.99,59.4c-18.12,34.86-46.35,58.23-82.48,72.66c-21.42,8.55-43.74,13.64-66.47,17.12
				c-29.79,4.55-59.84,6.75-89.9,8.71c-31.3,2.05-62.6,4.26-93.92,6.13c-33.64,2-67.3,3.94-100.99,5.03
				C957.38,880.58,931.2,881.15,905.02,881.26z"/>
			<path class="st2" d="M588.15,223.78c8.69-3.42,17.87-5.15,26.93-7.19c26.77-6,53.78-10.55,80.93-14.44
				c31.59-4.55,63.32-7.9,95.12-10.39c20.91-1.64,41.85-2.75,62.82-3.69c54.5-2.43,109.01-2.65,163.52-1.54
				c29.05,0.59,58.07,1.83,87.04,4.01c46.7,3.53,93.13,8.9,138.45,21.35c24.28,6.67,47.68,15.56,69.75,27.78
				c46.57,25.81,78.48,63.96,96.35,114.03c8.17,22.87,13.52,46.43,17.36,70.35c5.75,35.79,8.97,71.84,11.06,108.03
				c2.12,36.54,3.15,73.1,1.7,109.68c-0.95,24.2-3.2,48.29-8.4,72.03c-0.22,1.04-0.63,2.03-0.95,3.04c-0.53,3.57-3.1,5.44-5.97,6.94
				c-27.86,14.41-55.58,29.03-85.29,39.57c-54.73,19.39-111.09,31.23-168.63,37.93c-22.24,2.59-44.55,4.16-66.92,5.39
				c-31.02,1.71-62.03,1.1-93.03,0.61c-21.26-0.32-42.54-2.14-63.79-3.79c-37.55-2.93-74.9-7.49-112.08-13.29
				c-32.96-5.14-65.96-10.64-98.05-19.77c-39.31-11.18-74.69-29.82-104.33-58.8c-34.45-33.7-61.48-72.77-85.18-114.35
				c-16.76-29.37-28.24-60.76-34.48-94.02c-5.18-27.58-7.8-55.46-6.04-83.47c1.21-19.32,4.73-38.44,9.01-57.35
				c4.87-21.53,9.94-43.05,18.6-63.41c10.98-25.81,26.63-48.69,45.75-69.22C581.89,227.1,584.76,225.08,588.15,223.78z"/>
			<path class="st3" d="M588.15,223.78c-8.12,6.57-14.84,14.43-21.15,22.67c-10.58,13.79-20,28.27-27.88,43.81
				c-5.78,11.41-9.66,23.49-13.2,35.65c-3.42,11.81-6.66,23.69-9.18,35.77c-2.43,11.68-4.84,23.34-6.28,35.21
				c-0.82,6.7-2.06,13.36-3,20.05c-0.26,1.93-0.15,3.94-0.15,5.91c-0.01,9.86-0.28,19.74,0.09,29.59
				c0.32,9.06,1.46,18.07,2.69,27.09c1.13,8.28,2.15,16.61,3.75,24.8c4,20.56,9.85,40.55,18.23,59.81
				c4.08,9.37,8.18,18.69,12.92,27.73c9.06,17.3,19.9,33.5,30.86,49.61c8.22,12.1,16.67,24.07,25.84,35.49
				c11.91,14.81,25.23,28.38,39.15,41.25c11.68,10.81,24.91,19.65,38.96,27.28c15.44,8.4,31.4,15.56,48.03,21.16
				c12.51,4.21,25.52,6.63,38.46,9.29c9.42,1.93,18.82,4,28.26,5.82c9.09,1.76,18.22,3.25,27.32,4.92
				c12.44,2.28,24.97,3.88,37.49,5.49c11.99,1.55,23.91,3.78,35.93,5c5.12,0.53,10.26,1.23,15.44,1.45
				c4.96,0.2,9.91,1.02,14.82,1.77c4.05,0.61,8.21,0.8,12.23,1.04c6.76,0.38,13.57,0.89,20.27,1.6c8.52,0.89,17.15,0,25.58,1.84
				c0.51,0.12,1.07,0.07,1.61,0.1c36.35,1.58,72.72,1.38,109.08,0.91c12.26-0.16,24.58-1.23,36.85-2.09
				c8.17-0.57,16.3-1.57,24.48-2.15c7.26-0.51,14.41-2.33,21.67-2.9c9.25-0.73,18.37-2.41,27.54-3.6
				c10.58-1.36,21.09-3.44,31.55-5.56c16.59-3.38,33.16-6.89,49.49-11.39c11.53-3.16,22.96-6.66,34.35-10.35
				c13.61-4.4,27.1-9.12,40.27-14.65c12.85-5.4,25.65-10.93,37.81-17.9c6.18-3.53,12.29-7.27,19.05-9.83
				c4.76-1.81,9.37-4.23,12.47-8.62c-1.58,10.51-5.05,20.49-8.74,30.38c-10.38,27.86-26.72,51.39-50.91,69.09
				c-19.65,14.39-41.79,23.39-65.16,29.62c-0.67,0.18-1.42,0.07-2.12,0.1c-8.24,0.34-16.1,2.96-24.2,4.07
				c-15.72,2.18-31.39,4.62-47.22,6.15c-19.36,1.87-38.75,3.32-58.13,4.9c-9.26,0.76-18.54,1.13-27.18,1.48
				c3.61,1.23,8.17-2.12,12.37,0.64c-5.4,1.23-10.89,1.08-16.38,1.01c-2.66-1.52-5.6-0.04-8.36-0.72c2.49,0.53,5.19-0.75,7.55,0.86
				c-7.77,1.36-15.64,1.24-23.47,1.76c-28.71,1.86-57.45,3.57-86.18,5.17c-14.63,0.8-29.3,1.26-43.95,1.84
				c-0.88,0.03-1.77-0.16-2.65-0.25c-0.1-2.44,1.65-1.48,2.84-1.67c-6.75,0.91-13.54,0.28-19.42,0.48
				c4.58,1.01,10.33-1.76,15.63,1.35c-4.77,1.07-9.63,0.61-14.44,0.76c-33.15,0.94-66.31,1.39-99.47,0.85
				c-31.01-0.5-62-1.27-92.97-3.04c-32.56-1.87-65.08-4.35-97.43-8.56c-1.23-0.16-2.43-0.56-3.63-0.85c2.2-2.4,4.51-0.48,6.8-0.72
				c-9.57,0.67-18.45-4.99-28.23-2.66c-8.06-0.63-15.88-2.63-23.75-4.35c-23.53-5.11-46.42-12.18-68.12-22.83
				c-38.02-18.69-63.28-48.44-77.28-88.2c-8.14-23.09-13.27-46.87-17.06-70.97c-5.37-34.21-8.21-68.66-9.97-103.24
				c-1.71-33.67-2.52-67.36-1.48-101.08c1-32.09,3.51-64.07,9.41-95.69c0.16-0.86,0.57-1.67,0.86-2.5c0.6,0.51,0.72,1.17,0.61,1.92
				c0.29-0.13,0.2-0.44,0.25-0.66c2.46-13.13,6.56-25.83,9.85-38.74c0.26-1.01,0.5-2.08,0.15-3.16c2.14-8.18,5.66-15.8,9.67-23.17
				c11.02-20.24,23.93-39.06,41.98-53.79c11.4-9.31,23.39-17.69,37.74-21.97c3,0.95,5.22-0.32,7.11-2.52
				C579.05,225.91,583.45,224.36,588.15,223.78z"/>
			<path class="st4" d="M1158.54,863.23c-4.62,0-9.26,0-13.89,0c3.25-1.77,6.82-1.73,10.1-1.96c5.69-0.41,11.34-1.26,17.05-1.6
				c6.73-0.4,13.54-0.4,20.19-1.79c1.21-0.25,2.5-0.18,3.75-0.19c7.49-0.09,14.9-1.23,22.35-1.92c4.96-0.45,9.95-1.08,14.91-1.23
				c7.7-0.2,15.18-2.03,22.81-2.66c6.19-0.51,12.28-2,18.45-2.75c7.79-0.95,15.48-2.34,23.15-3.89c1.96-0.4,3.85-1.04,5.49,0.73
				l-0.19-0.04c-1,0.79-2.44,0.04-3.38,1.01l-0.22,0.22l-0.28-0.15c-1.45,0.91-3.34-0.22-4.7,1.05h-0.04
				c-1.33,1.01-3.18-0.16-4.46,1.05l-0.22,0.2l-0.25-0.16c-1.52,0.89-3.47-0.18-4.92,1.05c-7.19,2.28-14.66,3.09-22.07,4.13
				c-28.35,3.95-56.87,6.15-85.42,7.95C1170.67,862.68,1164.63,863.4,1158.54,863.23z"/>
			<path class="st5" d="M478.28,329.35c1.29,0.88,1.1,2.12,0.83,3.38c-2.78,13.27-6.8,26.22-10.33,39.31
				c-0.13,0.5-0.4,0.95-0.63,1.51c-1.11-1.1-0.42-2.43-0.75-3.54c1.52-11.53,4.79-22.64,8.21-33.69
				C476.35,333.94,476.8,331.44,478.28,329.35z"/>
			<path class="st6" d="M654.78,858.83c0.15-1.49,1-2.11,2.47-2.2c3.22-0.2,6.34,0.31,9.47,1.01c5.65,1.27,11.33,2.36,16.99,4.16
				c-2.5,0.13-5,0.26-7.49,0.41C668.97,861.71,661.82,860.63,654.78,858.83z"/>
			<path class="st7" d="M984.16,873.05c-7.24,0-14.47,0-21.91,0c0.63-2.82,2.28-2.41,3.6-2.41c7.81-0.04,15.64-0.03,23.93-0.03
				c-1.38,1.84-3.89,0.34-4.67,2.28l-0.45,0.23L984.16,873.05z"/>
			<path class="st8" d="M574.79,227.9c-1.4,4.23-3.94,5.12-7.11,2.52C569.87,229.1,572.2,228.15,574.79,227.9z"/>
			<path class="st4" d="M1141.37,864.39c-2.88-0.18-5.77-0.35-8.65-0.53c3.19-0.4,6.47-1.86,9.47,0.4l-0.38,0.22L1141.37,864.39z"/>
			<path class="st3" d="M1294.12,848.09c1.24-1.76,3.06-1.04,4.7-1.04C1297.43,848.19,1295.82,848.32,1294.12,848.09z"/>
			<path class="st3" d="M1289.61,849.14c1.2-1.55,2.87-1.14,4.46-1.05C1292.8,849.36,1291.21,849.26,1289.61,849.14z"/>
			<path class="st3" d="M1284.23,850.24c1.36-1.64,3.19-1.11,4.92-1.04C1287.68,850.39,1285.97,850.4,1284.23,850.24z"/>
			<path class="st3" d="M1299.33,846.96c0.86-1.24,2.11-1.19,3.38-1.01C1301.86,847.2,1300.57,847.05,1299.33,846.96z"/>
			<path class="st9" d="M1190.43,216.61c9.72,0.48,18.76,1.79,27.61,4.07c16.8,4.33,33.7,8.37,50.14,13.93
				c23.17,7.84,44.17,19.52,61.93,36.57c1.93,1.86,3.75,3.86,5.37,6c3.1,4.08,3.54,7.23,1.49,9.79c-2.58,3.22-5.96,2.8-9.34,1.7
				c-2.72-0.88-5.44-1.8-8.05-2.99c-11.87-5.46-23.71-11-35.53-16.55c-23.11-10.86-47.4-18.23-71.94-24.91
				c-7.24-1.98-14.5-4-21.32-7.24c-3.41-1.62-6.73-3.44-9.41-6.12c-2.2-2.2-3.98-4.8-3.01-8.14c1.02-3.56,3.92-4.9,7.29-5.46
				C1187.43,216.94,1189.21,216.77,1190.43,216.61z"/>
			<path class="st9" d="M1387.85,333.12c0.03,4.1-1.01,7.2-4.38,9.07c-3.29,1.83-6.25,0.57-9.06-1.19
				c-2.46-1.52-4.43-3.61-6.34-5.75c-5.85-6.56-10.84-13.76-15.53-21.18c-0.95-1.49-1.79-3.15-2.3-4.83
				c-0.85-2.81-1.13-5.77,1.39-7.96c2.49-2.18,5.4-1.77,8.03-0.35c5.03,2.71,10.07,5.44,14.43,9.22c4.93,4.26,8.96,9.22,11.68,15.19
				C1386.99,327.96,1387.91,330.66,1387.85,333.12z"/>
		</g>
	</g>
</g>
</svg>
