<?xml version="1.0" encoding="utf-8"?>
<!-- Generator: Adobe Illustrator 26.0.3, SVG Export Plug-In . SVG Version: 6.00 Build 0)  -->
<svg version="1.1" id="Layer_1" xmlns="http://www.w3.org/2000/svg" xmlns:xlink="http://www.w3.org/1999/xlink" x="0px" y="0px"
	 viewBox="0 0 1920 1080" style="enable-background:new 0 0 1920 1080;" xml:space="preserve">
<style type="text/css">
	.st0{opacity:0.99;}
	.st1{opacity:0;}
	.st2{fill:none;stroke:#000000;stroke-width:12.3067;stroke-miterlimit:10;}
	.st3{enable-background:new    ;}
	.st4{opacity:0;fill:#000007;}
	.st5{fill:#E6E6E6;enable-background:new    ;}
	.st6{fill:#CCCCCC;enable-background:new    ;}
	.st7{fill:#FEFFFF;}
</style>
<g>
	<g class="st0">
		<path class="st1" d="M941,897.56c-53.75,0.06-107.5,0.4-161.22-1.12c-23.26-0.66-46.44-2.17-69.24-7.34
			c-10.83-2.46-21.37-5.82-31.47-10.46c-27.92-12.81-46.84-33.81-57.09-62.73c-5.94-16.8-9-34.2-11.11-51.81
			c-2.92-24.49-3.72-49.12-4.61-73.73c-1.26-34.94-1.75-69.89-2.58-104.84c-0.46-19.55,0.17-39.1-0.49-58.67
			c-0.69-20.94-1.22-41.87-1.63-62.81c-0.31-14.66,1.12-29.23,2.75-43.77c2.89-25.58,7.26-50.89,14.86-75.55
			c4.4-14.31,9.97-28.12,17.15-41.29c16.88-30.94,41.95-52.72,74.02-66.79c20.83-9.15,42.64-15.01,64.89-19.44
			c30.84-6.14,62.04-9.6,93.36-12.12c55.16-4.46,110.41-5.46,165.71-4.23c29.71,0.66,59.38,2.32,88.98,5.09
			c24.84,2.32,49.57,5.38,74.04,10.34c18.89,3.82,37.4,8.89,55.1,16.66c30.06,13.21,52.12,34.44,65.1,64.81
			c4.98,11.65,8.61,23.72,11.28,36.07c4.18,19.31,6.23,38.89,7.54,58.58c2.91,44.15,2.08,88.35,1.91,132.54
			c-0.22,54.36,0.29,108.73-1.03,163.08c-0.62,25.26-1.83,50.47-5.51,75.52c-2.29,15.57-5.61,30.87-11.29,45.63
			c-10.75,27.95-30.27,47.37-57.38,59.55c-18.11,8.12-37.14,13.05-56.56,16.6c-24.88,4.55-50,6.95-75.21,8.52
			c-45.5,2.83-91.08,3.52-136.67,3.71C976.74,897.62,958.86,897.56,941,897.56z"/>
		<path class="st2" d="M941,897.56c-53.75,0.06-107.5,0.4-161.22-1.12c-23.26-0.66-46.44-2.17-69.24-7.34
			c-10.83-2.46-21.37-5.82-31.47-10.46c-27.92-12.81-46.84-33.81-57.09-62.73c-5.94-16.8-9-34.2-11.11-51.81
			c-2.92-24.49-3.72-49.12-4.61-73.73c-1.26-34.94-1.75-69.89-2.58-104.84c-0.46-19.55,0.17-39.1-0.49-58.67
			c-0.69-20.94-1.22-41.87-1.63-62.81c-0.31-14.66,1.12-29.23,2.75-43.77c2.89-25.58,7.26-50.89,14.86-75.55
			c4.4-14.31,9.97-28.12,17.15-41.29c16.88-30.94,41.95-52.72,74.02-66.79c20.83-9.15,42.64-15.01,64.89-19.44
			c30.84-6.14,62.04-9.6,93.36-12.12c55.16-4.46,110.41-5.46,165.71-4.23c29.71,0.66,59.38,2.32,88.98,5.09
			c24.84,2.32,49.57,5.38,74.04,10.34c18.89,3.82,37.4,8.89,55.1,16.66c30.06,13.21,52.12,34.44,65.1,64.81
			c4.98,11.65,8.61,23.72,11.28,36.07c4.18,19.31,6.23,38.89,7.54,58.58c2.91,44.15,2.08,88.35,1.91,132.54
			c-0.22,54.36,0.29,108.73-1.03,163.08c-0.62,25.26-1.83,50.47-5.51,75.52c-2.29,15.57-5.61,30.87-11.29,45.63
			c-10.75,27.95-30.27,47.37-57.38,59.55c-18.11,8.12-37.14,13.05-56.56,16.6c-24.88,4.55-50,6.95-75.21,8.52
			c-45.5,2.83-91.08,3.52-136.67,3.71C976.74,897.62,958.86,897.56,941,897.56z"/>
		<path class="st3" d="M714.25,242.57c10.75-5.46,22.18-9.12,33.69-12.48c24.74-7.21,50.06-11.63,75.56-14.97
			c42.34-5.54,84.87-8.25,127.53-9.57c28.18-0.88,56.36-0.94,84.53-0.32c24.78,0.54,49.57,1.65,74.29,3.66
			c32.84,2.68,65.58,6.32,97.78,13.65c16.55,3.77,32.69,8.77,48.12,15.94c30.18,14.05,50.73,36.83,62.13,68.01
			c6.71,18.34,10.4,37.32,12.77,56.63c2.95,24.03,3.83,48.18,4.18,72.36c0.83,57.61-0.6,115.19-0.91,172.8
			c-0.06,12.78-0.25,25.57-0.4,38.35c-0.31,26.03-0.97,52.06-2.95,78.01c-1.74,22.74-4.34,45.38-10.78,67.38
			c-0.26,0.88-0.34,1.83-1.02,2.54c-1.03,3.48-3.58,4.52-6.8,3.83c-4.91-1.08-9.43,0.12-14.03,1.54c-14.05,4.29-28.64,5.86-43,8.57
			c-18.46,3.49-36.95,6.77-55.61,8.98c-12.83,1.51-25.72,2.35-38.6,3.38c-14.71,1.17-29.46,1.95-44.15,3.32
			c-5.66,0.52-11.37,0.92-17.03,1.09c-16.14,0.48-32.24,1.65-48.38,2.18c-26.91,0.91-53.81,1.78-80.73,1.68
			c-55.84-0.23-110.44-7.98-163.23-26.75c-37.6-13.37-72.23-32.15-103.45-57.09c-5.65-4.51-8.68-10.77-11.83-16.88
			c-10.25-19.78-17.26-40.8-23.17-62.21c-9.41-34.1-13.92-69.09-18.24-104.08c-1.69-13.72-2.49-27.55-3.32-41.38
			c-0.8-13.4-0.75-26.77-0.62-40.15c0.25-24.21,3.45-48.17,7.43-72.01c4.48-26.89,9.08-53.78,16.58-80.01
			c5.88-20.54,14.69-39.86,26.34-57.8c3.94-6.06,7.58-12.32,11.98-18.11c1.4-1.85,2.74-3.88,2.68-6.28
			C711.53,244.31,713.05,243.63,714.25,242.57z"/>
		<path class="st3" d="M712.42,243.51c-0.48,0.75-1.49,1.68-1.32,2.25c1.28,4.31-1.72,7.05-3.75,9.89
			c-7.63,10.78-15.03,21.75-20.98,33.52c-9.57,18.95-16.91,38.74-21.18,59.66c-2.57,12.58-5.26,25.14-7.71,37.75
			c-1.97,10.18-3.62,20.46-5.18,30.72c-1.2,7.85-2.18,15.74-3.28,23.58c-0.58,4.2-0.82,8.57-1.38,12.77
			c-0.82,5.94,0.03,11.97-1.49,17.83c-0.31,1.15-0.14,2.45-0.14,3.68c-0.02,12.32-0.58,24.67,0.2,36.95
			c0.49,7.77,0.25,15.6,1.42,23.37c0.72,4.8,0.54,9.77,1.11,14.64c0.88,7.43,1.4,14.89,2.48,22.31c0.74,5.14,1.31,10.31,2.11,15.44
			c1.14,7.25,1.83,14.55,3.02,21.78c1.63,9.95,3.42,19.88,5.38,29.75c1.46,7.35,3.12,14.68,5.06,21.92
			c2.48,9.32,4.98,18.66,8.08,27.8c3.18,9.41,6.74,18.72,10.77,27.86c3.11,7.06,6.86,13.74,10.4,20.54
			c2.57,4.95,7.01,8.11,11.26,11.35c19.72,15.03,40.75,27.94,63.15,38.6c20,9.52,40.72,16.98,62.04,22.98
			c14.91,4.2,29.95,7.66,45.13,10.6c6.89,1.34,13.89,2.11,20.84,3.09c6.51,0.92,13.01,1.77,19.51,2.65
			c0.46,0.06,0.92,0.11,1.38,0.11c9.83,0.03,19.63,0.75,29.44,1.11c18.6,0.69,37.21,1.2,55.78,0.58c12.6-0.42,25.21-0.14,37.77-0.97
			c7.21-0.48,14.52,0.2,21.58-0.91c7.65-1.2,15.38,0.38,22.91-1.6c0.43-0.11,0.92-0.08,1.38-0.05c8.15,0.63,16.24-0.77,24.37-1.11
			c8.54-0.35,17.08-1.25,25.63-1.82c8.25-0.55,16.51-1.05,24.71-1.88c8.81-0.91,17.66-1.4,26.47-2.35
			c6.52-0.71,13.03-1.69,19.58-2.28c7.12-0.65,14.17-2.29,21.24-3.51c11-1.89,22.01-3.66,32.97-5.72
			c12.92-2.43,25.97-4.28,38.5-8.45c2.43-0.82,4.78-0.8,7.23-0.08c3.15,0.94,6.06,0.71,8.06-2.38
			c-2.62,10.54-7.14,20.29-12.74,29.54c-12.05,19.91-29.86,32.81-50.93,41.72c-18.41,7.78-37.72,12.29-57.33,15.6
			c-23.86,4.03-47.92,6.12-72.06,7.58c-26.44,1.6-52.9,2.32-79.39,2.86c-76.69,1.57-153.37,0.88-230.06,0.54
			c-19.24-0.09-38.5-0.62-57.7-1.95c-21.54-1.49-42.89-4.23-63.33-11.78c-23.71-8.75-43.1-22.89-56.1-45.03
			c-8.21-13.98-13-29.2-16.28-44.95c-4.4-21.15-6.45-42.6-7.6-64.13c-2.06-38.75-3.35-77.52-4.45-116.3
			c-0.57-20.15-0.18-40.35-0.38-60.52c-0.15-15.71-0.06-31.43-0.95-47.1c-1.09-18.95-1.22-37.89-0.14-56.78
			c2.18-38.43,8.23-76.19,21.98-112.38c8.29-21.83,19.95-41.61,36.67-58.16c13.08-12.94,28.29-22.69,44.89-30.41
			C711.48,243.65,711.96,243.61,712.42,243.51z"/>
		<path d="M1152.99,229.23c6.6-0.14,12.6,1.2,18.6,2.54c8.55,1.91,17.14,3.63,25.61,5.83c10.4,2.69,19.54,8.14,28.6,13.74
			c7.23,4.46,14.28,9.08,20.06,15.4c3.48,3.82,6.18,8.05,7.66,13.01c1.69,5.71-0.43,9.05-6.2,10.6c-6.21,1.68-11.97-0.29-17.54-2.31
			c-12.72-4.62-25.26-9.74-37.94-14.49c-11.69-4.37-23.04-9.48-34.43-14.55c-5.4-2.42-10.25-5.61-14.98-9.05
			c-2.52-1.83-4.43-4.29-5.81-7.08c-2.23-4.52-0.75-9.01,3.72-11.35C1144.43,229.39,1148.86,229.05,1152.99,229.23z"/>
		<path d="M1302.11,333.02c0,1.69,0.2,3.4-0.03,5.06c-0.86,6.29-6.81,8.88-11.95,5.11c-2.6-1.91-4.83-4.26-6.58-7.03
			c-4.98-7.92-10.09-15.77-14.92-23.78c-2.05-3.4-3.8-7.01-3.63-11.23c0.2-4.94,3.94-7.81,8.68-6.65c4.89,1.2,9.12,3.68,12.83,6.95
			C1295.98,309.82,1301.64,320.19,1302.11,333.02z"/>
	</g>
	<g>
		<g>
			<g>
				<path class="st4" d="M921,880.56c-53.75,0.06-107.5,0.4-161.22-1.12c-23.26-0.66-46.44-2.17-69.24-7.34
					c-10.83-2.46-21.37-5.82-31.47-10.46c-27.92-12.81-46.84-33.81-57.09-62.73c-5.94-16.8-9-34.2-11.11-51.81
					c-2.92-24.49-3.72-49.12-4.61-73.73c-1.26-34.94-1.75-69.89-2.58-104.84c-0.46-19.55,0.17-39.1-0.49-58.67
					c-0.69-20.94-1.22-41.87-1.63-62.81c-0.31-14.66,1.12-29.23,2.75-43.77c2.89-25.58,7.26-50.89,14.86-75.55
					c4.4-14.31,9.97-28.12,17.15-41.29c16.88-30.94,41.95-52.72,74.02-66.79c20.83-9.15,42.64-15.01,64.89-19.44
					c30.84-6.14,62.04-9.6,93.36-12.12c55.16-4.46,110.41-5.46,165.71-4.23c29.71,0.66,59.38,2.32,88.98,5.09
					c24.84,2.32,49.57,5.38,74.04,10.34c18.89,3.82,37.4,8.89,55.1,16.66c30.06,13.21,52.12,34.44,65.1,64.81
					c4.98,11.65,8.61,23.72,11.28,36.07c4.18,19.31,6.23,38.89,7.54,58.58c2.91,44.15,2.08,88.35,1.91,132.54
					c-0.22,54.36,0.29,108.73-1.03,163.08c-0.62,25.26-1.83,50.47-5.51,75.52c-2.29,15.57-5.61,30.87-11.29,45.63
					c-10.75,27.95-30.27,47.37-57.38,59.55c-18.11,8.12-37.14,13.05-56.56,16.6c-24.88,4.55-50,6.95-75.21,8.52
					c-45.5,2.83-91.08,3.52-136.67,3.71C956.74,880.62,938.86,880.56,921,880.56z"/>
				<path class="st2" d="M921,880.56c-53.75,0.06-107.5,0.4-161.22-1.12c-23.26-0.66-46.44-2.17-69.24-7.34
					c-10.83-2.46-21.37-5.82-31.47-10.46c-27.92-12.81-46.84-33.81-57.09-62.73c-5.94-16.8-9-34.2-11.11-51.81
					c-2.92-24.49-3.72-49.12-4.61-73.73c-1.26-34.94-1.75-69.89-2.58-104.84c-0.46-19.55,0.17-39.1-0.49-58.67
					c-0.69-20.94-1.22-41.87-1.63-62.81c-0.31-14.66,1.12-29.23,2.75-43.77c2.89-25.58,7.26-50.89,14.86-75.55
					c4.4-14.31,9.97-28.12,17.15-41.29c16.88-30.94,41.95-52.72,74.02-66.79c20.83-9.15,42.64-15.01,64.89-19.44
					c30.84-6.14,62.04-9.6,93.36-12.12c55.16-4.46,110.41-5.46,165.71-4.23c29.71,0.66,59.38,2.32,88.98,5.09
					c24.84,2.32,49.57,5.38,74.04,10.34c18.89,3.82,37.4,8.89,55.1,16.66c30.06,13.21,52.12,34.44,65.1,64.81
					c4.98,11.65,8.61,23.72,11.28,36.07c4.18,19.31,6.23,38.89,7.54,58.58c2.91,44.15,2.08,88.35,1.91,132.54
					c-0.22,54.36,0.29,108.73-1.03,163.08c-0.62,25.26-1.83,50.47-5.51,75.52c-2.29,15.57-5.61,30.87-11.29,45.63
					c-10.75,27.95-30.27,47.37-57.38,59.55c-18.11,8.12-37.14,13.05-56.56,16.6c-24.88,4.55-50,6.95-75.21,8.52
					c-45.5,2.83-91.08,3.52-136.67,3.71C956.74,880.62,938.86,880.56,921,880.56z"/>
			</g>
			<path class="st5" d="M694.25,225.57c10.75-5.46,22.18-9.12,33.69-12.48c24.74-7.21,50.06-11.63,75.56-14.97
				c42.34-5.54,84.87-8.25,127.53-9.57c28.18-0.88,56.36-0.94,84.53-0.32c24.78,0.54,49.57,1.65,74.29,3.66
				c32.84,2.68,65.58,6.32,97.78,13.65c16.55,3.77,32.69,8.77,48.12,15.94c30.18,14.05,50.73,36.83,62.13,68.01
				c6.71,18.34,10.4,37.32,12.77,56.63c2.95,24.03,3.83,48.18,4.18,72.36c0.83,57.61-0.6,115.19-0.91,172.8
				c-0.06,12.78-0.25,25.57-0.4,38.35c-0.31,26.03-0.97,52.06-2.95,78.01c-1.74,22.74-4.34,45.38-10.78,67.38
				c-0.26,0.88-0.34,1.83-1.02,2.54c-1.03,3.48-3.58,4.52-6.8,3.83c-4.91-1.08-9.43,0.12-14.03,1.54c-14.05,4.29-28.64,5.86-43,8.57
				c-18.46,3.49-36.95,6.77-55.61,8.98c-12.83,1.51-25.72,2.35-38.6,3.38c-14.71,1.17-29.46,1.95-44.15,3.32
				c-5.66,0.52-11.37,0.92-17.03,1.09c-16.14,0.48-32.24,1.65-48.38,2.18c-26.91,0.91-53.81,1.78-80.73,1.68
				c-55.84-0.23-110.44-7.98-163.23-26.75c-37.6-13.37-72.23-32.15-103.45-57.09c-5.65-4.51-8.68-10.77-11.83-16.88
				c-10.25-19.78-17.26-40.8-23.17-62.21c-9.41-34.1-13.92-69.09-18.24-104.08c-1.69-13.72-2.49-27.55-3.32-41.38
				c-0.8-13.4-0.75-26.77-0.62-40.15c0.25-24.21,3.45-48.17,7.43-72.01c4.48-26.89,9.08-53.78,16.58-80.01
				c5.88-20.54,14.69-39.86,26.34-57.8c3.94-6.06,7.58-12.32,11.98-18.11c1.4-1.85,2.74-3.88,2.68-6.28
				C691.53,227.31,693.05,226.63,694.25,225.57z"/>
			<path class="st6" d="M692.42,226.51c-0.48,0.75-1.49,1.68-1.32,2.25c1.28,4.31-1.72,7.05-3.75,9.89
				c-7.63,10.78-15.03,21.75-20.98,33.52c-9.57,18.95-16.91,38.74-21.18,59.66c-2.57,12.58-5.26,25.14-7.71,37.75
				c-1.97,10.18-3.62,20.46-5.18,30.72c-1.2,7.85-2.18,15.74-3.28,23.58c-0.58,4.2-0.82,8.57-1.38,12.77
				c-0.82,5.94,0.03,11.97-1.49,17.83c-0.31,1.15-0.14,2.45-0.14,3.68c-0.02,12.32-0.58,24.67,0.2,36.95
				c0.49,7.77,0.25,15.6,1.42,23.37c0.72,4.8,0.54,9.77,1.11,14.64c0.88,7.43,1.4,14.89,2.48,22.31c0.74,5.14,1.31,10.31,2.11,15.44
				c1.14,7.25,1.83,14.55,3.02,21.78c1.63,9.95,3.42,19.88,5.38,29.75c1.46,7.35,3.12,14.68,5.06,21.92
				c2.48,9.32,4.98,18.66,8.08,27.8c3.18,9.41,6.74,18.72,10.77,27.86c3.11,7.06,6.86,13.74,10.4,20.54
				c2.57,4.95,7.01,8.11,11.26,11.35c19.72,15.03,40.75,27.94,63.15,38.6c20,9.52,40.72,16.98,62.04,22.98
				c14.91,4.2,29.95,7.66,45.13,10.6c6.89,1.34,13.89,2.11,20.84,3.09c6.51,0.92,13.01,1.77,19.51,2.65
				c0.46,0.06,0.92,0.11,1.38,0.11c9.83,0.03,19.63,0.75,29.44,1.11c18.6,0.69,37.21,1.2,55.78,0.58
				c12.6-0.42,25.21-0.14,37.77-0.97c7.21-0.48,14.52,0.2,21.58-0.91c7.65-1.2,15.38,0.38,22.91-1.6c0.43-0.11,0.92-0.08,1.38-0.05
				c8.15,0.63,16.24-0.77,24.37-1.11c8.54-0.35,17.08-1.25,25.63-1.82c8.25-0.55,16.51-1.05,24.71-1.88
				c8.81-0.91,17.66-1.4,26.47-2.35c6.52-0.71,13.03-1.69,19.58-2.28c7.12-0.65,14.17-2.29,21.24-3.51
				c11-1.89,22.01-3.66,32.97-5.72c12.92-2.43,25.97-4.28,38.5-8.45c2.43-0.82,4.78-0.8,7.23-0.08c3.15,0.94,6.06,0.71,8.06-2.38
				c-2.62,10.54-7.14,20.29-12.74,29.54c-12.05,19.91-29.86,32.81-50.93,41.72c-18.41,7.78-37.72,12.29-57.33,15.6
				c-23.86,4.03-47.92,6.12-72.06,7.58c-26.44,1.6-52.9,2.32-79.39,2.86c-76.69,1.57-153.37,0.88-230.06,0.54
				c-19.24-0.09-38.5-0.62-57.7-1.95c-21.54-1.49-42.89-4.23-63.33-11.78c-23.71-8.75-43.1-22.89-56.1-45.03
				c-8.21-13.98-13-29.2-16.28-44.95c-4.4-21.15-6.45-42.6-7.6-64.13c-2.06-38.75-3.35-77.52-4.45-116.3
				c-0.57-20.15-0.18-40.35-0.38-60.52c-0.15-15.71-0.06-31.43-0.95-47.1c-1.09-18.95-1.22-37.89-0.14-56.78
				c2.18-38.43,8.23-76.19,21.98-112.38c8.29-21.83,19.95-41.61,36.67-58.16c13.08-12.94,28.29-22.69,44.89-30.41
				C691.48,226.65,691.96,226.61,692.42,226.51z"/>
			<path class="st7" d="M1132.99,212.23c6.6-0.14,12.6,1.2,18.6,2.54c8.55,1.91,17.14,3.63,25.61,5.83
				c10.4,2.69,19.54,8.14,28.6,13.74c7.23,4.46,14.28,9.08,20.06,15.4c3.48,3.82,6.18,8.05,7.66,13.01c1.69,5.71-0.43,9.05-6.2,10.6
				c-6.21,1.68-11.97-0.29-17.54-2.31c-12.72-4.62-25.26-9.74-37.94-14.49c-11.69-4.37-23.04-9.48-34.43-14.55
				c-5.4-2.42-10.25-5.61-14.98-9.05c-2.52-1.83-4.43-4.29-5.81-7.08c-2.23-4.52-0.75-9.01,3.72-11.35
				C1124.43,212.39,1128.86,212.05,1132.99,212.23z"/>
			<path class="st7" d="M1282.11,316.02c0,1.69,0.2,3.4-0.03,5.06c-0.86,6.29-6.81,8.88-11.95,5.11c-2.6-1.91-4.83-4.26-6.58-7.03
				c-4.98-7.92-10.09-15.77-14.92-23.78c-2.05-3.4-3.8-7.01-3.63-11.23c0.2-4.94,3.94-7.81,8.68-6.65c4.89,1.2,9.12,3.68,12.83,6.95
				C1275.98,292.82,1281.64,303.19,1282.11,316.02z"/>
		</g>
	</g>
</g>
</svg>
