<svg id="Layer_1" data-name="Layer 1" xmlns="http://www.w3.org/2000/svg" viewBox="0 0 1935.41 644.81"><defs><style>.cls-1{fill:#ca00a7;}.cls-2{fill:#7227c3;}.cls-3{fill:#6222a7;}.cls-4{fill:#020202;}.cls-5{fill:#ad008f;}</style></defs><path class="cls-1" d="M65.11-2.44H475.3c.91,1.83.31,3.62-.17,5.39a679.4,679.4,0,0,0-19.67,101.54,8.42,8.42,0,0,1-.48,2,3.49,3.49,0,0,1-1.87,1.81c-9.48,1.13-19,1.71-28.54,2.45-23.08,1.79-46.11,4-69.12,6.48-34.38,3.68-68.7,7.8-102.91,12.79-56,8.16-111.62,18.51-166.68,31.66C72,165,58.16,168.48,44.35,172.08c-2.45.64-5,1.41-7-1.05-1.52-3.19-1.08-6.6-.88-9.91,1.43-23.24,2.5-46.52,6-69.6C47,61.61,53,32.07,61.88,3.12,62.52,1,63.29-1,65.11-2.44Z" transform="translate(9.54 2.57)"/><path class="cls-2" d="M454.15,106.34c.84-15.18,3.54-30.11,6.2-45,3.75-21,8.67-41.79,14.3-62.39a8.06,8.06,0,0,1,.65-1.36H889.53c1.76,2.09,1.12,4.41.62,6.7-5.32,24-9.84,48.21-11.93,72.77-.64,7.48-.88,15-2,22.45a2.51,2.51,0,0,1-1.37,1.27c-10.06.18-20.13.69-30.17-.51-1.16-.14-2.33-.25-3.51-.28-61.95-1.55-123.91-1.33-185.87-.84-23.3.19-46.63,1-69.92,1.95-27.65,1.12-55.3,2.35-82.92,4.07-12.72.79-25.47,1.22-38.16,2.63C460.92,108.15,457.23,108.88,454.15,106.34Z" transform="translate(9.54 2.57)"/><path class="cls-2" d="M1236.22-2.44h381c1.91,2.25,1.32,4.8.61,7.19C1614.51,15.93,1614,27.56,1612,39a11.65,11.65,0,0,0,.39,5,9.52,9.52,0,0,1-.65,7.32,12.07,12.07,0,0,0-1.16,5.87c0,6.72,0,13.43,0,20.15,0,3.07.75,5.63,3.57,7.25,1.26,1.47,1.89,3.07,1.08,5a4.7,4.7,0,0,1-1.66.9c-8.24,1.86-16.69,1.79-25,2.21-24.6,1.25-49.19,2.73-73.83,3.43-23.3.66-46.59,1.31-69.87,2.13-14.26.5-28.51.26-42.75.76-36.7,1.29-73.43,1.32-110.14,2.27-18.61.48-37.22.21-55.83.8a10.54,10.54,0,0,1-3.49-.31,3.62,3.62,0,0,1-1.67-2.3c-1.68-15.94-2.89-31.88-1.82-48,1-15.51,1.88-31,4.78-46.33C1234.36,2.52,1234.35-.26,1236.22-2.44Z" transform="translate(9.54 2.57)"/><path class="cls-1" d="M1236.22-2.44c-1.12,8.59-2.34,17.17-3.35,25.78-.72,6.12-1.13,12.29-1.73,18.43-1.88,19.22-.5,38.4.86,57.57-.88,2.36-2.74,3.24-5.08,3.45-1,.08-2,.16-3,.14-29.34-.68-58.67.86-88,1.25-26.49.36-53-.1-79.45,1-29,1.23-58,.84-87,.56-17.39-.17-34.8-1.5-52.2-2.46-11.36-.62-22.74-1.6-34.15-1.4-2.76,0-5.85.51-7.62-2.59a398.07,398.07,0,0,1,4.45-49.24c2.37-16.48,5.71-32.78,9.49-49a17.67,17.67,0,0,0,.12-3.5Z" transform="translate(9.54 2.57)"/><path class="cls-3" d="M-9.47,631.16V184.92a7.54,7.54,0,0,1,2.75-2.13c11.56-4,22.82-8.89,35-10.9,3.72-.62,7.75-1.52,10.62,2.32,1.32,2.45,1.34,5.14,1.62,7.82,1.64,15.68,1.94,31.46,3.64,47.13,3.22,29.58,8.74,58.76,14.69,87.87,6.12,30,9.72,60.24,12.11,90.74,2.69,34.34,3.32,68.7,2.63,103.08A485.64,485.64,0,0,1,69.34,566c-1.49,11.14-2,22.4-3.62,33.52-.28,1.82-.29,3.69-1.07,5.4a7.71,7.71,0,0,1-2.84,4c-7.26,5.72-14.9,10.89-22.58,16-1.65,1.1-3.66,2.26-5.6.86s-1.79-3.81-1.24-6c1.34-5.37,3.1-10.62,4.44-16,.35-1.42,1.3-3.22,0-4.25s-2.78.53-4,1.33c-4.74,3.19-9,7.05-13.35,10.7C11.59,618.15,3.41,624.28-5,630.12-6.31,631-7.59,632.51-9.47,631.16Z" transform="translate(9.54 2.57)"/><path class="cls-4" d="M-9.47,631.16c10.2-5.81,19.07-13.43,28.23-20.67,5.12-4,10.24-8.08,15.42-12,1.14-.87,2.51-2.3,4-1.3s.7,2.87.39,4.2c-1,4.55-2.35,9-3.58,13.56-.39,1.45-1,2.85-1.27,4.32-.4,2.1-1.45,4.77.71,6,1.8,1,3.67-.92,5.28-2.07,7.88-5.6,16.2-10.61,23.49-17,4.36-5,10.27-8.07,15.62-11.77,8-5.53,16.25-10.73,24.57-15.8a39.79,39.79,0,0,1,6.26-3.22c2.76-1,5.35-.75,7.46,1.36s1.88,4.6,1.06,7.08c-1,3.22-3.45,5.69-5.23,8.85,21.61-13.08,44.42-23.12,67.19-33.25,12.14-5.4,24.43-10.35,37.29-13.75q1.47-.37,2.94-.72c3.64-.85,7.31-1,9.37,2.7,2,3.51.49,6.83-1.91,9.72a18.38,18.38,0,0,1-3.32,3.24c15.18-6.68,30.69-13.08,45.9-20.14,8.38-3.89,16.61-8.09,25.27-11.35a47.63,47.63,0,0,1,8.13-2.64c2.94-.54,5.81-.32,7.82,2.21,2.13,2.68,1.83,5.61.34,8.51-.39.75-.88,1.44-1.62,2.58,3.32-.88,6.08-2.17,9-3.13,34.72-11.59,69.32-23.56,104.26-34.52.64-.2,1.28-.41,1.93-.57,5.13-1.24,8.5-.34,10.27,2.91,2.19,4,.07,7.08-2.55,9.9-3.42,3.68-7.37,6.89-9.83,11.15,8.29-5,17.45-8.65,26.58-12.38,17.1-6,34.31-11.71,51.9-16.16a107.14,107.14,0,0,1,14.85-2.73c3.15-.34,6.1.56,8,3.28,1.77,2.53,1.26,5.08-1.08,8,14-5.74,27.69-10.88,41.79-14.65,12-3.2,24-6.54,36.1-9.25,3.61-.81,7.3-1.13,9.3,2.73,1.92,3.71,0,6.78-2.67,9.42-2.26,2.2-4.3,4.65-7,6.39a56.46,56.46,0,0,1,12.45-4.87c13.25-3.67,26.48-7.49,40.52-6.46,6.57.48,9,2,10.37,8.51.47,2.19,1.51,1.83,2.8,1.52,23.31-5.49,47.32-8.68,68.73-20.57a42.5,42.5,0,0,1,5.45-2.6,6.11,6.11,0,0,1,7.62,2.09c2,2.48,1.55,5.07,0,7.48-2.35,3.52-5.55,6.24-9,9.09,22.76-4.12,44.07-11.82,64.85-21.26,8.71-4,17.28-8.22,25.86-12.45a20,20,0,0,1,3.24-1.36,6.68,6.68,0,0,1,7.68,2.26c1.93,2.37,1.89,5,.63,7.56-1.55,3.19-4.13,5.69-6.36,9.26A243.58,243.58,0,0,0,860,469c18.87-6.51,36-16.49,52.82-26.93A104,104,0,0,1,923,436.72c3-1.42,5.92-1.46,8.39,1s2.63,5.31,1.48,8.39c-1.46,3.95-4.26,7.18-6.26,11.56,8.16-5.2,16-9.92,24-14.27a304.29,304.29,0,0,1,38-17.34,30.54,30.54,0,0,1,3.85-1.18c3.35-.78,6.39-.4,8.62,2.52,2.07,2.73,1.85,5.61.37,8.52a3.18,3.18,0,0,0-.69,2.13c7.19-3.29,14.1-7,21.27-10.09a325.29,325.29,0,0,1,63.74-20.17,31.83,31.83,0,0,1,9-.45c5.8.45,8.14,4.88,5.27,10a17.62,17.62,0,0,1-7.18,6.85c14.09-6.89,29.2-11,43.8-16.52,6.45-2.42,12.91-4.76,19.16-7.68a14.44,14.44,0,0,1,3.76-1.4c2.9-.48,5.78-.6,7.88,2,1.91,2.34,1.58,5,.72,7.65-.56,1.76-1.7,3.26-2.38,5.37,18.25-3.76,36.38-7,54.35-11.1,15.21-3.1,29.59-8.6,43.59-15.17a43.75,43.75,0,0,1,5.57-2.34c3.13-1,6-.66,8.32,1.86s2.32,5.4,1,8.42c-2.53,5.64-6,10.76-9.11,16.79a282.87,282.87,0,0,1,43.92-15.68c9.41-2.54,18.93-4.55,28.46-6.52,4.13-.85,8.19-1.08,11.05,2.65s1.11,7.24-1.67,11.22c20.52-7.47,40.9-12.39,61.26-17.33,5.69-1.38,11.33-3.17,17.27-3.25,3.14,0,6.23.29,7.61,3.66,1.47,3.58.11,6.54-2.63,9-3,2.66-6.4,4.74-9.32,7.38,17.81-6.46,36.16-11.16,54.4-16.23,6.3-1.76,12.56-3.67,18.82-5.57a22.65,22.65,0,0,1,7.91-1.23c6,.33,8.6,4.73,6,10.14-1.23,2.57-3.23,4.62-5.16,7.47,26.26-12,53.44-18.84,81.32-23.23,18.06-3,36.12-6,53.25-12.87a125.22,125.22,0,0,0,21.78-11.51,56.15,56.15,0,0,1,7-3.95c2.69-1.25,5.22-1.17,7.48.89s2.7,4.84,1.63,7.82c-.49,1.38-1.66,2.57-1.28,4.53,4.21.39,8.18-1.14,12.12-2.17A227,227,0,0,0,1730,343.07a32.92,32.92,0,0,0,8.32-5.59,29.51,29.51,0,0,1,8.8-5.78c2.93-1.19,6-1.6,8.48.86s2,5.46,1,8.46c-.35,1.05-1.41,1.9-.85,3.54,11.43-4.1,22.07-9.7,32.5-15.7,11.53-6.63,22.17-14.55,32.6-22.76,3.74-2.94,7.76-5.12,12.42-2.36,3.33,2,3.57,6.91,1,13-1.29,3-2.7,6-4,9.91,10.52-4.68,19.65-10.3,29-15.52,4.69-2.63,9.36-5.28,13.92-8.12a14.9,14.9,0,0,1,4.59-2c2.56-.57,5.07-.56,7,1.54s1.92,4.87,1,7.56c-.48,1.36-1.61,2.44-1.92,4.09,11.34-5.61,22.4-11.28,33.56-16.72,2.48-1.21,4.93-3,8-1.91,1.51,7.17-.77,11.43-8.13,14.28-9.65,3.74-18.67,9.08-28,13.68a65,65,0,0,1-6.91,3c-8.54,3.06-12.25.65-12.85-8.57-10.67,5.81-21.19,11.61-31.78,17.28-4.43,2.37-8.92,4.64-13.53,6.64-2.81,1.21-6,1.77-8.46-.82s-1.83-5.59-.63-8.46c1.59-3.8,3.36-7.53,5.55-12.38-12,8.72-23.34,16.41-35.53,22.69-11.49,5.91-23.15,11.44-35.63,15-7.3,2.07-10.19.19-10.89-7a248.36,248.36,0,0,1-29.18,12.05c-11,3.57-22.12,6.81-33.67,8.16-7.21.85-10.3-1.28-11.71-8.25a158.48,158.48,0,0,1-28.35,12.59c-18.78,6-38.3,8.43-57.57,12a297.29,297.29,0,0,0-68.11,20.84c-3.2,1.44-6.4,3-9.94,3.46-6.3.81-9.76-3.07-7.88-9.14.93-3,2.7-5.72,4.33-9-14,3.89-27.76,7.51-41.37,11.54-12.85,3.81-25.55,8.14-38.37,12.09-4.24,1.31-9.21,3.64-12.37-1.32-3.3-5.18,1.14-8.69,4.2-12.15,1.75-2,3.79-3.71,6.47-6.29-6.63.58-11.92,2.42-17.31,3.71A482.4,482.4,0,0,0,1345.93,417a27.9,27.9,0,0,1-8.26,2.1c-5.87.25-8.76-4.05-6-9.29,1.36-2.63,3.38-4.91,5.53-7.94a311.86,311.86,0,0,0-39.09,10.4c-10,3.36-19.7,7.58-29.37,11.81-3.86,1.69-8.17,3.82-11.76.35-4-3.84-1.16-8.19.68-12.06,2-4.2,4.35-8.23,6.58-12.37-.45-.11-.83-.35-1.06-.25-26.93,12-55.83,16.57-84.45,22.11-5.43,1.06-10.84,2.36-16.31,3-9.48,1.13-12.14-1.92-10-11.49-18.91,7.39-38.24,12.79-56.5,21.09-5.49,2.5-11,5-16.55,7.35-3.44,1.46-7.33,2.93-10.17-.64-3.14-3.94-.19-7.35,2.25-10.29,3.09-3.72,6.57-7.13,10.42-11.24a325.26,325.26,0,0,0-57.19,18.93c-9.85,4.28-19.41,9.14-28.92,14.11a50.54,50.54,0,0,1-6.42,2.88,6.13,6.13,0,0,1-6.6-1.08c-2.19-2-2.14-4.63-1.18-7a93.68,93.68,0,0,1,4.79-8.94,315,315,0,0,0-43.81,21.31c-8,4.7-15.81,9.55-22.48,16-1.81,1.77-3.78,2.91-6.29,1.63-2.81-1.43-3.55-4-3-6.83,1.08-6.06,3.33-11.77,6.41-18.41-11.3,6.51-21.3,12.84-32,17.92-17.3,8.21-35.25,14.73-53.21,21.25a21.14,21.14,0,0,1-3.38.92c-2.91.56-5.85.69-7.76-2.07s-1.19-5.45.06-8.14c.76-1.61,1.65-3.16,3-5.76-9.31,4.13-17.55,8-26,11.48-20.66,8.54-41.75,15.66-64.16,18-1.17.12-2.34.32-3.51.37-7,.32-9.37-2-9.29-9.39-21.46,7.1-43.81,10-65.48,15.84-3.65,1-7.91,3-10.53-1.23-2.74-4.4,1.37-6.95,3.89-9.73.31-.35.57-.74,1.13-1.5-20.66.4-39.4,6-57,15.83-2.78,1.54-5.6,3-8.47,4.4-2.48,1.18-4.94,1.06-6.94-1.06s-1.75-4.61-.55-7c3-6,7.73-10.83,13.09-16.63a345.71,345.71,0,0,0-36.29,10c-14.66,4.83-28.79,11-43.08,16.81a38.56,38.56,0,0,1-7.17,2.2c-2.4.46-4.75,0-6.21-2.32a5.67,5.67,0,0,1,.31-6.63c1.92-2.72,4.17-5.2,6.71-8.31-10,2.17-19.16,5.36-28.38,8.32-19.5,6.26-38.7,13.22-56.19,24.17-3,1.86-6.33,2.92-9.42.64-3.44-2.53-2.62-6.15-1.59-9.67,1.52-5.19,4.56-9.62,7.31-14.34-2.37-1-4.15.32-5.91.93-34.35,11.93-69.28,22.19-103.22,35.31a23.92,23.92,0,0,1-3.83,1.2c-5.87,1.21-9.52-2.73-7.86-8.51.44-1.54,1.14-3,2.14-5.58-9.05,4.14-17.15,7.93-25.32,11.59q-29.82,13.33-59.71,26.57c-3.05,1.35-6.39,3.22-9.23-.06s-1.09-6.62,1-9.61,4.15-5.64,6.3-8.54c-1.92-1-3.36.19-4.77.75-31.93,12.78-63.42,26.47-92.7,44.74-3.5,2.18-7.11,5.37-11.48,2.38-4.59-3.12-2.94-7.67-1.93-11.93.11-.47.18-.94.45-2.39-2.45,1.56-4.33,2.72-6.16,3.94Q67,615.35,40.2,633.24c-4,2.66-8.28,6.48-13.24,3.12s-2.69-8.82-2.12-13.52a71,71,0,0,1,1.7-7.21c-12.15,9.62-23.21,19.32-36,26.61Z" transform="translate(9.54 2.57)"/><path class="cls-1" d="M1615.16,89.2a6.21,6.21,0,0,1-1-4c-1.59-1.79-1.48-4-1.54-6.17-.63-25.29,1-50.38,7-75.06.55-2.27.84-4.63,2.58-6.41h303.36q-.07,18.65-.16,37.27c-3.64,2.47-8.07,1.71-12.06,3a988.58,988.58,0,0,1-148.07,36.1c-34.63,5.54-69.44,9.69-104.37,12.9-13.52,1.25-27.06,2.25-40.58,3.52C1618.5,90.52,1616.63,90.76,1615.16,89.2Z" transform="translate(9.54 2.57)"/><path class="cls-2" d="M37.87,173.85c-5.49-2.41-10.76-.36-16,.87-10.73,2.47-20.66,7.4-31.29,10.2q0-91.48-.07-183c0-3.32.3-4.55,4.24-4.51,23.47.26,46.94.13,70.41.13a593.78,593.78,0,0,0-20.86,92c-2.15,14.32-3.7,28.74-4.47,43.25-.67,12.67-1.56,25.32-1.68,38C38.55,171.9,38.87,172.92,37.87,173.85Z" transform="translate(9.54 2.57)"/><path class="cls-2" d="M1622.22-2.44c-1.69,9.18-3.44,18.35-5,27.54-3.28,18.73-3.29,37.65-3,56.58,0,1.17,0,2.34,0,3.52-3.63,0-5.07-1.9-5.05-5.36,0-8.21-1.36-16.73.39-24.56,1.87-8.4.26-16.74,1.93-24.94,1.72-8.43,2.35-17.09,4.88-25.35a22.9,22.9,0,0,0,.88-7.43Z" transform="translate(9.54 2.57)"/><path class="cls-5" d="M1615.16,89.2c14.62-1.32,29.26-2.27,43.86-3.76,10.45-1.06,20.92-2,31.35-3.24,15.07-1.76,30.19-3.09,45.2-5.24Q1762.78,73,1789.82,68a864.9,864.9,0,0,0,92.52-22.27q17.06-5.14,34.08-10.38c3-.93,6-.35,9-.54,0,1.34.15,2.68.15,4q0,126.81,0,253.64c0,1-.1,2-.15,3-12.85,5-24.75,12-37.15,17.89l-6.78,3.25c0-2.37,1.25-3.79,2.16-5.24,1.7-2.73,3-5.62.45-8.29-2.68-2.84-5.85-1.69-8.75,0-7.54,4.38-15,8.92-22.61,13.19a208.23,208.23,0,0,1-25,12.24c1.64-3.75,3.31-7.48,4.91-11.25.59-1.38,1-2.83,1.53-4.25,1-3,1.39-6.15-1.44-8.3s-6.09-1.28-8.82.75c-10.09,7.52-19.86,15.46-30.7,21.95a242.79,242.79,0,0,1-41.66,20.24c1.41-2.5,2.26-4,3.08-5.48,1.6-2.89,3-6,.31-8.8-2.94-3-6.19-1.42-9.19.35a27.4,27.4,0,0,0-3.82,2.42c-15.58,13-34.75,17.61-53.59,22.94-4,1.12-8,2.44-12.6,2.06.1-2.74,2.26-4.44,3-6.74s.94-4.67-1-6.53-4.27-1.68-6.57-.64a15.8,15.8,0,0,0-2.65,1.44c-21.11,14.88-45.12,21.73-70.28,25.45l-9.4,1.43c-3.9-.12-3-2.92-2.48-5a56.06,56.06,0,0,1,4-10.29c14.15-31.16,24.82-63.36,29-97.49a300.72,300.72,0,0,0,2.55-32c.11-7.86,1.27-15.7.9-23.58-1-21.91-2-43.82-4.54-65.63-1.68-14.47-3-29-4.39-43.5-.28-3-.69-6,1-8.83Z" transform="translate(9.54 2.57)"/><path class="cls-5" d="M37.87,173.85c.08-1,.15-2,.23-3a4.78,4.78,0,0,0,4.26.35c42.47-11.75,85.49-21.16,128.77-29.34q44.66-8.44,89.76-14.51c21.12-2.81,42.24-5.68,63.42-8,18.54-2.08,37.07-4.22,55.64-6,19.25-1.86,38.49-3.68,57.78-5.14,5.17-.39,10.32-.72,15.5-.76,2.07,2.46,1.66,5.46,1.34,8.2-2.72,23.42-2.11,46.93-1.78,70.39.33,23,2.85,45.84,5.33,68.69,3.13,28.84,7.06,57.6,8.82,86.6,1,16.24,2.24,32.46,1.84,48.74-1,40.05-5.86,79.6-15.85,118.46a12.47,12.47,0,0,1-2.81,5.82c-9.79,4.37-19.78,8.33-30.14,14.67a45.56,45.56,0,0,1,9.6-13.08c1.08-1.07,2.14-2.14,3.22-3.2,2.33-2.26,3.91-4.86,2.1-8s-5.12-2.95-8.07-2.06c-9.79,3-19.6,5.86-29.27,9.2-29.76,10.27-59.91,19.37-90.44,30.75,1.59-2.52,2.74-4.24,3.78-6,1.33-2.3,1.91-4.7.17-7.07-1.9-2.58-4.67-2.66-7.31-1.87-7.08,2.11-13.77,5.27-20.51,8.29q-30.54,13.68-61.1,27.31c-.41.17-.93.09-2.38-1,2.47-2,5-3.91,7.37-6.05s3.42-4.86,1.84-7.71-4.53-3.11-7.54-2.43c-15.31,3.44-29.7,9.5-43.93,15.89-22.79,10.24-45.68,20.29-67.87,34.37a46.44,46.44,0,0,1,6-10c2-2.73,3.41-5.71.79-8.66s-5.49-1.67-8.27-.13C94.32,585.12,81.5,594.34,68.33,603c-1.68,1.1-3.42,2.1-5.13,3.15,1.31-11.26,2.68-22.51,3.91-33.78,1.35-12.26,2.66-24.53,3.78-36.82.71-7.82.83-15.71,1-23.54.54-19.44.78-38.93,0-58.35q-1.12-28.76-3.56-57.48c-1.81-21.65-4.4-43.14-8.33-64.48-3.71-20.17-8.09-40.22-11.52-60.43-2.84-16.76-5.43-33.57-6.74-50.56C40.59,205.09,40.28,189.38,37.87,173.85Z" transform="translate(9.54 2.57)"/><path class="cls-3" d="M450.12,514.3c2.77-12.89,5.7-25.74,8.27-38.67a433.72,433.72,0,0,0,6.94-52.56c1.2-16.21,2.41-32.42,1.77-48.66-.73-18.86-1.84-37.7-3.65-56.52-1.92-19.94-4.22-39.83-6.48-59.73-2.4-21.08-4.73-42.19-5.54-63.34-.81-20.91-1.29-41.91.51-62.86.7-8.16.87-16.37,1.28-24.56l.93-1.06c15.53-.35,31-1.73,46.48-2.93,6-.46,12-.38,18-.91,10.82-.94,21.75-.57,32.6-1.25C570,100.08,588.7,99.83,607.42,99c10.21-.45,20.41-.33,30.61-.73,53.69-2.14,107.4-.81,161.09-.8,14.55,0,29.17.1,43.69,1,9.39.6,18.74.48,28.11.75a7.72,7.72,0,0,1,4.32,1c1.89,1.66,1.66,3.93,1.68,6.08q.11,10.32,0,20.64c-.2,23,2.29,45.87,4.42,68.74,2.52,27,5.76,54,7.88,81.1,1.43,18.25,1.9,36.49,1.84,54.78-.1,31.95-5.28,63.1-14.4,93.68-3.9,13-8.59,25.78-13.3,38.53a20,20,0,0,1-3.12,6.28A153.12,153.12,0,0,1,833.1,480c2.27-3.11,4.56-6.21,6.81-9.34,2-2.71,3.47-5.58.91-8.68s-5.76-2.13-8.71-.65c-18.73,9.38-37.56,18.52-57.46,25.26a210.16,210.16,0,0,1-38.3,9.51c3.72-3.53,6.88-6.42,9.89-9.44,2.33-2.33,4.45-5,2.09-8.39s-5.55-2.28-8.45-.57c-20.81,12.2-44.24,16.1-67.26,21.27l-10.5,2.34c1.17-3.16,2.1-6.05-.28-8.55s-5.58-2.72-8.83-2.8c-18.13-.46-35,4.75-51.62,11.28a11.77,11.77,0,0,1-4.46,1.19c3.48-3.17,6.93-6.37,10.46-9.49,2.45-2.17,4.17-4.77,2.59-7.93s-4.71-3-7.91-2.26c-26.78,6.3-53.31,13.36-78.67,24.22-.9.39-1.82.71-2.86,1.1,0-.45-.1-.78,0-.91,2.24-2.43,5.52-4.68,3.48-8.54s-5.7-3.34-9.33-2.78c-20.48,3.18-39.82,10.28-59.33,16.84C453.65,513.3,451.88,513.77,450.12,514.3Z" transform="translate(9.54 2.57)"/><path class="cls-5" d="M860.26,470.15c1.19-8.55,5.32-16.13,8.09-24.14,8.25-23.89,14.66-48.17,18.26-73.23C890,349,890.12,325,889.27,301.13c-.66-18.81-2.26-37.63-4.58-56.37-1.84-14.89-2.58-29.92-4.37-44.82-2.17-18.07-3.09-36.24-4.8-54.34-.2-2.16-.11-4.36-.12-6.54q-.07-19.36-.16-38.74c.08-.34.15-.68.22-1,1.66,1,3.5,1,5.36,1,11.88.31,23.8.13,35.63,1.1,42.31,3.5,84.71,3.56,127.07,2.65,23.65-.51,47.32.34,70.9-1,19.46-1.08,38.93.31,58.31-1,18-1.19,35.86-.43,53.79-.78a8.41,8.41,0,0,0,5.48-2l.27,2c3.36,5.8,2.43,12.4,3.2,18.62,3.78,30.63,8.48,61.14,11.81,91.83,5.84,53.82,3.29,106.85-14.62,158.5-3.29,9.51-6.74,19-9.9,28.53a11.43,11.43,0,0,1-2.67,4.78c-18.63,4.87-37.73,7.48-56.65,11.92.14-2.35,1.6-3.6,2.45-5.12,1.72-3,3.41-6.24.86-9.31s-6.16-1.92-9.25-.46a247.74,247.74,0,0,1-25.71,10.15c-14.1,4.81-28.19,9.63-42.27,15.21,2.58-2.31,5.17-4.61,7.74-6.93,2.26-2,3.77-4.49,2.58-7.57-1.28-3.3-4.33-3.36-7.25-3.14-12,.91-23.33,4.51-34.73,7.88A326.42,326.42,0,0,0,1002,438.76c-1.29.66-2.62,1.25-4.21,2-.3-1.89.88-2.74,1.56-3.72,1.92-2.77,3.33-5.72,1.17-8.82-2.35-3.36-5.81-2.85-9.12-1.65-5.19,1.9-10.43,3.72-15.48,6-17.5,7.75-34.52,16.41-50.15,27.58a11,11,0,0,1-1.83.71c1.16-4.32,3.76-7.41,5.53-10.9A57,57,0,0,0,932,444.5a5.19,5.19,0,0,0-1.27-6,5.53,5.53,0,0,0-6.1-1.05,67,67,0,0,0-11.56,6.06c-15.1,9.39-30.47,18.29-47.12,24.72C864.09,469,862.16,469.51,860.26,470.15Z" transform="translate(9.54 2.57)"/><path class="cls-3" d="M1220.09,403.56c2.33-11.17,7.11-21.55,10.67-32.33a358.43,358.43,0,0,0,16.39-73.62c2.13-19.52,1.92-39.21.87-58.75-1.23-23-4.35-45.77-7.5-68.57-2.78-20.14-5.94-40.24-7.42-60.55-.21-2.81-1.28-5.55-.83-8.44a8.69,8.69,0,0,1,4.85-1c32,.71,64-.9,96-1.28,18.92-.22,37.89.23,56.76-1,15.09-1,30.18.27,45.18-.94,13.24-1.06,26.46-.2,39.66-.91,18.54-1,37.08-1.56,55.63-2,19.69-.53,39.36-1.85,59-3,8.48-.48,16.95-1.32,25.42-2,.94,19.84,3.51,39.53,5.52,59.27s3.5,39.26,3.71,58.94c.54,50.52-7.83,99.38-29,145.65-2.65,5.78-5,11.7-7.38,17.57-.76,1.86-1.81,3.88,1.12,4.94-28.77,5-57,11.91-84.23,23.76l5.71-7.7c1.9-2.55,3.24-5.3,1.27-8.32s-5.44-2.58-8.26-1.84c-8.75,2.3-17.37,5.08-26.09,7.51-17.93,5-35.88,9.88-53.46,16a3.06,3.06,0,0,1-2.92-.11c3.71-2.89,7.25-5.63,10.76-8.4a41,41,0,0,0,3.81-3.27,5.65,5.65,0,0,0,1-6.55c-.9-2.13-2.93-2.54-5.07-2.51-8,.14-15.48,2.81-23.12,4.61a522.25,522.25,0,0,0-56.51,16.13c-1.09.39-2.14,1-3.39.42.41-2,2.15-3,3.25-4.41,1.82-2.36,2.52-4.9,1.06-7.47s-4.26-3.34-7-2.82c-7.24,1.35-14.47,2.8-21.64,4.47a321.3,321.3,0,0,0-57.15,18.77c2.59-4.54,5.22-9.06,7.75-13.64,1.14-2,2.17-4.16,3.13-6.29a5.43,5.43,0,0,0-1.12-6.5,5.54,5.54,0,0,0-6.46-1.38c-4.47,1.92-9,3.73-13.36,5.83-10.32,5-21.47,7.57-32.22,11.29A18.7,18.7,0,0,1,1220.09,403.56Z" transform="translate(9.54 2.57)"/></svg>