<svg id="Layer_1" data-name="Layer 1" xmlns="http://www.w3.org/2000/svg" xmlns:xlink="http://www.w3.org/1999/xlink" viewBox="0 0 574.23 566.32"><defs><style>.cls-1{fill:#fff;}.cls-2{fill:#bc8774;}.cls-3{fill:#956d5f;}.cls-4{fill:#4f291c;}.cls-5{fill:#613627;}.cls-6{fill:#ca7930;}.cls-7{fill:#f1e2da;}.cls-8{fill:#41251b;}.cls-9{fill:#542a1b;}.cls-10{fill:#b3b3b3;}.cls-11{fill:#8da24c;}.cls-12{mask:url(#mask);}.cls-13{fill:#9f4d37;}</style><mask id="mask" x="154.81" y="282.99" width="244.84" height="117.72" maskUnits="userSpaceOnUse"><g transform="translate(-615.26 -694.2)"><g id="Mask_Mask_1" data-name="Mask Mask 1"><g id="Mask_eyes_0_2_MASK_0_FILL" data-name="Mask eyes 0 2 MASK 0 FILL"><path class="cls-1" d="M770.07,1050q3.73,11.09,14.2,21.65l7.6,7.58a4,4,0,0,1,1.09,1.39.83.83,0,0,1,0,.15,71.25,71.25,0,0,0,15.88,8.49,83.12,83.12,0,0,0,19.74,5,80.43,80.43,0,0,0,20.39,0,64.65,64.65,0,0,0,7-1.23,51.65,51.65,0,0,0,8.32-2.75c.45-.19,1.74-.8,3.89-1.85a4.27,4.27,0,0,0,1.52-.47c1.15-.52,2.28-1.09,3.4-1.71l1.36-.76q.36-.19.66-.39l.18.07a2.37,2.37,0,0,0,1.69.09,2.67,2.67,0,0,0,1.32-1,3.09,3.09,0,0,0,.65-1.56,4.32,4.32,0,0,0-1-3.21,8.56,8.56,0,0,0-2.54-2.23,5.06,5.06,0,0,0-2.52-.86,2.39,2.39,0,0,0-.92.18q-10.68-11-21.59-16.53a68.79,68.79,0,0,0-7.33-3.24,128.13,128.13,0,0,0-35.85-8.18,154.6,154.6,0,0,0-36.89,1.34l-.31,0m202.7-55.53c-1.5,1.09-3,2.31-4.62,3.68a151.31,151.31,0,0,0-28.66,32,153,153,0,0,0-13,23.49,7.93,7.93,0,0,1-.33,1.26q-.78,2.34-2.12,7l-1.16,4.27c-.27.88-.51,1.72-.74,2.52q-.18,1.8-.33,3.66c0,.19,0,.37,0,.54a63.18,63.18,0,0,0,10.38-1.52q4.77-1.14,12.22-3.55,5.37-1.79,8.58-3.15a81.66,81.66,0,0,0,12.73-7,127.75,127.75,0,0,0,23.58-19.48,106.63,106.63,0,0,0,13.75-17.88q.3-1,.75-2.16c.1-.22.9-1.79,2.38-4.7a57.07,57.07,0,0,0,2.9-6.82q.92-2.49,2.32-7,2.07-6.51,3-10.62c.11-.47.21-.93.29-1.38a69.78,69.78,0,0,1,.22-8.29.49.49,0,0,0,0-.12c-.06-.6-.12-1.14-.18-1.61l-.06-.35a15.19,15.19,0,0,1-2.54.77,136,136,0,0,0-25.81,9.15A140.44,140.44,0,0,0,972.77,994.48Z"/></g></g></g></mask></defs><g id="ear_02_0_Layer0_0_FILL" data-name="ear 02 0 Layer0 0 FILL"><path d="M620,904.9a432.68,432.68,0,0,0,28.76,83.32,364.59,364.59,0,0,0,46.41,75,341.87,341.87,0,0,0,71.34,66.45q2.88,2,4.66,1.68a3.29,3.29,0,0,0,2.39-2.08,4.71,4.71,0,0,0,.11-3.42,8.57,8.57,0,0,0-1.76-2.83c-.62-.6-1.49-1.36-2.62-2.27s-2.5-2.08-3.73-3.07a.29.29,0,0,0,.16,0q6.22-1.07,13.66-6a95.74,95.74,0,0,0,13.83-11.39q4.35-4.2,12.41-13.1c1.74-1.9,3.31-3.62,4.69-5.17s2.68-3,3.74-4.24a5.53,5.53,0,0,0,1.51.18,5.39,5.39,0,0,0,2.41-.56,3.14,3.14,0,0,0,1.54-1.66,2,2,0,0,0,.12-.45,3.69,3.69,0,0,0-.78-3.24,204.83,204.83,0,0,0,44.25-140.94,72.82,72.82,0,0,0-2.1-13.68,80.52,80.52,0,0,0-4-10.07q-3-6.75-4.07-10a2.72,2.72,0,0,1-.15-.42q.78-1.47-.54-3.6a15.3,15.3,0,0,0-4.27-4.21,38.28,38.28,0,0,0-5.48-2.88,198.64,198.64,0,0,0-21.18-7.94q-7.14-2.33-21.82-6.4-17.72-4.92-26.21-7-14.64-3.69-26.5-5.83-15-2.65-33.78-4.26-12.12-1-34-2.22-17.83-.87-28-1.15-15.48-.45-28-.11a9.73,9.73,0,0,0-4.4,1.1c-1.49.77-2.1,1.79-1.84,3.07a3.7,3.7,0,0,0,.11.49,78.48,78.48,0,0,0-1.3,24A178.72,178.72,0,0,0,620,904.9M675.16,1017a427.72,427.72,0,0,1-35.73-77.44,343.69,343.69,0,0,1-14.31-58.05q-1-7-1.77-14v-.44l0-4.38a22.75,22.75,0,0,1,.3-4.32l69.37,4.92q19.23,1.36,28.8,2.49a410.43,410.43,0,0,1,55.55,10.72q22.23,5.83,54.27,16.45c4.56,1.52,8.4,2.75,11.55,3.69.13.58.31,1.2.53,1.88q1.13,3.31,4.83,11.18a66.08,66.08,0,0,1,4.5,11.26,47.85,47.85,0,0,1,1.12,7l-.09-.07a64.51,64.51,0,0,0-6.67-3.21,61.43,61.43,0,0,0-6.78-1.83c-.83-.17-1.58-.31-2.23-.41q-23.84-13.14-55.16-19.87a354.15,354.15,0,0,0-37.73-5.81q-15.12-1.57-38.08-2.73-13.65-.74-21.22-.65a125.45,125.45,0,0,0-21,1.65,6.14,6.14,0,0,0-1.77.57,1.1,1.1,0,0,0-1,0c-.59.28-.82.93-.68,1.95a1.77,1.77,0,0,0,.27,1.22,312.61,312.61,0,0,0,37,81.83q28.68,45.07,65.61,68.77a38.45,38.45,0,0,0,4.45,2.55,13,13,0,0,0,2,.76q3.32,2.28,7,4.63,7.94,5.11,24.43,14.57c1.6.91,3,1.71,4.35,2.43l-.89,1c-1.24,1.42-2.53,2.87-3.89,4.37q-6.42,7.17-14.55,15.62-4.5,4.68-7.16,7a53.67,53.67,0,0,1-8,6.07,36.13,36.13,0,0,1-9.28,3.91,29,29,0,0,1-3.22.64q-17.44-14.52-29.5-26a304.65,304.65,0,0,1-34.27-37.87,335.71,335.71,0,0,1-21-32.18m3.11-93.78q-3.28-7.83-4.85-11.45l-.63-2-.8-2.85a59.53,59.53,0,0,0-2-6.1c1.32,0,2.67-.07,4-.09q9-.13,19.44.36,8.88.48,25.7,1.93,22.35,2,33.4,3.3a289.28,289.28,0,0,1,33,5.79q12.2,3,33.14,10,11.38,3.76,19.58,6.39a20,20,0,0,0,2.07,1c2.63,1.12,4.19,1.82,4.68,2.08a42.39,42.39,0,0,1,4,2.57l5.06,3.4.66.43q1.33,39.06-10.62,71.57-2.57,7-7,16.84c-1,2.32-2,4.47-3,6.46q-2.19,4.62-4,8a176.55,176.55,0,0,1-17.62,26.51q-3.35-2.06-7.32-4.32-3-1.74-10.64-5.92l-14.86-8.07q-5.49-3-8.17-4.27a31.52,31.52,0,0,0-2.91-1.3c-2.83-2.23-5-3.92-6.4-5.08A250.25,250.25,0,0,1,713,986.16,328.72,328.72,0,0,1,678.27,923.26Z" transform="translate(-615.26 -694.2)"/><path class="cls-2" d="M693.5,901.11q-10.47-.5-19.44-.36,2.24,4.23,7,12.55,7.89,14,9,14.89,6.51,11.89,15.19,25.54,17.38,27.35,29.21,36.94.94.75,11.42,8t11.37,8.06a59.3,59.3,0,0,0,6,3.52,63,63,0,0,1,6,3.52q5.74,4.66,37.61,12.53,13.06,3.21,27.4,6.56c.94-2,1.94-4.14,3-6.46q4.41-9.84,7-16.84,11.94-32.51,10.62-71.57l-.66-.43-5.06-3.4a42.39,42.39,0,0,0-4-2.57c-.49-.26-2.05-1-4.68-2.08a20,20,0,0,1-2.07-1q-8.21-2.62-19.58-6.39-21-7.05-33.14-10a289.28,289.28,0,0,0-33-5.79q-11-1.32-33.4-3.3Q702.39,901.6,693.5,901.11Z" transform="translate(-615.26 -694.2)"/><path class="cls-3" d="M673.42,911.81q1.56,3.62,4.85,11.45A328.72,328.72,0,0,0,713,986.16a250.25,250.25,0,0,0,49.32,52.33c1.43,1.16,3.57,2.85,6.4,5.08a31.52,31.52,0,0,1,2.91,1.3q2.68,1.28,8.17,4.27l14.86,8.07q7.64,4.18,10.64,5.92,4,2.26,7.32,4.32a176.55,176.55,0,0,0,17.62-26.51q1.82-3.42,4-8-14.34-3.35-27.4-6.56-31.86-7.87-37.61-12.53a63,63,0,0,0-6-3.52,59.3,59.3,0,0,1-6-3.52q-.94-.76-11.37-8.06t-11.42-8q-11.84-9.58-29.21-36.94-8.68-13.65-15.19-25.54-1.15-.93-9-14.89-4.72-8.32-7-12.55c-1.37,0-2.72,0-4,.09a59.53,59.53,0,0,1,2,6.1l.8,2.85Z" transform="translate(-615.26 -694.2)"/><path class="cls-4" d="M661.78,957.85q-4.8-7.25-9.41-14.49a112,112,0,0,1-9.23-18q-2.24-5.52-4.61-11t-4.35-11.09q-6.16-17.87-10.83-36.12v.44q.74,7,1.77,14a343.69,343.69,0,0,0,14.31,58.05A427.72,427.72,0,0,0,675.16,1017a335.71,335.71,0,0,0,21,32.18,304.65,304.65,0,0,0,34.27,37.87q12,11.48,29.5,26a29,29,0,0,0,3.22-.64,36.13,36.13,0,0,0,9.28-3.91,53.67,53.67,0,0,0,8-6.07q2.67-2.35,7.16-7,8.13-8.45,14.55-15.62c1.36-1.5,2.65-3,3.89-4.37a103.52,103.52,0,0,1-22.81-5.25,151.74,151.74,0,0,1-33.48-16.69q-3.09-2.05-6-4.35-7-5.43-13.49-11.48-14-13.07-27.18-27Q693,1000.1,684,988.55,672.19,973.58,661.78,957.85Z" transform="translate(-615.26 -694.2)"/><path class="cls-5" d="M652.37,943.36q4.61,7.25,9.41,14.49,10.4,15.74,22.18,30.7,9.09,11.55,19.07,22.11,13.22,14,27.18,27,6.46,6,13.49,11.48,3,2.29,6,4.35a151.74,151.74,0,0,0,33.48,16.69,103.52,103.52,0,0,0,22.81,5.25l.89-1c-1.3-.72-2.75-1.52-4.35-2.43q-16.5-9.45-24.43-14.57-3.71-2.36-7-4.63a13,13,0,0,1-2-.76,38.45,38.45,0,0,1-4.45-2.55q-36.93-23.7-65.61-68.77a312.61,312.61,0,0,1-37-81.83,1.77,1.77,0,0,1-.27-1.22c-.14-1,.09-1.67.68-1.95a1.1,1.1,0,0,1,1,0,6.14,6.14,0,0,1,1.77-.57,125.45,125.45,0,0,1,21-1.65q7.57-.07,21.22.65,23,1.15,38.08,2.73a354.15,354.15,0,0,1,37.73,5.81q31.32,6.74,55.16,19.87c.65.1,1.4.24,2.23.41a61.43,61.43,0,0,1,6.78,1.83,64.51,64.51,0,0,1,6.67,3.21l.09.07a47.85,47.85,0,0,0-1.12-7,66.08,66.08,0,0,0-4.5-11.26q-3.71-7.86-4.83-11.18c-.22-.68-.4-1.3-.53-1.88-3.15-.94-7-2.17-11.55-3.69q-32-10.62-54.27-16.45a410.43,410.43,0,0,0-55.55-10.72q-9.55-1.12-28.8-2.49l-69.37-4.92a22.75,22.75,0,0,0-.3,4.32l0,4.38q4.67,18.24,10.83,36.12,2,5.67,4.35,11.09t4.61,11A112,112,0,0,0,652.37,943.36Z" transform="translate(-615.26 -694.2)"/></g><g id="ear_01_0_Layer0_0_FILL" data-name="ear 01 0 Layer0 0 FILL"><path d="M1057.23,694.28a9.68,9.68,0,0,0-4.1,2q-9.89,7.62-21.44,17.68-7.67,6.68-20.75,18.53-16.05,14.64-24.67,23.07-13.35,13-23.15,24.56-7.68,9.11-16.5,21.14-5.1,7-15.45,21.87-8.61,12.33-12.57,18.56a203.77,203.77,0,0,0-11.06,19.41,44.29,44.29,0,0,0-2.26,5.67,14.12,14.12,0,0,0-.48,5.94,3.49,3.49,0,0,0,1.88,3.08c0,.11.08.25.15.43a102.28,102.28,0,0,1,3.43,10.18,78.36,78.36,0,0,0,3.59,10.14,55.45,55.45,0,0,0,5.25,8.84c.65,1,1.36,1.93,2.11,2.93l.88,1.17a204,204,0,0,0,41.6,41.09Q971,956.06,979,961a211.13,211.13,0,0,0,68.76,27.34,3.54,3.54,0,0,0,1.85,3.23,3.49,3.49,0,0,0,2.33.27,4.83,4.83,0,0,0,2.16-1,6.37,6.37,0,0,0,1.07-1.18q4.78.85,12.66,2,12,1.68,18.11,2.19a109.2,109.2,0,0,0,18.11,0q8.94-.94,14.41-4a.4.4,0,0,0,.16,0c-.28,1.53-.58,3.08-.9,4.66-.23,1.41-.38,2.56-.45,3.44a7.19,7.19,0,0,0,.49,3.24,4.59,4.59,0,0,0,2.33,2.46,3,3,0,0,0,3.15.12q1.63-.78,2.55-4.14a330.75,330.75,0,0,0,11.09-95.71,359.69,359.69,0,0,0-13.63-86.61,429.71,429.71,0,0,0-32.59-81.81,182.85,182.85,0,0,0-13-21.81c-1.33-1.84-2.68-3.6-4.06-5.26a82,82,0,0,0-8.6-9q-2-1.77-4.13-3.34a.86.86,0,0,0-.2-.39c-.65-1.11-1.78-1.54-3.4-1.28m.08,7.88a14.79,14.79,0,0,1,2.17,2c.29.35.59.71.9,1.1l3.16,3.62q1.73,2.49,3.4,5a336.2,336.2,0,0,1,31.5,60.22,421.26,421.26,0,0,1,23.49,81.64,325.12,325.12,0,0,1,5,37.86,295.09,295.09,0,0,1-1.45,50.52q-1.71,16.33-5.57,38.4a23.8,23.8,0,0,1-2.89,1.56,34.63,34.63,0,0,1-9.71,2.84,57.77,57.77,0,0,1-10.09.39q-3.59-.17-10.05-.79-16.45-1.9-28.71-4c.57-1.34,1.16-2.86,1.8-4.56q6.38-17.67,9.21-26.55,1.3-4.09,2.27-7.92c.38-.58.75-1.21,1.1-1.88a29.37,29.37,0,0,0,1.75-4.77q12.7-41.29,5.16-93.86a310.26,310.26,0,0,0-24.23-83.5c-.34-.76-.68-1.54-1-2.31a2.6,2.6,0,0,0-.64-1.16c-.52-.83-1.1-1.15-1.75-1a.93.93,0,0,0-.78.55,10.17,10.17,0,0,0-1.71.77,126.41,126.41,0,0,0-17.3,11.92q-5.79,4.71-15.86,13.84-12.48,11.43-21.56,20.24c-2.09,2-4,4-5.86,5.81a333.5,333.5,0,0,0-25.16,28.21q-19.62,24.84-29.25,49.91c-.42.5-.9,1.09-1.43,1.78a48,48,0,0,0-4,5.62,57.28,57.28,0,0,0-3.05,6.65l0,.08c-.3-.42-.59-.84-.86-1.24a40.48,40.48,0,0,1-2.88-4.83c-.06-.14-.13-.29-.19-.44A73.77,73.77,0,0,1,918.38,883a114.15,114.15,0,0,0-3.61-11.66,12.21,12.21,0,0,0-.9-1.81q2.79-4,6.52-10.08,17.58-28.28,30.86-46.65a397.65,397.65,0,0,1,35.52-43.16q6.65-6.92,20.52-20.17l50-47.3m-12.88,65.6c1.74-1.41,3.44-2.77,5.11-4,.18.51.4,1.1.68,1.76.47,1.15,1.08,2.51,1.83,4.11l1.27,2.76c.29.64.59,1.27.89,1.88Q1055.32,778,1058,786a323.73,323.73,0,0,1,14.59,70,244.6,244.6,0,0,1-3.44,71q-.54,2.67-1.67,7.88c-.42.9-.88,1.85-1.37,2.87q-1.18,2.7-3.41,8.4l-6.15,15.53q-3.09,8-4.29,11.21c-1.07,2.8-2,5.43-2.78,7.9a186.28,186.28,0,0,1-30.89-9.14q-6-2.43-14.85-6.73-9.93-4.69-16.47-8.52a176.83,176.83,0,0,1-23.19-15.8A193.44,193.44,0,0,1,949,927.22a222.44,222.44,0,0,1-16.88-18.74,5.93,5.93,0,0,0,.21-.83l1.68-5.74c.56-2,1-3.54,1.39-4.52.23-.49,1-2,2.22-4.52.36-.75.69-1.44,1-2.07q4.54-7.14,10.78-17.21Q960.9,855,968.3,845.07a292.57,292.57,0,0,1,21.47-25.14c1.24-1.3,2.64-2.75,4.22-4.35l.11-.14q7.23-7.41,19.22-19.08t18.4-17.58Q1038.34,772.74,1044.43,767.76Z" transform="translate(-615.26 -694.2)"/><path class="cls-3" d="M1049.54,763.71c-1.67,1.28-3.37,2.64-5.11,4q-6.09,5-12.71,11-6.46,5.88-18.4,17.58T994.1,815.44l-.11.14c-1.58,1.6-3,3-4.22,4.35a292.57,292.57,0,0,0-21.47,25.14q-7.41,9.95-18.91,28.52-6.24,10.06-10.78,17.21c-.28.63-.61,1.32-1,2.07-1.25,2.53-2,4-2.22,4.52-.36,1-.83,2.49-1.39,4.52l-1.68,5.74a5.93,5.93,0,0,1-.21.83A222.44,222.44,0,0,0,949,927.22a193.44,193.44,0,0,0,15.05,13.41,176.83,176.83,0,0,0,23.19,15.8q6.54,3.81,16.47,8.52,8.87,4.29,14.85,6.73a186.28,186.28,0,0,0,30.89,9.14c.79-2.47,1.71-5.1,2.78-7.9q1.2-3.18,4.29-11.21l6.15-15.53q2.22-5.7,3.41-8.4c.49-1,1-2,1.37-2.87q1.13-5.2,1.67-7.88a244.6,244.6,0,0,0,3.44-71A323.73,323.73,0,0,0,1058,786q-2.67-8.06-3.78-11.81c-.3-.61-.6-1.24-.89-1.88l-1.27-2.76c-.75-1.6-1.36-3-1.83-4.11C1049.94,764.81,1049.72,764.22,1049.54,763.71Z" transform="translate(-615.26 -694.2)"/><path class="cls-4" d="M1054.43,757.19c.36.77.7,1.55,1,2.31A310.26,310.26,0,0,1,1079.7,843q7.54,52.56-5.16,93.86a29.37,29.37,0,0,1-1.75,4.77c-.35.67-.72,1.3-1.1,1.88q-1,3.82-2.27,7.92-2.84,8.9-9.21,26.55c-.64,1.7-1.23,3.22-1.8,4.56q12.25,2.12,28.71,4,6.47.63,10.05.79a57.77,57.77,0,0,0,10.09-.39,34.63,34.63,0,0,0,9.71-2.84,23.8,23.8,0,0,0,2.89-1.56q3.86-22.06,5.57-38.4a295.09,295.09,0,0,0,1.45-50.52,325.12,325.12,0,0,0-5-37.86,421.26,421.26,0,0,0-23.49-81.64,336.2,336.2,0,0,0-31.5-60.22q-18.42,15.83-37,31.59A339.5,339.5,0,0,0,969.13,813a377.66,377.66,0,0,0-43.93,86.19c.27.4.56.82.86,1.24l0-.08a57.28,57.28,0,0,1,3.05-6.65,48,48,0,0,1,4-5.62c.53-.69,1-1.28,1.43-1.78q9.62-25.06,29.25-49.91A333.5,333.5,0,0,1,989,808.17c1.82-1.83,3.77-3.76,5.86-5.81q9.07-8.8,21.56-20.24,10.06-9.12,15.86-13.84a126.41,126.41,0,0,1,17.3-11.92,10.17,10.17,0,0,1,1.71-.77.93.93,0,0,1,.78-.55c.65-.16,1.23.16,1.75,1A2.6,2.6,0,0,1,1054.43,757.19Z" transform="translate(-615.26 -694.2)"/><path class="cls-5" d="M1059.48,704.18a14.79,14.79,0,0,0-2.17-2l-50,47.3q-13.87,13.24-20.52,20.17a397.65,397.65,0,0,0-35.52,43.16Q938,831.17,920.39,859.44q-3.74,6.07-6.52,10.08a12.21,12.21,0,0,1,.9,1.81A114.15,114.15,0,0,1,918.38,883a73.77,73.77,0,0,0,3.75,10.92c.06.15.13.3.19.44a40.48,40.48,0,0,0,2.88,4.83A377.66,377.66,0,0,1,969.13,813,339.5,339.5,0,0,1,1030,745.5q18.54-15.76,37-31.59-1.68-2.52-3.4-5l-3.16-3.62C1060.07,704.89,1059.77,704.53,1059.48,704.18Z" transform="translate(-615.26 -694.2)"/></g><g id="face_0_Layer0_0_FILL" data-name="face 0 Layer0 0 FILL"><path d="M919.41,851.62a.84.84,0,0,0-.27,0,181.36,181.36,0,0,0-58.82,13.13c-2.58,1-5.15,2.13-7.7,3.29a171.26,171.26,0,0,0-55,39.41q-6,6.52-13.32,16a185.44,185.44,0,0,0-12.56,18.12,150.43,150.43,0,0,0-16,39.07,291.16,291.16,0,0,0-7.44,41.83,315.69,315.69,0,0,0-2.19,32.76,172.27,172.27,0,0,0,2.65,32.57q1.31,7.34,4.6,19.54,2.17,8,4.39,15,3.15,10.26,6.3,18.6a211.22,211.22,0,0,0,14.83,31.93,173.17,173.17,0,0,0,37.67,44.78,179.68,179.68,0,0,0,43,27.08c2.58,1.17,5.19,2.28,7.83,3.31a184.95,184.95,0,0,0,117.42,5.36,216.93,216.93,0,0,0,32.43-12.49q42-19.89,66.79-49a148,148,0,0,0,15.23-21.27q2.49-4.14,4.73-8.48a170.42,170.42,0,0,0,13.11-33.08,240,240,0,0,0,5.32-23.83q11.46-64.2-5.49-111.93a196.07,196.07,0,0,0-14.15-30.52q-7.37-13-18.29-28.46-6.63-9.42-12.1-16.2a173,173,0,0,0-13.54-15,142.34,142.34,0,0,0-11.24-9.82,188.69,188.69,0,0,0-60.34-32.41,185.69,185.69,0,0,0-67.83-9.23m49.85,13c.51.1,1,.22,1.52.36a173.24,173.24,0,0,1,20.31,6.09,194.9,194.9,0,0,1,18.25,7.89,153.07,153.07,0,0,1,16.43,8.85q20.18,12.4,38.11,34.41,13.11,16.17,28.84,42.82,5.58,9.56,8.5,15.49,21.58,43.47,14,107a240.21,240.21,0,0,1-9,44,168.25,168.25,0,0,1-10.76,26.52,131.79,131.79,0,0,1-8.08,14,142.88,142.88,0,0,1-10.66,13.94,155.65,155.65,0,0,1-12.78,13q-6.83,6.21-14.27,11.79-7.26,5.4-14.82,10.16-8,5-16.43,9.3-8.62,4.27-17.6,8a165.57,165.57,0,0,1-16.93,6.18,171.27,171.27,0,0,1-17.86,4.28,151,151,0,0,1-18.26,2.43,186.39,186.39,0,0,1-18.74.41q-7.42-.3-14.81-1a160.58,160.58,0,0,1-18.13-3q-9.09-2.1-17.78-5A155.37,155.37,0,0,1,860,1235a170.57,170.57,0,0,1-33-20.75,162.89,162.89,0,0,1-38.29-43.43,197.52,197.52,0,0,1-13.17-26.53q-3.86-9.45-8-21.91-1-2.92-2-5.95a229,229,0,0,1-6.34-22.66,175.06,175.06,0,0,1-3.59-32.13,283.56,283.56,0,0,1,1.29-32.32,287.6,287.6,0,0,1,6.78-42.2A161.77,161.77,0,0,1,779,947.43q12-21.51,32.8-40.58l2.12-1.89a223.29,223.29,0,0,1,20.52-16.34l1.72-1.23c1.81-1.27,3.56-2.45,5.25-3.56.52-.33,1-.64,1.55-.93q4.43-2.82,8.3-4.83A134.14,134.14,0,0,1,873,869.34q5.5-1.74,11-3.1c1.68-.42,3.36-.8,5.05-1.12a2.63,2.63,0,0,1,.62-.13,5.63,5.63,0,0,1,.75-.27,4.75,4.75,0,0,1,.57-.18,7.89,7.89,0,0,1,2.28-.33c1.27-.28,2.58-.54,3.91-.77a175.51,175.51,0,0,1,19.14-2.37c1.21-.09,2.45-.17,3.69-.24q6.11-.36,12.26-.29A177.14,177.14,0,0,1,969.26,864.63Z" transform="translate(-615.26 -694.2)"/><path class="cls-6" d="M889.69,865a2.63,2.63,0,0,0-.62.13v.08l.61-.21m-48.48,19.29c0-.14.09-.28.15-.45-1.69,1.11-3.44,2.29-5.25,3.56l-.28.73a18.63,18.63,0,0,1,4.22-3.26,12.54,12.54,0,0,1,1.16-.58M970.78,865c-.51-.14-1-.26-1.52-.36a177.14,177.14,0,0,0-37-4.09q-6.15-.06-12.26.29c-.15.62-.42,1.89-.8,3.83s-.87,4.72-1.49,8.09q-2.24,12.39-2.17,13.12l-.24,2.29a4.52,4.52,0,0,1,.26,1.07,3.8,3.8,0,0,0,.74,1.61,4.62,4.62,0,0,1,.71,1.66,9.92,9.92,0,0,0,1.39,3.42,13.94,13.94,0,0,1,1.59,5.56q1.8,11.28,1.92,12.53,0,10.79-2.58,15.31l-2-1.8c0-.42-.2-.58-.48-.5s-.47-.09-.51-.5a14.13,14.13,0,0,0-1.22-1.6,8.67,8.67,0,0,1-1.25-1.64q0-.43-3.62-8.65c-2.41-5.56-3.67-8.82-3.76-9.81,0-.15-.07-.42-.16-.8a2.88,2.88,0,0,0-.85.12c-1,.27-1.47.19-1.51-.25s-.19-.54-.47-.46-.48-.1-.52-.46-.4-.82-1.12-1.45a1.71,1.71,0,0,1-.41-.2,15.73,15.73,0,0,1-5-5.07l-1.86-3.06c-.75-1.26-1.39-2.25-1.93-3l-.45-.63c-.14-.17-.29-.36-.45-.58a9.55,9.55,0,0,1-1.21-1.56,16.11,16.11,0,0,1-1.21-1.65,10.52,10.52,0,0,1-2.09-5c0-.15,0-.35,0-.58l-.06.12c-.78.08-1,2-.6,5.93a2,2,0,0,0,.79,1.29,2.36,2.36,0,0,1,.75,1.34,26.54,26.54,0,0,0,.77,3,28.93,28.93,0,0,1,.73,3.1q0,.23-2.26,23.1c-.2,2-.37,3.83-.52,5.57,1.07,2.92,1.6,4.4,1.6,4.42q1.14,21.84.32,25a2.14,2.14,0,0,0-.92.2,2.8,2.8,0,0,1-1.07.3c-.43.05-.53.18-.27.42s.15.46-.26.5q-1.44.14.1,13.52,1.8,13.44,1.81,13.48c-.55.21-1.51-.1-2.87-.94a22.92,22.92,0,0,1-4.27-3.73,23.79,23.79,0,0,1-6.34-13.7q-.06-.66-.93-5.23c-.62-3.1-.94-4.84-1-5.23,0-.23-.51-1.6-1.46-4.12-.24-.63-.45-1.16-.62-1.58a1.87,1.87,0,0,1-.4-.86,2.57,2.57,0,0,0-1.47-1.93c-.95-.59-1.43-1-1.46-1.35,0,0-.82-.66-2.46-1.91s-2.5-2-2.53-2.34c-3-3.68-4.45-5.57-4.46-5.67,0-.44-.21-.68-.51-.73a.62.62,0,0,1-.53-.62,8.44,8.44,0,0,0-1.48-2.4c-1-1.26-1.48-1.9-1.48-1.93a2.27,2.27,0,0,0-.71-1.26,2.42,2.42,0,0,1-.76-1.37,4.49,4.49,0,0,0-.71-1.69,4.94,4.94,0,0,1-.75-1.69,5.23,5.23,0,0,0-.76-1.84,4.9,4.9,0,0,1-.77-1.81,5.21,5.21,0,0,0-.71-1.77,5,5,0,0,1-.77-1.8,3.66,3.66,0,0,0-.7-1.57,4.26,4.26,0,0,1-.75-1.69.74.74,0,0,0-.49-.7c-.32-.07-.5-.31-.55-.73-.24.7-.51,1.4-.81,2.08a46.67,46.67,0,0,0-2.07,5.28,16.14,16.14,0,0,0-.53,3.81v.12a35.31,35.31,0,0,1,.62,5.57c.35,6.8.5,11.93.48,15.41q-.14,3.89-.19,6.55c.18,1,.28,1.67.3,1.85,0,.44.29,1.79.74,4.07s.66,3.6.7,4a19.72,19.72,0,0,1-.37,5c-.42,2.41-.64,3.88-.67,4.4l-1,.06q-5.91-11.67-5.92-11.83a3.44,3.44,0,0,0-1.8-2.83l-1.66-.94c0-.39-.19-.53-.47-.42s-.48-.09-.52-.5a.67.67,0,0,0-.49-.69.75.75,0,0,1-.54-.73,4.3,4.3,0,0,0-.71-1.62,4.2,4.2,0,0,1-.75-1.69,15.75,15.75,0,0,0-.72-2.59,13.89,13.89,0,0,1-.75-2.54,11.36,11.36,0,0,0-.75-2.4,12,12,0,0,1-.73-2.35c-.1-1.06-1.31-3.63-3.61-7.71s-3.59-7.23-3.79-9.29c0-.39,0-2,.05-4.7s.09-4.32,0-4.7a1.85,1.85,0,0,0-1-1.47,3.59,3.59,0,0,0-2.27-.44,13.23,13.23,0,0,0-1.5.26,5.36,5.36,0,0,1-1.27.2,32.49,32.49,0,0,1,.42-3.68l-2.12,1.89q-20.81,19.08-32.8,40.58a161.77,161.77,0,0,0-15.25,39.66,287.6,287.6,0,0,0-6.78,42.2,283.56,283.56,0,0,0-1.29,32.32,175.06,175.06,0,0,0,3.59,32.13,229,229,0,0,0,6.34,22.66q1,3,2,5.95,4.17,12.47,8,21.91a197.52,197.52,0,0,0,13.17,26.53A162.89,162.89,0,0,0,827,1214.22a177,177,0,0,0,15.63,11.16,114,114,0,0,1-5.34-20.8,144.46,144.46,0,0,1-1.73-22.68,151.15,151.15,0,0,1,6.9-44.68,115.32,115.32,0,0,1,5.79-14.84,48.36,48.36,0,0,1,8.59-12.72,44,44,0,0,1,3.25-3.18,29.16,29.16,0,0,1,15.1-6.86l2.25-.22a23.54,23.54,0,0,0,4,0c1.42-.12,2.87-.24,4.34-.39a18.18,18.18,0,0,1,4.88-.12c2.19-1,4.48-2.24,6.85-3.56q3.9-2.13,12.74-7.41,8.17-4.86,12.79-7.27a103.34,103.34,0,0,1,13.39-6,68.57,68.57,0,0,1,11.21-3,92.21,92.21,0,0,1,24.21-3.25,120.21,120.21,0,0,1,13.28.63c1.88-.12,3.76-.16,5.66-.12l1,.06c1.34.11,2.63.21,3.86.33a28.34,28.34,0,0,1,8.51.58,16.67,16.67,0,0,1,3.91,1.19q10.35,4.67,20.49,10a29.64,29.64,0,0,1,3,1.94,12.78,12.78,0,0,1,3.52,4.08l2,1.1a2.18,2.18,0,0,0,.87,1.32q5.7,4.41,11.33,9.58,4.22,3.93,8.61,7.66a78.51,78.51,0,0,1,7.15,6.78q5.72,6,11.2,12.64a142.22,142.22,0,0,1,11.13,15.12,76.58,76.58,0,0,1,8,16.71,168.25,168.25,0,0,0,10.76-26.52,240.21,240.21,0,0,0,9-44q7.55-63.48-14-107-2.92-5.94-8.5-15.49-15.73-26.64-28.84-42.82-17.94-22-38.11-34.41a153.07,153.07,0,0,0-16.43-8.85,194.9,194.9,0,0,0-18.25-7.89A173.24,173.24,0,0,0,970.78,865Z" transform="translate(-615.26 -694.2)"/><path class="cls-7" d="M1095.47,1158a76.58,76.58,0,0,0-8-16.71,142.22,142.22,0,0,0-11.13-15.12q-5.49-6.59-11.2-12.64a78.51,78.51,0,0,0-7.15-6.78q-4.4-3.72-8.61-7.66-5.62-5.16-11.33-9.58a2.18,2.18,0,0,1-.87-1.32l-2-1.1a12.78,12.78,0,0,0-3.52-4.08,29.64,29.64,0,0,0-3-1.94q-10.14-5.35-20.49-10a16.67,16.67,0,0,0-3.91-1.19,28.34,28.34,0,0,0-8.51-.58c-1.23-.12-2.52-.22-3.86-.33l-1-.06c-1.9,0-3.78,0-5.66.12a120.21,120.21,0,0,0-13.28-.63,92.21,92.21,0,0,0-24.21,3.25,68.57,68.57,0,0,0-11.21,3,103.34,103.34,0,0,0-13.39,6q-4.62,2.4-12.79,7.27-8.84,5.28-12.74,7.41c-2.37,1.32-4.66,2.51-6.85,3.56a18.18,18.18,0,0,0-4.88.12c-1.47.15-2.92.27-4.34.39a23.54,23.54,0,0,1-4,0l-2.25.22a29.16,29.16,0,0,0-15.1,6.86,44,44,0,0,0-3.25,3.18,48.36,48.36,0,0,0-8.59,12.72,115.32,115.32,0,0,0-5.79,14.84,151.15,151.15,0,0,0-6.9,44.68,144.46,144.46,0,0,0,1.73,22.68,114,114,0,0,0,5.34,20.8A175.94,175.94,0,0,0,860,1235a155.37,155.37,0,0,0,18.33,7.45q8.68,2.92,17.78,5a160.58,160.58,0,0,0,18.13,3q7.38.74,14.81,1a186.39,186.39,0,0,0,18.74-.41,151,151,0,0,0,18.26-2.43,171.27,171.27,0,0,0,17.86-4.28,165.57,165.57,0,0,0,16.93-6.18q9-3.76,17.6-8,8.43-4.31,16.43-9.3,7.56-4.77,14.82-10.16,7.44-5.58,14.27-11.79a155.65,155.65,0,0,0,12.78-13,142.88,142.88,0,0,0,10.66-13.94A131.79,131.79,0,0,0,1095.47,1158Z" transform="translate(-615.26 -694.2)"/><path class="cls-8" d="M919.23,864.66c.38-1.94.65-3.21.8-3.83-1.24.07-2.48.15-3.69.24a175.51,175.51,0,0,0-19.14,2.37c-1.33.23-2.64.49-3.91.77a7.89,7.89,0,0,0-2.28.33,4.75,4.75,0,0,0-.57.18,5.63,5.63,0,0,0-.75.27l-.61.21v-.08c-1.69.32-3.37.7-5.05,1.12q-5.55,1.37-11,3.1a134.14,134.14,0,0,0-21.76,8.73q-3.87,2-8.3,4.83c-.52.29-1,.6-1.55.93-.06.17-.11.31-.15.45a12.54,12.54,0,0,0-1.16.58,18.63,18.63,0,0,0-4.22,3.26l.28-.73-1.72,1.23A223.29,223.29,0,0,0,813.87,905a32.49,32.49,0,0,0-.42,3.68,5.36,5.36,0,0,0,1.27-.2,13.23,13.23,0,0,1,1.5-.26,3.59,3.59,0,0,1,2.27.44,1.85,1.85,0,0,1,1,1.47c0,.38,0,1.95,0,4.7s-.09,4.31-.05,4.7q.3,3.09,3.79,9.29c2.3,4.08,3.51,6.65,3.61,7.71a12,12,0,0,0,.73,2.35,11.36,11.36,0,0,1,.75,2.4,13.89,13.89,0,0,0,.75,2.54,15.75,15.75,0,0,1,.72,2.59,4.2,4.2,0,0,0,.75,1.69,4.3,4.3,0,0,1,.71,1.62.75.75,0,0,0,.54.73.67.67,0,0,1,.49.69c0,.41.22.58.52.5s.44,0,.47.42l1.66.94a3.44,3.44,0,0,1,1.8,2.83q0,.16,5.92,11.83l1-.06c0-.52.25-2,.67-4.4a19.72,19.72,0,0,0,.37-5c0-.36-.27-1.68-.7-4s-.7-3.63-.74-4.07c0-.18-.12-.8-.3-1.85q.06-2.67.19-6.55c0-3.48-.13-8.61-.48-15.41a35.31,35.31,0,0,0-.62-5.57v-.12a16.14,16.14,0,0,1,.53-3.81,46.67,46.67,0,0,1,2.07-5.28c.3-.68.57-1.38.81-2.08,0,.42.23.66.55.73a.74.74,0,0,1,.49.7,4.26,4.26,0,0,0,.75,1.69,3.66,3.66,0,0,1,.7,1.57,5,5,0,0,0,.77,1.8,5.21,5.21,0,0,1,.71,1.77,4.9,4.9,0,0,0,.77,1.81,5.23,5.23,0,0,1,.76,1.84,4.94,4.94,0,0,0,.75,1.69,4.49,4.49,0,0,1,.71,1.69,2.42,2.42,0,0,0,.76,1.37,2.27,2.27,0,0,1,.71,1.26s.5.67,1.48,1.93a8.44,8.44,0,0,1,1.48,2.4.62.62,0,0,0,.53.62c.3.05.46.29.51.73,0,.1,1.49,2,4.46,5.67,0,.34.87,1.12,2.53,2.34s2.45,1.88,2.46,1.91c0,.31.51.76,1.46,1.35a2.57,2.57,0,0,1,1.47,1.93,1.87,1.87,0,0,0,.4.86c.17.42.38.95.62,1.58,1,2.52,1.44,3.89,1.46,4.12,0,.39.36,2.13,1,5.23s.89,4.79.93,5.23a23.79,23.79,0,0,0,6.34,13.7,22.92,22.92,0,0,0,4.27,3.73c1.36.84,2.32,1.15,2.87.94t-1.81-13.48q-1.54-13.38-.1-13.52c.41,0,.5-.21.26-.5s-.16-.37.27-.42a2.8,2.8,0,0,0,1.07-.3,2.14,2.14,0,0,1,.92-.2q.82-3.21-.32-25s-.53-1.5-1.6-4.42c.15-1.74.32-3.59.52-5.57q2.28-22.86,2.26-23.1a28.93,28.93,0,0,0-.73-3.1,26.54,26.54,0,0,1-.77-3,2.36,2.36,0,0,0-.75-1.34,2,2,0,0,1-.79-1.29c-.38-3.88-.18-5.85.6-5.93l.06-.12c0,.23,0,.43,0,.58a10.52,10.52,0,0,0,2.09,5,16.11,16.11,0,0,0,1.21,1.65,9.55,9.55,0,0,0,1.21,1.56c.16.22.31.41.45.58l.45.63c.54.73,1.18,1.72,1.93,3l1.86,3.06a15.73,15.73,0,0,0,5,5.07,1.71,1.71,0,0,0,.41.2c.72.63,1.09,1.12,1.12,1.45s.21.52.52.46.43.08.47.46.55.52,1.51.25a2.88,2.88,0,0,1,.85-.12c.09.38.14.65.16.8.09,1,1.35,4.25,3.76,9.81s3.59,8.36,3.62,8.65a8.67,8.67,0,0,0,1.25,1.64,14.13,14.13,0,0,1,1.22,1.6c0,.41.21.58.51.5s.44.08.48.5l2,1.8Q922,924.8,921.94,914q-.12-1.25-1.92-12.53a13.94,13.94,0,0,0-1.59-5.56A9.92,9.92,0,0,1,917,892.5a4.62,4.62,0,0,0-.71-1.66,3.8,3.8,0,0,1-.74-1.61,4.52,4.52,0,0,0-.26-1.07l.24-2.29q-.06-.74,2.17-13.12C918.36,869.38,918.85,866.68,919.23,864.66Z" transform="translate(-615.26 -694.2)"/></g><g id="fur02_0_Layer0_0_FILL" data-name="fur02 0 Layer0 0 FILL"><path class="cls-7" d="M1097.1,1162.38c.21-.18.45-.36.72-.56q-7.6-17.13-7.71-17.14-2.34-3.47-5.27-7.69c-.7-1-1.38-2-2-2.88-.06.39-.16.83-.28,1.32-.43,2-.65,3.25-.67,3.64s-.26,2.06-.75,5-.71,4.66-.72,5.05-.24,1.62-.67,3.71a34.35,34.35,0,0,0-.75,3.76,105.53,105.53,0,0,0,.45,15.36,25.26,25.26,0,0,0,1.76,7.7A86,86,0,0,1,1097.1,1162.38Z" transform="translate(-615.26 -694.2)"/><path class="cls-6" d="M1136.71,1124a11.54,11.54,0,0,1,2.34-2.42,73.73,73.73,0,0,0,13.87-16q-9.76,3-21.15,5.43a243.23,243.23,0,0,1-45.56,5c-.06.31-.12.65-.19,1q-1.43,7.51-2.8,14.75a19.28,19.28,0,0,1-.43,2.4c.67.91,1.35,1.86,2,2.88q2.92,4.23,5.27,7.69.11,0,7.71,17.14,7.46-6,26.85-17.36,18.06-10.73,26.44-19.09a45.4,45.4,0,0,1-10.79,3.34,6.47,6.47,0,0,1-2.72-.06,1.93,1.93,0,0,1-1.74-1.46,1.72,1.72,0,0,1,.32-1.51v-.11a3.55,3.55,0,0,1,.52-1.62m-31.89-156.08-9.45-7.29c-1.75-1.33-3.11-2.32-4.07-3a23.2,23.2,0,0,1-2.86-2l-1-1.12a6.52,6.52,0,0,0-1-1.09l-.92-.66a3.88,3.88,0,0,1-.72-.64,4.81,4.81,0,0,0-1.9,1.06q-2.7,2.45-2.86,7.27a65.25,65.25,0,0,0,1.83,16.15q3,11.6,4.63,18.47a206.48,206.48,0,0,1,5.72,56.1c0,.32-.12,2-.32,4.94,1-.69,1.74-1.23,2.35-1.59a32.72,32.72,0,0,1,5.06-2.13c.39-.14.76-.29,1.11-.43a86.32,86.32,0,0,0,9.08-7.09q5.19-5,5.32-8.67t7.69-11.93q7.62-8.26,7.68-10.41a31.09,31.09,0,0,0,0-3.59,6,6,0,0,1-2.32-.39,6.88,6.88,0,0,0-1.54-.56c0-.18,0-.39,0-.62a9.89,9.89,0,0,1,0-1.68q.06-1.66,5.87-6.62l3.09-2.66q-2.71-2.54-6.11-5.78c-3.24-3.15-5.46-5.35-6.63-6.61a82.84,82.84,0,0,1-5.58-6.7q-3.51-3.12-6.2-5.55l-.22-.28a.56.56,0,0,0-.2-.12,3.08,3.08,0,0,1-.26-.24c-.63-.6-1.22-1.16-1.77-1.7a6.15,6.15,0,0,1-.64-.61c-.79-.67-1.72-1.42-2.81-2.24m71.63,56.56c-.73,0-1.83.1-3.32.2s-2.56.2-3.32.2a30.78,30.78,0,0,1-7.68-1l-4.26,3.79q-15.8,14.22-27.3,22.68-21.9,16.13-39.61,20.08c-.19,2.48-.38,5.22-.59,8.2q0,1.2-1.38,19.94a64.49,64.49,0,0,1-.9,6.9l.86-.09q19.44-5.37,26.6-7.5,27.17-8.4,27.28-11.85,0-.2,12.83-6l10.68-4.78,1,2.18q.84-1.8,1.44-3.3c.71-1.77,1.25-3.24,1.63-4.43q.57-2,1.19-5.18c.55-3.22.86-5,.92-5.22l.46-2a.51.51,0,0,0-.24.18,47.18,47.18,0,0,1-6.17,3.8,58.44,58.44,0,0,1-6.06,2.91,21.76,21.76,0,0,1-6.45,1.54,7.4,7.4,0,0,1-2.48-.16,2.66,2.66,0,0,1-1.9-1.39,2.28,2.28,0,0,1,0-2,3.41,3.41,0,0,1,.46-.84c0-.13,0-.25-.06-.35a3.25,3.25,0,0,1,1.18-2.81,15.09,15.09,0,0,1,2.56-1.9,48.9,48.9,0,0,0,6.13-4.81q1.85-1.7,5.56-5.46,4.56-4.85,6.07-6.73a42.59,42.59,0,0,0,3.31-4.53,84.91,84.91,0,0,0,6-10.2h-.55c-1.71-.06-3-.08-3.85-.06m-11.18-7c-1-.4-1.88-.78-2.72-1.15l-1.39,3c2.09.28,3.87.48,5.32.61q1.27.12,2.25.15c.88.06,2,.07,3.31,0-1.26-.41-2.63-.91-4.12-1.51Z" transform="translate(-615.26 -694.2)"/><path class="cls-9" d="M1166.34,1075.2l-10.68,4.78q-12.83,5.76-12.83,6-.11,3.46-27.28,11.85-7.17,2.13-26.6,7.5l-.86.09h0a26.44,26.44,0,0,1-5.26.09c-.41-.06-1-.17-1.9-.33a11.46,11.46,0,0,0-1.86-.14,5.65,5.65,0,0,0-1.49.37l-4.67-.39a12.26,12.26,0,0,0-3.07,0,4.24,4.24,0,0,0-2.62,1.16,2.6,2.6,0,0,0-.5,1,1,1,0,0,0,.17.94,2.08,2.08,0,0,0,1.37.86c1.83.56,3.65,1,5.49,1.4.12.18.26.37.4.56a8.46,8.46,0,0,0,3.06,1.85c1.12.48,2.2.91,3.23,1.28a15.78,15.78,0,0,0,2.85.88,13.29,13.29,0,0,0,3.11.3c0,.26-.09.52-.15.77a243.23,243.23,0,0,0,45.56-5q11.38-2.37,21.15-5.43c.91-1.43,1.81-2.89,2.72-4.39a252.88,252.88,0,0,0,11.68-23.76l-1-2.18m-8.47-47.62,4.26-3.79a42.67,42.67,0,0,1-4.32-1.24,40.41,40.41,0,0,1-6.72-2.72c-.39-.17-1-.46-1.73-.88a9.8,9.8,0,0,0-1.72-.76,16.55,16.55,0,0,0-1.78-.53,5.13,5.13,0,0,1-1.65-.72l17,2.3,1.39-3c-3-1.29-5.59-2.51-7.71-3.65a84.57,84.57,0,0,1-13.55-9.5q-2.46-2.07-6-5.43l-3.09,2.66q-5.82,4.95-5.87,6.62a9.89,9.89,0,0,0,0,1.68c0,.23,0,.44,0,.62a6.88,6.88,0,0,1,1.54.56,6,6,0,0,0,2.32.39,31.09,31.09,0,0,1,0,3.59q-.06,2.13-7.68,10.41t-7.69,11.93q-.12,3.71-5.32,8.67a86.32,86.32,0,0,1-9.08,7.09c-.35.14-.72.29-1.11.43a32.72,32.72,0,0,0-5.06,2.13c-.61.36-1.39.9-2.35,1.59-.46.32-.94.7-1.44,1.12a79.81,79.81,0,0,0-6.78,5.73,28.75,28.75,0,0,0-5.49,6.71,3.38,3.38,0,0,0-.67,2.35,2.35,2.35,0,0,0,.59,1.19,2.45,2.45,0,0,0,1.18.59,5.21,5.21,0,0,0,3-1q4.73-2.71,8.76-4.61c0,.7-.1,1.41-.15,2.14q17.71-4,39.61-20.08Q1142.08,1041.8,1157.87,1027.58Z" transform="translate(-615.26 -694.2)"/><path d="M1162.55,1016.28c.84.37,1.75.75,2.72,1.15l2.65,1.1c1.49.6,2.86,1.1,4.12,1.51-1.32,0-2.43,0-3.31,0q-1,0-2.25-.15c-1.45-.13-3.23-.33-5.32-.61l-17-2.3a5.13,5.13,0,0,0,1.65.72,16.55,16.55,0,0,1,1.78.53,9.8,9.8,0,0,1,1.72.76c.77.42,1.34.71,1.73.88a40.41,40.41,0,0,0,6.72,2.72,42.67,42.67,0,0,0,4.32,1.24,30.78,30.78,0,0,0,7.68,1c.76,0,1.86-.07,3.32-.2s2.59-.17,3.32-.2,2.14,0,3.85.06h.55a84.91,84.91,0,0,1-6,10.2,42.59,42.59,0,0,1-3.31,4.53q-1.5,1.89-6.07,6.73-3.72,3.76-5.56,5.46a48.9,48.9,0,0,1-6.13,4.81,15.09,15.09,0,0,0-2.56,1.9,3.25,3.25,0,0,0-1.18,2.81c0,.1,0,.22.06.35a3.41,3.41,0,0,0-.46.84,2.28,2.28,0,0,0,0,2,2.66,2.66,0,0,0,1.9,1.39,7.4,7.4,0,0,0,2.48.16,21.76,21.76,0,0,0,6.45-1.54,58.44,58.44,0,0,0,6.06-2.91,47.18,47.18,0,0,0,6.17-3.8.51.51,0,0,1,.24-.18l-.46,2c-.06.25-.37,2-.92,5.22q-.61,3.13-1.19,5.18c-.38,1.19-.92,2.66-1.63,4.43q-.6,1.5-1.44,3.3a252.88,252.88,0,0,1-11.68,23.76c-.91,1.5-1.81,3-2.72,4.39a73.73,73.73,0,0,1-13.87,16,11.54,11.54,0,0,0-2.34,2.42,3.55,3.55,0,0,0-.52,1.62v.11a1.72,1.72,0,0,0-.32,1.51,1.93,1.93,0,0,0,1.74,1.46,6.47,6.47,0,0,0,2.72.06,45.4,45.4,0,0,0,10.79-3.34q-8.38,8.37-26.44,19.09-19.39,11.38-26.85,17.36c-.27.2-.51.38-.72.56a86,86,0,0,0-15.94,17.3,82.17,82.17,0,0,0-6.66,11.34q-3,6.06-2.83,10l14-16.47a132.06,132.06,0,0,1,15.14-15.42.42.42,0,0,1,.16-.11,134.94,134.94,0,0,1,16.28-11.37q11.61-6.81,17.3-10.4a121.18,121.18,0,0,0,16.34-11.83,59.22,59.22,0,0,0,12.51-15.12,6.52,6.52,0,0,0,.87-2.46,2.25,2.25,0,0,0-.82-2.17,2.59,2.59,0,0,0-2.14-.35,8.22,8.22,0,0,0-2.24.78c-3.07,1.58-6.22,3-9.46,4.35.75-.83,1.48-1.62,2.18-2.38a70.31,70.31,0,0,0,7.81-10.72c.93-1.47,2-3.22,3.06-5.23s2.14-4,3.33-6.35q3.3-6.48,5.16-10.74a94.28,94.28,0,0,0,4.2-11,54.32,54.32,0,0,0,2.48-22.47,9.68,9.68,0,0,0,.82-2.39,2.63,2.63,0,0,0-.11-1.44,1.39,1.39,0,0,0-.94-.93c-.64-.21-1.46.21-2.46,1.24a34.07,34.07,0,0,1-6.72,5.07c-1.88,1.16-3.68,2.17-5.4,3,1.45-1.3,3.38-3.26,5.81-5.88.81-.78,2-1.92,3.59-3.42A75.09,75.09,0,0,0,1178,1040a67.5,67.5,0,0,0,4.18-5.93,77.83,77.83,0,0,0,6.19-12.53,2.52,2.52,0,0,1,.22-.58,2.48,2.48,0,0,0,.31-3.57,4,4,0,0,0-1.59-1.27,6.7,6.7,0,0,0-2-.53c-.23,0-.93-.12-2.09-.27a52.29,52.29,0,0,1-9.68-1.92q-13.26-3.93-27.23-14.88-2.62-2.07-6.4-5.4-2-1.74-4.35-3.81a9.89,9.89,0,0,0-.88-1.75,23.47,23.47,0,0,0-2.06-2.44q-4.8-5.11-14.68-13.87l-4.73-4.21a1.33,1.33,0,0,1-.22-.2,19,19,0,0,0-2.24-2l-.07-.08-2.12-1.86a55.72,55.72,0,0,0-6-4.84c-.08-.06-1.13-.65-3.17-1.79a23.43,23.43,0,0,1-3.05-2,2.76,2.76,0,0,0-1.8-.76,20.67,20.67,0,0,0-4.38-2,16.25,16.25,0,0,0-1.7-.45,16.77,16.77,0,0,1-1.61-.56c-.93-.39-1.57-.48-1.94-.26a1,1,0,0,0-.42.84,1.74,1.74,0,0,0,.28,1l0,0a3.88,3.88,0,0,0,.72.64l.92.66a6.52,6.52,0,0,1,1,1.09l1,1.12a23.2,23.2,0,0,0,2.86,2c1,.63,2.32,1.62,4.07,3l9.45,7.29c1.09.82,2,1.57,2.81,2.24a6.15,6.15,0,0,0,.64.61c.55.54,1.14,1.1,1.77,1.7a3.08,3.08,0,0,0,.26.24.56.56,0,0,1,.2.12l.22.28q2.68,2.43,6.2,5.55a82.84,82.84,0,0,0,5.58,6.7c1.17,1.26,3.39,3.46,6.63,6.61q3.39,3.24,6.11,5.78,3.59,3.36,6,5.43a84.57,84.57,0,0,0,13.55,9.5C1157,1013.77,1159.52,1015,1162.55,1016.28Z" transform="translate(-615.26 -694.2)"/></g><g id="fur03_0_Layer0_0_FILL" data-name="fur03 0 Layer0 0 FILL"><path class="cls-7" d="M853.28,1215.45a43,43,0,0,1-3.85-5.14q-1.48-2.47-7.85-11.44-5.55-7.66-6.11-8.48.22,5.22.69,10,.95,10.13,2.24,12.4a11.42,11.42,0,0,1,1.18,4,10.72,10.72,0,0,0,1.06,3.89q.39.73,3,7.71,4.26,1.3,8.62,2.6c3.55,1,6.15,1.89,7.78,2.52a29.24,29.24,0,0,1,4.3,2c-.32-1.59-.55-2.81-.7-3.64a19.22,19.22,0,0,0-2.07-5.12,32.34,32.34,0,0,0-2.09-2.77c-1.19-1.57-1.89-2.53-2.11-2.89A54.18,54.18,0,0,0,853.28,1215.45Z" transform="translate(-615.26 -694.2)"/><path class="cls-9" d="M766.61,1197.78l3.65,1.81q16.28.83,18.56-.54a18.13,18.13,0,0,1,4.63-1.32,23.09,23.09,0,0,0,4-1,21.37,21.37,0,0,1,3-1.3,31.21,31.21,0,0,0,3-1.36c1.48-.88,2.28-1.76,2.39-2.64-1-.88-3.76-1.7-8.11-2.47-5.62-1-8.51-1.53-8.65-1.57l-.33-1q-3.45,1.39-15.85.23c-2.16-.2-4.24-.45-6.22-.74q5,1.69,10.18,3a9.15,9.15,0,0,1,2.3.84,2.34,2.34,0,0,1,1.26,2,2.13,2.13,0,0,1-1,1.74,5.44,5.44,0,0,1-2,1c-.39.1-.8.19-1.23.26a4.52,4.52,0,0,1-1,.79,15.26,15.26,0,0,1-4.13,1.27q-2.76.61-4.5.9m-28.68-55.22,1.14,0c4.82.17,8-.22,9.62-1.15.34-.24.51-.37.49-.4s-.07-.16-.14-.36a6.28,6.28,0,0,0-1.5-.4,10.22,10.22,0,0,0-1-.32l2.62.37c2.63.4,4.74.68,6.33.86q5.92.87,9.87,1.06,11.55.56,18-3.22a1.92,1.92,0,0,0,.47-.87,2.77,2.77,0,0,0,.13-.91c-.4-.14-1.94-.47-4.64-1a.58.58,0,0,0-.08-.22,1.52,1.52,0,0,0-.27-1.09,3.48,3.48,0,0,0-1.82-1.28c-1.14-.42-2.13-.78-3-1.07a2.84,2.84,0,0,1-1.44-.65,4.7,4.7,0,0,1-.77-.78,7.32,7.32,0,0,0-1.44-1.13,39.17,39.17,0,0,1-5.43-3.81,8.59,8.59,0,0,0-2.8-1.77,3,3,0,0,0-1.57-.14,3.34,3.34,0,0,0-.65.35q-2.78-.74-7.58-2c-2.17-.54-4.07-1-5.71-1.28a116.45,116.45,0,0,1-6.09,15.81C739.76,1139.07,738.87,1140.84,737.93,1142.56Z" transform="translate(-615.26 -694.2)"/><path class="cls-6" d="M739.07,1142.61l-1.14,0a87.53,87.53,0,0,1-7.28,11.33c-.3.4-.61.77-.91,1.11l.64.45a64.94,64.94,0,0,0,9.08,4.87A60.4,60.4,0,0,0,749,1164c1.27.33,2.14.59,2.62.77a5.39,5.39,0,0,1,1.61,1,3,3,0,0,1,1.08,0,2.06,2.06,0,0,1,1.21.86,3.42,3.42,0,0,1,.61,1.4A3.19,3.19,0,0,1,756,1170a3.44,3.44,0,0,1-1.08,1.37,7.83,7.83,0,0,1-3.19,1.48,10.72,10.72,0,0,1-3.79,1.4,45.88,45.88,0,0,1-5.24.76l.17.09a129.62,129.62,0,0,0,23.87,10.84c2,.29,4.06.54,6.22.74q12.39,1.17,15.85-.23l.33,1c.14,0,3,.56,8.65,1.57,4.35.77,7.06,1.59,8.11,2.47-.11.88-.91,1.76-2.39,2.64a31.21,31.21,0,0,1-3,1.36,21.37,21.37,0,0,0-3,1.3,23.09,23.09,0,0,1-4,1,18.13,18.13,0,0,0-4.63,1.32q-2.3,1.37-18.56.54a217.27,217.27,0,0,1,20,11.31,31.93,31.93,0,0,1,2.81,1.95q4.14,1.38,9.6,3,19.32,6,41,12.54-2.62-7-3-7.71a10.72,10.72,0,0,1-1.06-3.89,11.42,11.42,0,0,0-1.18-4q-1.29-2.26-2.24-12.4-.46-4.79-.69-10l-.09-.08a75,75,0,0,0-7.23-10.27q-4.6-4.9-7.42-8c-1.28-1.4-2.57-2.91-3.87-4.51q-2.67-3.3-5.53-7.24-7.1-9.77-15.36-23.45a4.46,4.46,0,0,1-.28-.43c.61.09,1.33.17,2.17.26a13.5,13.5,0,0,0,2.92.34,12.15,12.15,0,0,0,2.91-.76,9.86,9.86,0,0,1,1.65,0,8.36,8.36,0,0,0,1.62-.11c1.37-.09,2.2-.63,2.48-1.64a2,2,0,0,0-.2-1.7,3,3,0,0,0-1.86-1.34c-1-.17-1.76-.33-2.28-.47-.35-.1-.85-.28-1.51-.52s-1.27-.42-1.56-.53c-.72-.18-1.48-.33-2.28-.46l-7.08-1.13a5.72,5.72,0,0,0-1.49-.22q-2.22-4.25-5.25-10.44l-.46-.86q-5.81-12-7.14-14.15c-.21-.33-.71-1.41-1.52-3.25s-1.38-2.85-1.58-3.22-.81-1.55-1.82-3.66-1.57-3.31-1.73-3.67q-.72-1.11-8.68-20.61-2.24-5.34-3.85-9.29a1.84,1.84,0,0,1-.76-.34l-1.31-1a4.48,4.48,0,0,0-1.36-.73,2.44,2.44,0,0,0-1.2.07l-.22,3a23.69,23.69,0,0,1,.11,3.52l-.6,4.59c-.06.35-.13.69-.2,1l-1.34,17.61q-.57,7.37-.84,9.93c-.37,3.73-.79,7-1.26,9.89a109,109,0,0,1-3.46,14.87c1.64.32,3.54.74,5.71,1.28q4.8,1.23,7.58,2a3.34,3.34,0,0,1,.65-.35,3,3,0,0,1,1.57.14,8.59,8.59,0,0,1,2.8,1.77,39.17,39.17,0,0,0,5.43,3.81,7.32,7.32,0,0,1,1.44,1.13,4.7,4.7,0,0,0,.77.78,2.84,2.84,0,0,0,1.44.65c.83.29,1.82.65,3,1.07a3.48,3.48,0,0,1,1.82,1.28,1.52,1.52,0,0,1,.27,1.09.58.58,0,0,1,.08.22c2.7.54,4.24.87,4.64,1a2.77,2.77,0,0,1-.13.91,1.92,1.92,0,0,1-.47.87q-6.4,3.77-18,3.22-3.94-.19-9.87-1.06c-1.59-.18-3.7-.46-6.33-.86l-2.62-.37a10.22,10.22,0,0,1,1,.32,6.28,6.28,0,0,1,1.5.4c.07.2.12.32.14.36s-.15.16-.49.4c-1.59.93-4.8,1.32-9.62,1.15m58.28,28.91a1.41,1.41,0,0,1,.14.59c0,.16-.09.19-.17.09S797.12,1171.79,797.35,1171.52Z" transform="translate(-615.26 -694.2)"/><path class="cls-10" d="M797.49,1172.11a1.41,1.41,0,0,0-.14-.59c-.23.27-.24.5,0,.68S797.46,1172.27,797.49,1172.11Z" transform="translate(-615.26 -694.2)"/><path d="M717.81,1153.89a.71.71,0,0,0-.76.32,1.44,1.44,0,0,0,0,1.26,2.91,2.91,0,0,0,.53.9.34.34,0,0,0,0,.28.82.82,0,0,0,.11.47,3,3,0,0,0,1.39,1c.42.24,1,.6,1.63,1.07s1.21.92,1.53,1.13a34.29,34.29,0,0,0,5.08,3.07q1.83.88,5.34,2.49l.18.09q2.9,1.53,5.76,2.79c-.76.06-1.63.11-2.61.16L734,1169l-1.78.15-1-.28a14.54,14.54,0,0,0-2.72-.54,2.08,2.08,0,0,0-2.13,1.05,3.07,3.07,0,0,0,.24,2.69,11.38,11.38,0,0,0,1.94,2.23,72.43,72.43,0,0,0,10.28,8.11l2,1.26q2.57,1.59,5.29,3a68.58,68.58,0,0,0,14.23,5.44h0l1.64.67a1.4,1.4,0,0,0-.28.06,36.78,36.78,0,0,1-6.09.33c-3.12-.07-5.18-.06-6.16,0-.63.1-1,.26-1,.5a.69.69,0,0,0-.37,0c-.62.1-.89.4-.79.91a1.75,1.75,0,0,0,.81,1q1.37,1.26,2.85,2.46A109,109,0,0,0,773,1211.85c1.3.63,2.7,1.25,4.18,1.88q9.45,4.17,23.29,8.85,23.28,7.85,46.58,14.23,6,1.64,12.12,3.21c1.73.43,3.09.75,4.09,1a16.44,16.44,0,0,0,4,.21,2.38,2.38,0,0,0,1-.34.9.9,0,0,0,.51-.44,1.66,1.66,0,0,0-.23-1.51,6,6,0,0,0-1.22-1.38,26.92,26.92,0,0,0-2.93-1.93,29.24,29.24,0,0,0-4.3-2c-1.63-.63-4.23-1.47-7.78-2.52q-4.37-1.29-8.62-2.6-21.64-6.51-41-12.54-5.46-1.67-9.6-3a31.93,31.93,0,0,0-2.81-1.95,217.27,217.27,0,0,0-20-11.31l-3.65-1.81q1.74-.29,4.5-.9a15.26,15.26,0,0,0,4.13-1.27,4.52,4.52,0,0,0,1-.79c.43-.07.84-.16,1.23-.26a5.44,5.44,0,0,0,2-1,2.13,2.13,0,0,0,1-1.74,2.34,2.34,0,0,0-1.26-2,9.15,9.15,0,0,0-2.3-.84q-5.21-1.37-10.18-3a129.62,129.62,0,0,1-23.87-10.84l-.17-.09a45.88,45.88,0,0,0,5.24-.76,10.72,10.72,0,0,0,3.79-1.4,7.83,7.83,0,0,0,3.19-1.48A3.44,3.44,0,0,0,756,1170a3.19,3.19,0,0,0,.14-1.88,3.42,3.42,0,0,0-.61-1.4,2.06,2.06,0,0,0-1.21-.86,3,3,0,0,0-1.08,0,5.39,5.39,0,0,0-1.61-1c-.48-.18-1.35-.44-2.62-.77a60.4,60.4,0,0,1-9.53-3.65,64.94,64.94,0,0,1-9.08-4.87l-.64-.45c.3-.34.61-.71.91-1.11a87.53,87.53,0,0,0,7.28-11.33c.94-1.72,1.83-3.49,2.69-5.32a116.45,116.45,0,0,0,6.09-15.81,109,109,0,0,0,3.46-14.87c.47-2.87.89-6.16,1.26-9.89q.27-2.57.84-9.93l1.34-17.61c.07-.35.14-.69.2-1l.6-4.59a23.69,23.69,0,0,0-.11-3.52l.22-3,0-.25c.08-1.39-.12-2.33-.61-2.8a1.89,1.89,0,0,0-1.62-.47,2.72,2.72,0,0,0-1.56.79,7.71,7.71,0,0,0-1.38,3.21l-.06.3-.07,0a2.63,2.63,0,0,0-.69,1.52c0,.2-.11.79-.2,1.78l-.15,1.8q-1.37,6.94-2.69,16.56l-2,8.78c-.5,2.21-.95,3.89-1.33,5-.15.34-.28.66-.41,1-.21,1.1-.4,2.24-.58,3.39q-1.1,6.13-2,11.1-1.53,7.56-2.73,12.26a93.54,93.54,0,0,1-7.65,20.09,60.62,60.62,0,0,1-5.52,7.36c-.82.92-1.49,1.72-2,2.38a2.24,2.24,0,0,1-.34.27c-1,.69-1.56,1.05-1.62,1.09a5.17,5.17,0,0,0-1.38,1.39A1.36,1.36,0,0,1,717.81,1153.89Z" transform="translate(-615.26 -694.2)"/></g><g id="fur04_0_Layer0_0_FILL" data-name="fur04 0 Layer0 0 FILL"><path class="cls-8" d="M783.66,860.94c0,.31.09.64.13,1a58.12,58.12,0,0,0,5,17.94q4.62,9.32,12.47,13.6a18.11,18.11,0,0,0,8.15,2.43,28.88,28.88,0,0,1,3.16.2,3.11,3.11,0,0,1,2.37,1.51,2.52,2.52,0,0,1,.21,1.84,3.81,3.81,0,0,1-.84,1.74,9,9,0,0,1-3.22,2,51.34,51.34,0,0,1-9.14,3.13,24.83,24.83,0,0,0,10.84,1A85.34,85.34,0,0,0,823.74,905a4.64,4.64,0,0,1,2.18-.3,1.92,1.92,0,0,1,1,.5,1.43,1.43,0,0,1,.49.94,2.42,2.42,0,0,1-1.09,1.75,16.55,16.55,0,0,1-1.41,1.09q5.85,1,24.28-2.48a251.82,251.82,0,0,0,43.48-12.21q.61-.24,4.55-2.29c2.61-1.36,4.12-2.12,4.5-2.27q2.14-.83,10.72-7.74t10.71-7.73q9.35-9,9.53-9.08a3.67,3.67,0,0,0,1-.77,5.16,5.16,0,0,0,.55-.63c-.46.16-1-.08-1.65-.71q-14.21-12.69-29.09-15.49-8-1-11.94-1.55a33,33,0,0,1-11.32-3.33,2.56,2.56,0,0,1,.41,2.26,3.46,3.46,0,0,1-1.36,2,8.7,8.7,0,0,1-4.62,1.32A69.16,69.16,0,0,1,856.27,847a68.46,68.46,0,0,1-17.4-6.13,10.24,10.24,0,0,1,.36,2c0,.07,0,.13.07.19a6.22,6.22,0,0,0,.36,1.06,15.76,15.76,0,0,0,.85,1.35,2.17,2.17,0,0,1,.36.82,4,4,0,0,1,.55.45,7.85,7.85,0,0,1-.66.47,1.18,1.18,0,0,1-.45.55,1.33,1.33,0,0,1-.69.17,19,19,0,0,1-6.57,2.11,44.14,44.14,0,0,1-9.34.12q-21.4-1.68-34.53-10.65a39,39,0,0,0,15.38,18.87,7.39,7.39,0,0,1,1.91,1.52,2.48,2.48,0,0,1,.45,1.16,1.66,1.66,0,0,1-.24,1.13c-.51.72-1.45.9-2.83.55a8.64,8.64,0,0,1-2.41.67,31.54,31.54,0,0,1-5.88.34,26,26,0,0,1-6.5-.76,25.53,25.53,0,0,1-3.89-1.43A15.45,15.45,0,0,1,783.66,860.94Z" transform="translate(-615.26 -694.2)"/><path d="M784.32,855.14a12,12,0,0,0-1.78-1.15,2.49,2.49,0,0,0-2.07-.29,2.14,2.14,0,0,0-1,.64,1.91,1.91,0,0,0-.48.26,2.42,2.42,0,0,0-.85,1,6.64,6.64,0,0,0-.38,2.61q.11,18.76,8.63,30.43a36.26,36.26,0,0,0,13.55,11.4l-8.85,2.26c-1.87.5-3.06,1.15-3.59,2a3.11,3.11,0,0,0-.31,2.34,4.33,4.33,0,0,0,1.23,2.11,6.68,6.68,0,0,0,2,1.32c.51.22,1.28.49,2.32.82a55,55,0,0,0,17.3,2.7,29.08,29.08,0,0,0,8.67-1.53,23.5,23.5,0,0,0,6.19-3.12,16.55,16.55,0,0,0,1.41-1.09,2.42,2.42,0,0,0,1.09-1.75,1.43,1.43,0,0,0-.49-.94,1.92,1.92,0,0,0-1-.5,4.64,4.64,0,0,0-2.18.3,85.34,85.34,0,0,1-10.94,2.36,24.83,24.83,0,0,1-10.84-1,51.34,51.34,0,0,0,9.14-3.13,9,9,0,0,0,3.22-2,3.81,3.81,0,0,0,.84-1.74,2.52,2.52,0,0,0-.21-1.84,3.11,3.11,0,0,0-2.37-1.51,28.88,28.88,0,0,0-3.16-.2,18.11,18.11,0,0,1-8.15-2.43q-7.86-4.28-12.47-13.6a58.12,58.12,0,0,1-5-17.94c0-.35-.09-.68-.13-1a15.45,15.45,0,0,0,1.51.67,25.53,25.53,0,0,0,3.89,1.43,26,26,0,0,0,6.5.76,31.54,31.54,0,0,0,5.88-.34,8.64,8.64,0,0,0,2.41-.67c1.38.35,2.32.17,2.83-.55a1.66,1.66,0,0,0,.24-1.13,2.48,2.48,0,0,0-.45-1.16,7.39,7.39,0,0,0-1.91-1.52,39,39,0,0,1-15.38-18.87q13.13,9,34.53,10.65a44.14,44.14,0,0,0,9.34-.12,19,19,0,0,0,6.57-2.11,1.33,1.33,0,0,0,.69-.17,1.18,1.18,0,0,0,.45-.55,7.85,7.85,0,0,0,.66-.47,4,4,0,0,0-.55-.45,2.17,2.17,0,0,0-.36-.82,15.76,15.76,0,0,1-.85-1.35,6.22,6.22,0,0,1-.36-1.06c0-.06,0-.12-.07-.19a10.24,10.24,0,0,0-.36-2,68.46,68.46,0,0,0,17.4,6.13,69.16,69.16,0,0,0,18.41,1.24,8.7,8.7,0,0,0,4.62-1.32,3.46,3.46,0,0,0,1.36-2,2.56,2.56,0,0,0-.41-2.26A33,33,0,0,0,891.57,846q4,.53,11.94,1.55,14.88,2.81,29.09,15.49c.65.63,1.19.87,1.65.71a.84.84,0,0,0,.31-.16c.48-.41.45-1.07-.09-2a39.14,39.14,0,0,0-14.24-14.1A51.56,51.56,0,0,0,901,840.79l-7.37-.93a47.7,47.7,0,0,1-7.26-1.43,42.35,42.35,0,0,1-4.9-1.91c-.82-.38-2.4-1.17-4.74-2.35q-3.12-1.6-4.8-.67a2.82,2.82,0,0,0-1.34,1.85,4.52,4.52,0,0,0,.08,2.39,11.12,11.12,0,0,0,2.73,3.83q-21.7.61-35.3-8.85c-.87-.59-1.39-.93-1.57-1a5.41,5.41,0,0,0-1.69-.72,3.46,3.46,0,0,0-1.86,0,2.47,2.47,0,0,0-1.42,1.09,4.31,4.31,0,0,0-.21,2.5,38.34,38.34,0,0,0,2.14,8.18,7.67,7.67,0,0,0,1.18,2.1c-.7,0-1.54,0-2.51.08a76.56,76.56,0,0,1-12.72-.87,96.42,96.42,0,0,1-16.35-3.37,38.36,38.36,0,0,1-14.51-8,9.82,9.82,0,0,0-2.13-1.64,2.66,2.66,0,0,0-2.35-.27,2.61,2.61,0,0,0-1.46,1.86,6.8,6.8,0,0,0-.09,2.58q.72,5.06,4.73,12.24a47.65,47.65,0,0,0,5.44,8.09,25.92,25.92,0,0,0,3,2.84,44.26,44.26,0,0,1-5.13-.86A18.32,18.32,0,0,1,784.32,855.14Z" transform="translate(-615.26 -694.2)"/></g><g id="eyebrow_R_0_Layer0_0_FILL" data-name="eyebrow R 0 Layer0 0 FILL"><path d="M870.36,1047.84a22.15,22.15,0,0,0-2-2.27q-.81-.67-1.29-.42c-.46.25-.49.78-.11,1.61l3.55,8.16c.95,2.17,1.84,4.25,2.66,6.22q-1.86-2.06-4.3-4.59a99.76,99.76,0,0,0-8-7.53,67.11,67.11,0,0,0-7.62-5.29q-2.67-1.62-8-4.54-7.23-4-11.07-5.71-2.5-1.14-4.87-2a57.92,57.92,0,0,0-10.54-3.78,70.74,70.74,0,0,0-9.41-1l-1.71-.06c-1.48-.12-3-.17-4.45-.15a29.33,29.33,0,0,1,5.93,1.44,45.9,45.9,0,0,1,6.3,2.72,202,202,0,0,1,33,20.11,197.5,197.5,0,0,1,28.58,26,9,9,0,0,0,1.78,1.52.29.29,0,0,1,.18.08,1.93,1.93,0,0,0,3.43-.28,3.65,3.65,0,0,0-.09-2.47,102.71,102.71,0,0,0-8-21.38A33.67,33.67,0,0,0,870.36,1047.84Z" transform="translate(-615.26 -694.2)"/></g><g id="eyebrow_L_0_Layer0_0_FILL" data-name="eyebrow L 0 Layer0 0 FILL"><path d="M951.44,978.88a30.12,30.12,0,0,1,2.37-3.74c.08-.18.18-.37.3-.59.53-1,.52-1.61,0-1.94-.38-.22-.94,0-1.68.59a15.89,15.89,0,0,1-1.4,1c-.86.62-1.36,1-1.47,1a40.89,40.89,0,0,0-5.17,4.81,119.56,119.56,0,0,0-11.75,15.66c-.6.92-1.35,2.11-2.23,3.57a1.2,1.2,0,0,1-.3.38,99,99,0,0,0-5.39,8.92q-6.74,12.16-10.09,19.09a141.21,141.21,0,0,0-7.48,18.2,102.37,102.37,0,0,0-3.26,10.31l-1.15-.87a14.21,14.21,0,0,1-1.42-1.19l-3.64-3.23a39.28,39.28,0,0,1-2.93-3,3.65,3.65,0,0,0-1.18-.92.31.31,0,0,0,0,.2,1.51,1.51,0,0,1-.29-.57,13.84,13.84,0,0,0,.42,3.55c.09.25.38.95.87,2.08a62.73,62.73,0,0,0,4.33,7.69,24.92,24.92,0,0,0,6.1,6.41,5.51,5.51,0,0,0,1.55.9,1.36,1.36,0,0,0,.38.3l.32.45,1,.68a7.3,7.3,0,0,0,2.08,1.22l.39.07h0c1.44.7,2.53.79,3.27.28a3.9,3.9,0,0,0,1.25-2.43l1-5c.34-1.52.69-3,1.06-4.56.32-1,.64-2,1-3.11.73-2.41,1.78-6,3.18-10.76,1-3.17,2.62-7.42,4.74-12.78q6.66-16.83,10.51-25.26,3.52-7.47,7.16-13.75Q946.79,986.93,951.44,978.88Z" transform="translate(-615.26 -694.2)"/></g><g id="eyes_0_Layer3_0_FILL" data-name="eyes 0 Layer3 0 FILL"><path class="cls-11" d="M770.07,1050q3.73,11.09,14.2,21.65l7.6,7.58a4,4,0,0,1,1.09,1.39.83.83,0,0,1,0,.15,71.25,71.25,0,0,0,15.88,8.49,83.12,83.12,0,0,0,19.74,5,80.43,80.43,0,0,0,20.39,0,64.65,64.65,0,0,0,7-1.23,51.65,51.65,0,0,0,8.32-2.75c.45-.19,1.74-.8,3.89-1.85a4.27,4.27,0,0,0,1.52-.47c1.15-.52,2.28-1.09,3.4-1.71l1.36-.76q.36-.19.66-.39l.18.07a2.37,2.37,0,0,0,1.69.09,2.67,2.67,0,0,0,1.32-1,3.09,3.09,0,0,0,.65-1.56,4.32,4.32,0,0,0-1-3.21,8.56,8.56,0,0,0-2.54-2.23,5.06,5.06,0,0,0-2.52-.86,2.39,2.39,0,0,0-.92.18q-10.68-11-21.59-16.53a68.79,68.79,0,0,0-7.33-3.24,128.13,128.13,0,0,0-35.85-8.18,154.6,154.6,0,0,0-36.89,1.34l-.31,0m202.7-55.53c-1.5,1.09-3,2.31-4.62,3.68a151.31,151.31,0,0,0-28.66,32,153,153,0,0,0-13,23.49,7.93,7.93,0,0,1-.33,1.26q-.78,2.34-2.12,7l-1.16,4.27c-.27.88-.51,1.72-.74,2.52q-.18,1.8-.33,3.66c0,.19,0,.37,0,.54a63.18,63.18,0,0,0,10.38-1.52q4.77-1.14,12.22-3.55,5.37-1.79,8.58-3.15a81.66,81.66,0,0,0,12.73-7,127.75,127.75,0,0,0,23.58-19.48,106.63,106.63,0,0,0,13.75-17.88q.3-1,.75-2.16c.1-.22.9-1.79,2.38-4.7a57.07,57.07,0,0,0,2.9-6.82q.92-2.49,2.32-7,2.07-6.51,3-10.62c.11-.47.21-.93.29-1.38a69.78,69.78,0,0,1,.22-8.29.49.49,0,0,0,0-.12c-.06-.6-.12-1.14-.18-1.61l-.06-.35a15.19,15.19,0,0,1-2.54.77,136,136,0,0,0-25.81,9.15A140.44,140.44,0,0,0,972.77,994.48Z" transform="translate(-615.26 -694.2)"/></g><g class="cls-12"><g id="eyes_0_Layer2_0_FILL" data-name="eyes 0 Layer2 0 FILL"><path d="M826.93,1057.56a6.72,6.72,0,0,1,.83-.2,6.87,6.87,0,0,1,3.64.41,6,6,0,0,1,2.5,1.64,4.3,4.3,0,0,1,1,2,4.43,4.43,0,0,1-.22,2.21,4.8,4.8,0,0,1-1.34,1.84,4.36,4.36,0,0,1-2,1,6.3,6.3,0,0,1-2.79-.25,39.92,39.92,0,0,0,2.84,6.92q.95,1.76,2.33,4a28.37,28.37,0,0,0,8.79,9,16,16,0,0,0,5.93,2.18,12.82,12.82,0,0,0,6.22-.49,13.43,13.43,0,0,0,6.62-5.46,19.69,19.69,0,0,0,2.84-8.15,28.41,28.41,0,0,0-.56-10.57,37.44,37.44,0,0,0-3.91-9.94,18.85,18.85,0,0,0-1.92-3,29.77,29.77,0,0,0-3.31-3.63,30.28,30.28,0,0,0-8.17-5.88,13.71,13.71,0,0,0-9.85-.86,11.42,11.42,0,0,0-5,3.21,14.31,14.31,0,0,0-3.2,5.09,22.24,22.24,0,0,0-1.2,8.94m116-44.38a41.41,41.41,0,0,0-.73,5,42.25,42.25,0,0,0-.25,4.77,40.3,40.3,0,0,0,.5,4.56c.06.36.12.71.18,1l.25-.23a5.61,5.61,0,0,1,2.86-1.06,4.62,4.62,0,0,1,3.62.9,4.8,4.8,0,0,1,1.38,2.84,4.57,4.57,0,0,1-.05,2.21,4.63,4.63,0,0,1-3.14,2.76,6,6,0,0,1-3,.34,28.09,28.09,0,0,0,2.07,4.39,22.31,22.31,0,0,0,5.72,6.66,18,18,0,0,0,8,3.57,14.75,14.75,0,0,0,8.64-.94,15.77,15.77,0,0,0,7.49-7.09,23.29,23.29,0,0,0,2.72-10,42.37,42.37,0,0,0,0-4.37,48.66,48.66,0,0,0-5.4-19.39,29.77,29.77,0,0,0-4.6-6.7,12.24,12.24,0,0,0-4.34-3.25,15.88,15.88,0,0,0-8-.58c-3.63.42-6.28,1.42-7.93,3a17.13,17.13,0,0,0-2.91,4.4A38,38,0,0,0,942.89,1013.18Z" transform="translate(-615.26 -694.2)"/><path class="cls-1" d="M826.93,1057.56a3.8,3.8,0,0,0-2.11,1.82,5.59,5.59,0,0,0-.5,2.21,4.94,4.94,0,0,0,.33,2,4.72,4.72,0,0,0,2.84,2.26,7.54,7.54,0,0,0,1,.33,6.3,6.3,0,0,0,2.79.25,4.36,4.36,0,0,0,2-1,4.8,4.8,0,0,0,1.34-1.84,4.43,4.43,0,0,0,.22-2.21,4.3,4.3,0,0,0-1-2,6,6,0,0,0-2.5-1.64,6.87,6.87,0,0,0-3.64-.41,6.72,6.72,0,0,0-.83.2m123.72-24.4a4.57,4.57,0,0,0,.05-2.21,4.8,4.8,0,0,0-1.38-2.84,4.62,4.62,0,0,0-3.62-.9,5.61,5.61,0,0,0-2.86,1.06l-.25.23a4.9,4.9,0,0,0-1.31,2.49,4.64,4.64,0,0,0,.3,3.47,3.85,3.85,0,0,0,2.7,1.78.75.75,0,0,0,.21,0,6,6,0,0,0,3-.34A4.63,4.63,0,0,0,950.65,1033.16Z" transform="translate(-615.26 -694.2)"/></g></g><g id="eyes_0_Layer0_0_FILL" data-name="eyes 0 Layer0 0 FILL"><path d="M753,1051.55a2,2,0,0,0,1.61.39c1.58,0,3.53-.21,5.85-.5l2.64-.4.09.34a58.47,58.47,0,0,0,5.66,13.49,77.78,77.78,0,0,0,6.06,8.14c1.92,2.37,3.42,4.11,4.5,5.24a50.59,50.59,0,0,0,4.26,4,80.8,80.8,0,0,0,27,15.06,88.18,88.18,0,0,0,30.7,4.48A68.17,68.17,0,0,0,862.8,1098a46,46,0,0,0,17.43-10.83,5,5,0,0,0,1.64-1.2,4.26,4.26,0,0,0,1.26-1.7,4.06,4.06,0,0,0-.43-3,3.53,3.53,0,0,0-.09-1,9.24,9.24,0,0,0-1.52-2.77,85.93,85.93,0,0,0-47.65-31.66q-3.36-.81-10.11-2-6-1.14-10.87-1.74a142.71,142.71,0,0,0-37.51.72,82.18,82.18,0,0,0-9.65,1.92,75.6,75.6,0,0,0-10.65,4,4.25,4.25,0,0,0-1.63,1.08,1.75,1.75,0,0,0-.34,1,1.05,1.05,0,0,0,.3.88m27.92-1.49,8.22-.29q5.14-.13,6-.11l4.93.24c2.83.15,5.56.23,8.21.24a129.8,129.8,0,0,1,18.19,3.25,182.18,182.18,0,0,1,17.32,5.88,132.3,132.3,0,0,1,12.48,5.37,55,55,0,0,1,9.65,6.11q3.63,3.2,7.2,7a4.36,4.36,0,0,1,1.12.81c.42.42,1.08,1,2,1.9a5,5,0,0,1,1.3,2.27,1.33,1.33,0,0,1,0,.39l-.89,1.15-.09.1-.22-.05a15.59,15.59,0,0,1-1.89,1.18l-1.36.76c-1.12.62-2.25,1.19-3.4,1.71a4.27,4.27,0,0,1-1.52.47c-2.15,1-3.44,1.66-3.89,1.85a51.65,51.65,0,0,1-8.32,2.75,64.65,64.65,0,0,1-7,1.23,80.43,80.43,0,0,1-20.39,0,83.12,83.12,0,0,1-19.74-5,71.25,71.25,0,0,1-15.88-8.49.83.83,0,0,0,0-.15,4,4,0,0,0-1.09-1.39l-7.6-7.58q-9.71-9.79-13.61-20l.62-.09,2.21-.35q1.23-.24,3.66-.93c1.15-.07,2.4-.13,3.75-.19m174.24-58.42q-2.85,2.49-5.69,5.28c-1.26,1.28-2.81,3-4.68,5a135.39,135.39,0,0,0-19.7,28.62,98,98,0,0,0-9.6,29.65c-.11.66-.21,1.27-.28,1.83a37.64,37.64,0,0,0-1.38,12.71,5.81,5.81,0,0,0,.65,2.12,1.73,1.73,0,0,0,1.58,1,1.41,1.41,0,0,0,.54-.11,7.44,7.44,0,0,0,2.86.92,38.9,38.9,0,0,0,10.35-.21,98.69,98.69,0,0,0,38.51-13.73,127.29,127.29,0,0,0,31.12-26.67q10.25-12,14.84-23.09a63.71,63.71,0,0,0,5.33-14.33,119.56,119.56,0,0,0,2.84-17.34l.2-2.13a33.09,33.09,0,0,0,0-8.35,5.32,5.32,0,0,0-.17-.76l1.66-1.13a3.43,3.43,0,0,0,1.15-1.06,1.38,1.38,0,0,0,.14-.24,2.27,2.27,0,0,0,1.24-1.61,2.08,2.08,0,0,0-.39-1.75,3.26,3.26,0,0,0-1.9-1.12,12.32,12.32,0,0,0-3.83-.36l-.43,0a7.35,7.35,0,0,0-1.5-.13,22.16,22.16,0,0,1-2.35.27c-.77.06-1.18.09-1.23.11l-.43.16a21.62,21.62,0,0,0-6.78.93q-32.8,8.52-52.7,25.45m13,6.52c1.58-1.37,3.12-2.59,4.62-3.68a140.44,140.44,0,0,1,13.56-7.37,136,136,0,0,1,25.81-9.15,15.19,15.19,0,0,0,2.54-.77l.06.35c.06.47.12,1,.18,1.61a.49.49,0,0,1,0,.12,69.78,69.78,0,0,0-.22,8.29c-.08.45-.18.91-.29,1.38q-.93,4.11-3,10.62-1.41,4.55-2.32,7a57.07,57.07,0,0,1-2.9,6.82c-1.48,2.91-2.28,4.48-2.38,4.7q-.45,1.15-.75,2.16a106.63,106.63,0,0,1-13.75,17.88,127.75,127.75,0,0,1-23.58,19.48,81.66,81.66,0,0,1-12.73,7q-3.21,1.36-8.58,3.15-7.44,2.42-12.22,3.55a63.18,63.18,0,0,1-10.38,1.52c0-.17,0-.35,0-.54q.15-1.86.33-3.66c.23-.8.47-1.64.74-2.52l1.16-4.27q1.33-4.67,2.12-7a7.93,7.93,0,0,0,.33-1.26,153,153,0,0,1,13-23.49A151.31,151.31,0,0,1,968.15,998.16Z" transform="translate(-615.26 -694.2)"/></g><g id="head_01_0_Layer3_0_FILL" data-name="head 01 0 Layer3 0 FILL"><path d="M965.75,1097.82a110.54,110.54,0,0,1-11.56,8.36q-4.94,3.38-9.17,6a140.84,140.84,0,0,1-23.39,11.19,1.89,1.89,0,0,0-1.15.1s-.06,0-.1.07c-.89.28-1.74.53-2.54.74a7.51,7.51,0,0,0-1,.66,3.52,3.52,0,0,1-.51.19,2.57,2.57,0,0,0-1.51,0,12,12,0,0,0-5.33,1,3.05,3.05,0,0,0-1,.25c-1.48-.62-2.35-1-2.62-1.06a9.63,9.63,0,0,1-2.7-3.55,21.89,21.89,0,0,1-1.78-4.47c-.55-2-.86-3.09-.94-3.34a3.83,3.83,0,0,0-2.31-2.37,3,3,0,0,0-1.9,0,2.33,2.33,0,0,0-1.39,1,5.39,5.39,0,0,0,0,2.37c.48,1.64,1,3.14,1.43,4.49a57.73,57.73,0,0,1,.45,6.44,6.94,6.94,0,0,1-.12,3.36.59.59,0,0,0-.09.35,89.05,89.05,0,0,1-36.16-1.19q-2.53-.6-7.62-1.92a31.31,31.31,0,0,0-7.83-.84,16,16,0,0,0-6.75,1.6,8,8,0,0,0-2.81,1.35,9.51,9.51,0,0,0-2.79,4.34,5,5,0,0,0-.53,1,11.28,11.28,0,0,0-1.12,3.69,16.2,16.2,0,0,0,.52,6.67,30.19,30.19,0,0,0,1.48,3.66,18.76,18.76,0,0,0,.91,2.05c.26.49.54,1,.87,1.57a2.4,2.4,0,0,0,.25.45c.42,1.07.92,2.2,1.51,3.38.38.54.79,1.07,1.23,1.58s.61,1.06.94,1.56a64.39,64.39,0,0,0,10.73,11.76,8.15,8.15,0,0,0,3.07,1.9.33.33,0,0,1,.26.05c1.51,1.21,3,2.32,4.62,3.35a71.36,71.36,0,0,0,22,8.81c1.1.22,2.23.5,3.41.83a220.52,220.52,0,0,0,28.92.14q4.49-.3,11.71-1.27,7-.78,11-1.47,6-1.11,11-2.46,2.29-.75,7.1-2.48,14.82-3.87,31.77-13.75a38.32,38.32,0,0,0,6.14-4.1c.72-.43,1.46-.89,2.24-1.38a71.7,71.7,0,0,0,7.82-5.61,125.21,125.21,0,0,0,14-12.8q2-2.32,5.6-7.11c.6-.72,1.18-1.42,1.73-2.13a144.47,144.47,0,0,0,8.28-12.91c.18-.49.41-1,.68-1.58a52.59,52.59,0,0,0,5.15-19.22,45.33,45.33,0,0,0-2.65-18.42q-2.42-5.25-5.45-7.29a24.26,24.26,0,0,0-4-2.65,20.07,20.07,0,0,0-8-1.16,37.3,37.3,0,0,0-8.78,2,63.81,63.81,0,0,0-11.15,5.56q-4.29,2.67-10.19,7.22-6.69,5.28-19.85,15.52m-32.52,28.45,0-.07a178.64,178.64,0,0,0,25.86-14q6.76-4.65,21.09-15.88l0-.07q11.42-9,14.93-11.69a70.36,70.36,0,0,1,8.68-5.7,37,37,0,0,1,9.62-3.85q4.85-1,7.42.39a5.75,5.75,0,0,1,1.59,1.28,18.36,18.36,0,0,0,1.46,1.4,3,3,0,0,0,.74.6c.31.88.68,1.86,1.1,2.92a40.88,40.88,0,0,1,1.39,14.81q-1,12.87-9.89,26.76a115.72,115.72,0,0,1-10.06,12.79v0q-7.15,7.2-10.72,10.42c-1.14,1-2.68,2.35-4.6,4.1l-1.28.62c-.43.29-1,.74-1.79,1.37-.46.27-1.1.68-1.92,1.21a3.32,3.32,0,0,0-1.46,1c-1,.49-2.16,1.11-3.43,1.85a203.66,203.66,0,0,1-19.41,10.08l-7.31,2.61q-11.36,3.55-14.6,4.34-5.24,1.23-12.13,2.48-7.44,1.18-12.66,1.82-7.84.9-15.16,1.13c-1.76,0-3.55,0-5.36.1a1,1,0,0,1,.56.12l-1.27,0c-.05-.09-.14-.1-.26,0q-10.09-.43-15.63-.92a4.48,4.48,0,0,0-2-.73c-.42-.12-1.11-.29-2.09-.49a5,5,0,0,1-1-.28,31.5,31.5,0,0,1-9.31-3.82,66.79,66.79,0,0,1-10-7.16c-.82-.66-1.59-1.31-2.32-2a8.36,8.36,0,0,0-.7-2.15c0-.07-.44-.74-1.16-2-.49-.85-1-1.77-1.41-2.75a5.36,5.36,0,0,0,1.22.58c.83.41,1.75.94,2.78,1.58a66.6,66.6,0,0,0,10.45,8.88,15.76,15.76,0,0,0,6.53,3.05,4.24,4.24,0,0,0,1.44.07,3,3,0,0,0,.78,0h.16a1.5,1.5,0,0,0,.66-.52,1.27,1.27,0,0,0,.3-.37v0a3.8,3.8,0,0,0,.33-1.51l.16-2.24a31,31,0,0,0,.09-5,6.81,6.81,0,0,1-.12-1.1c.48.16,1,.31,1.51.46a21.91,21.91,0,0,0,3.17.29,8.64,8.64,0,0,0,2-.12,1.42,1.42,0,0,1,.5,0,7.29,7.29,0,0,0,1.79-.24l1.13-.45a3.55,3.55,0,0,1,1.34-.11,20.73,20.73,0,0,0,5.27-.44,7.18,7.18,0,0,0,1.83-.69l.95-.65a1.57,1.57,0,0,1,1-.25c0-.19-.19-.28-.57-.28a3.47,3.47,0,0,1-.9-.43,4.7,4.7,0,0,0-2.59-.54c-.63.05-1.55.16-2.74.35-.48,0-1.23,0-2.24,0a10,10,0,0,0-1.43.09,9,9,0,0,0-2.2-.73l-4-1-1.09-.41a7.13,7.13,0,0,0-1.72-.32l-.74,0,0-2.25a5.5,5.5,0,0,0-.77-3.34,2.47,2.47,0,0,0-.69-.57.91.91,0,0,0-.82,0,1.44,1.44,0,0,0-.53.68,19.69,19.69,0,0,0-1.33,3.22c-.25.91-.48,2-.71,3.41l-.38,2.31c-.06.36-.13.9-.22,1.6a22.94,22.94,0,0,0,.23,2.33c0,.32,0,.61,0,.87a10.25,10.25,0,0,0-.08,1.53,104,104,0,0,1-14.85-13q-2.87-3-6-6.79l-.13-.32q-.63-1.58-2.08-4.63a19.26,19.26,0,0,1-1.4-3.12l-.66-2.57a9.61,9.61,0,0,1,2.49-.48c.76-.09,1.75-.14,3-.17l4.13,0,.66.18c3.94,1.07,6.42,1.71,7.46,1.92a79.77,79.77,0,0,0,33.38.86,37.17,37.17,0,0,0,5.31-1.26q9.24-1.43,19.74-4,6.12-2.07,13.6-4.94M983,1118.8c-.35.29-.91.74-1.68,1.34a11.3,11.3,0,0,0-1.66,1.26,7,7,0,0,0-1.13,1,9.62,9.62,0,0,1-2,1.4l-2.12,1.34s0,.06,0,.14c-.54.29-1,.57-1.46.83q-12.44,7.31-18.89,10.77a178.74,178.74,0,0,1-19.51,9.05q-1.55.54-4.65,1.72c-1.83.67-3.4,1.27-4.7,1.82q-1.61.75-5.18,2.56a42.45,42.45,0,0,1-4.26,1.52c.89-.2,1.84-.37,2.86-.5,2.15-.41,3.49-.65,4-.73l5.17-1.3a160.81,160.81,0,0,0,46.49-21.69c2.13-1.49,4-2.87,5.64-4.16a1.19,1.19,0,0,1,.66-.39c.68-.45,1.16-.75,1.44-.91a6.38,6.38,0,0,1,1.28-1,2.85,2.85,0,0,1,1-.73,22.48,22.48,0,0,0,3.16,4.47q1.67,2.07,3.3,4.07a3.88,3.88,0,0,0,3,1.82,4.51,4.51,0,0,0,2.7-1.32,15.56,15.56,0,0,0,1.51-2.47,88.46,88.46,0,0,0,5.92-15.87c.18-.87.36-1.74.53-2.63a22.48,22.48,0,0,0,0-4.72,4.23,4.23,0,0,0-.81-2.24c-.32-.34-.52-.58-.62-.71a.91.91,0,0,1-.36-.83,13.27,13.27,0,0,0-2.52,4.59,26,26,0,0,0-1.12,4.22c-.51,1.6-1.34,4.19-2.49,7.74q-1.49,4.24-2.85,8.33c-.57-.75-1.19-1.57-1.85-2.46l-.29-.44c-.35-.66-.72-1.3-1.09-1.92a1.43,1.43,0,0,1-.32-.84c-.43-.71-.83-1.35-1.21-1.92s-1-1.15-1.44-1.73c-.08-.11-.09-.18,0-.23a1,1,0,0,0-.82-.57,3.63,3.63,0,0,0-1.15.09,2.55,2.55,0,0,0-1.44.9,1.5,1.5,0,0,0-.57,1Z" transform="translate(-615.26 -694.2)"/><path class="cls-1" d="M933.21,1126.2l0,.07q-7.47,2.87-13.6,4.94-10.5,2.52-19.74,4a37.17,37.17,0,0,1-5.31,1.26,79.77,79.77,0,0,1-33.38-.86c-1-.21-3.52-.85-7.46-1.92l-.66-.18-4.13,0c-1.2,0-2.19.08-3,.17a9.61,9.61,0,0,0-2.49.48l.66,2.57a19.26,19.26,0,0,0,1.4,3.12q1.45,3.06,2.08,4.63l.13.32q3.09,3.76,6,6.79a104,104,0,0,0,14.85,13,10.25,10.25,0,0,1,.08-1.53c0-.26,0-.55,0-.87a22.94,22.94,0,0,1-.23-2.33c.09-.7.16-1.24.22-1.6l.38-2.31c.23-1.36.46-2.5.71-3.41a19.69,19.69,0,0,1,1.33-3.22,1.44,1.44,0,0,1,.53-.68.91.91,0,0,1,.82,0,2.47,2.47,0,0,1,.69.57,5.5,5.5,0,0,1,.77,3.34l0,2.25.74,0a7.13,7.13,0,0,1,1.72.32l1.09.41,4,1a9,9,0,0,1,2.2.73,10,10,0,0,1,1.43-.09c1,0,1.76,0,2.24,0,1.19-.19,2.11-.3,2.74-.35a4.7,4.7,0,0,1,2.59.54,3.47,3.47,0,0,0,.9.43c.38,0,.56.09.57.28a1.57,1.57,0,0,0-1,.25l-.95.65a7.18,7.18,0,0,1-1.83.69,20.73,20.73,0,0,1-5.27.44,3.55,3.55,0,0,0-1.34.11l-1.13.45a7.29,7.29,0,0,1-1.79.24,1.42,1.42,0,0,0-.5,0,8.64,8.64,0,0,1-2,.12,21.91,21.91,0,0,1-3.17-.29c-.53-.15-1-.3-1.51-.46a6.81,6.81,0,0,0,.12,1.1,31,31,0,0,1-.09,5l-.16,2.24a3.8,3.8,0,0,1-.33,1.51v0a1.27,1.27,0,0,1-.3.37,1.5,1.5,0,0,1-.66.52H872a3,3,0,0,1-.78,0,4.24,4.24,0,0,1-1.44-.07,15.76,15.76,0,0,1-6.53-3.05,66.6,66.6,0,0,1-10.45-8.88c-1-.64-1.95-1.17-2.78-1.58a5.36,5.36,0,0,1-1.22-.58c.45,1,.92,1.9,1.41,2.75.72,1.28,1.11,2,1.16,2a8.36,8.36,0,0,1,.7,2.15c.73.65,1.5,1.3,2.32,2a66.79,66.79,0,0,0,10,7.16,31.5,31.5,0,0,0,9.31,3.82,5,5,0,0,0,1,.28c1,.2,1.67.37,2.09.49a4.48,4.48,0,0,1,2,.73q5.54.49,15.63.92c.12-.06.21,0,.26,0l1.27,0a1,1,0,0,0-.56-.12c1.81-.1,3.6-.13,5.36-.1q7.32-.23,15.16-1.13,5.22-.63,12.66-1.82,6.88-1.24,12.13-2.48,3.25-.79,14.6-4.34l7.31-2.61a203.66,203.66,0,0,0,19.41-10.08c1.27-.74,2.41-1.36,3.43-1.85a3.32,3.32,0,0,1,1.46-1c.82-.53,1.46-.94,1.92-1.21.76-.63,1.36-1.08,1.79-1.37l1.28-.62c1.92-1.75,3.46-3.11,4.6-4.1q3.57-3.22,10.72-10.42v0a115.72,115.72,0,0,0,10.06-12.79q8.85-13.89,9.89-26.76a40.88,40.88,0,0,0-1.39-14.81c-.42-1.06-.79-2-1.1-2.92a3,3,0,0,1-.74-.6,18.36,18.36,0,0,1-1.46-1.4,5.75,5.75,0,0,0-1.59-1.28q-2.58-1.35-7.42-.39a37,37,0,0,0-9.62,3.85,70.36,70.36,0,0,0-8.68,5.7q-3.52,2.68-14.93,11.69l0,.07q-14.32,11.23-21.09,15.88a178.64,178.64,0,0,1-25.86,14m48.08-6.06c.77-.6,1.33-1.05,1.68-1.34l.37-.39a1.5,1.5,0,0,1,.57-1,2.55,2.55,0,0,1,1.44-.9,3.63,3.63,0,0,1,1.15-.09,1,1,0,0,1,.82.57c-.07,0-.06.12,0,.23.44.58.92,1.16,1.44,1.73s.78,1.21,1.21,1.92a1.43,1.43,0,0,0,.32.84c.37.62.74,1.26,1.09,1.92l.29.44c.66.89,1.28,1.71,1.85,2.46q1.37-4.08,2.85-8.33c1.15-3.55,2-6.14,2.49-7.74a26,26,0,0,1,1.12-4.22,13.27,13.27,0,0,1,2.52-4.59.91.91,0,0,0,.36.83c.1.13.3.37.62.71a4.23,4.23,0,0,1,.81,2.24,22.48,22.48,0,0,1,0,4.72c-.17.89-.35,1.76-.53,2.63a88.46,88.46,0,0,1-5.92,15.87,15.56,15.56,0,0,1-1.51,2.47,4.51,4.51,0,0,1-2.7,1.32,3.88,3.88,0,0,1-3-1.82q-1.64-2-3.3-4.07a22.48,22.48,0,0,1-3.16-4.47,2.85,2.85,0,0,0-1,.73,6.38,6.38,0,0,0-1.28,1c-.28.16-.76.46-1.44.91a1.19,1.19,0,0,0-.66.39c-1.62,1.29-3.51,2.67-5.64,4.16A160.81,160.81,0,0,1,927.7,1151l-5.17,1.3c-.52.08-1.86.32-4,.73-1,.13-2,.3-2.86.5a42.45,42.45,0,0,0,4.26-1.52q3.57-1.82,5.18-2.56c1.3-.55,2.87-1.15,4.7-1.82q3.11-1.19,4.65-1.72a178.74,178.74,0,0,0,19.51-9.05q6.45-3.46,18.89-10.77c.43-.26.92-.54,1.46-.83,0-.08,0-.13,0-.14l2.12-1.34a9.62,9.62,0,0,0,2-1.4,7,7,0,0,1,1.13-1A11.3,11.3,0,0,1,981.29,1120.14Z" transform="translate(-615.26 -694.2)"/></g><g id="whiskers_L_0_Layer0_0_FILL" data-name="whiskers L 0 Layer0 0 FILL"><path d="M1153.47,1102.37c.35-.46.25-1.06-.29-1.8a38.61,38.61,0,0,0-7.23-7.3,71.45,71.45,0,0,0-8.58-5.48,149.38,149.38,0,0,0-29.26-12.56q-17.7-5.45-32.25-4.88a69.62,69.62,0,0,0-16.58,2.67,61.32,61.32,0,0,0-15.75,7.21.86.86,0,0,0-.44.42.39.39,0,0,0,.29.51,1.32,1.32,0,0,0,.78-.05,87.09,87.09,0,0,1,25.63-5.28,100.48,100.48,0,0,1,25.56,2,126.55,126.55,0,0,1,24.33,7.65,179.28,179.28,0,0,1,22.78,11.61c4.59,2.7,7.73,4.48,9.45,5.34q1,.54,1.56-.06m-22.82-76.95a94.92,94.92,0,0,0-26.43,2.73,108.41,108.41,0,0,0-29.48,12.2,130.41,130.41,0,0,0-30.51,25.26,4.45,4.45,0,0,0-.91,1.37,1.06,1.06,0,0,0-.13.5.82.82,0,0,0,.44.76,1,1,0,0,0,.5.13,3.51,3.51,0,0,0,2-.83q16.65-13,26.84-19.5a118.27,118.27,0,0,1,24.23-12.5q17.83-6.43,40.11-4.94a137.72,137.72,0,0,1,17.57,2.31l4,.8a33.22,33.22,0,0,0,3.85.48,1.25,1.25,0,0,0,.7-.13.62.62,0,0,0,.33-.61,1.44,1.44,0,0,0-.89-1.09,44.17,44.17,0,0,0-9.12-3.42q-4.49-1.25-8.85-2A87.65,87.65,0,0,0,1130.65,1025.42Z" transform="translate(-615.26 -694.2)"/></g><g id="whiskers_R_0_Layer0_0_FILL" data-name="whiskers R 0 Layer0 0 FILL"><path d="M811.65,1167.08c-.14-.74-.81-1.11-2-1.12a65.16,65.16,0,0,0-11.46.78,92.74,92.74,0,0,0-35.89,12.76,141.6,141.6,0,0,0-12.34,8.77,167,167,0,0,0-28.66,28.32,3.21,3.21,0,0,0-.61,1.26c-.15.51-.08.81.23.91s.68,0,1.12-.45q17.63-15.63,24.74-21.24,14.26-11.23,26.44-17a107.54,107.54,0,0,1,17.56-6.43,160.65,160.65,0,0,1,17.86-3.85,4.07,4.07,0,0,0,2-.72,2.24,2.24,0,0,0,1-2m-34.81-25.44c-.9-.12-1.78-.22-2.63-.29a60.86,60.86,0,0,0-13.08.43,66.52,66.52,0,0,0-11.81,2.83,80.61,80.61,0,0,0-24.45,13.26,112.57,112.57,0,0,0-21.82,22.63,7.88,7.88,0,0,0-1.24,2.27,2.5,2.5,0,0,0-.28.85,1,1,0,0,0,0,.66,1.28,1.28,0,0,0,.2.75,46.46,46.46,0,0,0,4.74-3.58q.87-.85,4.6-4.44,24.84-23.07,47.43-27.22a63.55,63.55,0,0,1,19.36-.42,108.58,108.58,0,0,1,18.69,4.3q2.52.8,3.41-1.15c.06-.31.13-.59.2-.84a4.92,4.92,0,0,0,0-.67,2.47,2.47,0,0,0-.36-1.3,4.75,4.75,0,0,0-1.94-1.78A61.81,61.81,0,0,0,776.84,1141.64Z" transform="translate(-615.26 -694.2)"/></g><g id="nose_0_Layer1_0_FILL" data-name="nose 0 Layer1 0 FILL"><path class="cls-9" d="M876.61,1091.81a21.6,21.6,0,0,0-4.82,8.66,7.52,7.52,0,0,0-.33,3.61,4,4,0,0,0,.76,1.67,3,3,0,0,0,1.44,1,3.28,3.28,0,0,0,2-.07,3.91,3.91,0,0,0,1.62-1.09,11.71,11.71,0,0,0,2-3.43,5.07,5.07,0,0,0,2.7,1.43,5.18,5.18,0,0,0,3-.32,8.43,8.43,0,0,0,2.07-1.42,25.16,25.16,0,0,1,2-1.61,15.31,15.31,0,0,1,4.91-2,53.69,53.69,0,0,1,8.31-1.47c1.58-.17,2.47-.27,2.66-.31a13.28,13.28,0,0,0,2.57-.62,6.16,6.16,0,0,0,2.29-1.35,4.71,4.71,0,0,0,1.42-2.22,4.31,4.31,0,0,0-.16-2.78,6.15,6.15,0,0,0-1.63-2.4,12.15,12.15,0,0,0-5.13-2.51,29.62,29.62,0,0,0-9.94-1,26,26,0,0,0-9.64,2.35A24,24,0,0,0,876.61,1091.81Z" transform="translate(-615.26 -694.2)"/></g><g id="nose_0_Layer0_0_FILL" data-name="nose 0 Layer0 0 FILL"><path d="M908.27,1088a14.9,14.9,0,0,0-3,.88q-1.92.71-6.2,2c-2.7.85-4.76,1.53-6.19,2.06q-3.18,1.21-6,2.59l-2.65,1.33a27.18,27.18,0,0,1-2.74,1.15c-.57.19-1.47.46-2.69.82a13,13,0,0,0-2.61,1l-.13.07a6.33,6.33,0,0,0-2.46,1.53l-.33.35,0,0a.13.13,0,0,1-.05.07,6.84,6.84,0,0,0-1.25,3.36,6.63,6.63,0,0,0,0,1,5.6,5.6,0,0,0,.69,2.85,7.7,7.7,0,0,0,2.6,2.41,35.78,35.78,0,0,0,6.91,3.2q2.89,1,7.36,2.13,3.9,1,7.34,1.6a8.25,8.25,0,0,0,4.8-.26,8.79,8.79,0,0,0,2.68-2.84,45,45,0,0,0,3.26-5.22c.14-.24.59-1.2,1.34-2.88l3.37-6.08a28.38,28.38,0,0,0,1.66-3.35,9.28,9.28,0,0,0,.67-3.62,5.21,5.21,0,0,0-1.38-3.42,4.74,4.74,0,0,0-.92-.83,3,3,0,0,0-1-1.24,4,4,0,0,0-3-.69m-5.38,9.35a9.81,9.81,0,0,0,2.77-1.25,35.53,35.53,0,0,1-1.6,5.52,51.08,51.08,0,0,1-2.36,5q-.54.9-2.79,4.8l-.21.33a36.93,36.93,0,0,1-6.27-1.07q-2.29-.59-6.2-1.86a31.91,31.91,0,0,1-7.22-3,11.12,11.12,0,0,1,1.73-1.14,1.64,1.64,0,0,0,.29-.2,41.2,41.2,0,0,0,8.92-2.72,97.58,97.58,0,0,1,9.92-3.66l3-.72M898,1084a16.29,16.29,0,0,0-3.25-.21,34.73,34.73,0,0,0-7.57,1.52c-1.63.52-2.67.86-3.11,1a18.38,18.38,0,0,0-5.75,3.94,23.44,23.44,0,0,0-3.17,4,2.2,2.2,0,0,1,1.65.35q1.07-.3,1.62-.51a8.68,8.68,0,0,0,1.67-.84l1.59-1a27.49,27.49,0,0,1,6.46-2.78q2.6-.75,6.9-1.55a16,16,0,0,0,3.2-.78,7.75,7.75,0,0,0,2.48-1.81A3.78,3.78,0,0,0,898,1084Z" transform="translate(-615.26 -694.2)"/><path class="cls-13" d="M905.66,1096.06a9.81,9.81,0,0,1-2.77,1.25l-3,.72a97.58,97.58,0,0,0-9.92,3.66,41.2,41.2,0,0,1-8.92,2.72,1.64,1.64,0,0,1-.29.2,11.12,11.12,0,0,0-1.73,1.14,31.91,31.91,0,0,0,7.22,3q3.9,1.28,6.2,1.86a36.93,36.93,0,0,0,6.27,1.07l.21-.33q2.25-3.9,2.79-4.8a51.08,51.08,0,0,0,2.36-5A35.53,35.53,0,0,0,905.66,1096.06Z" transform="translate(-615.26 -694.2)"/></g></svg>