<svg id="Layer_1" data-name="Layer 1" xmlns="http://www.w3.org/2000/svg" viewBox="0 0 451.43 432.59"><defs><style>.cls-1{fill:#68c1bd;}.cls-2{fill:#419298;}.cls-3{fill:#735991;}.cls-4{fill:#9775cc;}.cls-5{fill:#705a98;}.cls-6{fill:#ffde70;}.cls-7{fill:#fff;}</style></defs><g id="ear_02_0_Layer0_0_FILL" data-name="ear 02 0 Layer0 0 FILL"><path d="M33.87,174.38A317.62,317.62,0,0,0,55,235.48a267.73,267.73,0,0,0,34,55,250.81,250.81,0,0,0,52.31,48.73c1.4,1,2.54,1.4,3.42,1.22a2.39,2.39,0,0,0,1.75-1.52,3.46,3.46,0,0,0,.08-2.51,6.1,6.1,0,0,0-1.3-2.07c-.45-.44-1.09-1-1.92-1.67s-1.83-1.52-2.73-2.25a.17.17,0,0,0,.12,0,26.62,26.62,0,0,0,10-4.42,70.23,70.23,0,0,0,10.15-8.35q3.18-3.08,9.1-9.61l3.44-3.79c1.05-1.17,2-2.21,2.74-3.11a3.61,3.61,0,0,0,1.11.13,4,4,0,0,0,1.76-.41,2.29,2.29,0,0,0,1.13-1.21,2.46,2.46,0,0,0,.09-.34,2.68,2.68,0,0,0-.58-2.37,147.84,147.84,0,0,0,25.38-47.12,146.89,146.89,0,0,0,7.07-56.22,52.29,52.29,0,0,0-1.54-10,61.81,61.81,0,0,0-2.9-7.39c-1.47-3.3-2.47-5.73-3-7.3a1.77,1.77,0,0,1-.12-.31,2.57,2.57,0,0,0-.4-2.64,10.9,10.9,0,0,0-3.12-3.08,27.67,27.67,0,0,0-4-2.12,146.41,146.41,0,0,0-15.53-5.82q-5.23-1.69-16-4.69-13-3.61-19.22-5.17-10.74-2.7-19.43-4.27-11-2-24.76-3.13-8.89-.76-24.92-1.62-13.08-.65-20.55-.85-11.34-.33-20.55-.08a7.13,7.13,0,0,0-3.22.81c-1.1.56-1.54,1.31-1.35,2.25a1.82,1.82,0,0,0,.08.36,57.72,57.72,0,0,0-1,17.6,131.43,131.43,0,0,0,3.24,18.27m40.42,82.23a313.28,313.28,0,0,1-26.2-56.78A253.14,253.14,0,0,1,37.6,157.26q-.76-5.13-1.3-10.23v-.33l0-3.21a16.63,16.63,0,0,1,.22-3.17l50.86,3.62q14.11,1,21.12,1.82a299.61,299.61,0,0,1,40.73,7.86q16.31,4.27,39.8,12.06c3.33,1.11,6.16,2,8.46,2.71q.15.63.39,1.38.83,2.43,3.54,8.19a48,48,0,0,1,3.3,8.26,35.81,35.81,0,0,1,.83,5.15l-.07-.05a45.39,45.39,0,0,0-4.89-2.35,44,44,0,0,0-5-1.35c-.61-.12-1.15-.22-1.63-.29q-17.47-9.63-40.44-14.57a256.41,256.41,0,0,0-27.67-4.26q-11.09-1.16-27.92-2Q88,166,82.42,166A92.8,92.8,0,0,0,67,167.23a4.23,4.23,0,0,0-1.3.42.78.78,0,0,0-.73,0c-.44.2-.6.68-.5,1.43a1.33,1.33,0,0,0,.2.89,229.38,229.38,0,0,0,27.12,60q21,33,48.11,50.43a28.74,28.74,0,0,0,3.26,1.87,10.08,10.08,0,0,0,1.5.55c1.62,1.12,3.33,2.25,5.15,3.4q5.81,3.75,17.9,10.68l3.19,1.78-.65.76c-.9,1-1.85,2.1-2.85,3.2q-4.71,5.26-10.67,11.45c-2.2,2.29-3.94,4-5.24,5.16a39.94,39.94,0,0,1-5.85,4.45,26.71,26.71,0,0,1-6.8,2.87,23.57,23.57,0,0,1-2.37.47q-12.8-10.65-21.63-19.07A222.81,222.81,0,0,1,89.72,280.2a245.67,245.67,0,0,1-15.43-23.59m2.28-68.77q-2.4-5.73-3.56-8.39L72.55,178,72,175.88a45,45,0,0,0-1.45-4.47c1,0,2-.06,3-.07q6.57-.09,14.26.27,6.51.34,18.84,1.41,16.4,1.44,24.49,2.42a213.37,213.37,0,0,1,24.2,4.24q8.92,2.17,24.29,7.34,8.35,2.76,14.36,4.68a12.64,12.64,0,0,0,1.52.76c1.93.82,3.07,1.33,3.43,1.52a32.28,32.28,0,0,1,3,1.89l3.71,2.49.48.31q1,28.65-7.79,52.48-1.87,5.13-5.12,12.35-1.14,2.55-2.18,4.74c-1.07,2.26-2,4.22-2.93,5.89a129.27,129.27,0,0,1-12.92,19.44q-2.46-1.5-5.37-3.17-2.21-1.27-7.8-4.34L151,280.14q-4-2.19-6-3.12-1.1-.56-2.13-1c-2.08-1.63-3.64-2.88-4.69-3.73A183.34,183.34,0,0,1,102,234,240.77,240.77,0,0,1,76.57,187.84Z" transform="translate(-30.37 -19.9)"/><path class="cls-1" d="M87.74,171.61q-7.68-.36-14.26-.27,1.63,3.1,5.11,9.21,5.77,10.23,6.62,10.91,4.77,8.72,11.14,18.73,12.75,20.06,21.42,27.08.69.55,8.37,5.9c5.1,3.57,7.88,5.53,8.34,5.91a43,43,0,0,0,4.41,2.58,44.34,44.34,0,0,1,4.37,2.58q4.22,3.42,27.58,9.19,9.58,2.35,20.09,4.81,1-2.19,2.18-4.74,3.24-7.22,5.12-12.35Q207,227.32,206,198.67l-.48-.31-3.71-2.49a32.28,32.28,0,0,0-3-1.89c-.36-.19-1.5-.7-3.43-1.52a12.64,12.64,0,0,1-1.52-.76q-6-1.92-14.36-4.68-15.36-5.18-24.29-7.34a213.37,213.37,0,0,0-24.2-4.24q-8.1-1-24.49-2.42Q94.25,172,87.74,171.61Z" transform="translate(-30.37 -19.9)"/><path class="cls-2" d="M73,179.45q1.15,2.66,3.56,8.39A240.77,240.77,0,0,0,102,234a183.34,183.34,0,0,0,36.16,38.36c1.05.85,2.61,2.1,4.69,3.73q1,.4,2.13,1,2,.93,6,3.12l10.9,5.92q5.59,3.07,7.8,4.34,2.91,1.67,5.37,3.17A129.27,129.27,0,0,0,188,274.13c.89-1.67,1.86-3.63,2.93-5.89q-10.52-2.46-20.09-4.81-23.37-5.78-27.58-9.19a44.34,44.34,0,0,0-4.37-2.58,43,43,0,0,1-4.41-2.58c-.46-.38-3.24-2.34-8.34-5.91s-7.91-5.53-8.37-5.9q-8.67-7-21.42-27.08-6.36-10-11.14-18.73-.84-.68-6.62-10.91-3.47-6.11-5.11-9.21c-1,0-2,0-3,.07A45,45,0,0,1,72,175.88l.58,2.09Z" transform="translate(-30.37 -19.9)"/><path class="cls-3" d="M64.48,213.21q-3.53-5.33-6.9-10.63a82.53,82.53,0,0,1-6.77-13.19q-1.64-4-3.38-8.07t-3.19-8.13q-4.52-13.11-7.94-26.49V147q.54,5.1,1.3,10.23a253.14,253.14,0,0,0,10.49,42.57,313.28,313.28,0,0,0,26.2,56.78A245.67,245.67,0,0,0,89.72,280.2,222.81,222.81,0,0,0,114.84,308q8.84,8.41,21.63,19.07a23.57,23.57,0,0,0,2.37-.47,26.71,26.71,0,0,0,6.8-2.87,39.94,39.94,0,0,0,5.85-4.45c1.3-1.15,3-2.87,5.24-5.16q6-6.18,10.67-11.45c1-1.1,1.95-2.16,2.85-3.2a76.22,76.22,0,0,1-16.72-3.85A111.26,111.26,0,0,1,129,283.35q-2.26-1.52-4.43-3.19-5.16-4-9.9-8.42-10.25-9.58-19.92-19.81-7.33-7.74-14-16.21Q72.1,224.74,64.48,213.21Z" transform="translate(-30.37 -19.9)"/><path class="cls-4" d="M57.58,202.58q3.38,5.31,6.9,10.63,7.62,11.53,16.26,22.51,6.66,8.47,14,16.21,9.67,10.23,19.92,19.81,4.75,4.44,9.9,8.42,2.16,1.68,4.43,3.19a111.26,111.26,0,0,0,24.55,12.24,76.22,76.22,0,0,0,16.72,3.85l.65-.76-3.19-1.78q-12.09-6.93-17.9-10.68c-1.82-1.15-3.53-2.28-5.15-3.4a10.08,10.08,0,0,1-1.5-.55,28.74,28.74,0,0,1-3.26-1.87Q112.82,263,91.79,230a229.38,229.38,0,0,1-27.12-60,1.33,1.33,0,0,1-.2-.89c-.1-.75.06-1.23.5-1.43a.78.78,0,0,1,.73,0,4.23,4.23,0,0,1,1.3-.42A92.8,92.8,0,0,1,82.42,166Q88,166,98,166.49q16.83.85,27.92,2a256.41,256.41,0,0,1,27.67,4.26q23,4.94,40.44,14.57c.48.07,1,.17,1.63.29a44,44,0,0,1,5,1.35,45.39,45.39,0,0,1,4.89,2.35l.07.05a35.81,35.81,0,0,0-.83-5.15,48,48,0,0,0-3.3-8.26q-2.72-5.76-3.54-8.19-.24-.75-.39-1.38c-2.3-.69-5.13-1.6-8.46-2.71q-23.49-7.78-39.8-12.06a299.61,299.61,0,0,0-40.73-7.86q-7-.82-21.12-1.82l-50.86-3.62a16.63,16.63,0,0,0-.22,3.17l0,3.21q3.42,13.38,7.94,26.49,1.45,4.16,3.19,8.13t3.38,8.07A82.53,82.53,0,0,0,57.58,202.58Z" transform="translate(-30.37 -19.9)"/></g><g id="ear_01_0_Layer0_0_FILL" data-name="ear 01 0 Layer0 0 FILL"><path d="M354.44,20a7.14,7.14,0,0,0-3,1.49q-7.24,5.58-15.73,13Q330.09,39.31,320.5,48q-11.79,10.74-18.1,16.92-9.78,9.56-17,18-5.62,6.66-12.1,15.5-3.74,5.1-11.33,16-6.31,9-9.21,13.61a151,151,0,0,0-8.12,14.23,35.27,35.27,0,0,0-1.65,4.16,10.26,10.26,0,0,0-.35,4.35,2.56,2.56,0,0,0,1.38,2.26,1.47,1.47,0,0,0,.11.31,78.47,78.47,0,0,1,2.51,7.47,55.37,55.37,0,0,0,2.64,7.44,39.85,39.85,0,0,0,3.84,6.48c.48.7,1,1.41,1.55,2.15l.64.86a150.42,150.42,0,0,0,30.5,30.12q5.4,4,11.2,7.59a154.86,154.86,0,0,0,50.42,20.05,2.49,2.49,0,0,0,3.07,2.57,3.69,3.69,0,0,0,1.58-.76,4.5,4.5,0,0,0,.78-.86q3.51.61,9.29,1.46,8.81,1.23,13.28,1.6a79.36,79.36,0,0,0,13.28,0,27.08,27.08,0,0,0,10.56-3l.12,0q-.32,1.68-.66,3.42c-.17,1-.28,1.87-.34,2.52a5.38,5.38,0,0,0,.37,2.37,3.29,3.29,0,0,0,1.7,1.8,2.24,2.24,0,0,0,2.32.09q1.19-.57,1.86-3a242,242,0,0,0,8.13-70.18,263.09,263.09,0,0,0-10-63.5,314.35,314.35,0,0,0-23.9-60,132.54,132.54,0,0,0-9.53-16q-1.45-2-3-3.86a61,61,0,0,0-6.31-6.57c-1-.87-2-1.69-3-2.45a.71.71,0,0,0-.14-.29,2.19,2.19,0,0,0-2.49-.94m.05,5.78a11.44,11.44,0,0,1,1.6,1.48l.65.81,2.32,2.65c.84,1.22,1.67,2.44,2.49,3.68a245.45,245.45,0,0,1,23.1,44.15,308.71,308.71,0,0,1,17.22,59.86,237,237,0,0,1,3.63,27.76,216.08,216.08,0,0,1-1.06,37q-1.26,12-4.08,28.16a17.77,17.77,0,0,1-2.13,1.14,25.35,25.35,0,0,1-7.12,2.09,43.35,43.35,0,0,1-7.39.28q-2.62-.12-7.37-.58-12.08-1.4-21.05-2.94c.41-1,.85-2.1,1.32-3.34q4.68-13,6.75-19.47c.64-2,1.19-3.94,1.67-5.8a14.08,14.08,0,0,0,.8-1.39,21,21,0,0,0,1.29-3.49q9.31-30.28,3.78-68.82a227.32,227.32,0,0,0-17.77-61.23c-.24-.56-.5-1.12-.76-1.69a2,2,0,0,0-.47-.85c-.38-.61-.81-.85-1.28-.73a.71.71,0,0,0-.58.41,7.61,7.61,0,0,0-1.25.56,92.37,92.37,0,0,0-12.68,8.74q-4.26,3.47-11.63,10.15-9.15,8.39-15.81,14.84-2.3,2.25-4.3,4.26a245,245,0,0,0-18.44,20.68q-14.4,18.22-21.45,36.6c-.31.36-.66.8-1.05,1.3a35.88,35.88,0,0,0-3,4.12,43.17,43.17,0,0,0-2.24,4.88l0,.06c-.22-.31-.43-.61-.63-.91a28.85,28.85,0,0,1-2.11-3.54c-.05-.11-.1-.21-.14-.32a53.57,53.57,0,0,1-2.75-8,85.86,85.86,0,0,0-2.65-8.55,9.69,9.69,0,0,0-.66-1.33q2-2.92,4.78-7.39,12.89-20.73,22.63-34.2a290,290,0,0,1,26-31.65q4.88-5.07,15.05-14.79l36.67-34.68m-9.44,48.1q1.9-1.56,3.74-3c.14.37.3.81.5,1.29.35.84.79,1.84,1.34,3l.94,2c.21.48.43.94.65,1.39q.81,2.76,2.77,8.65a237.68,237.68,0,0,1,10.7,51.33,179.43,179.43,0,0,1-2.52,52.06c-.27,1.31-.68,3.23-1.23,5.78-.31.66-.64,1.36-1,2.1q-.85,2-2.49,6.17L353.93,216q-2.26,5.88-3.15,8.22-1.17,3.08-2,5.79a136.3,136.3,0,0,1-22.65-6.7q-4.38-1.78-10.88-4.93-7.29-3.45-12.08-6.26a127.88,127.88,0,0,1-17-11.58,140.23,140.23,0,0,1-11-9.83A163.33,163.33,0,0,1,262.72,177a6,6,0,0,0,.15-.61l1.23-4.21c.41-1.49.75-2.59,1-3.32.16-.35.71-1.45,1.63-3.31.26-.55.5-1.05.71-1.51q3.33-5.25,7.9-12.62,8.43-13.62,13.86-20.91A218,218,0,0,1,305,112.08c.91-1,1.94-2,3.09-3.19l.08-.1q5.31-5.43,14.1-14t13.49-12.89Q340.59,77.48,345.05,73.83Z" transform="translate(-30.37 -19.9)"/><path class="cls-1" d="M348.79,70.86q-1.83,1.41-3.74,3-4.47,3.65-9.32,8.08T322.24,94.8q-8.79,8.57-14.1,14l-.08.1c-1.15,1.17-2.18,2.24-3.09,3.19a218,218,0,0,0-15.75,18.44q-5.43,7.29-13.86,20.91-4.58,7.38-7.9,12.62c-.21.46-.45,1-.71,1.51-.92,1.86-1.47,3-1.63,3.31-.27.73-.61,1.83-1,3.32l-1.23,4.21a6,6,0,0,1-.15.61,163.33,163.33,0,0,0,12.37,13.74,140.23,140.23,0,0,0,11,9.83,127.88,127.88,0,0,0,17,11.58q4.78,2.81,12.08,6.26,6.5,3.15,10.88,4.93a136.3,136.3,0,0,0,22.65,6.7q.87-2.72,2-5.79.89-2.34,3.15-8.22l4.51-11.38q1.63-4.18,2.49-6.17c.37-.74.7-1.44,1-2.1.55-2.55,1-4.47,1.23-5.78a179.43,179.43,0,0,0,2.52-52.06A237.68,237.68,0,0,0,355,87.22q-2-5.89-2.77-8.65c-.22-.45-.44-.91-.65-1.39l-.94-2c-.55-1.17-1-2.17-1.34-3C349.09,71.67,348.93,71.23,348.79,70.86Z" transform="translate(-30.37 -19.9)"/><path class="cls-3" d="M352.38,66.08c.26.57.52,1.13.76,1.69A227.32,227.32,0,0,1,370.91,129q5.54,38.53-3.78,68.82a21,21,0,0,1-1.29,3.49,14.08,14.08,0,0,1-.8,1.39c-.48,1.86-1,3.8-1.67,5.8Q361.3,215,356.62,228c-.47,1.24-.91,2.36-1.32,3.34q9,1.56,21.05,2.94,4.74.47,7.37.58a43.35,43.35,0,0,0,7.39-.28,25.35,25.35,0,0,0,7.12-2.09,17.77,17.77,0,0,0,2.13-1.14q2.82-16.19,4.08-28.16a216.08,216.08,0,0,0,1.06-37,237,237,0,0,0-3.63-27.76A308.71,308.71,0,0,0,384.65,78.5a245.45,245.45,0,0,0-23.1-44.15q-13.5,11.59-27.1,23.16A249,249,0,0,0,289.84,107a276.61,276.61,0,0,0-32.21,63.2c.2.3.41.6.63.91l0-.06a43.17,43.17,0,0,1,2.24-4.88,35.88,35.88,0,0,1,3-4.12c.39-.5.74-.94,1.05-1.3q7-18.39,21.45-36.6a245,245,0,0,1,18.44-20.68q2-2,4.3-4.26,6.66-6.45,15.81-14.84,7.38-6.69,11.63-10.15a92.37,92.37,0,0,1,12.68-8.74,7.61,7.61,0,0,1,1.25-.56.71.71,0,0,1,.58-.41c.47-.12.9.12,1.28.73A2,2,0,0,1,352.38,66.08Z" transform="translate(-30.37 -19.9)"/><path class="cls-4" d="M356.09,27.21a11.44,11.44,0,0,0-1.6-1.48L317.82,60.41q-10.19,9.72-15.05,14.79a290,290,0,0,0-26,31.65q-9.74,13.47-22.63,34.2-2.73,4.45-4.78,7.39a9.69,9.69,0,0,1,.66,1.33,85.86,85.86,0,0,1,2.65,8.55,53.57,53.57,0,0,0,2.75,8c0,.11.09.21.14.32a28.85,28.85,0,0,0,2.11,3.54A276.61,276.61,0,0,1,289.84,107a249,249,0,0,1,44.61-49.48q13.6-11.57,27.1-23.16c-.82-1.24-1.65-2.46-2.49-3.68L356.74,28Z" transform="translate(-30.37 -19.9)"/></g><g id="face_0_Layer0_0_FILL" data-name="face 0 Layer0 0 FILL"><path d="M303.18,142.79a130.5,130.5,0,0,0-50-7.42,126.65,126.65,0,0,0-48.74,12.44,123.53,123.53,0,0,0-40.19,30.37q-4.37,5-9.71,12.33a139.35,139.35,0,0,0-9.14,14,119.44,119.44,0,0,0-11.58,30.24,238,238,0,0,0-5.3,32.38q-1.45,14.28-1.46,25.38a140.11,140.11,0,0,0,2.07,25.27q1,5.73,3.46,15.22,4,15.15,8,26.1a168.57,168.57,0,0,0,11,24.83,135,135,0,0,0,27.82,34.88,132.69,132.69,0,0,0,37.42,23.77,127.93,127.93,0,0,0,42.85,9.73,126,126,0,0,0,43.3-5.12,151.82,151.82,0,0,0,23.74-9.53q30.76-15.25,48.81-37.75a118.43,118.43,0,0,0,14.52-23,136.68,136.68,0,0,0,9.48-25.61q2.1-7.95,3.8-18.44,8.15-49.75-4.49-86.85a155.57,155.57,0,0,0-10.5-23.71q-5.46-10.11-13.53-22.15-4.9-7.32-8.94-12.61a135.69,135.69,0,0,0-10-11.71,106.85,106.85,0,0,0-8.29-7.66,137.31,137.31,0,0,0-44.4-25.39m2.87,8a146.35,146.35,0,0,1,13.42,6.18,119.47,119.47,0,0,1,12.09,6.92q14.85,9.72,28.1,26.85,9.69,12.6,21.33,33.36,4.14,7.37,6.3,12,16,33.81,10.75,83a195.6,195.6,0,0,1-6.45,34.07,123.3,123.3,0,0,1-13.72,31.3,116.32,116.32,0,0,1-24.1,27.15,159.7,159.7,0,0,1-30.49,19.85,141.48,141.48,0,0,1-13.38,6.06,119.11,119.11,0,0,1-42.33,8.06,121.78,121.78,0,0,1-42.73-7.33,124,124,0,0,1-37.74-22.07,126.13,126.13,0,0,1-28.26-33.83,158.8,158.8,0,0,1-9.78-20.65q-3.54-9-7.46-21.62-3.28-10.5-4.74-17.58a143.57,143.57,0,0,1-2.77-25,257.39,257.39,0,0,1,5.62-57.77,128.77,128.77,0,0,1,11-30.7q13-24.78,40.43-45.36a100.57,100.57,0,0,1,12.3-8.11,93.53,93.53,0,0,1,15.93-6.68,133.77,133.77,0,0,1,43.48-6.59A121.3,121.3,0,0,1,306.05,150.75Z" transform="translate(-30.37 -19.9)"/><path class="cls-4" d="M319.47,156.93a146.35,146.35,0,0,0-13.42-6.18,121.3,121.3,0,0,0-43.18-8.43,133.77,133.77,0,0,0-43.48,6.59,93.53,93.53,0,0,0-15.93,6.68,100.57,100.57,0,0,0-12.3,8.11q-27.43,20.58-40.43,45.36a128.77,128.77,0,0,0-11,30.7,257.39,257.39,0,0,0-5.62,57.77,143.57,143.57,0,0,0,2.77,25q1.45,7.08,4.74,17.58,3.92,12.58,7.46,21.62a158.8,158.8,0,0,0,9.78,20.65,126.13,126.13,0,0,0,28.26,33.83,124,124,0,0,0,37.74,22.07,121.78,121.78,0,0,0,42.73,7.33,119.11,119.11,0,0,0,42.33-8.06,141.48,141.48,0,0,0,13.38-6.06,159.7,159.7,0,0,0,30.49-19.85,116.32,116.32,0,0,0,24.1-27.15,123.3,123.3,0,0,0,13.72-31.3A195.6,195.6,0,0,0,398,319.07q5.26-49.18-10.75-83-2.16-4.65-6.3-12-11.64-20.76-21.33-33.36-13.25-17.13-28.1-26.85A119.47,119.47,0,0,0,319.47,156.93Z" transform="translate(-30.37 -19.9)"/></g><g id="fur02_0_Layer0_0_FILL" data-name="fur02 0 Layer0 0 FILL"><path class="cls-4" d="M400.22,260.61c-2.82.09-4.94.16-6.35.18a46.38,46.38,0,0,1-6.39-.3,5,5,0,0,1-2.79-1.18q-16.8,14.47-19,53.29-1.08,19.84,3.75,35.83a53.81,53.81,0,0,0,6.72,14.86,31.07,31.07,0,0,0,4.07,4.51,6.08,6.08,0,0,1,.51-.73,24.69,24.69,0,0,1,3.88-3.95q1.5-1.2,4.48-3.27,4.19-2.93,6.58-4.35a39.89,39.89,0,0,1,7-3.5,43.67,43.67,0,0,1,6.21-1.85q2.3-.52,6.32-1.24,6.24-1.12,18.59-3.14a48.57,48.57,0,0,0-10.65-4.22,84.81,84.81,0,0,0-8.79-1.9l-.49,0a4.34,4.34,0,0,1-2-.38.89.89,0,0,0-.29-.12,3.49,3.49,0,0,1-2-1,2.16,2.16,0,0,1-.42-2,3.13,3.13,0,0,1,1.23-1.76l.5-.21a8.22,8.22,0,0,1,2.12-1.87,36.06,36.06,0,0,1,6.92-2.82q18.13-5.64,33.84-2.88a56.22,56.22,0,0,1,14,4.36,33.84,33.84,0,0,1,4,2A70.5,70.5,0,0,0,460.64,320,73,73,0,0,0,446,309.51a66.94,66.94,0,0,0-16.7-6.29,61.85,61.85,0,0,0-17.54-1.54c-.84,0-1.39,0-1.66,0a5.9,5.9,0,0,1-1.62-.31,3.32,3.32,0,0,1-1.28-1,2.08,2.08,0,0,1-.49-1.51c.09-1,.93-1.77,2.51-2.23.23-.27.52-.58.86-.91a46.28,46.28,0,0,1,20.66-12,77.77,77.77,0,0,1,8-1.58q5.24-.82,6.75-1a65.73,65.73,0,0,1,9.42-.74,24.31,24.31,0,0,1,3.53.38A98.81,98.81,0,0,0,434,267.05,89.69,89.69,0,0,0,400.22,260.61Z" transform="translate(-30.37 -19.9)"/><path d="M386.49,255.06a5.32,5.32,0,0,0-.61.35c-1.36.81-1.95,1.73-1.78,2.77a2,2,0,0,0,.59,1.13,5,5,0,0,0,2.79,1.18,46.38,46.38,0,0,0,6.39.3c1.41,0,3.53-.09,6.35-.18A89.69,89.69,0,0,1,434,267.05a98.81,98.81,0,0,1,24.5,13.74,24.31,24.31,0,0,0-3.53-.38,65.73,65.73,0,0,0-9.42.74q-1.51.18-6.75,1a77.77,77.77,0,0,0-8,1.58,46.28,46.28,0,0,0-20.66,12c-.34.33-.63.64-.86.91-1.58.46-2.42,1.21-2.51,2.23a2.08,2.08,0,0,0,.49,1.51,3.32,3.32,0,0,0,1.28,1,5.9,5.9,0,0,0,1.62.31c.27,0,.82,0,1.66,0a61.85,61.85,0,0,1,17.54,1.54,66.94,66.94,0,0,1,16.7,6.29A73,73,0,0,1,460.64,320a70.5,70.5,0,0,1,11.07,13.09,33.84,33.84,0,0,0-4-2,56.22,56.22,0,0,0-14-4.36q-15.7-2.76-33.84,2.88a36.06,36.06,0,0,0-6.92,2.82,8.22,8.22,0,0,0-2.12,1.87l-.5.21a3.13,3.13,0,0,0-1.23,1.76,2.16,2.16,0,0,0,.42,2,3.49,3.49,0,0,0,2,1,.89.89,0,0,1,.29.12,4.34,4.34,0,0,0,2,.38l.49,0a84.81,84.81,0,0,1,8.79,1.9,48.57,48.57,0,0,1,10.65,4.22q-12.35,2-18.59,3.14-4,.72-6.32,1.24a43.67,43.67,0,0,0-6.21,1.85,39.89,39.89,0,0,0-7,3.5q-2.4,1.42-6.58,4.35-3,2.07-4.48,3.27a24.69,24.69,0,0,0-3.88,3.95,6.08,6.08,0,0,0-.51.73,6.58,6.58,0,0,0-.81,2,3.53,3.53,0,0,0,.21,2.21c.13.17.26.36.38.55a2.93,2.93,0,0,0,1.55.77,3.35,3.35,0,0,0,1.69-.09,9.12,9.12,0,0,0,2.89-1.78q5.46-4.47,8.16-6.44a54,54,0,0,1,8.89-5.27,94,94,0,0,1,9.43-3.44q9.3-2.94,14.42-4a49.51,49.51,0,0,1,14.86-1c2.39.21,3.75-.28,4.08-1.49.17-.91-.32-1.9-1.44-3a40.51,40.51,0,0,0-13.92-9,46.39,46.39,0,0,0-6.33-2,64.16,64.16,0,0,1,41.83.68,40,40,0,0,1,13.14,7.34,3.82,3.82,0,0,0,1.54,1,.67.67,0,0,0,.34,0,10.54,10.54,0,0,1,.26-1.56,15.14,15.14,0,0,0,.37-3.59,12.13,12.13,0,0,0-.66-2.22,27,27,0,0,0-2.28-4.36,85.1,85.1,0,0,0-11.07-14.58,82.37,82.37,0,0,0-14-11.7,74.28,74.28,0,0,0-16.28-7.81,63.8,63.8,0,0,0-16.66-3.2c1.64-1.07,2.86-1.82,3.68-2.25a39.81,39.81,0,0,1,8.37-3.42c2.08-.66,5-1.46,8.85-2.42a69.46,69.46,0,0,1,8.2-1.66,39.67,39.67,0,0,1,6.61-.32c.29,0,2.52.12,6.71.26a4.43,4.43,0,0,0,1.58-.23A1.41,1.41,0,0,0,466,286a1,1,0,0,0,.59-.63,2,2,0,0,0,.12-1,2.1,2.1,0,0,0-.29-.81,5.26,5.26,0,0,0-.7-1,69.93,69.93,0,0,0-14.5-13.83,77.53,77.53,0,0,0-17.59-9.46,96.7,96.7,0,0,0-38.59-5.94,23.32,23.32,0,0,0-4.79.5A12.89,12.89,0,0,0,386.49,255.06Z" transform="translate(-30.37 -19.9)"/></g><g id="fur03_0_Layer0_0_FILL" data-name="fur03 0 Layer0 0 FILL"><path class="cls-5" d="M185.87,426.87c-1.09-.25-2.23-.49-3.43-.72q-14.62-2.82-19.17-.4a15.31,15.31,0,0,0-2.21,1.37l0-1.44a1.64,1.64,0,0,0,.43-.95,1.89,1.89,0,0,1,1.08-1.12,3.81,3.81,0,0,0,1.12-.95c-1.87,1.34-3.54,2.62-5,3.86a46.84,46.84,0,0,0-7.17,7.54q11.22-3.22,16.85-4.74,3.69-1,5.86-1.44a38.18,38.18,0,0,1,6-.95,40.94,40.94,0,0,1,5.69-.06m-52-21.19a2.14,2.14,0,0,0,1.09-1.42,2.19,2.19,0,0,1,1.09-1.42q.83-.45.75-1.08c-.06-.43.18-.78.72-1.07a2.28,2.28,0,0,0,1.14-1.45,2.27,2.27,0,0,1,1.11-1.43,2.31,2.31,0,0,0,1.14-1.45,3.54,3.54,0,0,1,.22-.57c-1.1.76-2.19,1.56-3.26,2.39a60.4,60.4,0,0,0-11.47,11.51,62.3,62.3,0,0,0-11.88,28.94c.76-1.07,1.59-2.13,2.48-3.17a53.14,53.14,0,0,1,10-8.93q12-8.31,29.57-10.86l.75-.11q-2.67-1-12.15-.35-6.3.44-15.08,1.21a23.32,23.32,0,0,1,.3-2.78c.17-.94.32-1.44.46-1.51.55-.3.67-.65.36-1.07s-.18-.81.36-1.09.83-1,1.18-2.16.72-1.9,1.16-2.13M120.64,379.3l-.91-1.71q-.12-.58,1-1.17.84-.44.75-1.08c0-.42.19-.78.73-1.06s.79-.65.7-1,.16-.77.7-1.06a4,4,0,0,0,1.48-1.47,4,4,0,0,1,1.47-1.49c.55-.3.81-.64.78-1s.2-.75.74-1a4.47,4.47,0,0,0,1.51-1.42,4.21,4.21,0,0,1,1.49-1.44c.09,0,1.8-1.71,5.15-5s5.06-5,5.18-5a2.46,2.46,0,0,0,.34-.22A85.13,85.13,0,0,0,119,371a88.69,88.69,0,0,0-14.88,20.58,18.1,18.1,0,0,1,2.79-1.68,57.48,57.48,0,0,1,8.24-3.06c.9-.29,2.92-.9,6-1.83a73.24,73.24,0,0,1,7.39-1.87c1.28-.23,2.56-.4,3.83-.52l-2.88-.24c-.13-.24-1.51-.56-4.14-1S121.16,380.27,120.64,379.3Z" transform="translate(-30.37 -19.9)"/><path class="cls-4" d="M119.73,377.59l.91,1.71q.78,1.45,4.75,2.06c2.63.41,4,.73,4.14,1l2.88.24a46,46,0,0,1,18.48,2.09,10.58,10.58,0,0,1,1.1.42q2.22-.37,3,.78a1.89,1.89,0,0,1,.24,1.42,3,3,0,0,1-.69,1.31,5.29,5.29,0,0,1-1.24.89c-.2.1-.66.3-1.37.59a59.7,59.7,0,0,0-10.79,5.72,3.54,3.54,0,0,0-.22.57,2.31,2.31,0,0,1-1.14,1.45,2.27,2.27,0,0,0-1.11,1.43,2.28,2.28,0,0,1-1.14,1.45c-.54.29-.78.64-.72,1.07s-.2.78-.75,1.08a2.19,2.19,0,0,0-1.09,1.42,2.14,2.14,0,0,1-1.09,1.42c-.44.23-.82.94-1.16,2.13s-.74,1.92-1.18,2.16-.66.65-.36,1.09.19.77-.36,1.07c-.14.07-.29.57-.46,1.51a23.32,23.32,0,0,0-.3,2.78q8.78-.76,15.08-1.21,9.48-.68,12.15.35a30.86,30.86,0,0,1,6.23-.34,8.8,8.8,0,0,1,2.56.67,2.5,2.5,0,0,1,.47,0,2.81,2.81,0,0,1,1.78.92,1.76,1.76,0,0,1,.46,1.77,3.25,3.25,0,0,1-1.3,1.56.53.53,0,0,0-.19.2,3.93,3.93,0,0,1-1.55,1.09,2.23,2.23,0,0,1-.43.16l-1.62,1.09a3.81,3.81,0,0,1-1.12.95,1.89,1.89,0,0,0-1.08,1.12,1.64,1.64,0,0,1-.43.95l0,1.44a15.31,15.31,0,0,1,2.21-1.37q4.54-2.42,19.17.4c1.2.23,2.34.47,3.43.72l1.65.13c1.72.14,4.14.44,7.28.91q3.38.49,5.13.89a23.21,23.21,0,0,1,4.88,1.67,7,7,0,0,1,.72.39,24.43,24.43,0,0,0,1.54-5.19,44.35,44.35,0,0,0-.43-14.58q-2.5-14.65-11.59-30.19-17.79-30.31-37.87-35.33a4.25,4.25,0,0,1-1.82,2,52.38,52.38,0,0,1-5.24,2.73q-1.8.79-5.42,2.33c-1,.46-2,.94-3,1.43a2.46,2.46,0,0,1-.34.22c-.12.06-1.84,1.74-5.18,5s-5.06,4.93-5.15,5a4.21,4.21,0,0,0-1.49,1.44,4.47,4.47,0,0,1-1.51,1.42c-.54.29-.79.63-.74,1s-.23.73-.78,1a4,4,0,0,0-1.47,1.49,4,4,0,0,1-1.48,1.47c-.54.29-.77.64-.7,1.06s-.15.75-.7,1-.78.64-.73,1.06-.19.79-.75,1.08Q119.61,377,119.73,377.59Z" transform="translate(-30.37 -19.9)"/><path d="M98.7,395.81a3.86,3.86,0,0,0-.06,1.77,1.52,1.52,0,0,0,.48.78,1,1,0,0,0,.77.28,1.3,1.3,0,0,0,1-.62,3.52,3.52,0,0,0,1.42-.43l5.5-2.8a45,45,0,0,1,5.69-2.32,63.72,63.72,0,0,1,7.57-1.86c3.63-.73,6.43-1.23,8.42-1.51a43.27,43.27,0,0,1,8.45-.53c.86,0,2.19.16,4,.37a60.38,60.38,0,0,0-12.66,9,66.25,66.25,0,0,0-10.45,12.62,71.72,71.72,0,0,0-7,14.87,73.77,73.77,0,0,0-3.32,16,25.14,25.14,0,0,0-.11,4.4,11.74,11.74,0,0,0,.34,2,13.65,13.65,0,0,0,1.8,2.7,8.92,8.92,0,0,1,.86,1.2,2.9,2.9,0,0,0,.29-.19,3.12,3.12,0,0,0,.87-1.4,35.11,35.11,0,0,1,8-11,61.16,61.16,0,0,1,34.79-16.86,48.24,48.24,0,0,0-4.43,4.08,35.92,35.92,0,0,0-8,12.65c-.52,1.3-.5,2.28,0,2.92q1.14,1.28,4-.41a51.29,51.29,0,0,1,12.93-5q4.74-1.09,13.75-2.41a85.74,85.74,0,0,1,9.3-.88,49.79,49.79,0,0,1,9.65.75q3.1.52,9.49,2a10.58,10.58,0,0,0,3.07.35l.08,0a3.24,3.24,0,0,0,1.47-.59,2.35,2.35,0,0,0,1-1.22,2.51,2.51,0,0,0-.61-2.47,6.68,6.68,0,0,0-1.51-1.26,7,7,0,0,0-.72-.39,23.21,23.21,0,0,0-4.88-1.67q-1.76-.39-5.13-.89c-3.14-.47-5.56-.77-7.28-.91l-1.65-.13a40.94,40.94,0,0,0-5.69.06,38.18,38.18,0,0,0-6,.95q-2.18.48-5.86,1.44-5.64,1.51-16.85,4.74a46.84,46.84,0,0,1,7.17-7.54c1.46-1.24,3.13-2.52,5-3.86l1.62-1.09a2.23,2.23,0,0,0,.43-.16,3.93,3.93,0,0,0,1.55-1.09.53.53,0,0,1,.19-.2,3.25,3.25,0,0,0,1.3-1.56,1.76,1.76,0,0,0-.46-1.77,2.81,2.81,0,0,0-1.78-.92,2.5,2.5,0,0,0-.47,0,8.8,8.8,0,0,0-2.56-.67,30.86,30.86,0,0,0-6.23.34l-.75.11q-17.53,2.55-29.57,10.86a53.14,53.14,0,0,0-10,8.93c-.89,1-1.72,2.1-2.48,3.17a62.3,62.3,0,0,1,11.88-28.94,60.4,60.4,0,0,1,11.47-11.51c1.07-.83,2.16-1.63,3.26-2.39a59.7,59.7,0,0,1,10.79-5.72c.71-.29,1.17-.49,1.37-.59a5.29,5.29,0,0,0,1.24-.89,3,3,0,0,0,.69-1.31,1.89,1.89,0,0,0-.24-1.42q-.75-1.16-3-.78a10.58,10.58,0,0,0-1.1-.42,46,46,0,0,0-18.48-2.09c-1.27.12-2.55.29-3.83.52a73.24,73.24,0,0,0-7.39,1.87c-3.12.93-5.14,1.54-6,1.83a57.48,57.48,0,0,0-8.24,3.06,18.1,18.1,0,0,0-2.79,1.68A88.69,88.69,0,0,1,119,371a85.13,85.13,0,0,1,22.71-16.89c1-.49,2-1,3-1.43q3.62-1.53,5.42-2.33a52.38,52.38,0,0,0,5.24-2.73,4.25,4.25,0,0,0,1.82-2,1.75,1.75,0,0,0,0-1.15c-.27-.92-1.13-1.43-2.57-1.55a13,13,0,0,0-4.37.42,27.94,27.94,0,0,0-4.21,1.5q-18,7.54-30,19.78A71,71,0,0,0,105.19,379,60.28,60.28,0,0,0,98.7,395.81Z" transform="translate(-30.37 -19.9)"/></g><g id="fur04_0_Layer0_0_FILL" data-name="fur04 0 Layer0 0 FILL"><path class="cls-3" d="M147.92,175.65a2.17,2.17,0,0,0,.12.47q.47,1.84,1.44,5.35,1.07,3.81,1.73,5.63a30.61,30.61,0,0,0,2,4.5c.07.21.15.45.25.73,0-1,0-2-.08-3a18.58,18.58,0,0,0-.38-4.1q-.75-2,.82-7a26.63,26.63,0,0,1-3.1-2.73,40.88,40.88,0,0,1-2.75-3.2c-.36-.41-.69-.79-1-1.15.22,1.4.52,2.92.92,4.54m96.38-46.27.1.27c.08.32.16.77.25,1.37.17,1.2.43,2.63.79,4.29l.42,1.67q.31,1,1,2.73c.16.16.32.32.46.49l1.74,1a11.72,11.72,0,0,0-.47-1.63,6.49,6.49,0,0,1,0-2.07,24.67,24.67,0,0,1,.53-3.15,23.08,23.08,0,0,1-4.84-5m-18.19-.54a21.35,21.35,0,0,1-1.58-1.57c-.37-.41-.87-1-1.53-1.83-.83-1.15-1.56-2.24-2.18-3.29a.76.76,0,0,1-.1.22c-.09.45-.26,1.08-.49,1.91a30,30,0,0,0-1.12,6.42q-.21,2.64-.16,6.51a63.67,63.67,0,0,0,.45,7.56,35.75,35.75,0,0,0,1.2,5.6q.09-.87.21-1.86a68.6,68.6,0,0,1,2.53-12.28,59.32,59.32,0,0,1,2.77-7.39m-47.38-15.41c-1.22-2.39-2.29-4.68-3.19-6.88a64.47,64.47,0,0,1-4.67-18.39,95.24,95.24,0,0,0-7,28.44,134.72,134.72,0,0,0,1.75,35.66c.18,1.09.37,2.13.58,3.11a64.55,64.55,0,0,0,1,6.42q1,4.44,3,11c.17.54.34,1.06.5,1.55,0-.34,0-.66,0-.95a13,13,0,0,0-.49-4.06q-1.47-3.84,1.33-34.88.78-9,7.15-21Z" transform="translate(-30.37 -19.9)"/><path class="cls-4" d="M178.74,113.46q-6.36,11.92-7.15,21-2.81,31-1.33,34.88a13,13,0,0,1,.49,4.06c0,.29,0,.61,0,.95a51.13,51.13,0,0,0,1.92,5,36.85,36.85,0,0,0,3.27,5.5,4.7,4.7,0,0,1,.51.63,4.25,4.25,0,0,1-.72,0l-.53.21a5.73,5.73,0,0,1-2.82.22,27.88,27.88,0,0,1-4.43-1,48.74,48.74,0,0,1-11.27-4.82,33.78,33.78,0,0,1-2.85-1.93q-1.57,5.07-.82,7a18.58,18.58,0,0,1,.38,4.1c0,1,.07,2,.08,3l.13.34.77,1.76a27.08,27.08,0,0,0,1.16,2.46,8.68,8.68,0,0,0,.66,1,5.32,5.32,0,0,0,2.18,1.7,4.26,4.26,0,0,0,1,.25,1.73,1.73,0,0,0,1.86-.72,1.07,1.07,0,0,0,.22-.63,22,22,0,0,0,5,1.1,64.59,64.59,0,0,0,12.34-1.15,168.86,168.86,0,0,0,20.07-4.52q28-8.13,45-22.46a122.59,122.59,0,0,1,11.62-8.3,29.14,29.14,0,0,0,7.61-6.87,32.11,32.11,0,0,0,4.5-8.58,21.82,21.82,0,0,0,.93-4.91,18.79,18.79,0,0,1-3.05-.54,45.43,45.43,0,0,1-14.74-6.7c-.56-.39-1.1-.79-1.62-1.19a24.67,24.67,0,0,0-.53,3.15,6.49,6.49,0,0,0,0,2.07,11.72,11.72,0,0,1,.47,1.63c1.49.86,2.95,1.66,4.38,2.42a8.52,8.52,0,0,1,1.48,1,1.13,1.13,0,0,1,.24.21,43.06,43.06,0,0,1-8.38-1.28,62.41,62.41,0,0,1-6.06-2.17c-.62-.23-1.23-.48-1.82-.74a36.07,36.07,0,0,1-7.57-5.87,47.46,47.46,0,0,1-4.27-4.91l-.32-.43-.33-.33-.32-.27a59.32,59.32,0,0,0-2.77,7.39,68.6,68.6,0,0,0-2.53,12.28q-.12,1-.21,1.86c.16.52.33,1,.51,1.48l.07.19q.44,1.13,2.24,4.8a.23.23,0,0,1,.07.1c-.56.05-1.1.08-1.61.09a15,15,0,0,1-3-.19,4.05,4.05,0,0,0-1.55-.69l-.66-.11a1.8,1.8,0,0,0-.15-.31A50.4,50.4,0,0,1,200,144.19a109.47,109.47,0,0,1-12.71-16.32A150.43,150.43,0,0,1,178.74,113.46Z" transform="translate(-30.37 -19.9)"/><path d="M175.08,82.94a7.15,7.15,0,0,0-1-2.23,1.29,1.29,0,0,0-.28-.66.85.85,0,0,0-.55-.4c-.1-.35-.28-.55-.54-.59a1.4,1.4,0,0,0-.84.35,21.11,21.11,0,0,0-3.71,4.76q-8.82,14.39-10.94,33.74-1.72,15.85,1.18,35.69A105.44,105.44,0,0,0,161,166.47a55.13,55.13,0,0,0,2.57,7.33.76.76,0,0,1,0,.11q-2.4-1.38-4.61-2.79c-.57-.34-1.13-.7-1.7-1.06a99.1,99.1,0,0,1-8.91-6.49q-1.83-1.53-2.73-2.19l-2-2a3.39,3.39,0,0,1-.64-.71c-.08-.09-.29-.38-.64-.88a1.71,1.71,0,0,0-.65-.4.22.22,0,0,0-.13,0,.85.85,0,0,0-.86-.31,1.46,1.46,0,0,0-.61.88,19.72,19.72,0,0,0-.68,5.88,68.5,68.5,0,0,0,2.4,17.8c.46,1.64,1,3.14,1.45,4.52.57,1.86,1.22,3.69,1.93,5.5a30.37,30.37,0,0,0,3,6,7.08,7.08,0,0,0,2.45,2.4,2.52,2.52,0,0,0,2.07.3,2.14,2.14,0,0,0,1.18-1.15.36.36,0,0,1,.08-.12,1.33,1.33,0,0,0,.19-.14,2.09,2.09,0,0,0,.47-.36,2.51,2.51,0,0,0,.72-1.47,1.57,1.57,0,0,0,0-.23,27.08,27.08,0,0,1-1.16-2.46l-.77-1.76-.13-.34c-.1-.28-.18-.52-.25-.73a30.61,30.61,0,0,1-2-4.5q-.66-1.82-1.73-5.63-1-3.51-1.44-5.35a2.17,2.17,0,0,1-.12-.47c-.4-1.62-.7-3.14-.92-4.54.28.36.61.74,1,1.15a40.88,40.88,0,0,0,2.75,3.2,26.63,26.63,0,0,0,3.1,2.73,33.78,33.78,0,0,0,2.85,1.93,48.74,48.74,0,0,0,11.27,4.82,27.88,27.88,0,0,0,4.43,1,5.73,5.73,0,0,0,2.82-.22l.53-.21a4.25,4.25,0,0,0,.72,0,4.7,4.7,0,0,0-.51-.63,36.85,36.85,0,0,1-3.27-5.5,51.13,51.13,0,0,1-1.92-5c-.16-.49-.33-1-.5-1.55q-2.06-6.54-3-11a64.55,64.55,0,0,1-1-6.42c-.21-1-.4-2-.58-3.11a134.72,134.72,0,0,1-1.75-35.66,95.24,95.24,0,0,1,7-28.44,64.47,64.47,0,0,0,4.67,18.39c.9,2.2,2,4.49,3.19,6.88v0a150.43,150.43,0,0,0,8.59,14.41A109.47,109.47,0,0,0,200,144.19a50.4,50.4,0,0,0,16.47,11.54,1.8,1.8,0,0,1,.15.31l.66.11a4.05,4.05,0,0,1,1.55.69,15,15,0,0,0,3,.19c.51,0,1.05,0,1.61-.09a.23.23,0,0,0-.07-.1q-1.8-3.68-2.24-4.8l-.07-.19c-.18-.47-.35-1-.51-1.48a35.75,35.75,0,0,1-1.2-5.6,63.67,63.67,0,0,1-.45-7.56q0-3.87.16-6.51a30,30,0,0,1,1.12-6.42c.23-.83.4-1.46.49-1.91a.76.76,0,0,0,.1-.22c.62,1,1.35,2.14,2.18,3.29.66.81,1.16,1.42,1.53,1.83a21.35,21.35,0,0,0,1.58,1.57l.32.27.33.33.32.43a47.46,47.46,0,0,0,4.27,4.91,36.07,36.07,0,0,0,7.57,5.87c.59.26,1.2.51,1.82.74a62.41,62.41,0,0,0,6.06,2.17,43.06,43.06,0,0,0,8.38,1.28,1.13,1.13,0,0,0-.24-.21,8.52,8.52,0,0,0-1.48-1c-1.43-.76-2.89-1.56-4.38-2.42l-1.74-1c-.14-.17-.3-.33-.46-.49q-.7-1.76-1-2.73l-.42-1.67c-.36-1.66-.62-3.09-.79-4.29-.09-.6-.17-1.05-.25-1.37l-.1-.27a23.08,23.08,0,0,0,4.84,5c.52.4,1.06.8,1.62,1.19a45.43,45.43,0,0,0,14.74,6.7,18.79,18.79,0,0,0,3.05.54h.25a7.19,7.19,0,0,0,3.2-.41c.64-.24,1-.59,1-1a1.28,1.28,0,0,0-.64-.86,17.15,17.15,0,0,0-4.09-1.82,87.14,87.14,0,0,1-10.34-4.08,40.29,40.29,0,0,1-4.52-2.52,24.25,24.25,0,0,1-3-1.77c-.37-.28-.73-.56-1.09-.86-.65-.52-1.68-1.51-3.09-2.94q-2.37-2.37-3.62-3.78c-.37-.45-.72-.89-1-1.32l-.08,0a2.19,2.19,0,0,0-.54,1.15q-.39,1.47-1,5.52c-.14,1.14-.23,2-.28,2.56a25.82,25.82,0,0,0,.08,3.24l.11,1a2.38,2.38,0,0,1-.22-.18,43.11,43.11,0,0,1-7.74-7.19c-.75-.83-1.5-1.67-2.23-2.54-.29-.34-.57-.69-.86-1-1.59-1.92-3.12-3.91-4.58-6l-.37-.75c-.35-.78-.75-1.79-1.22-3l-1.39-3.62a3.09,3.09,0,0,0-.57-1,23.25,23.25,0,0,0-2.09,2.3,33.22,33.22,0,0,0-2.71,4.41c-.49,1-1.16,2.54-2,4.57a41.41,41.41,0,0,0-1.37,7.1,59.2,59.2,0,0,0,.32,17.43,4.77,4.77,0,0,1-.73-.55l-.67-.47a67.74,67.74,0,0,1-13.61-14.05q-4.44-6-11.18-17.42c-.17-.3-.34-.58-.48-.85q-1.52-3-2.94-6.15c-.48-1.06-1-2.13-1.44-3.21q-2.12-4.93-4.05-10.22C176.59,88.31,175.69,85.13,175.08,82.94Z" transform="translate(-30.37 -19.9)"/></g><g id="eyebrow_R_0_Layer0_0_FILL" data-name="eyebrow R 0 Layer0 0 FILL"><path d="M180.13,195.05a38.91,38.91,0,0,0-10.65,3.7A43,43,0,0,0,157,209a62.38,62.38,0,0,0-9.4,14.78q-2.08,4.53-1.12,7.32a3.56,3.56,0,0,0,2.15,2.22,2.64,2.64,0,0,0,2.71-.44,6.36,6.36,0,0,0,1.35-1.72c.19-.38.51-1.12,1-2.2a52.79,52.79,0,0,1,5.75-10.28,40.6,40.6,0,0,1,7.58-8,30.52,30.52,0,0,1,9-5.05,24.82,24.82,0,0,1,9.77-1.51,17.21,17.21,0,0,0,1.91,0,5.32,5.32,0,0,0,2.14-.72,5.87,5.87,0,0,0,2-2.5,3.4,3.4,0,0,0-.65-3.77,6.27,6.27,0,0,0-4.23-2.36A17.84,17.84,0,0,0,180.13,195.05Z" transform="translate(-30.37 -19.9)"/></g><g id="eyebrow_L_0_Layer0_0_FILL" data-name="eyebrow L 0 Layer0 0 FILL"><path d="M305.34,182.53a19.1,19.1,0,0,0-4.16-4,60.81,60.81,0,0,0-21.48-9.94,59.74,59.74,0,0,0-23.7-1.09,89.35,89.35,0,0,0-13.66,3.5,60.34,60.34,0,0,0-9.26,3.86,12.72,12.72,0,0,0-3.53,2.68,4.8,4.8,0,0,0-1.34,3.82,4,4,0,0,0,1.44,2.59,4.6,4.6,0,0,0,2.78,1.14,6.53,6.53,0,0,0,2.63-.59,24.23,24.23,0,0,0,2.47-1.29,55.16,55.16,0,0,1,25.2-6.94,54.55,54.55,0,0,1,25.58,5,24.17,24.17,0,0,1,8.23,5.58l2.63,2.94a4.83,4.83,0,0,0,3.24,1.53,3.71,3.71,0,0,0,2.6-1A4.84,4.84,0,0,0,306.5,188,6.63,6.63,0,0,0,305.34,182.53Z" transform="translate(-30.37 -19.9)"/></g><g id="eyes_0_Layer2_0_FILL" data-name="eyes 0 Layer2 0 FILL"><path class="cls-6" d="M236.68,258.23a47,47,0,0,0,.43,5.75,43.12,43.12,0,0,0,13.68,26.14,47,47,0,0,0,65.4-1.15,43.51,43.51,0,0,0,12.95-32.38,44,44,0,0,0-4.09-18.22,46.82,46.82,0,0,0-75.39-12.44,43.24,43.24,0,0,0-13,32.3m19-25.61a13.84,13.84,0,0,0-1.11,1.39l-1.15,1.49a51.25,51.25,0,0,0-3.25,4.82,8.14,8.14,0,0,1-1.28,2,3.12,3.12,0,0,1-2.39.87,2.71,2.71,0,0,1-2.14-1.35,3.16,3.16,0,0,1-.28-2.12,8.77,8.77,0,0,1,.7-2,26.17,26.17,0,0,1,2.41-4,51.74,51.74,0,0,1,4.16-4.87c.68-.72,1.21-1.24,1.59-1.59a12.25,12.25,0,0,1,3.58-2.22,5.09,5.09,0,0,1,1.47-.36,1.65,1.65,0,0,1,1.83,1.91,4.88,4.88,0,0,1-.5,1.48,9.38,9.38,0,0,1-1,1.8,12.18,12.18,0,0,1-1.27,1.47c-.75.71-1.2,1.16-1.37,1.34M241.87,251a5.05,5.05,0,0,1,.66-1.13,3.09,3.09,0,0,1,1.56-1.19,1.5,1.5,0,0,1,1.45.29,1.76,1.76,0,0,1,.65,1.36c0,.06-.09.48-.26,1.26a12,12,0,0,0-.05,1.59,3.71,3.71,0,0,1-.21,1.55,2.15,2.15,0,0,1-1.59,1.28,1.8,1.8,0,0,1-1.88-.64,4.06,4.06,0,0,1-.6-3,6.35,6.35,0,0,1,.27-1.42M134.65,293.44a2.1,2.1,0,0,1,0,.36A42.93,42.93,0,0,0,148,324.42l0,0a42.24,42.24,0,0,0,31.14,12.48,41.58,41.58,0,0,0,30.58-13.2,42.65,42.65,0,0,0,12.31-31.22l0,0a43.22,43.22,0,0,0-6.37-22.2,46.39,46.39,0,0,0-7-8.73,43.52,43.52,0,0,0-61.78.73,42.28,42.28,0,0,0-12.22,31.22m17.89-27.53a2,2,0,0,1,.84.65,1.62,1.62,0,0,1,.39,1,2.2,2.2,0,0,1-.35,1.26,6.36,6.36,0,0,1-.83,1,17.91,17.91,0,0,0-3.85,8.32q-.09.51-.24,1.44a6.12,6.12,0,0,1-.38,1.38,3,3,0,0,1-2,1.9,2.39,2.39,0,0,1-2.07-.6,3.49,3.49,0,0,1-1.14-2A5.3,5.3,0,0,1,143,278c.15-.54.38-1.27.71-2.2l1.37-3.51a20.94,20.94,0,0,1,1.89-3.87,5.9,5.9,0,0,1,3.39-2.57,2.89,2.89,0,0,1,2.15,0m-7.28,20.39a1.92,1.92,0,0,1,.77,1.05,4.45,4.45,0,0,1,.18,2.6,3.8,3.8,0,0,1-.11.53,2.29,2.29,0,0,1-.79,1.39,1.72,1.72,0,0,1-1.71.37,2.16,2.16,0,0,1-1.38-1.12,5.35,5.35,0,0,1-.41-2.14,4.64,4.64,0,0,1,.38-2,2.51,2.51,0,0,1,.8-.82,2.48,2.48,0,0,1,1-.39A1.87,1.87,0,0,1,145.26,286.3Z" transform="translate(-30.37 -19.9)"/><path class="cls-7" d="M242.53,249.84a5.05,5.05,0,0,0-.66,1.13,6.35,6.35,0,0,0-.27,1.42,4.06,4.06,0,0,0,.6,3,1.8,1.8,0,0,0,1.88.64,2.15,2.15,0,0,0,1.59-1.28,3.71,3.71,0,0,0,.21-1.55,12,12,0,0,1,.05-1.59c.17-.78.26-1.2.26-1.26a1.76,1.76,0,0,0-.65-1.36,1.5,1.5,0,0,0-1.45-.29,3.09,3.09,0,0,0-1.56,1.19M254.62,234a13.84,13.84,0,0,1,1.11-1.39c.17-.18.62-.63,1.37-1.34a12.18,12.18,0,0,0,1.27-1.47,9.38,9.38,0,0,0,1-1.8,4.88,4.88,0,0,0,.5-1.48,1.65,1.65,0,0,0-1.83-1.91,5.09,5.09,0,0,0-1.47.36A12.25,12.25,0,0,0,253,227.2c-.38.35-.91.87-1.59,1.59a51.74,51.74,0,0,0-4.16,4.87,26.17,26.17,0,0,0-2.41,4,8.77,8.77,0,0,0-.7,2,3.16,3.16,0,0,0,.28,2.12,2.71,2.71,0,0,0,2.14,1.35,3.12,3.12,0,0,0,2.39-.87,8.14,8.14,0,0,0,1.28-2,51.25,51.25,0,0,1,3.25-4.82l1.15-1.49M146,287.35a1.92,1.92,0,0,0-.77-1.05,1.87,1.87,0,0,0-1.22-.51,2.48,2.48,0,0,0-1,.39,2.51,2.51,0,0,0-.8.82,4.64,4.64,0,0,0-.38,2,5.35,5.35,0,0,0,.41,2.14,2.16,2.16,0,0,0,1.38,1.12,1.72,1.72,0,0,0,1.71-.37,2.29,2.29,0,0,0,.79-1.39,3.8,3.8,0,0,0,.11-.53,4.45,4.45,0,0,0-.18-2.6m7.35-20.79a2,2,0,0,0-.84-.65,2.89,2.89,0,0,0-2.15,0,5.9,5.9,0,0,0-3.39,2.57,20.94,20.94,0,0,0-1.89,3.87l-1.37,3.51c-.33.93-.56,1.66-.71,2.2a5.3,5.3,0,0,0-.16,2.24,3.49,3.49,0,0,0,1.14,2,2.39,2.39,0,0,0,2.07.6,3,3,0,0,0,2-1.9,6.12,6.12,0,0,0,.38-1.38q.15-.93.24-1.44a17.91,17.91,0,0,1,3.85-8.32,6.36,6.36,0,0,0,.83-1,2.2,2.2,0,0,0,.35-1.26A1.62,1.62,0,0,0,153.38,266.56Z" transform="translate(-30.37 -19.9)"/></g><g id="pupil_0_Layer0_0_FILL" data-name="pupil 0 Layer0 0 FILL"><path d="M266.65,252.15a13.42,13.42,0,0,0-8.36,12.68,12.72,12.72,0,0,0,3.26,8.45l.11.18.79.78a16.09,16.09,0,0,0,2.09,1.69,13.54,13.54,0,0,0,7.63,2.08,13.22,13.22,0,0,0,9.58-4.11,13.19,13.19,0,0,0-.35-19,13.09,13.09,0,0,0-6.19-3.42,13.34,13.34,0,0,0-3.51-.33,7.79,7.79,0,0,0-1.07.07,13.4,13.4,0,0,0-4,1m-.64,5.32a1.49,1.49,0,0,1,1.06.47,1.81,1.81,0,0,1,.47,1.12,4.43,4.43,0,0,1-.84,2.26,29.91,29.91,0,0,1-2,2.67,1.89,1.89,0,0,1-.77.61.86.86,0,0,1-.81,0,1.77,1.77,0,0,1-.66-.55,3.81,3.81,0,0,1-.43-1.6,4.05,4.05,0,0,1,.21-2,6.46,6.46,0,0,1,1.13-1.36,10,10,0,0,1,1.52-1.33A2.8,2.8,0,0,1,266,257.47Z" transform="translate(-30.37 -19.9)"/><path class="cls-7" d="M267.07,257.94a1.49,1.49,0,0,0-1.06-.47,2.8,2.8,0,0,0-1.09.32,10,10,0,0,0-1.52,1.33,6.46,6.46,0,0,0-1.13,1.36,4.05,4.05,0,0,0-.21,2,3.81,3.81,0,0,0,.43,1.6,1.77,1.77,0,0,0,.66.55.86.86,0,0,0,.81,0,1.89,1.89,0,0,0,.77-.61,29.91,29.91,0,0,0,2-2.67,4.43,4.43,0,0,0,.84-2.26A1.81,1.81,0,0,0,267.07,257.94Z" transform="translate(-30.37 -19.9)"/></g><g id="pupil02_0_Layer0_0_FILL" data-name="pupil02 0 Layer0 0 FILL"><path d="M192.86,280.69a13,13,0,0,0-3.8,9.62,12.72,12.72,0,0,0,3.26,8.45.77.77,0,0,0,.14.19c.23.25.48.51.75.77a13.43,13.43,0,0,0,8.6,3.77h1.13a13.25,13.25,0,0,0,9.61-4.09,12.93,12.93,0,0,0,3.85-9.57A13.61,13.61,0,0,0,206,277a3.73,3.73,0,0,0-.44-.08,14.21,14.21,0,0,0-3.09-.3,5.61,5.61,0,0,0-1.07.1,13.34,13.34,0,0,0-8.54,4M196.8,283a1.33,1.33,0,0,1,1,.44,1.6,1.6,0,0,1,.46,1.08,4.26,4.26,0,0,1-.83,2.26,22.45,22.45,0,0,1-2,2.7,1.88,1.88,0,0,1-.75.61.93.93,0,0,1-.8,0,1.67,1.67,0,0,1-.69-.55,3.63,3.63,0,0,1-.43-1.6,3.81,3.81,0,0,1,.23-2,5.35,5.35,0,0,1,1.1-1.33,8.52,8.52,0,0,1,1.52-1.33A2.6,2.6,0,0,1,196.8,283Z" transform="translate(-30.37 -19.9)"/><path class="cls-7" d="M197.84,283.45a1.33,1.33,0,0,0-1-.44,2.6,2.6,0,0,0-1.11.28,8.52,8.52,0,0,0-1.52,1.33,5.35,5.35,0,0,0-1.1,1.33,3.81,3.81,0,0,0-.23,2,3.63,3.63,0,0,0,.43,1.6,1.67,1.67,0,0,0,.69.55.93.93,0,0,0,.8,0,1.88,1.88,0,0,0,.75-.61,22.45,22.45,0,0,0,2-2.7,4.26,4.26,0,0,0,.83-2.26A1.6,1.6,0,0,0,197.84,283.45Z" transform="translate(-30.37 -19.9)"/></g><g id="eyes_0_Layer0_0_FILL" data-name="eyes 0 Layer0 0 FILL"><path d="M211.86,258.4a48.08,48.08,0,0,0-68.2.79,46.35,46.35,0,0,0-13.47,34.31,48.52,48.52,0,0,0,49,47.75A46.16,46.16,0,0,0,213,326.68a46.65,46.65,0,0,0,13.5-34.32l0,0a47.07,47.07,0,0,0-14.67-33.93M177.56,249a42.07,42.07,0,0,1,31.09,12.5,43,43,0,0,1,13.42,30.93l0,0a42.65,42.65,0,0,1-12.31,31.22,41.58,41.58,0,0,1-30.58,13.2A42.24,42.24,0,0,1,148,324.39l0,0a42.91,42.91,0,0,1-13.35-31,42.28,42.28,0,0,1,12.22-31.22A41.77,41.77,0,0,1,177.56,249m68.9-26.12a49.11,49.11,0,0,0,1.25,70.39A51.39,51.39,0,0,0,319.4,292a49.27,49.27,0,0,0-1.24-70.4,51.41,51.41,0,0,0-71.7,1.27m-9.78,35.36a43.24,43.24,0,0,1,13-32.3,46.82,46.82,0,0,1,65.4-1.15A44.87,44.87,0,0,1,316.19,289a47,47,0,0,1-65.4,1.15A43.3,43.3,0,0,1,236.68,258.23Z" transform="translate(-30.37 -19.9)"/></g><g id="mouth_0_Layer0_0_FILL" data-name="mouth 0 Layer0 0 FILL"><path class="cls-4" d="M261.63,315.67a50.79,50.79,0,0,0-.27,5.74l.28,0,.12.16q2.73-2.24,5.71-5.08l9.62-9.33a64.5,64.5,0,0,1,5-4.37,24.49,24.49,0,0,1,5.68-3.35,14.13,14.13,0,0,1,4.66-1.09,9.6,9.6,0,0,1,4.56.9,10.92,10.92,0,0,1,2.44,1.78,13.16,13.16,0,0,1,3.71,4.91,34.82,34.82,0,0,1,2.19,24c-.08.32-.18.65-.28,1l2.8.87A37.25,37.25,0,0,0,313,317.93a17.45,17.45,0,0,0,.15-5.13l-.16,0a3,3,0,0,1-.3.71c-.18.5-.43.78-.75.82a.94.94,0,0,1-.81-.48,5.3,5.3,0,0,1-.25-.9l-.4-2.92a78.31,78.31,0,0,0-2.16-8.43l-.71-2.3q-3.18-5.55-7.82-7.22a18.65,18.65,0,0,0-5.7-.92,21.43,21.43,0,0,0-8,1.12,24.87,24.87,0,0,0-4.79,2.91,85.26,85.26,0,0,0-13.73,12.3q-.62.62-1,.51c-.3-.08-.46-.33-.47-.76a1.92,1.92,0,0,1,.26-.78Q262.17,312,261.63,315.67Z" transform="translate(-30.37 -19.9)"/><path d="M261.76,321.62c-1.61,1.31-3.12,2.47-4.55,3.49a72.55,72.55,0,0,1-12,6.68,2.74,2.74,0,0,0-.62.07l-.49.1a22.6,22.6,0,0,1-2-3.28c-.45-.88-1.12-2.32-2-4.3l-1-2.25.08,0a2.39,2.39,0,0,1,.34-.21,5.15,5.15,0,0,0-.88-1.48,8.9,8.9,0,0,0-.85-1.84,6.88,6.88,0,0,0-.95-1.05,4.65,4.65,0,0,0-.87-.66.7.7,0,0,0-1,.19,1.1,1.1,0,0,0-.16.6c0,.11,0,.27,0,.47a2.46,2.46,0,0,0-.55.49,3.3,3.3,0,0,0-.61,1.65,5.77,5.77,0,0,0,.17,2.44l.12.35a8.08,8.08,0,0,0,.29,1.08v.06l.17.75a14.3,14.3,0,0,0,1,3.16c.33.73.83,1.72,1.52,3l0,0a9.8,9.8,0,0,0,.94,1.89,10.07,10.07,0,0,0,1.08,1.3c-2.09.73-4.25,1.41-6.47,2.06s-4.09,1.05-5.54,1.33-3.76.57-6.65.92l-8.41,1a61.93,61.93,0,0,0-6.92,1.1,13.16,13.16,0,0,0-5.1,2.39,8.32,8.32,0,0,0-2.8,5.12,10.54,10.54,0,0,0,.57,5.93,12.42,12.42,0,0,0,1.72,3,26.37,26.37,0,0,0,9.56,8.91,57.56,57.56,0,0,0,12.46,4.85,68.4,68.4,0,0,0,24.21,2.46q2.51-.22,6.42-.89t6-1.13a35.6,35.6,0,0,0,5.88-1.71c.84-.32,2.09-.85,3.74-1.6A55.48,55.48,0,0,0,284,359.77a18.73,18.73,0,0,0,3-2.51l1.14-.83a37.33,37.33,0,0,0,3.77-3.49,48.68,48.68,0,0,0,6.55-8c.61-.95,1.43-2.46,2.45-4.51.26-.47.51-.92.73-1.36A60.28,60.28,0,0,0,305,331c.1-.34.2-.67.28-1a34.82,34.82,0,0,0-2.19-24,13.16,13.16,0,0,0-3.71-4.91A10.92,10.92,0,0,0,297,299.3a9.6,9.6,0,0,0-4.56-.9,14.13,14.13,0,0,0-4.66,1.09,24.49,24.49,0,0,0-5.68,3.35,64.5,64.5,0,0,0-5,4.37l-9.62,9.33q-3,2.85-5.71,5.08m13.49-5.77q5.56-5.52,7.24-7.05a32,32,0,0,1,4.32-3.44,15.29,15.29,0,0,1,5-2.23,5.17,5.17,0,0,1,4.2.47,4.79,4.79,0,0,1,1,.86,10.58,10.58,0,0,0,.95.92,2.6,2.6,0,0,0,.45.37c.3.6.59,1.25.88,2a30.72,30.72,0,0,1,2.16,9.4,36.52,36.52,0,0,1-3,16.93,50.78,50.78,0,0,1-4.36,8.09c-.59-.62-1.36-1.4-2.31-2.33a76.45,76.45,0,0,1-9.65-12.3q-2.58-4-6.86-11.65m9.23,37.3a3.25,3.25,0,0,0-.74.62c-.5.31-1.07.7-1.72,1.15a91.57,91.57,0,0,1-9.81,6.1q-3,1.2-4.63,1.82c-.18-.18-.42-.4-.71-.66a26.08,26.08,0,0,1-2-2.22,58.55,58.55,0,0,1-7.9-13.49q-3.31-8.22-5.23-13A77.32,77.32,0,0,0,265,325.36a103.82,103.82,0,0,0,8.4-7.62,55.16,55.16,0,0,0,5.92,12,53.57,53.57,0,0,0,11.14,13.09,25,25,0,0,0,2.08,1.54c-1,1.41-2.16,2.84-3.39,4.26-.51.62-1.23,1.46-2.15,2.51l-.64.44-.88.85-.95.7m-81.38,1.24a10.59,10.59,0,0,1-1.51-3.27,4.65,4.65,0,0,1,.39-3.51q1-1.86,4.26-2.75a41,41,0,0,1,5.88-1.16q2.82-.37,7.87-1l-.08.69a17.55,17.55,0,0,0,.41,4.41,51,51,0,0,0,3.15,10.42,26.12,26.12,0,0,0,6.32,8.83,12.4,12.4,0,0,0,1.38,1.07,60.77,60.77,0,0,1-6-1.12,52.81,52.81,0,0,1-14-5.19,33.78,33.78,0,0,1-4.56-3,31.58,31.58,0,0,1-3.49-4.42m19.35-11.89a4.27,4.27,0,0,1,.56-.11,83.89,83.89,0,0,0,10.75-2c1.94-.54,4.08-1.22,6.41-2.06q4.88-1.78,9.21-3.74a2,2,0,0,0,.08.35c.13.6.38,1.45.74,2.54l2.22,6.59c.74,2.12,1.27,3.55,1.59,4.26a41.73,41.73,0,0,0,3,5.61q1.21,1.93,3.5,5.31a36.6,36.6,0,0,0,3.2,4.12q.3.33.63.63c-1.32.47-2.56.87-3.7,1.2-1.87.52-4.05,1-6.53,1.57-2.65.55-4.93.94-6.84,1.19a67.79,67.79,0,0,1-8.32.61c-1.16,0-2.32,0-3.46-.06a1.27,1.27,0,0,0-.13-.19c-.61-.62-1.61-1.81-3-3.55a48.45,48.45,0,0,1-4.13-5.92,36.05,36.05,0,0,1-1.66-3.55,66.38,66.38,0,0,1-4.09-12.83m43.88-36.16s0,0,0,.08a1.92,1.92,0,0,0-.26.78c0,.43.17.68.47.76s.61-.1,1-.51a85.26,85.26,0,0,1,13.73-12.3,24.87,24.87,0,0,1,4.79-2.91,21.43,21.43,0,0,1,8-1.12,18.65,18.65,0,0,1,5.7.92q4.63,1.66,7.82,7.22l.71,2.3a78.31,78.31,0,0,1,2.16,8.43l.4,2.92a5.3,5.3,0,0,0,.25.9.94.94,0,0,0,.81.48c.32,0,.57-.32.75-.82a3,3,0,0,0,.3-.71,1.62,1.62,0,0,1,.1-.31,8.74,8.74,0,0,0,.22-2.8v-.26a2.63,2.63,0,0,0,0-.67c0-.34-.11-1.1-.29-2.3l-.3-1.46c-.14-.87-.36-1.94-.67-3.2-.12-.39-.22-.68-.3-.88a9.56,9.56,0,0,0-.73-2.58,19.59,19.59,0,0,0-2.21-3.9,21.52,21.52,0,0,0-3.93-4.35q-5.34-4.17-14.95-3.23a20.38,20.38,0,0,0-5.59,1.17,23.06,23.06,0,0,0-4.16,2.34,42.67,42.67,0,0,0-13.84,16Z" transform="translate(-30.37 -19.9)"/><path class="cls-7" d="M223,342.39a4.27,4.27,0,0,0-.56.11,66.38,66.38,0,0,0,4.09,12.83,36.05,36.05,0,0,0,1.66,3.55,48.45,48.45,0,0,0,4.13,5.92c1.38,1.74,2.38,2.93,3,3.55a1.27,1.27,0,0,1,.13.19c1.14,0,2.3.06,3.46.06a67.79,67.79,0,0,0,8.32-.61c1.91-.25,4.19-.64,6.84-1.19,2.48-.52,4.66-1.05,6.53-1.57,1.14-.33,2.38-.73,3.7-1.2q-.33-.3-.63-.63a36.6,36.6,0,0,1-3.2-4.12q-2.28-3.37-3.5-5.31a41.73,41.73,0,0,1-3-5.61c-.32-.71-.85-2.14-1.59-4.26l-2.22-6.59c-.36-1.09-.61-1.94-.74-2.54a2,2,0,0,1-.08-.35q-4.33,2-9.21,3.74c-2.33.84-4.47,1.52-6.41,2.06a83.89,83.89,0,0,1-10.75,2m-21.42,8.73a10.59,10.59,0,0,0,1.51,3.27,31.58,31.58,0,0,0,3.49,4.42,33.78,33.78,0,0,0,4.56,3,52.81,52.81,0,0,0,14,5.19,60.77,60.77,0,0,0,6,1.12,12.4,12.4,0,0,1-1.38-1.07,26.12,26.12,0,0,1-6.32-8.83,51,51,0,0,1-3.15-10.42,17.55,17.55,0,0,1-.41-4.41l.08-.69q-5.06.58-7.87,1a41,41,0,0,0-5.88,1.16q-3.24.88-4.26,2.75a4.65,4.65,0,0,0-.39,3.51m82.15,2.65a3.25,3.25,0,0,1,.74-.62l.95-.7.88-.85.64-.44c.92-1.05,1.64-1.89,2.15-2.51,1.23-1.42,2.36-2.85,3.39-4.26a25,25,0,0,1-2.08-1.54,53.57,53.57,0,0,1-11.14-13.09,55.16,55.16,0,0,1-5.92-12,103.82,103.82,0,0,1-8.4,7.62,77.32,77.32,0,0,1-13.23,8.14q1.92,4.74,5.23,13a58.55,58.55,0,0,0,7.9,13.49,26.08,26.08,0,0,0,2,2.22c.29.26.53.48.71.66q1.65-.61,4.63-1.82a91.57,91.57,0,0,0,9.81-6.1c.65-.45,1.22-.84,1.72-1.15m-1.25-45q-1.67,1.53-7.24,7.05,4.28,7.66,6.86,11.65a76.45,76.45,0,0,0,9.65,12.3c.95.93,1.72,1.71,2.31,2.33a50.78,50.78,0,0,0,4.36-8.09,36.52,36.52,0,0,0,3-16.93,30.72,30.72,0,0,0-2.16-9.4c-.29-.71-.58-1.36-.88-2a2.6,2.6,0,0,1-.45-.37,10.58,10.58,0,0,1-.95-.92,4.79,4.79,0,0,0-1-.86,5.17,5.17,0,0,0-4.2-.47,15.29,15.29,0,0,0-5,2.23A32,32,0,0,0,282.49,308.8Z" transform="translate(-30.37 -19.9)"/></g><g id="whiskers_L_0_Layer0_0_FILL" data-name="whiskers L 0 Layer0 0 FILL"><path d="M425,319.17c.26-.33.18-.77-.22-1.32a28.16,28.16,0,0,0-5.3-5.35,53.14,53.14,0,0,0-6.29-4,109.62,109.62,0,0,0-21.45-9.22q-13-4-23.65-3.57a51.74,51.74,0,0,0-12.15,1.95,44.63,44.63,0,0,0-11.55,5.29.6.6,0,0,0-.32.31.28.28,0,0,0,.21.38,1,1,0,0,0,.57,0,63.83,63.83,0,0,1,18.79-3.88,73.8,73.8,0,0,1,18.75,1.47,92.35,92.35,0,0,1,17.83,5.61,132.75,132.75,0,0,1,16.71,8.51q5,3,6.92,3.92c.51.27.89.25,1.15-.05m-16.74-56.41a69.6,69.6,0,0,0-19.38,2,79.65,79.65,0,0,0-21.61,8.95,96.07,96.07,0,0,0-22.37,18.52,3.22,3.22,0,0,0-.66,1,.65.65,0,0,0-.1.36.61.61,0,0,0,.32.56.77.77,0,0,0,.37.1,2.6,2.6,0,0,0,1.45-.61q12.21-9.52,19.68-14.3a86,86,0,0,1,17.77-9.16q13.08-4.73,29.4-3.63a100.58,100.58,0,0,1,12.89,1.7l2.92.58a23.41,23.41,0,0,0,2.82.35.92.92,0,0,0,.51-.09.47.47,0,0,0,.25-.45,1.09,1.09,0,0,0-.66-.8,32.57,32.57,0,0,0-6.69-2.51c-2.18-.61-4.35-1.1-6.49-1.48A64.29,64.29,0,0,0,408.26,262.76Z" transform="translate(-30.37 -19.9)"/></g><g id="whiskers_R_0_Layer0_0_FILL" data-name="whiskers R 0 Layer0 0 FILL"><path d="M174.37,366.62c-.11-.54-.6-.81-1.47-.82a48.56,48.56,0,0,0-8.41.57,67.94,67.94,0,0,0-26.32,9.36,106.6,106.6,0,0,0-9,6.43,121.72,121.72,0,0,0-21,20.77,2,2,0,0,0-.45.92c-.12.37-.06.59.16.66s.5,0,.82-.33q12.93-11.46,18.15-15.57a103.56,103.56,0,0,1,19.38-12.45,79.81,79.81,0,0,1,12.88-4.72,119.49,119.49,0,0,1,13.09-2.82,3,3,0,0,0,1.46-.52,1.69,1.69,0,0,0,.76-1.48M148.85,348c-.67-.09-1.31-.16-1.94-.21a44.61,44.61,0,0,0-9.59.31,48.8,48.8,0,0,0-8.65,2.07,59.23,59.23,0,0,0-17.93,9.73,82.38,82.38,0,0,0-16,16.59,5.9,5.9,0,0,0-.91,1.67,1.82,1.82,0,0,0-.21.62.72.72,0,0,0,0,.48.91.91,0,0,0,.14.55,32.26,32.26,0,0,0,3.48-2.62c.42-.42,1.54-1.5,3.37-3.26q18.21-16.9,34.77-20a46.55,46.55,0,0,1,14.2-.3,78.3,78.3,0,0,1,13.7,3.15c1.24.39,2.08.11,2.5-.84.05-.23.1-.44.15-.62a4,4,0,0,0,0-.49,1.84,1.84,0,0,0-.27-1,3.43,3.43,0,0,0-1.42-1.3A45.2,45.2,0,0,0,148.85,348Z" transform="translate(-30.37 -19.9)"/></g><g id="nose_0_Layer0_0_FILL" data-name="nose 0 Layer0 0 FILL"><path d="M242.26,305.07a4.75,4.75,0,0,0-1.25-1.92,6.35,6.35,0,0,0-1.95-1.17,7.64,7.64,0,0,0-3.81.19,26.8,26.8,0,0,0-5,1.68q-2.32,1-4.28,1.92c-1.15.57-2.27,1.14-3.36,1.72q-2.11,1.13-4.27,2.37c-.86.53-1.74,1-2.63,1.5a7.31,7.31,0,0,0-3,3.12,8.56,8.56,0,0,0-.16,2.44,6.5,6.5,0,0,0,.44,2.23,5.06,5.06,0,0,0,1.69,2.2,49.42,49.42,0,0,0,4.3,2.79,21.05,21.05,0,0,0,4.45,1.84c1.51.38,3,.77,4.54,1.17a26.73,26.73,0,0,0,3.08.39,8,8,0,0,0,2-.24,7.85,7.85,0,0,0,2-.56,7.44,7.44,0,0,0,3.5-3c.56-.94,1.09-1.87,1.62-2.8a27.09,27.09,0,0,0,2-4.3,16.8,16.8,0,0,0,.94-4.61,18,18,0,0,0,0-1.8,17.11,17.11,0,0,0-.2-1.77A13.56,13.56,0,0,0,242.26,305.07Z" transform="translate(-30.37 -19.9)"/></g></svg>