<?xml version="1.0" encoding="utf-8"?>
<!-- Generator: Adobe Illustrator 26.0.3, SVG Export Plug-In . SVG Version: 6.00 Build 0)  -->
<svg version="1.1" id="Layer_1" xmlns="http://www.w3.org/2000/svg" xmlns:xlink="http://www.w3.org/1999/xlink" x="0px" y="0px"
	 viewBox="0 0 1920 1080" style="enable-background:new 0 0 1920 1080;" xml:space="preserve">
<style type="text/css">
	.st0{stroke:#000000;stroke-width:7;stroke-miterlimit:10;}
	.st1{fill:#EFBB0A;}
	.st2{fill:#E1AB24;}
	.st3{fill:#EBB610;}
	.st4{fill:#E2AE17;}
	.st5{fill:#E2A81D;}
	.st6{fill:#E4AD16;}
	.st7{fill:#DEB314;}
	.st8{fill:#E7F0FF;}
</style>
<g>
	<path class="st0" d="M844.27,726.18c-29.79,0.15-59.56-0.81-89.3-2.31c-22.03-1.11-44.02-2.85-65.89-5.84
		c-21.62-2.96-43.03-6.94-63.63-14.44c-12.14-4.42-23.66-10.03-34.17-17.62c-17.9-12.93-29.6-30.37-37.14-50.86
		c-5.65-15.35-9.16-31.23-11.82-47.33c-4.23-25.67-6.3-51.55-7.53-77.51c-1.16-24.49-1.63-48.99-0.47-73.49
		c1.23-26.23,3.83-52.28,10.88-77.71c5.21-18.8,13.94-35.76,26.09-50.98c11.07-13.88,25.29-23.37,41.74-29.61
		c14.81-5.61,30.3-8.77,45.79-11.77c16.59-3.22,33.29-5.8,50.05-7.94c12.27-1.57,24.56-2.89,36.88-4.06
		c19.52-1.86,39.08-3.16,58.66-4.09c22.89-1.08,45.8-1.79,68.72-1.79c15.81,0,31.62,0.02,47.43,0.18
		c17.65,0.17,35.28,0.96,52.9,1.92c15.3,0.84,30.55,2.1,45.76,3.94c29,3.5,57.58,8.83,84.86,19.76
		c14.86,5.95,28.78,13.56,41.45,23.38c22.98,17.82,38.23,41.04,47.67,68.31c5.63,16.25,9.19,33,11.8,49.96
		c3.45,22.42,5.45,44.99,6.84,67.63c1.33,21.66,2.04,43.34,1.71,65.03c-0.31,20.35-1.58,40.64-5.57,60.67
		c-2.81,14.12-7,27.77-13.66,40.59c-12.38,23.82-31.67,39.79-56.36,49.65c-14.64,5.84-29.89,9.32-45.42,11.7
		c-20.36,3.11-40.89,4.61-61.43,5.95c-21.39,1.4-42.78,2.91-64.18,4.19c-22.99,1.37-45.99,2.69-69.01,3.44
		C880.05,725.71,862.16,726.1,844.27,726.18z"/>
	<path class="st1" d="M627.74,276.89c5.94-2.34,12.21-3.52,18.4-4.91c18.29-4.1,36.75-7.21,55.3-9.87c21.59-3.11,43.27-5.4,65-7.1
		c14.29-1.12,28.6-1.88,42.93-2.52c37.24-1.66,74.49-1.81,111.74-1.05c19.85,0.4,39.68,1.25,59.48,2.74
		c31.91,2.41,63.64,6.08,94.61,14.59c16.59,4.56,32.58,10.63,47.66,18.98c31.82,17.64,53.63,43.71,65.84,77.92
		c5.58,15.63,9.24,31.73,11.86,48.07c3.93,24.46,6.13,49.09,7.56,73.82c1.45,24.97,2.15,49.95,1.16,74.95
		c-0.65,16.54-2.19,33-5.74,49.22c-0.15,0.71-0.43,1.39-0.65,2.08c-0.36,2.44-2.12,3.72-4.08,4.74
		c-19.04,9.85-37.98,19.84-58.28,27.04c-37.4,13.25-75.91,21.34-115.23,25.92c-15.2,1.77-30.44,2.84-45.73,3.68
		c-21.2,1.17-42.39,0.75-63.57,0.42c-14.53-0.22-29.07-1.46-43.59-2.59c-25.66-2-51.18-5.12-76.59-9.08
		c-22.52-3.51-45.07-7.27-67-13.51c-26.86-7.64-51.04-20.38-71.29-40.18c-23.54-23.03-42.01-49.73-58.21-78.14
		c-11.45-20.07-19.3-41.52-23.56-64.25c-3.54-18.85-5.33-37.9-4.13-57.04c0.83-13.2,3.23-26.27,6.16-39.19
		c3.33-14.71,6.79-29.42,12.71-43.33c7.5-17.64,18.2-33.27,31.26-47.3C623.46,279.16,625.42,277.78,627.74,276.89z"/>
	<path class="st2" d="M627.74,276.89c-5.55,4.49-10.14,9.86-14.45,15.49c-7.23,9.42-13.67,19.32-19.05,29.94
		c-3.95,7.8-6.6,16.05-9.02,24.36c-2.34,8.07-4.55,16.19-6.27,24.44c-1.66,7.98-3.31,15.95-4.29,24.06
		c-0.56,4.58-1.41,9.13-2.05,13.7c-0.18,1.32-0.1,2.69-0.1,4.04c-0.01,6.74-0.19,13.49,0.06,20.22c0.22,6.19,1,12.35,1.84,18.51
		c0.77,5.66,1.47,11.35,2.56,16.95c2.73,14.05,6.73,27.71,12.46,40.87c2.79,6.4,5.59,12.77,8.83,18.95
		c6.19,11.82,13.6,22.89,21.09,33.9c5.62,8.27,11.39,16.45,17.66,24.25c8.14,10.12,17.24,19.39,26.75,28.19
		c7.98,7.39,17.02,13.43,26.62,18.64c10.55,5.74,21.46,10.63,32.82,14.46c8.55,2.88,17.44,4.53,26.28,6.35
		c6.44,1.32,12.86,2.73,19.31,3.98c6.21,1.2,12.45,2.22,18.67,3.36c8.5,1.56,17.06,2.65,25.62,3.75c8.19,1.06,16.34,2.58,24.55,3.42
		c3.5,0.36,7.01,0.84,10.55,0.99c3.39,0.14,6.77,0.7,10.13,1.21c2.77,0.42,5.61,0.55,8.36,0.71c4.62,0.26,9.27,0.61,13.85,1.09
		c5.82,0.61,11.72,0,17.48,1.26c0.35,0.08,0.73,0.05,1.1,0.07c24.84,1.08,49.69,0.94,74.54,0.62c8.38-0.11,16.8-0.84,25.18-1.43
		c5.58-0.39,11.14-1.07,16.73-1.47c4.96-0.35,9.85-1.59,14.81-1.98c6.32-0.5,12.55-1.65,18.82-2.46c7.23-0.93,14.41-2.35,21.56-3.8
		c11.34-2.31,22.66-4.71,33.82-7.78c7.88-2.16,15.69-4.55,23.47-7.07c9.3-3.01,18.52-6.23,27.52-10.01
		c8.78-3.69,17.53-7.47,25.84-12.23c4.22-2.41,8.4-4.97,13.02-6.72c3.25-1.24,6.4-2.89,8.52-5.89c-1.08,7.18-3.45,14-5.97,20.76
		c-7.09,19.04-18.26,35.12-34.79,47.21c-13.43,9.83-28.56,15.98-44.53,20.24c-0.46,0.12-0.97,0.05-1.45,0.07
		c-5.63,0.23-11,2.02-16.54,2.78c-10.74,1.49-21.45,3.16-32.27,4.2c-13.23,1.28-26.48,2.27-39.72,3.35
		c-6.33,0.52-12.67,0.77-18.57,1.01c2.47,0.84,5.58-1.45,8.45,0.44c-3.69,0.84-7.44,0.74-11.19,0.69c-1.82-1.04-3.83-0.03-5.71-0.49
		c1.7,0.36,3.55-0.51,5.16,0.59c-5.31,0.93-10.69,0.85-16.04,1.2c-19.62,1.27-39.26,2.44-58.89,3.53c-10,0.55-20.02,0.86-30.03,1.26
		c-0.6,0.02-1.21-0.11-1.81-0.17c-0.07-1.67,1.13-1.01,1.94-1.14c-4.61,0.62-9.25,0.19-13.27,0.33c3.13,0.69,7.06-1.2,10.68,0.92
		c-3.26,0.73-6.58,0.42-9.87,0.52c-22.65,0.64-45.31,0.95-67.97,0.58c-21.19-0.34-42.37-0.87-63.53-2.08
		c-22.25-1.28-44.47-2.97-66.58-5.85c-0.84-0.11-1.66-0.38-2.48-0.58c1.5-1.64,3.08-0.33,4.65-0.49
		c-6.54,0.46-12.61-3.41-19.29-1.82c-5.51-0.43-10.85-1.8-16.23-2.97c-16.08-3.49-31.72-8.32-46.55-15.6
		c-25.98-12.77-43.24-33.1-52.81-60.27c-5.56-15.78-9.07-32.03-11.66-48.5c-3.67-23.38-5.61-46.92-6.81-70.55
		c-1.17-23.01-1.72-46.03-1.01-69.07c0.68-21.93,2.4-43.78,6.43-65.39c0.11-0.59,0.39-1.14,0.59-1.71c0.41,0.35,0.49,0.8,0.42,1.31
		c0.2-0.09,0.14-0.3,0.17-0.45c1.68-8.97,4.48-17.65,6.73-26.47c0.18-0.69,0.34-1.42,0.1-2.16c1.46-5.59,3.87-10.8,6.61-15.83
		c7.53-13.83,16.35-26.69,28.69-36.76c7.79-6.36,15.98-12.09,25.79-15.01c2.05,0.65,3.57-0.22,4.86-1.72
		C621.52,278.35,624.53,277.29,627.74,276.89z"/>
	<path class="st3" d="M1017.51,713.86c-3.16,0-6.33,0-9.49,0c2.22-1.21,4.66-1.18,6.9-1.34c3.89-0.28,7.75-0.86,11.65-1.09
		c4.6-0.27,9.25-0.27,13.8-1.22c0.83-0.17,1.71-0.12,2.56-0.13c5.12-0.06,10.18-0.84,15.27-1.31c3.39-0.31,6.8-0.74,10.19-0.84
		c5.26-0.14,10.37-1.39,15.59-1.82c4.23-0.35,8.39-1.37,12.61-1.88c5.32-0.65,10.58-1.6,15.82-2.66c1.34-0.27,2.63-0.71,3.75,0.5
		c0,0-0.13-0.03-0.13-0.03c-0.68,0.54-1.67,0.03-2.31,0.69l-0.15,0.15l-0.19-0.1c-0.99,0.62-2.28-0.15-3.21,0.72l-0.03,0
		c-0.91,0.69-2.17-0.11-3.05,0.72l-0.15,0.14l-0.17-0.11c-1.04,0.61-2.37-0.12-3.36,0.72c-4.91,1.56-10.02,2.11-15.08,2.82
		c-19.37,2.7-38.86,4.2-58.37,5.43C1025.8,713.48,1021.67,713.97,1017.51,713.86z"/>
	<path class="st4" d="M552.66,349.03c0.88,0.6,0.75,1.45,0.57,2.31c-1.9,9.07-4.65,17.92-7.06,26.86c-0.09,0.34-0.27,0.65-0.43,1.03
		c-0.76-0.75-0.29-1.66-0.51-2.42c1.04-7.88,3.27-15.47,5.61-23.02C551.34,352.17,551.65,350.46,552.66,349.03z"/>
	<path class="st5" d="M673.27,710.85c0.1-1.02,0.68-1.44,1.69-1.5c2.2-0.14,4.33,0.21,6.47,0.69c3.86,0.87,7.74,1.61,11.61,2.84
		c-1.71,0.09-3.42,0.18-5.12,0.28C682.97,712.82,678.08,712.08,673.27,710.85z"/>
	<path class="st6" d="M898.35,720.57c-4.95,0-9.89,0-14.97,0c0.43-1.93,1.56-1.65,2.46-1.65c5.34-0.03,10.69-0.02,16.35-0.02
		c-0.94,1.26-2.66,0.23-3.19,1.56c0,0-0.31,0.16-0.31,0.16L898.35,720.57z"/>
	<path class="st7" d="M618.61,279.71c-0.96,2.89-2.69,3.5-4.86,1.72C615.25,280.53,616.84,279.88,618.61,279.71z"/>
	<path class="st3" d="M1005.78,714.65c-1.97-0.12-3.94-0.24-5.91-0.36c2.18-0.27,4.42-1.27,6.47,0.27c0,0-0.26,0.15-0.26,0.15
		L1005.78,714.65z"/>
	<path class="st2" d="M1110.16,703.51c0.85-1.2,2.09-0.71,3.21-0.71C1112.42,703.58,1111.32,703.67,1110.16,703.51z"/>
	<path class="st2" d="M1107.08,704.23c0.82-1.06,1.96-0.78,3.05-0.72C1109.26,704.38,1108.17,704.31,1107.08,704.23z"/>
	<path class="st2" d="M1103.4,704.98c0.93-1.12,2.18-0.76,3.36-0.71C1105.76,705.08,1104.59,705.09,1103.4,704.98z"/>
	<path class="st2" d="M1113.72,702.74c0.59-0.85,1.44-0.81,2.31-0.69C1115.45,702.9,1114.57,702.8,1113.72,702.74z"/>
	<path class="st8" d="M1039.3,271.99c6.64,0.33,12.82,1.22,18.87,2.78c11.48,2.96,23.03,5.72,34.26,9.52
		c15.83,5.36,30.18,13.34,42.32,24.99c1.32,1.27,2.56,2.64,3.67,4.1c2.12,2.79,2.42,4.94,1.02,6.69c-1.76,2.2-4.07,1.91-6.38,1.16
		c-1.86-0.6-3.72-1.23-5.5-2.04c-8.11-3.73-16.2-7.52-24.28-11.31c-15.79-7.42-32.39-12.46-49.16-17.02
		c-4.95-1.35-9.91-2.73-14.57-4.95c-2.33-1.11-4.6-2.35-6.43-4.18c-1.5-1.5-2.72-3.28-2.06-5.56c0.7-2.43,2.68-3.35,4.98-3.73
		C1037.25,272.22,1038.47,272.1,1039.3,271.99z"/>
	<path class="st8" d="M1174.21,351.61c0.02,2.8-0.69,4.92-2.99,6.2c-2.25,1.25-4.27,0.39-6.19-0.81c-1.68-1.04-3.03-2.47-4.33-3.93
		c-4-4.48-7.41-9.4-10.61-14.47c-0.65-1.02-1.22-2.15-1.57-3.3c-0.58-1.92-0.77-3.94,0.95-5.44c1.7-1.49,3.69-1.21,5.49-0.24
		c3.44,1.85,6.88,3.72,9.86,6.3c3.37,2.91,6.12,6.3,7.98,10.38C1173.62,348.08,1174.25,349.93,1174.21,351.61z"/>
</g>
</svg>
