<svg id="Layer_1" data-name="Layer 1" xmlns="http://www.w3.org/2000/svg" viewBox="0 0 615.67 589.98"><defs><style>.cls-1{fill:#fff;}.cls-2{fill:#ccc;}.cls-3{fill:#333;}.cls-4{fill:#666;}.cls-5{fill:#737471;}.cls-6{fill:#b3b3b3;}.cls-7{fill:#939393;}.cls-8{fill:#d18f8f;}</style></defs><g id="ear_02_0_Layer0_0_FILL" data-name="ear 02 0 Layer0 0 FILL"><path d="M616.92,856a78.48,78.48,0,0,0-1.3,24A178.72,178.72,0,0,0,620,904.9a432.68,432.68,0,0,0,28.76,83.32,364.59,364.59,0,0,0,46.41,75,341.87,341.87,0,0,0,71.34,66.45q2.88,2,4.66,1.68a3.29,3.29,0,0,0,2.39-2.08,4.71,4.71,0,0,0,.11-3.42,8.57,8.57,0,0,0-1.76-2.83c-.62-.6-1.49-1.36-2.62-2.27s-2.5-2.08-3.73-3.07a.29.29,0,0,0,.16,0q6.22-1.07,13.66-6a95.74,95.74,0,0,0,13.83-11.39q4.35-4.2,12.41-13.1c1.74-1.9,3.31-3.62,4.69-5.17s2.68-3,3.74-4.24a5.53,5.53,0,0,0,1.51.18,5.39,5.39,0,0,0,2.41-.56,3.14,3.14,0,0,0,1.54-1.66,2,2,0,0,0,.12-.45,3.69,3.69,0,0,0-.78-3.24,204.83,204.83,0,0,0,44.25-140.94,72.82,72.82,0,0,0-2.1-13.68,80.52,80.52,0,0,0-4-10.07q-3-6.75-4.07-10a2.72,2.72,0,0,1-.15-.42q.78-1.47-.54-3.6a15.3,15.3,0,0,0-4.27-4.21,38.28,38.28,0,0,0-5.48-2.88,198.64,198.64,0,0,0-21.18-7.94q-7.14-2.33-21.82-6.4-17.72-4.92-26.21-7-14.64-3.69-26.5-5.83-15-2.65-33.78-4.26-12.12-1-34-2.22-17.83-.87-28-1.15-15.48-.45-28-.11a9.73,9.73,0,0,0-4.4,1.1c-1.49.77-2.1,1.79-1.84,3.07a3.7,3.7,0,0,0,.11.49m6.43,11.18,0-4.38a22.75,22.75,0,0,1,.3-4.32l69.37,4.92q19.23,1.36,28.8,2.49a410.43,410.43,0,0,1,55.55,10.72q22.23,5.83,54.27,16.45c4.56,1.52,8.4,2.75,11.55,3.69.13.58.31,1.2.53,1.88q1.13,3.31,4.83,11.18a66.08,66.08,0,0,1,4.5,11.26,47.85,47.85,0,0,1,1.12,7l-.09-.07a64.51,64.51,0,0,0-6.67-3.21,61.43,61.43,0,0,0-6.78-1.83c-.83-.17-1.58-.31-2.23-.41q-23.84-13.14-55.16-19.87a354.15,354.15,0,0,0-37.73-5.81q-15.12-1.57-38.08-2.73-13.65-.74-21.22-.65a125.45,125.45,0,0,0-21,1.65,6.14,6.14,0,0,0-1.77.57,1.1,1.1,0,0,0-1,0c-.59.28-.82.93-.68,1.95a1.77,1.77,0,0,0,.27,1.22,312.61,312.61,0,0,0,37,81.83q28.68,45.07,65.61,68.77a38.45,38.45,0,0,0,4.45,2.55,13,13,0,0,0,2,.76q3.32,2.28,7,4.63,7.94,5.11,24.43,14.57c1.6.91,3,1.71,4.35,2.43l-.89,1c-1.24,1.42-2.53,2.87-3.89,4.37q-6.42,7.17-14.55,15.62-4.5,4.68-7.16,7a53.67,53.67,0,0,1-8,6.07,36.13,36.13,0,0,1-9.28,3.91,29,29,0,0,1-3.22.64q-17.44-14.52-29.5-26a304.65,304.65,0,0,1-34.27-37.87,335.71,335.71,0,0,1-21-32.18,427.72,427.72,0,0,1-35.73-77.44,343.69,343.69,0,0,1-14.31-58.05q-1-7-1.77-14v-.44m54.92,56.11q-3.28-7.83-4.85-11.45l-.63-2-.8-2.85a59.53,59.53,0,0,0-2-6.1c1.32,0,2.67-.07,4-.09q9-.13,19.44.36,8.88.48,25.7,1.93,22.35,2,33.4,3.3a289.28,289.28,0,0,1,33,5.79q12.2,3,33.14,10,11.38,3.76,19.58,6.39a20,20,0,0,0,2.07,1c2.63,1.12,4.19,1.82,4.68,2.08a42.39,42.39,0,0,1,4,2.57l5.06,3.4.66.43q1.33,39.06-10.62,71.57-2.57,7-7,16.84c-1,2.32-2,4.47-3,6.46q-2.19,4.62-4,8a176.55,176.55,0,0,1-17.62,26.51q-3.35-2.06-7.32-4.32-3-1.74-10.64-5.92l-14.86-8.07q-5.49-3-8.17-4.27a31.52,31.52,0,0,0-2.91-1.3c-2.83-2.23-5-3.92-6.4-5.08A250.25,250.25,0,0,1,713,986.16,328.72,328.72,0,0,1,678.27,923.26Z" transform="translate(-615.26 -694.2)"/><path class="cls-1" d="M693.5,901.11q-10.47-.5-19.44-.36,2.24,4.23,7,12.55,7.89,14,9,14.89,6.51,11.89,15.19,25.54,17.38,27.35,29.21,36.94.94.75,11.42,8t11.37,8.06a59.3,59.3,0,0,0,6,3.52,63,63,0,0,1,6,3.52q5.74,4.66,37.61,12.53,13.06,3.21,27.4,6.56c.94-2,1.94-4.14,3-6.46q4.41-9.84,7-16.84,11.94-32.51,10.62-71.57l-.66-.43-5.06-3.4a42.39,42.39,0,0,0-4-2.57c-.49-.26-2.05-1-4.68-2.08a20,20,0,0,1-2.07-1q-8.21-2.62-19.58-6.39-21-7.05-33.14-10a289.28,289.28,0,0,0-33-5.79q-11-1.32-33.4-3.3Q702.39,901.6,693.5,901.11Z" transform="translate(-615.26 -694.2)"/><path class="cls-2" d="M673.42,911.81q1.56,3.62,4.85,11.45A328.72,328.72,0,0,0,713,986.16a250.25,250.25,0,0,0,49.32,52.33c1.43,1.16,3.57,2.85,6.4,5.08a31.52,31.52,0,0,1,2.91,1.3q2.68,1.28,8.17,4.27l14.86,8.07q7.64,4.18,10.64,5.92,4,2.26,7.32,4.32a176.55,176.55,0,0,0,17.62-26.51q1.82-3.42,4-8-14.34-3.35-27.4-6.56-31.86-7.87-37.61-12.53a63,63,0,0,0-6-3.52,59.3,59.3,0,0,1-6-3.52q-.94-.76-11.37-8.06t-11.42-8q-11.84-9.58-29.21-36.94-8.68-13.65-15.19-25.54-1.15-.93-9-14.89-4.72-8.32-7-12.55c-1.37,0-2.72,0-4,.09a59.53,59.53,0,0,1,2,6.1l.8,2.85Z" transform="translate(-615.26 -694.2)"/><path class="cls-3" d="M623.35,867.59q.74,7,1.77,14a343.69,343.69,0,0,0,14.31,58.05A427.72,427.72,0,0,0,675.16,1017a335.71,335.71,0,0,0,21,32.18,304.65,304.65,0,0,0,34.27,37.87q12,11.48,29.5,26a29,29,0,0,0,3.22-.64,36.13,36.13,0,0,0,9.28-3.91,53.67,53.67,0,0,0,8-6.07q2.67-2.35,7.16-7,8.13-8.45,14.55-15.62c1.36-1.5,2.65-3,3.89-4.37a103.52,103.52,0,0,1-22.81-5.25,151.74,151.74,0,0,1-33.48-16.69q-3.09-2.05-6-4.35-7-5.43-13.49-11.48-14-13.07-27.18-27Q693,1000.1,684,988.55q-11.78-15-22.18-30.7-4.8-7.25-9.41-14.49a112,112,0,0,1-9.23-18q-2.24-5.52-4.61-11t-4.35-11.09q-6.16-17.87-10.83-36.12Z" transform="translate(-615.26 -694.2)"/><path class="cls-4" d="M623.39,862.77l0,4.38q4.67,18.24,10.83,36.12,2,5.67,4.35,11.09t4.61,11a112,112,0,0,0,9.23,18q4.61,7.25,9.41,14.49,10.4,15.74,22.18,30.7,9.09,11.55,19.07,22.11,13.22,14,27.18,27,6.46,6,13.49,11.48,3,2.29,6,4.35a151.74,151.74,0,0,0,33.48,16.69,103.52,103.52,0,0,0,22.81,5.25l.89-1c-1.3-.72-2.75-1.52-4.35-2.43q-16.5-9.45-24.43-14.57-3.71-2.36-7-4.63a13,13,0,0,1-2-.76,38.45,38.45,0,0,1-4.45-2.55q-36.93-23.7-65.61-68.77a312.61,312.61,0,0,1-37-81.83,1.77,1.77,0,0,1-.27-1.22c-.14-1,.09-1.67.68-1.95a1.1,1.1,0,0,1,1,0,6.14,6.14,0,0,1,1.77-.57,125.45,125.45,0,0,1,21-1.65q7.57-.07,21.22.65,23,1.15,38.08,2.73a354.15,354.15,0,0,1,37.73,5.81q31.32,6.74,55.16,19.87c.65.1,1.4.24,2.23.41a61.43,61.43,0,0,1,6.78,1.83,64.51,64.51,0,0,1,6.67,3.21l.09.07a47.85,47.85,0,0,0-1.12-7,66.08,66.08,0,0,0-4.5-11.26q-3.71-7.86-4.83-11.18c-.22-.68-.4-1.3-.53-1.88-3.15-.94-7-2.17-11.55-3.69q-32-10.62-54.27-16.45a410.43,410.43,0,0,0-55.55-10.72q-9.55-1.12-28.8-2.49l-69.37-4.92A22.75,22.75,0,0,0,623.39,862.77Z" transform="translate(-615.26 -694.2)"/></g><g id="ear_01_0_Layer0_0_FILL" data-name="ear 01 0 Layer0 0 FILL"><path d="M1031.69,714q-7.67,6.68-20.75,18.53-16.05,14.64-24.67,23.07-13.35,13-23.15,24.56-7.68,9.11-16.5,21.14-5.1,7-15.45,21.87-8.61,12.33-12.57,18.56a203.77,203.77,0,0,0-11.06,19.41,44.29,44.29,0,0,0-2.26,5.67,14.12,14.12,0,0,0-.48,5.94,3.49,3.49,0,0,0,1.88,3.08c0,.11.08.25.15.43a102.28,102.28,0,0,1,3.43,10.18,78.36,78.36,0,0,0,3.59,10.14,55.45,55.45,0,0,0,5.25,8.84c.65,1,1.36,1.93,2.11,2.93l.88,1.17a204,204,0,0,0,41.6,41.09Q971,956.06,979,961a211.13,211.13,0,0,0,68.76,27.34,3.54,3.54,0,0,0,1.85,3.23,3.49,3.49,0,0,0,2.33.27,4.83,4.83,0,0,0,2.16-1,6.37,6.37,0,0,0,1.07-1.18q4.78.85,12.66,2,12,1.68,18.11,2.19a109.2,109.2,0,0,0,18.11,0q8.94-.94,14.41-4a.4.4,0,0,0,.16,0c-.28,1.53-.58,3.08-.9,4.66-.23,1.41-.38,2.56-.45,3.44a7.19,7.19,0,0,0,.49,3.24,4.59,4.59,0,0,0,2.33,2.46,3,3,0,0,0,3.15.12q1.63-.78,2.55-4.14a330.75,330.75,0,0,0,11.09-95.71,359.69,359.69,0,0,0-13.63-86.61,429.71,429.71,0,0,0-32.59-81.81,182.85,182.85,0,0,0-13-21.81c-1.33-1.84-2.68-3.6-4.06-5.26a82,82,0,0,0-8.6-9q-2-1.77-4.13-3.34a.86.86,0,0,0-.2-.39c-.65-1.11-1.78-1.54-3.4-1.28a9.68,9.68,0,0,0-4.1,2q-9.89,7.62-21.44,17.68m-18.37,82.37q11.92-11.7,18.4-17.58,6.62-6,12.71-11c1.74-1.41,3.44-2.77,5.11-4,.18.51.4,1.1.68,1.76.47,1.15,1.08,2.51,1.83,4.11l1.27,2.76c.29.64.59,1.27.89,1.88Q1055.32,778,1058,786a323.73,323.73,0,0,1,14.59,70,244.6,244.6,0,0,1-3.44,71q-.54,2.67-1.67,7.88c-.42.9-.88,1.85-1.37,2.87q-1.18,2.7-3.41,8.4l-6.15,15.53q-3.09,8-4.29,11.21c-1.07,2.8-2,5.43-2.78,7.9a186.28,186.28,0,0,1-30.89-9.14q-6-2.43-14.85-6.73-9.93-4.69-16.47-8.52a176.83,176.83,0,0,1-23.19-15.8A193.44,193.44,0,0,1,949,927.22a222.44,222.44,0,0,1-16.88-18.74,5.93,5.93,0,0,0,.21-.83l1.68-5.74c.56-2,1-3.54,1.39-4.52.23-.49,1-2,2.22-4.52.36-.75.69-1.44,1-2.07q4.54-7.14,10.78-17.21Q960.9,855,968.3,845.07a292.57,292.57,0,0,1,21.47-25.14c1.24-1.3,2.64-2.75,4.22-4.35l.11-.14q7.23-7.41,19.22-19.08m-18.49,6c-2.09,2-4,4-5.86,5.81a333.5,333.5,0,0,0-25.16,28.21q-19.62,24.84-29.25,49.91c-.42.5-.9,1.09-1.43,1.78a48,48,0,0,0-4,5.62,57.28,57.28,0,0,0-3.05,6.65l0,.08c-.3-.42-.59-.84-.86-1.24a40.48,40.48,0,0,1-2.88-4.83c-.06-.14-.13-.29-.19-.44A73.77,73.77,0,0,1,918.38,883a114.15,114.15,0,0,0-3.61-11.66,12.21,12.21,0,0,0-.9-1.81q2.79-4,6.52-10.08,17.58-28.28,30.86-46.65a397.65,397.65,0,0,1,35.52-43.16q6.65-6.92,20.52-20.17l50-47.3a14.79,14.79,0,0,1,2.17,2c.29.35.59.71.9,1.1l3.16,3.62q1.73,2.49,3.4,5a336.2,336.2,0,0,1,31.5,60.22,421.26,421.26,0,0,1,23.49,81.64,325.12,325.12,0,0,1,5,37.86,295.09,295.09,0,0,1-1.45,50.52q-1.71,16.33-5.57,38.4a23.8,23.8,0,0,1-2.89,1.56,34.63,34.63,0,0,1-9.71,2.84,57.77,57.77,0,0,1-10.09.39q-3.59-.17-10.05-.79-16.45-1.9-28.71-4c.57-1.34,1.16-2.86,1.8-4.56q6.38-17.67,9.21-26.55,1.3-4.09,2.27-7.92c.38-.58.75-1.21,1.1-1.88a29.37,29.37,0,0,0,1.75-4.77q12.7-41.29,5.16-93.86a310.26,310.26,0,0,0-24.23-83.5c-.34-.76-.68-1.54-1-2.31a2.6,2.6,0,0,0-.64-1.16c-.52-.83-1.1-1.15-1.75-1a.93.93,0,0,0-.78.55,10.17,10.17,0,0,0-1.71.77,126.41,126.41,0,0,0-17.3,11.92q-5.79,4.71-15.86,13.84Q1003.91,793.55,994.83,802.36Z" transform="translate(-615.26 -694.2)"/><path class="cls-4" d="M969.13,813A339.5,339.5,0,0,1,1030,745.5q18.54-15.76,37-31.59-1.68-2.52-3.4-5l-3.16-3.62c-.31-.39-.61-.75-.9-1.1a14.79,14.79,0,0,0-2.17-2l-50,47.3q-13.87,13.24-20.52,20.17a397.65,397.65,0,0,0-35.52,43.16Q938,831.17,920.39,859.44q-3.74,6.07-6.52,10.08a12.21,12.21,0,0,1,.9,1.81A114.15,114.15,0,0,1,918.38,883a73.77,73.77,0,0,0,3.75,10.92c.06.15.13.3.19.44a40.48,40.48,0,0,0,2.88,4.83A377.66,377.66,0,0,1,969.13,813Z" transform="translate(-615.26 -694.2)"/><path class="cls-3" d="M989,808.17c1.82-1.83,3.77-3.76,5.86-5.81q9.07-8.8,21.56-20.24,10.06-9.12,15.86-13.84a126.41,126.41,0,0,1,17.3-11.92,10.17,10.17,0,0,1,1.71-.77.93.93,0,0,1,.78-.55c.65-.16,1.23.16,1.75,1a2.6,2.6,0,0,1,.64,1.16c.36.77.7,1.55,1,2.31A310.26,310.26,0,0,1,1079.7,843q7.54,52.56-5.16,93.86a29.37,29.37,0,0,1-1.75,4.77c-.35.67-.72,1.3-1.1,1.88q-1,3.82-2.27,7.92-2.84,8.9-9.21,26.55c-.64,1.7-1.23,3.22-1.8,4.56q12.25,2.12,28.71,4,6.47.63,10.05.79a57.77,57.77,0,0,0,10.09-.39,34.63,34.63,0,0,0,9.71-2.84,23.8,23.8,0,0,0,2.89-1.56q3.86-22.06,5.57-38.4a295.09,295.09,0,0,0,1.45-50.52,325.12,325.12,0,0,0-5-37.86,421.26,421.26,0,0,0-23.49-81.64,336.2,336.2,0,0,0-31.5-60.22q-18.42,15.83-37,31.59A339.5,339.5,0,0,0,969.13,813a377.66,377.66,0,0,0-43.93,86.19c.27.4.56.82.86,1.24l0-.08a57.28,57.28,0,0,1,3.05-6.65,48,48,0,0,1,4-5.62c.53-.69,1-1.28,1.43-1.78q9.62-25.06,29.25-49.91A333.5,333.5,0,0,1,989,808.17Z" transform="translate(-615.26 -694.2)"/><path class="cls-2" d="M1031.72,778.78q-6.46,5.88-18.4,17.58T994.1,815.44l-.11.14c-1.58,1.6-3,3-4.22,4.35a292.57,292.57,0,0,0-21.47,25.14q-7.41,9.95-18.91,28.52-6.24,10.06-10.78,17.21c-.28.63-.61,1.32-1,2.07-1.25,2.53-2,4-2.22,4.52-.36,1-.83,2.49-1.39,4.52l-1.68,5.74a5.93,5.93,0,0,1-.21.83A222.44,222.44,0,0,0,949,927.22a193.44,193.44,0,0,0,15.05,13.41,176.83,176.83,0,0,0,23.19,15.8q6.54,3.81,16.47,8.52,8.87,4.29,14.85,6.73a186.28,186.28,0,0,0,30.89,9.14c.79-2.47,1.71-5.1,2.78-7.9q1.2-3.18,4.29-11.21l6.15-15.53q2.22-5.7,3.41-8.4c.49-1,1-2,1.37-2.87q1.13-5.2,1.67-7.88a244.6,244.6,0,0,0,3.44-71A323.73,323.73,0,0,0,1058,786q-2.67-8.06-3.78-11.81c-.3-.61-.6-1.24-.89-1.88l-1.27-2.76c-.75-1.6-1.36-3-1.83-4.11-.28-.66-.5-1.25-.68-1.76-1.67,1.28-3.37,2.64-5.11,4Q1038.34,772.74,1031.72,778.78Z" transform="translate(-615.26 -694.2)"/></g><g id="face_0_Layer1_0_FILL" data-name="face 0 Layer1 0 FILL"><path d="M987.34,861.82a178.23,178.23,0,0,0-68.2-10.14,173,173,0,0,0-66.46,17,168.76,168.76,0,0,0-54.82,41.43q-5.94,6.82-13.23,16.81A188.79,188.79,0,0,0,772.16,946q-10,17.74-15.8,41.23a323.92,323.92,0,0,0-7.22,44.17q-2,19.47-2,34.62a191.72,191.72,0,0,0,2.83,34.46q1.35,7.82,4.71,20.75c.77,2.89,1.54,5.69,2.31,8.42q4.31,15.38,8.58,27.18,3.63,10.14,7.68,19.12c.08.18.15.35.2.49q3.43,7.53,7.14,14.26l.19.33a184.15,184.15,0,0,0,37.75,47.23,180.79,180.79,0,0,0,51,32.42A174.34,174.34,0,0,0,928,1283.93a172,172,0,0,0,59.06-7,207.88,207.88,0,0,0,32.38-13q42-20.81,66.56-51.48a161.86,161.86,0,0,0,19.81-31.34,186.27,186.27,0,0,0,12.92-34.94q2.87-10.83,5.19-25.14a333.35,333.35,0,0,0,3.84-33.9,244.41,244.41,0,0,0-2.29-53.41,190.51,190.51,0,0,0-7.67-31.14,201.42,201.42,0,0,0-7.83-19.43q-3-6.36-6.5-12.91c-.09-.17-.19-.36-.28-.55l-.9-1.6q-4.93-9-11.36-19.05-2.82-4.39-5.92-9-6.67-10-12.19-17.2a183.47,183.47,0,0,0-13.63-16,145.68,145.68,0,0,0-11.3-10.44,187.5,187.5,0,0,0-60.55-34.62m3.9,10.85a198.55,198.55,0,0,1,18.31,8.43,162.77,162.77,0,0,1,16.48,9.43q20.27,13.26,38.33,36.62a317,317,0,0,1,19.29,28.68l.51.82q4.52,7.49,9.3,16l1.23,2.23,1.28,2.3q3.18,5.87,5.29,10.17c.27.59.54,1.15.79,1.68a161,161,0,0,1,11.21,32.6q1.73,7.42,2.85,15.25,4.16,28,1,61.29c-.12,1.35-.25,2.71-.39,4.06a265.12,265.12,0,0,1-8.8,46.47,168.52,168.52,0,0,1-18.7,42.7,159.13,159.13,0,0,1-32.87,37,218.13,218.13,0,0,1-41.58,27.07,194.86,194.86,0,0,1-18.25,8.27,162.77,162.77,0,0,1-57.74,11,166.35,166.35,0,0,1-58.28-10,169.41,169.41,0,0,1-51.46-30.1,173.41,173.41,0,0,1-33.16-37.32c-1.87-2.87-3.67-5.82-5.39-8.82A216,216,0,0,1,777.4,1161c-.09-.2-.17-.42-.26-.64q-4.29-10.9-9-25.61c-.39-1.27-.79-2.57-1.2-3.88q-4-12.76-6-21.83c-.15-.74-.3-1.45-.44-2.15q-.63-3-1.14-6.15a203.56,203.56,0,0,1-2.63-27.87,349.88,349.88,0,0,1,7.66-78.78,175.49,175.49,0,0,1,15-41.87q17.73-33.81,55.15-61.88a137.2,137.2,0,0,1,16.76-11.05,127.18,127.18,0,0,1,21.73-9.11,182.68,182.68,0,0,1,59.3-9A165.68,165.68,0,0,1,991.24,872.67Z" transform="translate(-615.26 -694.2)"/><path class="cls-5" d="M762.69,1103.76c-.08-.82-.39-1.14-1-1s-.91-.14-1-1c0-.17-.48-.53-1.39-1.08q.51,3.13,1.14,6.15c.14.7.29,1.41.44,2.15q2,9.06,6,21.83c.41,1.31.81,2.61,1.2,3.88a7.88,7.88,0,0,0,1.89.09,1.69,1.69,0,0,0,1.14-.74,1.61,1.61,0,0,1,1.14-.74q3.13-.3,9.68,1.8t9.8,1.79a3,3,0,0,0,1.49-.77,2.78,2.78,0,0,1,1.44-.8c.44,0,.55-.21.31-.5s-.15-.46.26-.5q2.9-.27,13.82,2.14l.08,0a19.64,19.64,0,0,1,4.42-1.64c.06,0,.6-.16,1.64-.4.71-.15,1.63-.35,2.76-.62l-6-1.92a6.64,6.64,0,0,1-1.28-1.12c-.15-1.5-1.84-2.86-5.09-4.09q-2.48-.89-4.91-1.79c-.08-.83-.41-1-1-.53s-1,.29-1-.57-.41-1-1-.45-.91.36-1-.49-.41-1-1-.45-1,.36-1-.49-.41-1-1-.53-1,.29-1-.56c0-.34-2.69-1.5-8-3.5s-7.93-3.15-8-3.49-.7-.85-2-1.48-2-1.14-2.06-1.52a16.53,16.53,0,0,0-3-2,21.48,21.48,0,0,1-3-2c0-.21-.68-.65-2-1.34s-2-1.25-2-1.72m268.45-48.32a3.43,3.43,0,0,0-2.48.59c-.5.37-2.18,2.62-5.06,6.75-.42,2.62-1.06,4-1.91,4.06q-.08,0-1.47,3.78a31,31,0,0,1-1.52,3.75c-.54.05-.79.33-.74.85a7.85,7.85,0,0,0,.23,1.11l0,.08a8.63,8.63,0,0,0,1-.06c.41,0,.58-.2.5-.48s0-.47.46-.51a3.13,3.13,0,0,0,1.53-.74,3.21,3.21,0,0,1,1.53-.77,2,2,0,0,0,1.22-.74,1.91,1.91,0,0,1,1.22-.75c.43,0,.69-.2.77-.47s.32-.46.74-.5a1.43,1.43,0,0,0,1-.52,1.3,1.3,0,0,1,1-.53c.44,0,.69-.21.77-.5s.32-.47.73-.51a15.85,15.85,0,0,0,4-1.44,16,16,0,0,1,5-1.54,30.17,30.17,0,0,0,3.29-.75,28.62,28.62,0,0,1,3.25-.78,41.34,41.34,0,0,0,3.5-3c.08,0,.33-.26.75-.74a4,4,0,0,1,.71-.73q.58-.06,3.52-4.41c2-2.93,3.31-4.43,4-4.5.18,0,.42-.33.73-.93a1.6,1.6,0,0,1,1.27-1c.44,0,.7-.21.77-.5a.73.73,0,0,1,.73-.54,5.64,5.64,0,0,0,1.89-.73,5.3,5.3,0,0,1,1.84-.77,7.39,7.39,0,0,0,2.12-.75,7.93,7.93,0,0,1,2.12-.75,2.13,2.13,0,0,0,1.29-.76,2.11,2.11,0,0,1,1.26-.74,1.93,1.93,0,0,0,1.22-.75,1.89,1.89,0,0,1,1.21-.78,18.44,18.44,0,0,0,1.75-2.16c1.19-1.45,2.12-2.21,2.79-2.27q.32,0,3.87-4.13c2.7-2.77,4.91-4.23,6.61-4.4.44,0,2.11-.29,5-.76s4.6-.76,5-.8a12.1,12.1,0,0,0,2.48-.71,13.53,13.53,0,0,1,2.47-.7q1.32-.13,6.78-3.91l1.35-1a161,161,0,0,0-11.21-32.6c-.25-.53-.52-1.09-.79-1.68q-6.79,5-17.44,17.42-8.38,10-11.58,13.79-5.29,6.27-6.34,6.37-5.28.51-16.35,15.39-6.3,8.45-7.81,10.27-4,4.68-6,4.89a29,29,0,0,1-4.55,0m22.95-41c1.33-1.31,2.36-2,3.09-2.06a3.2,3.2,0,0,0,2-1.26c.65-.79,1.14-1.2,1.48-1.24a1.35,1.35,0,0,0,1-.72,1.25,1.25,0,0,1,1-.76c.44-.05.6-.22.49-.52s.09-.48.5-.52a1.27,1.27,0,0,0,1-.72,1.16,1.16,0,0,1,1-.72c.43,0,.61-.21.53-.52s.12-.52.53-.56q.12,0,3.71-6.19t4.28-6.28s.35-.56,1-1.66,1.27-1.73,2-1.8c.08,0,1.15-1,3.23-3s3.17-3,3.23-3q.57-.06,3.56-2.74t4-2.77q1-.09,3-2.52v0l-1.23-2.23q-4.79-8.5-9.3-16l-.51-.82q-4.19,5.82-11.88,15.51-13.18,16.54-13.61,16.58-.2,0-19,25-1.47,5.85-7.11,12.19a27,27,0,0,0-3.31,4.23,7.92,7.92,0,0,0-1.09,4.84c0,.39.54.63,1.51.71a9.16,9.16,0,0,0,2,0q2-.2,8.12-7.05t6.91-6.93a18.19,18.19,0,0,0,2.76-2.22c1.66-1.46,2.73-2.22,3.22-2.27a14.5,14.5,0,0,0,1.93-1.94M827.25,979.13c-.11-.25-.47-.41-1.11-.48a1.9,1.9,0,0,1-1.43-1.43s-.53-2.75-1.53-8.1l-.27-.45a4.59,4.59,0,0,1-.76-1.8,5.56,5.56,0,0,0-.95-2.1,5.24,5.24,0,0,0-2-1.92,9,9,0,0,0-1.71,4.47,16.3,16.3,0,0,1-.27,2.53q-.27,0-.63,5.54-.36,4.85-.41,7.48l-.52,0a9.12,9.12,0,0,0-1.75-1.55,4,4,0,0,0-1.78-1c-.22,1.39-.42,2.66-.6,3.82q1.1,5.22,2.84,12.83c.32,1.35.66,2.77,1,4.24a3,3,0,0,0-.52.68c-.14.17-.28,0-.43-.47-.26-.66-.52-.52-.78.43,0,.21-.08.45-.13.72a8.52,8.52,0,0,0-.24,2.8,39.4,39.4,0,0,0,3.61,6.53c.53.8,1.11,1.66,1.73,2.57q4.2,6.21,4.31,6.51a4.73,4.73,0,0,0,1.17,1.53,4.66,4.66,0,0,1,1.16,1.53,9.59,9.59,0,0,0,.55,1.24,3.74,3.74,0,0,0,4.89,2,20,20,0,0,0,3.25-1.61,24.73,24.73,0,0,1,3.13-1.55,14.32,14.32,0,0,1,1.49-.46l.57-.1c-.11-.38-.28-1-.51-2-.2-.76-.38-1.37-.53-1.83s-.9-1.93-2.2-4.59-2.06-4.2-2.21-4.6a65.77,65.77,0,0,1-2.16-7.42q-1.2-5-2.11-11.22-1.71-11.54-2.13-12.74m131.82-38.8q-.77-2.34-2-6.3c-.49-1.54-1-3.6-1.58-6.18-.11,0-.17-.14-.19-.37l-.08-.82a2,2,0,0,1-.92.25,1.71,1.71,0,0,0-1.25.82l-.52.72a3.81,3.81,0,0,1-.81,0l.11,0c0-.1-.09-.08-.23.06s-.28,0-.32-.52a2,2,0,0,0-.71-1.26,2.07,2.07,0,0,1-.71-1.26,3.38,3.38,0,0,0-.74-1.53,3,3,0,0,1-.77-1.53,3.43,3.43,0,0,0-1.2-2.27,17.93,17.93,0,0,0-2.32-1.69.36.36,0,0,1-.19.41l-.27,0c-.16,1.64-.29,3-.41,4.23a31.65,31.65,0,0,0-.17,4.79c0,.26.37,1.4,1,3.42l1,3a19.16,19.16,0,0,1,.05,2.15q-.06,1.41-.09,1.89a16.88,16.88,0,0,1-2.92-.31,13.57,13.57,0,0,0-2.25-.21q.4,1.92,1.11,5.41c.07.29.14.58.2.88a128.33,128.33,0,0,0,3.2,12.84c.12.43.79,1.91,2,4.46s1.85,4.06,2,4.46A1.73,1.73,0,0,0,950,967a5.34,5.34,0,0,1,.91.53c.47,0,.91-.49,1.32-1.34.56.18,1.19,1.4,1.88,3.66,1.08,3.33,1.88,5.58,2.41,6.73.1.21.26.51.48.89.55.92,1.45,2.3,2.71,4.16,1.79,2.53,2.69,3.84,2.73,3.92.15.5.4.61.73.32a5.4,5.4,0,0,0,.72-.7q.1-.17.26-14.26.1-13.79.41-13.89a17.14,17.14,0,0,0-.59-3.31,9.07,9.07,0,0,1,.13-4.28,15.29,15.29,0,0,1-3.92-6.11C959.93,942.77,959.57,941.79,959.07,940.33Z" transform="translate(-615.26 -694.2)"/><path class="cls-1" d="M871.49,1111.45a25.59,25.59,0,0,0,2.33-12.32q-.18-1.79-1.11-2.16a1.41,1.41,0,0,0-1.52.46,4.65,4.65,0,0,0-1.06,1.63,50.68,50.68,0,0,1-7,12.25,35.32,35.32,0,0,1-7.17,6.37,87.15,87.15,0,0,1-8.36,4.88q-15.82,8.26-29.39,11.22a.62.62,0,0,1-.23,0c-1.13.27-2,.47-2.76.62-1,.24-1.58.38-1.64.4a19.64,19.64,0,0,0-4.42,1.64l-.08,0a7.43,7.43,0,0,0-3.29,3.1,4.41,4.41,0,0,0-.41,2.31,3.25,3.25,0,0,0,1,2.06,3.67,3.67,0,0,0,2.4,1,12.53,12.53,0,0,0,2.72-.15,115.22,115.22,0,0,0,23.5-6.23c2.26-.84,4.86-1.93,7.78-3.25a111.92,111.92,0,0,0,11.33-5.8,51.45,51.45,0,0,0,10.09-7.67,34.21,34.21,0,0,0,7.29-10.4m244.62-74.58q-5,2.66-16.27,10.15-17,11.26-17.67,11.33-.47,0-7,5.06c-4.34,3.32-6.53,5-6.55,5a6.22,6.22,0,0,0-3.52,2.06c-1.26,1.25-2,1.88-2.36,1.91q-1.55.15-6.56,4.55t-6.06,4.46a1.27,1.27,0,0,0-1,.72,1.2,1.2,0,0,1-1,.73c-.06,0-1.29.76-3.7,2.27a41.71,41.71,0,0,1-3.8,2.29,2,2,0,0,0-1.26.75,2,2,0,0,1-1.26.74q-.54.06-11.78,6t-11.19,5.94c-.44,0-.69.21-.74.5s-.28.46-.69.5a3.21,3.21,0,0,0-1.53.77,3.19,3.19,0,0,1-1.54.74,3.07,3.07,0,0,0-1.49.77,3.22,3.22,0,0,1-1.53.74,3.82,3.82,0,0,0-3,1.54,3.31,3.31,0,0,1-2.51,1.49,1.91,1.91,0,0,0-1.22.75,2,2,0,0,1-1.22.74,7.3,7.3,0,0,0-3,1.51,8.83,8.83,0,0,1-2.48,1.45,2,2,0,0,0-1.26.75,2.09,2.09,0,0,1-1.3.75,3.07,3.07,0,0,0-1.49.77,3.1,3.1,0,0,1-1.53.73c-.1,0-1,.51-2.67,1.48a11.39,11.39,0,0,1-3.26,1.53q-9.87,6-10,6-1.63.17-15.16,7.89-14.53,8.3-15.28,8.6-5.12,2.22-22.19,8-17.35,5.87-19.79,6.11-.12,0-13.95,3t-18.52,3.44q-22.63,2.19-50.31-2-6.91-1-18.17-3c-5.75-.87-9.93-1.19-12.54-.93q-5.41.53-9.38,5.64a216,216,0,0,0,13.07,27.53c1.72,3,3.52,6,5.39,8.82A173.41,173.41,0,0,0,829,1234.65a169.41,169.41,0,0,0,51.46,30.1,166.35,166.35,0,0,0,58.28,10,162.77,162.77,0,0,0,57.74-11,194.86,194.86,0,0,0,18.25-8.27,218.13,218.13,0,0,0,41.58-27.07,159.13,159.13,0,0,0,32.87-37,168.52,168.52,0,0,0,18.7-42.7,265.12,265.12,0,0,0,8.8-46.47c.14-1.35.27-2.71.39-4.06q3.18-33.27-1-61.29m-212.69,33.57a10,10,0,0,0-1.89-1.34,2,2,0,0,0-2.19.33,1.86,1.86,0,0,0-.3,2.22,9.47,9.47,0,0,0,1.33,2,22.65,22.65,0,0,1,1.58,2.59l-.33.27a3,3,0,0,0-1.06,2.72,4.16,4.16,0,0,0,.8,1.8,18.43,18.43,0,0,0,1.29,1.6,25.14,25.14,0,0,1,1.69,2.1c.84,1.12,1.38,1.82,1.61,2.11a42,42,0,0,0,7.73,7.12,28.73,28.73,0,0,0,7,3.94,11.46,11.46,0,0,0,7.91.09,5.19,5.19,0,0,0,2.38-1.64,4.16,4.16,0,0,0,1.8-.37,3.77,3.77,0,0,0,1.79-1.74,4.34,4.34,0,0,0,.51-2.47,4.65,4.65,0,0,0-.94-2.34,5.3,5.3,0,0,0-2-1.61,10.07,10.07,0,0,0-2.3-.68c-.5-.08-1.29-.18-2.37-.31a22.94,22.94,0,0,1-7.07-2.64q-2.31-1.31-6.39-4.23a29.6,29.6,0,0,1-3.06-2.45,38.45,38.45,0,0,1-2.66-2.87A48.24,48.24,0,0,0,903.42,1070.44Z" transform="translate(-615.26 -694.2)"/><path class="cls-6" d="M1009.55,881.1a198.55,198.55,0,0,0-18.31-8.43,165.68,165.68,0,0,0-58.89-11.51,182.68,182.68,0,0,0-59.3,9,127.18,127.18,0,0,0-21.73,9.11,137.2,137.2,0,0,0-16.76,11.05q-37.42,28.08-55.15,61.88a175.49,175.49,0,0,0-15,41.87,349.88,349.88,0,0,0-7.66,78.78,203.56,203.56,0,0,0,2.63,27.87c.91.55,1.38.91,1.39,1.08.09.86.42,1.19,1,1s.87.14,1,1c0,.47.73,1,2,1.72s2,1.13,2,1.34a21.48,21.48,0,0,0,3,2,16.53,16.53,0,0,1,3,2c0,.38.72.89,2.06,1.52s2,1.12,2,1.48,2.69,1.5,8,3.49,7.94,3.16,8,3.5c.08.85.42,1,1,.56s.91-.3,1,.53.43,1,1,.49.9-.38,1,.45.41,1,1,.49.9-.37,1,.45.43,1,1,.57.91-.3,1,.53q2.43.9,4.91,1.79c3.25,1.23,4.94,2.59,5.09,4.09a6.64,6.64,0,0,0,1.28,1.12l6,1.92a.62.62,0,0,0,.23,0q13.56-3,29.39-11.22a87.15,87.15,0,0,0,8.36-4.88,35.32,35.32,0,0,0,7.17-6.37,50.68,50.68,0,0,0,7-12.25,4.65,4.65,0,0,1,1.06-1.63,1.41,1.41,0,0,1,1.52-.46q.93.38,1.11,2.16a25.59,25.59,0,0,1-2.33,12.32,34.21,34.21,0,0,1-7.29,10.4,51.45,51.45,0,0,1-10.09,7.67,111.92,111.92,0,0,1-11.33,5.8c-2.92,1.32-5.52,2.41-7.78,3.25a115.22,115.22,0,0,1-23.5,6.23,12.53,12.53,0,0,1-2.72.15,3.67,3.67,0,0,1-2.4-1,3.25,3.25,0,0,1-1-2.06,4.41,4.41,0,0,1,.41-2.31,7.43,7.43,0,0,1,3.29-3.1q-10.92-2.41-13.82-2.14c-.41,0-.5.21-.26.5s.13.45-.31.5a2.78,2.78,0,0,0-1.44.8,3,3,0,0,1-1.49.77q-3.22.32-9.8-1.79t-9.68-1.8a1.61,1.61,0,0,0-1.14.74,1.69,1.69,0,0,1-1.14.74,7.88,7.88,0,0,1-1.89-.09q4.7,14.7,9,25.61c.09.22.17.44.26.64q4-5.12,9.38-5.64c2.61-.26,6.79.06,12.54.93q11.25,2,18.17,3,27.68,4.24,50.31,2,4.65-.45,18.52-3.44t13.95-3q2.44-.24,19.79-6.11,17.09-5.76,22.19-8,.75-.3,15.28-8.6,13.53-7.73,15.16-7.89.15,0,10-6a11.39,11.39,0,0,0,3.26-1.53c1.67-1,2.57-1.47,2.67-1.48a3.1,3.1,0,0,0,1.53-.73,3.07,3.07,0,0,1,1.49-.77,2.09,2.09,0,0,0,1.3-.75,2,2,0,0,1,1.26-.75,8.83,8.83,0,0,0,2.48-1.45,7.3,7.3,0,0,1,3-1.51,2,2,0,0,0,1.22-.74,1.91,1.91,0,0,1,1.22-.75,3.31,3.31,0,0,0,2.51-1.49,3.82,3.82,0,0,1,3-1.54,3.22,3.22,0,0,0,1.53-.74,3.07,3.07,0,0,1,1.49-.77,3.19,3.19,0,0,0,1.54-.74,3.21,3.21,0,0,1,1.53-.77c.41,0,.64-.21.69-.5s.3-.46.74-.5q.08,0,11.19-5.94t11.78-6a2,2,0,0,0,1.26-.74,2,2,0,0,1,1.26-.75,41.71,41.71,0,0,0,3.8-2.29c2.41-1.51,3.64-2.27,3.7-2.27a1.2,1.2,0,0,0,1-.73,1.27,1.27,0,0,1,1-.72q1-.09,6.06-4.46t6.56-4.55c.31,0,1.1-.66,2.36-1.91a6.22,6.22,0,0,1,3.52-2.06s2.21-1.66,6.55-5,6.68-5,7-5.06,6.35-3.82,17.67-11.33q11.25-7.49,16.27-10.15-1.12-7.83-2.85-15.25l-1.35,1q-5.46,3.78-6.78,3.91a13.53,13.53,0,0,0-2.47.7,12.1,12.1,0,0,1-2.48.71c-.41,0-2.08.31-5,.8s-4.57.72-5,.76c-1.7.17-3.91,1.63-6.61,4.4q-3.55,4.1-3.87,4.13c-.67.06-1.6.82-2.79,2.27a18.44,18.44,0,0,1-1.75,2.16,1.89,1.89,0,0,0-1.21.78,1.93,1.93,0,0,1-1.22.75,2.11,2.11,0,0,0-1.26.74,2.13,2.13,0,0,1-1.29.76,7.93,7.93,0,0,0-2.12.75,7.39,7.39,0,0,1-2.12.75,5.3,5.3,0,0,0-1.84.77,5.64,5.64,0,0,1-1.89.73.73.73,0,0,0-.73.54c-.07.29-.33.46-.77.5a1.6,1.6,0,0,0-1.27,1c-.31.6-.55.91-.73.93-.72.07-2.07,1.57-4,4.5s-3.13,4.37-3.52,4.41a4,4,0,0,0-.71.73c-.42.48-.67.73-.75.74a41.34,41.34,0,0,1-3.5,3,28.62,28.62,0,0,0-3.25.78,30.17,30.17,0,0,1-3.29.75,16,16,0,0,0-5,1.54,15.85,15.85,0,0,1-4,1.44c-.41,0-.65.21-.73.51s-.33.46-.77.5a1.3,1.3,0,0,0-1,.53,1.43,1.43,0,0,1-1,.52c-.42,0-.66.21-.74.5s-.34.43-.77.47a1.91,1.91,0,0,0-1.22.75,2,2,0,0,1-1.22.74,3.21,3.21,0,0,0-1.53.77,3.13,3.13,0,0,1-1.53.74c-.42,0-.57.21-.46.51s-.09.44-.5.48a8.63,8.63,0,0,1-1,.06l0-.08a7.85,7.85,0,0,1-.23-1.11c-.05-.52.2-.8.74-.85a31,31,0,0,0,1.52-3.75q1.39-3.78,1.47-3.78c.85-.08,1.49-1.44,1.91-4.06,2.88-4.13,4.56-6.38,5.06-6.75a3.43,3.43,0,0,1,2.48-.59,29,29,0,0,0,4.55,0q2.08-.21,6-4.89,1.52-1.83,7.81-10.27,11.07-14.88,16.35-15.39,1-.11,6.34-6.37,3.19-3.75,11.58-13.79,10.65-12.39,17.44-17.42-2.12-4.3-5.29-10.17l-1.28-2.3v0q-2,2.43-3,2.52t-4,2.77q-3,2.68-3.56,2.74c-.06,0-1.13,1-3.23,3s-3.15,3-3.23,3c-.75.07-1.42.67-2,1.8s-1,1.66-1,1.66q-.73.08-4.28,6.28t-3.71,6.19c-.41,0-.59.23-.53.56s-.1.48-.53.52a1.16,1.16,0,0,0-1,.72,1.27,1.27,0,0,1-1,.72c-.41,0-.58.21-.5.52s0,.47-.49.52a1.25,1.25,0,0,0-1,.76,1.35,1.35,0,0,1-1,.72c-.34,0-.83.45-1.48,1.24a3.2,3.2,0,0,1-2,1.26c-.73.07-1.76.75-3.09,2.06a14.5,14.5,0,0,1-1.93,1.94c-.49.05-1.56.81-3.22,2.27a18.19,18.19,0,0,1-2.76,2.22q-.73.08-6.91,6.93t-8.12,7.05a9.16,9.16,0,0,1-2,0c-1-.08-1.48-.32-1.51-.71a7.92,7.92,0,0,1,1.09-4.84,27,27,0,0,1,3.31-4.23q5.64-6.34,7.11-12.19,18.78-25,19-25,.43,0,13.61-16.58,7.71-9.69,11.88-15.51a317,317,0,0,0-19.29-28.68q-18.08-23.35-38.33-36.62a162.77,162.77,0,0,0-16.48-9.43M957.06,934q1.25,4,2,6.3c.5,1.46.86,2.44,1.07,2.95a15.29,15.29,0,0,0,3.92,6.11,9.07,9.07,0,0,0-.13,4.28,17.14,17.14,0,0,1,.59,3.31q-.3.1-.41,13.89-.17,14.1-.26,14.26a5.4,5.4,0,0,1-.72.7c-.33.29-.58.18-.73-.32,0-.08-.94-1.39-2.73-3.92-1.26-1.86-2.16-3.24-2.71-4.16-.22-.38-.38-.68-.48-.89-.53-1.15-1.33-3.4-2.41-6.73-.69-2.26-1.32-3.48-1.88-3.66-.41.85-.85,1.3-1.32,1.34A5.34,5.34,0,0,0,950,967a1.73,1.73,0,0,1-.89-1.05q-.21-.6-2-4.46c-1.21-2.55-1.88-4-2-4.46a128.33,128.33,0,0,1-3.2-12.84c-.06-.3-.13-.59-.2-.88q-.7-3.49-1.11-5.41a13.57,13.57,0,0,1,2.25.21,16.88,16.88,0,0,0,2.92.31q0-.48.09-1.89a19.16,19.16,0,0,0-.05-2.15l-1-3c-.67-2-1-3.16-1-3.42a31.65,31.65,0,0,1,.17-4.79c.12-1.19.25-2.59.41-4.23l.27,0a.36.36,0,0,0,.19-.41,17.93,17.93,0,0,1,2.32,1.69,3.43,3.43,0,0,1,1.2,2.27,3,3,0,0,0,.77,1.53,3.38,3.38,0,0,1,.74,1.53,2.07,2.07,0,0,0,.71,1.26,2,2,0,0,1,.71,1.26c0,.47.15.64.32.52s.22-.16.23-.06l-.11,0a3.81,3.81,0,0,0,.81,0l.52-.72a1.71,1.71,0,0,1,1.25-.82,2,2,0,0,0,.92-.25l.08.82c0,.23.08.36.19.37.57,2.58,1.09,4.64,1.58,6.18M826.14,978.65c.64.07,1,.23,1.11.48q.42,1.22,2.13,12.74.92,6.27,2.11,11.22a65.77,65.77,0,0,0,2.16,7.42c.15.4.88,1.93,2.21,4.6s2,4.19,2.2,4.59.33,1.07.53,1.83c.23,1,.4,1.64.51,2l-.57.1a14.32,14.32,0,0,0-1.49.46,24.73,24.73,0,0,0-3.13,1.55,20,20,0,0,1-3.25,1.61,3.74,3.74,0,0,1-4.89-2,9.59,9.59,0,0,1-.55-1.24,4.66,4.66,0,0,0-1.16-1.53,4.73,4.73,0,0,1-1.17-1.53q-.1-.3-4.31-6.51c-.62-.91-1.2-1.77-1.73-2.57a39.4,39.4,0,0,1-3.61-6.53,8.52,8.52,0,0,1,.24-2.8c0-.27.09-.51.13-.72.26-1,.52-1.09.78-.43.15.48.29.64.43.47a3,3,0,0,1,.52-.68c-.34-1.47-.68-2.89-1-4.24q-1.74-7.62-2.84-12.83c.18-1.16.38-2.43.6-3.82a4,4,0,0,1,1.78,1,9.12,9.12,0,0,1,1.75,1.55l.52,0q0-2.64.41-7.48.36-5.5.63-5.54a16.3,16.3,0,0,0,.27-2.53,9,9,0,0,1,1.71-4.47,5.24,5.24,0,0,1,2,1.92,5.56,5.56,0,0,1,.95,2.1,4.59,4.59,0,0,0,.76,1.8l.27.45c1,5.35,1.5,8.06,1.53,8.1a1.9,1.9,0,0,0,1.43,1.43m75.39,90.45a10,10,0,0,1,1.89,1.34,48.24,48.24,0,0,1,4.91,4.18,38.45,38.45,0,0,0,2.66,2.87,29.6,29.6,0,0,0,3.06,2.45q4.08,2.93,6.39,4.23a22.94,22.94,0,0,0,7.07,2.64c1.08.13,1.87.23,2.37.31a10.07,10.07,0,0,1,2.3.68,5.3,5.3,0,0,1,2,1.61,4.65,4.65,0,0,1,.94,2.34,4.34,4.34,0,0,1-.51,2.47,3.77,3.77,0,0,1-1.79,1.74,4.16,4.16,0,0,1-1.8.37,5.19,5.19,0,0,1-2.38,1.64,11.46,11.46,0,0,1-7.91-.09,28.73,28.73,0,0,1-7-3.94,42,42,0,0,1-7.73-7.12c-.23-.29-.77-1-1.61-2.11a25.14,25.14,0,0,0-1.69-2.1,18.43,18.43,0,0,1-1.29-1.6,4.16,4.16,0,0,1-.8-1.8,3,3,0,0,1,1.06-2.72l.33-.27a22.65,22.65,0,0,0-1.58-2.59,9.47,9.47,0,0,1-1.33-2,1.86,1.86,0,0,1,.3-2.22A2,2,0,0,1,901.53,1069.1Z" transform="translate(-615.26 -694.2)"/></g><g id="face_0_Layer0_0_FILL" data-name="face 0 Layer0 0 FILL"><path class="cls-1" d="M884.49,1061.52l-3-2.41q-3.87,2.06-5.42,16.68-1.47,13.14-.1,21.14a5.26,5.26,0,0,1-2.25-.57c-.81-.34-1.24-.58-1.28-.73a3.09,3.09,0,0,0-1.76-1.16c-.42-.09-.85-.17-1.27-.23a1.94,1.94,0,0,0-.46-.66q-.4-.12-.45-.27a10.06,10.06,0,0,0,.11,2.37,4.22,4.22,0,0,0,.3,1.46q.52,1-.68,8.79c-.81,5.3-1.52,8.1-2.11,8.42a6.53,6.53,0,0,0-1.52,2.53,6.44,6.44,0,0,1-1.59,2.51,13.27,13.27,0,0,0-1.78,1.42,17.51,17.51,0,0,1-1.79,1.39,51.55,51.55,0,0,1-4.92,2,52,52,0,0,0-4.9,1.92,2.55,2.55,0,0,1-1.18.31,2.76,2.76,0,0,0-1.27.28,2.23,2.23,0,0,1-1.26.28,2.61,2.61,0,0,0-1.35.25,2.27,2.27,0,0,1-1.18.31,2.49,2.49,0,0,0-1.26.28,2.63,2.63,0,0,1-1.34.32,2.51,2.51,0,0,0-1.34.29,9.13,9.13,0,0,1-3.18.74,12.65,12.65,0,0,0-2.42.39,2.88,2.88,0,0,1-1.31.28,2.3,2.3,0,0,0-1.3.28,9.69,9.69,0,0,1-4.7.73,13.59,13.59,0,0,0-3.44,0,15.59,15.59,0,0,1-2.24.3,14,14,0,0,0-2.43.35q-25.63,3.23-25.81,3.33a1.88,1.88,0,0,1-1.07.3,1.61,1.61,0,0,0-1,.21,2.55,2.55,0,0,1-1.33.33,2.26,2.26,0,0,0-1.31.28,16.69,16.69,0,0,1-5.49,1.43,16.66,16.66,0,0,0-4.29.93c-.5.25-.76.42-.78.5s0,.19.08.42a28.74,28.74,0,0,0,1.89,4.48,3.71,3.71,0,0,0,1.33,1.2,3.79,3.79,0,0,1,1.29,1.2c.82,1.54,2.77,2.76,5.83,3.66,2.9.63,4.38,1,4.43,1a1,1,0,0,0,.82.7,1.64,1.64,0,0,1,.72.25c-.39,0-.58.18-.57.52a32.46,32.46,0,0,0-6.32,2.26,12.17,12.17,0,0,1-2.3.81,11.57,11.57,0,0,0-2.39.82,10.57,10.57,0,0,1-3.28.82,12.88,12.88,0,0,0-2.47.36c-.6.32-3.9.77-9.92,1.35a1.79,1.79,0,0,1-.15.49.25.25,0,0,0-.11.12,7.38,7.38,0,0,1,.62,1.55,7.12,7.12,0,0,0,.52,1.32q.29.51,2.2,5c1.25,2.95,2,4.62,2.17,5s1.34,2.06,3.47,5.14,3.33,4.8,3.55,5.17q2.12,4,11.75,9.82,9.16,5,9.22,5.13c.25.44.35.73.28.87a.27.27,0,0,1-.26.1.32.32,0,0,0-.3.19,2.59,2.59,0,0,1-.8.62,28,28,0,0,1-5.15,1.29c-1.46.29-2.88.56-4.27.8-.82.42-1,.59-.57.53,0,0,0,.07,0,.07a141.93,141.93,0,0,0,17.9,11.92,135.17,135.17,0,0,0,24.8,11.28q17.18,5.58,24.7,9a59.25,59.25,0,0,1,8.33,4.48,32.31,32.31,0,0,1,3.63,2.7,9.79,9.79,0,0,1,2.39,2.07,4.26,4.26,0,0,0,.51.82q3.45,4.51,17.47,7.49,16,3.51,27.62.42,20.18-4.58,33.42-7.94,24.43-6.27,34.13-11.87,1.15-.71,13.62-6.88,5.78-3.33,16.95-10.8t25.24-15.59a68,68,0,0,0,7.95-5.62,63.89,63.89,0,0,1,7.65-5.36q.4-.27,1.68-1.26.36-.3.84-.63c1.4-1.17,2.29-1.91,2.68-2.21l1.47,1.07q4.72-7.35,14.8-27.76,7-14.37,14.45-30.43l-2.7-1.23a29.77,29.77,0,0,0-3.87,1.59,2.15,2.15,0,0,0-.36.31c-.49.31-1.32.94-2.48,1.88-1.55,1.2-2.5,1.9-2.85,2.12a10.13,10.13,0,0,1-1.73.67,8.81,8.81,0,0,0-1.4.49,1,1,0,0,0-.22.14.05.05,0,0,0,0-.08.58.58,0,0,1,.23-.06,5,5,0,0,1,1.25-.86.93.93,0,0,0,.47-.75c0-.28.09-.52.44-.71,0,0,.36-.61,1-1.66a5.2,5.2,0,0,1,1.31-1.85,3.12,3.12,0,0,0,.72-1.44c.18-.8.4-1.26.65-1.39q1.44-.81,5.84-20.48,4-18,4.27-21.74a13.07,13.07,0,0,1-2.4,2c-.37.19-1.16.51-2.37,1a17,17,0,0,0-2.36,1,7.58,7.58,0,0,1-3.92.73,7.37,7.37,0,0,0-4.18.84,4.28,4.28,0,0,1-1.46.3,2.41,2.41,0,0,0-1.34.32,1.67,1.67,0,0,1-1,.25,1.81,1.81,0,0,0-1,.29,18.3,18.3,0,0,1-4.12.76c-1.83.17-2.94.29-3.32.36a5.51,5.51,0,0,0,1.9-.93l.66-.46h0c.87-.66,1.36-1,1.46-1.08a9.85,9.85,0,0,0,1.42-1.94,8.78,8.78,0,0,1,1.33-2l.92-2.24c.63-1.54,1.11-2.4,1.43-2.56q1.83-1,3.66-8.65a58.36,58.36,0,0,0,1.61-8.06s0-.07,0-.07c0-.63,0-1.18.07-1.65-.63.68-1.1,1.21-1.41,1.58a5.94,5.94,0,0,1-1.4,1.27c-.37.19-1.15.52-2.33,1a17.3,17.3,0,0,0-2.37,1,1.7,1.7,0,0,1-.91.25,1.83,1.83,0,0,0-1,.25q-1.44.81-9.62.78-8.49,0-9.12-1.23a23.8,23.8,0,0,0-2.89-.39,16.31,16.31,0,0,1-2.86-.38c-.08-.07-2-.43-5.62-1.06s-5.54-.94-5.57-1c-.22-.37-1-.53-2.27-.48a11.49,11.49,0,0,0-2.1.2,7.92,7.92,0,0,0-1.06-.48,11.91,11.91,0,0,0-5.69-.63,30.78,30.78,0,0,0-5.71,1.26,142.24,142.24,0,0,0-15.61,6q-3.67,1.65-15.15,7.18-9.35,4.51-15.25,6.92a106.9,106.9,0,0,1-15.89,5.22,67.26,67.26,0,0,1-16.64,1.85,48.49,48.49,0,0,1-16.33-3,4.87,4.87,0,0,0-1.87-.32h0q-.45-.72-1-1.5a12.48,12.48,0,0,1-1.26-1.72,3,3,0,0,0-.71-.91,4.32,4.32,0,0,0-.75-.47,3.6,3.6,0,0,1,.2,1.62,2.78,2.78,0,0,0,.23,1.66,9.66,9.66,0,0,1,.56,5.31c-.39,3.53-.57,5.31-.54,5.33a.7.7,0,0,1-.49-.19,1.05,1.05,0,0,0-.62-.33,13.47,13.47,0,0,0-.69-3.49,17.32,17.32,0,0,0-1.21-3.21c-.13-.22-.37-.71-.73-1.46-.76-1.46-2-4-3.7-7.54a12.71,12.71,0,0,0-2.69-3.53,12.59,12.59,0,0,1-2.69-3.54c-.22-.34-.83-1.14-1.84-2.4a18.62,18.62,0,0,1-1.91-2.32,7.65,7.65,0,0,0-1.33-1.67,9.3,9.3,0,0,1-1.37-1.63c-.25-.39-.44-.59-.57-.61a.64.64,0,0,1-.41.2,15.74,15.74,0,0,0,.08,1.6c0,.75,0,1.16-.12,1.22a39.76,39.76,0,0,0-1.85,5.89c-1.29,4.25-2,6.65-2.24,7.22l-.44-.07,0-1.77a4.18,4.18,0,0,0-.42-1.52Q890.74,1074.69,884.49,1061.52Z" transform="translate(-615.26 -694.2)"/></g><g id="fur02_0_Layer0_0_FILL" data-name="fur02 0 Layer0 0 FILL"><path class="cls-1" d="M1081.34,1073.91v-1.72a11.18,11.18,0,0,1,.78-1.1,5.68,5.68,0,0,0,.74-1.11,14.94,14.94,0,0,1,1.29-4.55,16.36,16.36,0,0,0,1.22-4,10.07,10.07,0,0,0,0-1.52q-5.37,3.72-9.48,6.1a200.49,200.49,0,0,0-3.27,27.36q-1.47,27.06,5.11,48.88,3.93,12.75,9.17,20.26a39.25,39.25,0,0,0,4.16,4.77q8.79-12,8.82-12.94a1.15,1.15,0,0,1,.54-1,1.27,1.27,0,0,0,.5-1,10,10,0,0,1,1.51-3.26,22.69,22.69,0,0,0,1.46-2.72,5.42,5.42,0,0,1,1-2.26,5.75,5.75,0,0,0,1-2.23,1.17,1.17,0,0,1,.54-1,1.26,1.26,0,0,0,.5-1,6.89,6.89,0,0,1,1.24-3,6.9,6.9,0,0,0,1.23-3q0-.12,4.48-11.46t4.55-13.56c0-.42.27-1.8.77-4.14a40.87,40.87,0,0,0,.72-4.19q0-.61.76-6.21t.72-6.24a96.84,96.84,0,0,0-.23-10.41q-.75-11-.78-11.29-3.58,2.22-3.82,2.32a8.09,8.09,0,0,1-2.66.19c-.52,0-.85-.51-1-1.48a19.15,19.15,0,0,1,0-2.53s.42-1.73,1.26-5,1.27-5.29,1.29-5.73c0-.83,0-2.41,0-4.75l-.5,0q-14,13.71-15.59,15.09Q1087.63,1074.51,1081.34,1073.91Z" transform="translate(-615.26 -694.2)"/><path class="cls-6" d="M1081.35,1072.19v1.72q6.29.6,17.93-9.41,1.56-1.38,15.59-15.09l.5,0c.05,2.34.07,3.92,0,4.75q0,.66-1.29,5.73c-.84,3.29-1.26,5-1.26,5a19.15,19.15,0,0,0,0,2.53c.15,1,.48,1.46,1,1.48a8.09,8.09,0,0,0,2.66-.19q.24-.11,3.82-2.32,0,.27.78,11.29a96.84,96.84,0,0,1,.23,10.41q0,.66-.72,6.24t-.76,6.21a40.87,40.87,0,0,1-.72,4.19c-.5,2.34-.75,3.72-.77,4.14q-.08,2.25-4.55,13.56t-4.48,11.46a6.9,6.9,0,0,1-1.23,3,6.89,6.89,0,0,0-1.24,3,1.26,1.26,0,0,1-.5,1,1.17,1.17,0,0,0-.54,1,5.75,5.75,0,0,1-1,2.23,5.42,5.42,0,0,0-1,2.26,22.69,22.69,0,0,1-1.46,2.72,10,10,0,0,0-1.51,3.26,1.27,1.27,0,0,1-.5,1,1.15,1.15,0,0,0-.54,1q0,.95-8.82,12.94c.45.48.91.93,1.39,1.38a8.58,8.58,0,0,1,.7-1,32.5,32.5,0,0,1,5.29-5.39q2-1.65,6.11-4.47,5.7-4,9-5.93a54.78,54.78,0,0,1,9.59-4.78,60.13,60.13,0,0,1,8.46-2.51c2.1-.48,5-1,8.63-1.7q8.5-1.53,25.35-4.28a65.62,65.62,0,0,0-14.53-5.75,112,112,0,0,0-12-2.59l-.66,0a6,6,0,0,1-2.79-.52,1.17,1.17,0,0,0-.38-.17,4.67,4.67,0,0,1-2.76-1.3,2.93,2.93,0,0,1-.57-2.71,4.13,4.13,0,0,1,1.68-2.39c.21-.1.43-.2.67-.29a11.35,11.35,0,0,1,2.89-2.55,49.87,49.87,0,0,1,9.44-3.85q24.74-7.69,46.15-3.92a76.44,76.44,0,0,1,19,5.95,43.25,43.25,0,0,1,5.44,2.75,95.66,95.66,0,0,0-15.09-17.85,99.56,99.56,0,0,0-20-14.32,91.11,91.11,0,0,0-22.77-8.56,84.25,84.25,0,0,0-23.93-2.11c-1.14,0-1.9.06-2.26,0a8,8,0,0,1-2.21-.42,4.4,4.4,0,0,1-1.74-1.39,2.75,2.75,0,0,1-.67-2c.12-1.4,1.26-2.42,3.41-3,.33-.38.72-.8,1.18-1.25A63.14,63.14,0,0,1,1161.3,1054q4.13-1.1,10.94-2.16c4.75-.74,7.82-1.2,9.2-1.36a87.78,87.78,0,0,1,12.86-1,33.12,33.12,0,0,1,4.81.51,135.43,135.43,0,0,0-33.41-18.75,122.56,122.56,0,0,0-46-8.77c-3.85.13-6.73.21-8.66.25a62.29,62.29,0,0,1-8.71-.42,6.7,6.7,0,0,1-3.8-1.61q-16.43,14.16-22.62,45.32,4.11-2.37,9.48-6.1a10.07,10.07,0,0,1,0,1.52,16.36,16.36,0,0,1-1.22,4,14.94,14.94,0,0,0-1.29,4.55,5.68,5.68,0,0,1-.74,1.11A11.18,11.18,0,0,0,1081.35,1072.19Z" transform="translate(-615.26 -694.2)"/><path d="M1101,1014.92c-.3.15-.57.31-.84.48q-2.77,1.67-2.43,3.78a2.76,2.76,0,0,0,.81,1.54,6.7,6.7,0,0,0,3.8,1.61,62.29,62.29,0,0,0,8.71.42c1.93,0,4.81-.12,8.66-.25a122.56,122.56,0,0,1,46,8.77,135.43,135.43,0,0,1,33.41,18.75,33.12,33.12,0,0,0-4.81-.51,87.78,87.78,0,0,0-12.86,1c-1.38.16-4.45.62-9.2,1.36q-6.81,1.07-10.94,2.16a63.14,63.14,0,0,0-28.18,16.38c-.46.45-.85.87-1.18,1.25-2.15.62-3.29,1.64-3.41,3a2.75,2.75,0,0,0,.67,2,4.4,4.4,0,0,0,1.74,1.39,8,8,0,0,0,2.21.42c.36,0,1.12,0,2.26,0a84.25,84.25,0,0,1,23.93,2.11,91.11,91.11,0,0,1,22.77,8.56,99.56,99.56,0,0,1,20,14.32,95.66,95.66,0,0,1,15.09,17.85,43.25,43.25,0,0,0-5.44-2.75,76.44,76.44,0,0,0-19-5.95q-21.42-3.76-46.15,3.92a49.87,49.87,0,0,0-9.44,3.85,11.35,11.35,0,0,0-2.89,2.55c-.24.09-.46.19-.67.29a4.13,4.13,0,0,0-1.68,2.39,2.93,2.93,0,0,0,.57,2.71,4.67,4.67,0,0,0,2.76,1.3,1.17,1.17,0,0,1,.38.17,6,6,0,0,0,2.79.52l.66,0a112,112,0,0,1,12,2.59,65.62,65.62,0,0,1,14.53,5.75q-16.85,2.74-25.35,4.28c-3.66.66-6.53,1.22-8.63,1.7a60.13,60.13,0,0,0-8.46,2.51,54.78,54.78,0,0,0-9.59,4.78q-3.27,2-9,5.93-4.07,2.82-6.11,4.47a32.5,32.5,0,0,0-5.29,5.39,9,9,0,0,0-1.8,3.71,4.78,4.78,0,0,0,.28,3c.18.24.35.5.52.76a4,4,0,0,0,2.11,1,4.6,4.6,0,0,0,2.3-.12,12.21,12.21,0,0,0,3.94-2.44q7.46-6.09,11.13-8.77a73.38,73.38,0,0,1,12.13-7.19,127.46,127.46,0,0,1,12.86-4.7q12.69-4,19.67-5.49a67.6,67.6,0,0,1,20.27-1.41c3.26.29,5.12-.38,5.56-2,.23-1.24-.43-2.59-2-4a55.2,55.2,0,0,0-19-12.22,64.5,64.5,0,0,0-8.63-2.79,87.37,87.37,0,0,1,57,.93q11.17,4,17.94,10a5.14,5.14,0,0,0,2.09,1.4.85.85,0,0,0,.47.05,14.07,14.07,0,0,1,.34-2.13,20.2,20.2,0,0,0,.52-4.89,17.62,17.62,0,0,0-.91-3,37.31,37.31,0,0,0-3.11-5.95,115.83,115.83,0,0,0-15.1-19.88,112.56,112.56,0,0,0-19.13-16,102,102,0,0,0-22.2-10.65,87.31,87.31,0,0,0-22.72-4.36q3.35-2.19,5-3.06a54.46,54.46,0,0,1,11.42-4.68q4.26-1.33,12.08-3.29a92.47,92.47,0,0,1,11.18-2.27,53.36,53.36,0,0,1,9-.43c.39,0,3.44.15,9.15.35a5.91,5.91,0,0,0,2.15-.32,1.89,1.89,0,0,0,1.67.25,1.41,1.41,0,0,0,.81-.86,2.82,2.82,0,0,0,.16-1.36,3.09,3.09,0,0,0-.39-1.11,6.78,6.78,0,0,0-1-1.35,94.46,94.46,0,0,0-19.77-18.87,105.46,105.46,0,0,0-24-12.9q-24-9.2-52.63-8.1a31.63,31.63,0,0,0-6.53.67A17.68,17.68,0,0,0,1101,1014.92Z" transform="translate(-615.26 -694.2)"/></g><g id="fur03_0_Layer0_0_FILL" data-name="fur03 0 Layer0 0 FILL"><path class="cls-7" d="M819.57,1249.33a55.19,55.19,0,0,1,7.77-.08q-2.24-.51-4.68-1-19.95-3.84-26.14-.54a20.45,20.45,0,0,0-3,1.87l0-2a2.2,2.2,0,0,0,.59-1.28,2.59,2.59,0,0,1,1.48-1.54,5.21,5.21,0,0,0,1.52-1.29q-3.84,2.73-6.82,5.26a63,63,0,0,0-9.78,10.29q15.3-4.41,23-6.47c3.36-.88,6-1.53,8-2a51.48,51.48,0,0,1,8.13-1.29m-63.18-29a2.88,2.88,0,0,0,1.48-1.93,3,3,0,0,1,1.49-1.94c.75-.4,1.1-.89,1-1.47s.26-1.07,1-1.46a3.12,3.12,0,0,0,1.55-2,3.19,3.19,0,0,1,1.52-2,3.15,3.15,0,0,0,1.55-2,5.87,5.87,0,0,1,.3-.77c-1.5,1-3,2.12-4.45,3.25a82.47,82.47,0,0,0-15.64,15.7,85,85,0,0,0-16.2,39.47q1.56-2.2,3.39-4.32A72.41,72.41,0,0,1,747,1248.79q16.41-11.34,40.33-14.82l1-.15q-3.65-1.38-16.58-.48-8.58.62-20.56,1.65a35.29,35.29,0,0,1,.41-3.79c.23-1.27.44-2,.62-2,.76-.41.93-.89.5-1.46s-.24-1.11.49-1.5,1.13-1.29,1.61-2.93,1-2.6,1.58-2.92m-18-36-1.24-2.34c-.11-.53.33-1.06,1.31-1.58.76-.41,1.1-.9,1-1.47s.26-1.07,1-1.46,1.07-.88,1-1.43.22-1,1-1.44a5.5,5.5,0,0,0,2-2,5.51,5.51,0,0,1,2-2c.76-.4,1.11-.87,1.07-1.4s.27-1,1-1.42a6,6,0,0,0,2.06-1.94,6,6,0,0,1,2-2q.18-.09,7-6.78t7.07-6.86a3.21,3.21,0,0,0,.46-.29,115.92,115.92,0,0,0-31,23,120.94,120.94,0,0,0-20.3,28.07,25.16,25.16,0,0,1,3.81-2.3,80.74,80.74,0,0,1,11.23-4.17q1.86-.58,8.25-2.5a99.1,99.1,0,0,1,10.07-2.54c1.75-.32,3.49-.55,5.23-.71l-3.93-.33q-.25-.48-5.64-1.32C741.24,1186.63,739.08,1185.7,738.37,1184.37Z" transform="translate(-615.26 -694.2)"/><path class="cls-1" d="M791.56,1139.36a3.91,3.91,0,0,0-.53.67,2.82,2.82,0,0,1-1,1,1.53,1.53,0,0,0-.75,1,1.57,1.57,0,0,1-.76,1,6.94,6.94,0,0,0-1.49,1.28,7,7,0,0,1-1.5,1.24,7.6,7.6,0,0,0-1.5,1.24,7.55,7.55,0,0,1-1.55,1.22c-1,.52-1.27,1.84-.93,4a14.09,14.09,0,0,0,1.45,4.53q.21.4,2.82,3.57c1.72,2.11,2.62,3.26,2.72,3.44.25.46.33.79.25,1a1.44,1.44,0,0,0-.24.53l-2,1c-3,.35-5.33.6-7,.73a47.34,47.34,0,0,1-7.54.18,1,1,0,0,1-.11.55l-.12.1a34.85,34.85,0,0,0,1.75,4.94q.09.17,8.23,12.47a20.83,20.83,0,0,0,1.63,2.22,18.26,18.26,0,0,1,1.62,2.22,9.63,9.63,0,0,0,1.51,1.76,9.3,9.3,0,0,1,1.53,1.79q2.69,5.05,15.47,16.29a203.57,203.57,0,0,0,19,15.13.42.42,0,0,0-.44.24.5.5,0,0,0-.08.26,22.91,22.91,0,0,1-6.71,2.07,26.41,26.41,0,0,1-7.29.49q7.45,6.29,32,19.67,6.21,3.39,12,6.49c.42.17.83.35,1.21.54a9.28,9.28,0,0,1,1,.53,32.41,32.41,0,0,0,2.1-7.07q1.39-8.07-.58-19.9-3.42-20-15.81-41.17Q817.09,1147.78,791.56,1139.36Z" transform="translate(-615.26 -694.2)"/><path class="cls-6" d="M737.13,1182l1.24,2.34c.71,1.33,2.87,2.26,6.49,2.81s5.47,1,5.64,1.32l3.93.33a62.75,62.75,0,0,1,25.21,2.85c.54.18,1,.37,1.49.57q3-.51,4,1.06a2.66,2.66,0,0,1,.33,2,4.14,4.14,0,0,1-.94,1.78,7,7,0,0,1-1.7,1.21c-.27.15-.89.42-1.86.82a80.51,80.51,0,0,0-14.72,7.8,5.87,5.87,0,0,0-.3.77,3.15,3.15,0,0,1-1.55,2,3.19,3.19,0,0,0-1.52,2,3.12,3.12,0,0,1-1.55,2c-.73.39-1.06.88-1,1.46s-.27,1.07-1,1.47a3,3,0,0,0-1.49,1.94,2.88,2.88,0,0,1-1.48,1.93c-.59.32-1.12,1.29-1.58,2.92s-1,2.62-1.61,2.93-.9.89-.49,1.5.26,1-.5,1.46c-.18.09-.39.78-.62,2a35.29,35.29,0,0,0-.41,3.79q12-1,20.56-1.65,12.94-.9,16.58.48a41.32,41.32,0,0,1,8.49-.46,11.59,11.59,0,0,1,3.49.92,4.82,4.82,0,0,1,.65,0,4,4,0,0,1,2.43,1.26,2.41,2.41,0,0,1,.62,2.41,4.44,4.44,0,0,1-1.77,2.13.75.75,0,0,0-.26.27,5.3,5.3,0,0,1-2.12,1.49,2.89,2.89,0,0,1-.58.22l-2.21,1.49a5.21,5.21,0,0,1-1.52,1.29,2.59,2.59,0,0,0-1.48,1.54,2.2,2.2,0,0,1-.59,1.28l0,2a20.45,20.45,0,0,1,3-1.87q6.18-3.3,26.14.54,2.45.48,4.68,1l2.25.17q3.51.3,9.93,1.24c3.07.46,5.4.86,7,1.22a32.69,32.69,0,0,1,5.43,1.74q-5.82-3.09-12-6.49-24.51-13.38-32-19.67a26.41,26.41,0,0,0,7.29-.49,22.91,22.91,0,0,0,6.71-2.07.5.5,0,0,1,.08-.26.42.42,0,0,1,.44-.24,203.57,203.57,0,0,1-19-15.13Q790.74,1198,788.05,1193a9.3,9.3,0,0,0-1.53-1.79,9.63,9.63,0,0,1-1.51-1.76,18.26,18.26,0,0,0-1.62-2.22,20.83,20.83,0,0,1-1.63-2.22q-8.13-12.3-8.23-12.47a34.85,34.85,0,0,1-1.75-4.94l.12-.1a1,1,0,0,0,.11-.55,47.34,47.34,0,0,0,7.54-.18c1.69-.13,4-.38,7-.73l2-1a1.44,1.44,0,0,1,.24-.53c.08-.18,0-.51-.25-1-.1-.18-1-1.33-2.72-3.44s-2.68-3.3-2.82-3.57a14.09,14.09,0,0,1-1.45-4.53c-.34-2.14,0-3.46.93-4a7.55,7.55,0,0,0,1.55-1.22,7.6,7.6,0,0,1,1.5-1.24,7,7,0,0,0,1.5-1.24,6.94,6.94,0,0,1,1.49-1.28,1.57,1.57,0,0,0,.76-1,1.53,1.53,0,0,1,.75-1,2.82,2.82,0,0,0,1-1,3.91,3.91,0,0,1,.53-.67c-1.11-.38-2.23-.71-3.36-1a5.72,5.72,0,0,1-2.47,2.73,68.67,68.67,0,0,1-7.15,3.72q-2.46,1.1-7.39,3.19-2.06.95-4.08,2a3.21,3.21,0,0,1-.46.29q-.24.13-7.07,6.86t-7,6.78a6,6,0,0,0-2,2,6,6,0,0,1-2.06,1.94c-.73.39-1.06.86-1,1.42s-.31,1-1.07,1.4a5.51,5.51,0,0,0-2,2,5.5,5.5,0,0,1-2,2c-.73.39-1,.87-1,1.44s-.2,1-1,1.43-1.06.88-1,1.46-.27,1.06-1,1.47C737.46,1181,737,1181.5,737.13,1182Z" transform="translate(-615.26 -694.2)"/><path d="M708.45,1206.88a5.33,5.33,0,0,0-.07,2.43,2,2,0,0,0,.65,1.06,1.29,1.29,0,0,0,1,.37,1.79,1.79,0,0,0,1.32-.83,5.08,5.08,0,0,0,1.93-.59l7.5-3.82a60,60,0,0,1,7.76-3.16,85,85,0,0,1,10.33-2.55q7.43-1.49,11.48-2.06a58.55,58.55,0,0,1,11.53-.71c1.17,0,3,.21,5.43.5a82.26,82.26,0,0,0-17.26,12.33,90.17,90.17,0,0,0-14.25,17.21,97.49,97.49,0,0,0-9.5,20.28,100.4,100.4,0,0,0-4.52,21.82,34.24,34.24,0,0,0-.16,6,17.27,17.27,0,0,0,.48,2.79,19,19,0,0,0,2.44,3.68,11.46,11.46,0,0,1,1.18,1.63,2.65,2.65,0,0,0,.39-.26,4,4,0,0,0,1.19-1.91q3.2-7.44,10.93-15a83.43,83.43,0,0,1,47.45-23,70.19,70.19,0,0,0-6,5.56,49.26,49.26,0,0,0-10.93,17.25c-.69,1.78-.68,3.11.06,4,1,1.15,2.84,1,5.43-.56a69.57,69.57,0,0,1,17.63-6.75q6.48-1.5,18.76-3.29a114.45,114.45,0,0,1,12.69-1.2,68.52,68.52,0,0,1,13.16,1q4.21.7,12.94,2.68a14.15,14.15,0,0,0,4.18.47l.12,0a4.5,4.5,0,0,0,2-.81,3.21,3.21,0,0,0,1.32-1.67,3.39,3.39,0,0,0-.82-3.35,7.46,7.46,0,0,0-1.5-1.32,4.87,4.87,0,0,0-.57-.41,9.28,9.28,0,0,0-1-.53c-.38-.19-.79-.37-1.21-.54a32.69,32.69,0,0,0-5.43-1.74c-1.6-.36-3.93-.76-7-1.22q-6.42-.95-9.93-1.24l-2.25-.17a55.19,55.19,0,0,0-7.77.08,51.48,51.48,0,0,0-8.13,1.29c-2,.44-4.64,1.09-8,2q-7.68,2.07-23,6.47a63,63,0,0,1,9.78-10.29q3-2.54,6.82-5.26l2.21-1.49a2.89,2.89,0,0,0,.58-.22,5.3,5.3,0,0,0,2.12-1.49.75.75,0,0,1,.26-.27,4.44,4.44,0,0,0,1.77-2.13,2.41,2.41,0,0,0-.62-2.41,4,4,0,0,0-2.43-1.26,4.82,4.82,0,0,0-.65,0,11.59,11.59,0,0,0-3.49-.92,41.32,41.32,0,0,0-8.49.46l-1,.15q-23.91,3.48-40.33,14.82A72.41,72.41,0,0,0,733.39,1261q-1.83,2.12-3.39,4.32a85,85,0,0,1,16.2-39.47,82.47,82.47,0,0,1,15.64-15.7c1.46-1.13,2.95-2.22,4.45-3.25a80.51,80.51,0,0,1,14.72-7.8c1-.4,1.59-.67,1.86-.82a7,7,0,0,0,1.7-1.21,4.14,4.14,0,0,0,.94-1.78,2.66,2.66,0,0,0-.33-2q-1-1.57-4-1.06c-.46-.2-1-.39-1.49-.57a62.75,62.75,0,0,0-25.21-2.85c-1.74.16-3.48.39-5.23.71a99.1,99.1,0,0,0-10.07,2.54q-6.39,1.92-8.25,2.5a80.74,80.74,0,0,0-11.23,4.17,25.16,25.16,0,0,0-3.81,2.3,120.94,120.94,0,0,1,20.3-28.07,115.92,115.92,0,0,1,31-23q2-1,4.08-2,4.93-2.1,7.39-3.19a68.67,68.67,0,0,0,7.15-3.72,5.72,5.72,0,0,0,2.47-2.73,2.37,2.37,0,0,0,0-1.57c-.37-1.24-1.54-1.94-3.5-2.1a17.48,17.48,0,0,0-6,.57,37.77,37.77,0,0,0-5.75,2q-24.52,10.29-40.87,27A96.49,96.49,0,0,0,717.3,1184,82.66,82.66,0,0,0,708.45,1206.88Z" transform="translate(-615.26 -694.2)"/></g><g id="fur04_0_Layer0_0_FILL" data-name="fur04 0 Layer0 0 FILL"><path class="cls-6" d="M816,846.71a9.84,9.84,0,0,0-3.06.5,9.13,9.13,0,0,1-2.94.5,8.72,8.72,0,0,0-3,.47,8.17,8.17,0,0,1-2.51.5,8.87,8.87,0,0,0-2.55.52c-.76.29-2.73.8-5.93,1.53l-.35,0h0l-1.82.91c-1,.54-2,1.1-2.94,1.67a147.61,147.61,0,0,1,17,1.62,49.24,49.24,0,0,1,13.28,4.08l.27-.06a13.76,13.76,0,0,1,3.34,2.85l1.71,2.06V864a2,2,0,0,1-.59,1.39,3.15,3.15,0,0,1-2.93.5,16.07,16.07,0,0,1-1.73-.46c-1.67.75-3.58,1.59-5.7,2.52a57.84,57.84,0,0,0-10.88,6.22,60,60,0,0,0-6.84,6.29Q781.45,897.69,777.44,915a75.25,75.25,0,0,1,12.24-14.2,74.16,74.16,0,0,1,15.46-10.69q3.68-2,5.55-.42a2.68,2.68,0,0,1,.49.52c-.29.46-.62,1-1,1.5l-1.87,3.05a47,47,0,0,0-3.38,6.09,48.53,48.53,0,0,0-1.68,5.74,47.29,47.29,0,0,0-1.47,8.23,12,12,0,0,0,.11,2.46,17.41,17.41,0,0,0,.6,3.4c.13.45.3,1.05.52,1.8a19.22,19.22,0,0,0,4.6.24,25.7,25.7,0,0,0,7.58-1.11c2-.3,4.2-.67,6.54-1.09a87.74,87.74,0,0,0,15.08-4.41c1.42-.54,2.88-1.15,4.39-1.81q5.76-2.43,12.46-5.9l3.07-.6a116.48,116.48,0,0,0,19-5.21,217.23,217.23,0,0,0,26.87-13q7.83-4.38,13.44-7.91a13.64,13.64,0,0,0,3.57-2.33,13.94,13.94,0,0,1,2.86-2.1,16.08,16.08,0,0,0,5.53-4.08l5.21-7c-3.76-1.68-5.68-2.62-5.76-2.84a1.38,1.38,0,0,0-1.49-1.05,1.42,1.42,0,0,1-1.53-1,1.3,1.3,0,0,0-1.47-1,1.3,1.3,0,0,1-1.5-1,17.36,17.36,0,0,0-3-2,14.65,14.65,0,0,1-3-2,1.33,1.33,0,0,0-1.48-1,1.29,1.29,0,0,1-1.5-1q-.66-1.75-8.84-4.58-8.06-2.41-8.09-2.48c-.27-.71-2.91-1-7.93-.8q-7.17.26-9,.93c-.94.36-1.4.68-1.38.95a1.74,1.74,0,0,1,.3,1,37.29,37.29,0,0,1,3.59,4.79q2.61,3.76,3.35,5.14a73.71,73.71,0,0,0-17.91-8.31c-3.46-1.12-6.44-2-9-2.57q-.22-.58-18.95-1.12t-19.8-.08A10.48,10.48,0,0,1,816,846.71Z" transform="translate(-615.26 -694.2)"/><path class="cls-5" d="M812.93,847.21a9.84,9.84,0,0,1,3.06-.5,10.48,10.48,0,0,0,3-.55q1.17-.43,19.8.08t18.95,1.12c2.51.6,5.49,1.45,9,2.57a73.71,73.71,0,0,1,17.91,8.31q-.74-1.38-3.35-5.14a37.29,37.29,0,0,0-3.59-4.79,1.74,1.74,0,0,0-.3-1c0-.27.44-.59,1.38-.95q1.79-.68,9-.93c5-.17,7.66.09,7.93.8q0,.06,8.09,2.48,8.18,2.84,8.84,4.58a1.29,1.29,0,0,0,1.5,1,1.33,1.33,0,0,1,1.48,1,14.65,14.65,0,0,0,3,2,17.36,17.36,0,0,1,3,2,1.3,1.3,0,0,0,1.5,1,1.3,1.3,0,0,1,1.47,1,1.42,1.42,0,0,0,1.53,1,1.38,1.38,0,0,1,1.49,1.05c.08.22,2,1.16,5.76,2.84l1.87-2.51q-8.48-4.71-16.65-10-8.43-5.54-16.9-11-7.55-4.86-15.51-9a79.81,79.81,0,0,0-9.88-4.43,37.68,37.68,0,0,1,7.63,10.09,3.31,3.31,0,0,1,.36,1.82v.84a1.76,1.76,0,0,1,.46,2.07.52.52,0,0,1-.07.15,25.87,25.87,0,0,1-4.8-.57l-9.92-2c-.5-.08-1.68-.23-3.54-.43l-3-.32a18,18,0,0,0-2.81-.14l-.51.07a90.71,90.71,0,0,0-12.86-1.45,60.78,60.78,0,0,0-12.63.68,252.82,252.82,0,0,0-24.94,5.85,88.21,88.21,0,0,0-13.89,5l.35,0c3.2-.73,5.17-1.24,5.93-1.53a8.87,8.87,0,0,1,2.55-.52,8.17,8.17,0,0,0,2.51-.5,8.72,8.72,0,0,1,3-.47A9.13,9.13,0,0,0,812.93,847.21Z" transform="translate(-615.26 -694.2)"/><path d="M780.44,851.33a9.11,9.11,0,0,0-2.93,3.46,4.1,4.1,0,0,0-.26,2.27,6.35,6.35,0,0,0,.21.76l.52,0c4.3.32,6.72.48,7.27.46,2.93,0,4.57-.05,4.9,0a8,8,0,0,1,2.62.62,69.49,69.49,0,0,1,15.86,2.21,27.71,27.71,0,0,0-4.61,2.65,73.14,73.14,0,0,0-9,7.87c-2.69,2.67-4.7,4.71-6,6.1a77.28,77.28,0,0,0-5.51,6.49,57.25,57.25,0,0,0-9.15,18.23,58.26,58.26,0,0,0-2.44,20.29,13.09,13.09,0,0,0,1.31,5.46,17.73,17.73,0,0,0,.45,2.16,3,3,0,0,0,1.17-.2,3.7,3.7,0,0,0,1.83-1.53,15.8,15.8,0,0,0,1.16-2.2,55.32,55.32,0,0,1,9-13.68,103.77,103.77,0,0,1,12-11.35,30.51,30.51,0,0,0-1.57,24.83c.77,2,1.78,3.08,3.06,3.29a2.53,2.53,0,0,0,2.32-1,3.92,3.92,0,0,0,1-2.52,8.68,8.68,0,0,0-.36-2.69c-.1-.31-.19-.59-.29-.86-.22-.75-.39-1.35-.52-1.8a17.41,17.41,0,0,1-.6-3.4,12,12,0,0,1-.11-2.46,47.29,47.29,0,0,1,1.47-8.23,48.53,48.53,0,0,1,1.68-5.74,47,47,0,0,1,3.38-6.09l1.87-3.05c.35-.54.68-1,1-1.5a2.68,2.68,0,0,0-.49-.52q-1.87-1.53-5.55.42a74.16,74.16,0,0,0-15.46,10.69A75.25,75.25,0,0,0,777.44,915q4-17.26,20.36-34.46a60,60,0,0,1,6.84-6.29A57.84,57.84,0,0,1,815.52,868c2.12-.93,4-1.77,5.7-2.52a16.07,16.07,0,0,0,1.73.46,3.15,3.15,0,0,0,2.93-.5,2,2,0,0,0,.59-1.39v-.12l-1.71-2.06a13.76,13.76,0,0,0-3.34-2.85l-.27.06A49.24,49.24,0,0,0,807.87,855a147.61,147.61,0,0,0-17-1.62c.93-.57,1.92-1.13,2.94-1.67l1.82-.91h0a88.21,88.21,0,0,1,13.89-5,252.82,252.82,0,0,1,24.94-5.85,60.78,60.78,0,0,1,12.63-.68A90.71,90.71,0,0,1,860,840.7l.51-.07a18,18,0,0,1,2.81.14l3,.32c1.86.2,3,.35,3.54.43l9.92,2a25.87,25.87,0,0,0,4.8.57.52.52,0,0,0,.07-.15,1.76,1.76,0,0,0-.46-2.07v-.84a3.31,3.31,0,0,0-.36-1.82,37.68,37.68,0,0,0-7.63-10.09,79.81,79.81,0,0,1,9.88,4.43q8,4.15,15.51,9,8.48,5.46,16.9,11,8.17,5.32,16.65,10a1.2,1.2,0,0,0,1.12,0c.31-.21.43-.64.34-1.3a5,5,0,0,0-.22-1,8.52,8.52,0,0,0-2.1-3.53,25.59,25.59,0,0,0-4.16-3.45l-16.36-11.45q-11.26-7.95-17.5-11.68a99.19,99.19,0,0,0-18.81-9.05c-2.46-.84-5.31-1.66-8.54-2.48q-2.35-.56-8.68-2a10.39,10.39,0,0,0-3.41-.28,3.91,3.91,0,0,0-1.57.69l-.38.31q1.93,1.63,4.23,3.63a13.34,13.34,0,0,1,2.89,3.19.52.52,0,0,1,.07.18,36.11,36.11,0,0,1,6.84,4.55,70.61,70.61,0,0,1,7.72,7.76c-1.09-.39-2.28-.77-3.56-1.14q-22.23-6.43-39.36-4.21a144.88,144.88,0,0,0-16,3.42q-13,3.3-19.64,5.78A62.41,62.41,0,0,0,780.44,851.33Z" transform="translate(-615.26 -694.2)"/></g><g id="eyebrow_R_0_Layer0_0_FILL" data-name="eyebrow R 0 Layer0 0 FILL"><path d="M819.08,949.86a59.16,59.16,0,0,0-14,4.57q-1.11.5-2.13,1.05A66.46,66.46,0,0,0,787.61,967a97,97,0,0,0-15.33,20q-3.91,6.72-2.84,10.82a4.18,4.18,0,0,0,.38,1,4.35,4.35,0,0,0,2.7,2.17,4.65,4.65,0,0,0,3.84-.5,3.45,3.45,0,0,1,.58-.4,12,12,0,0,0,2.33-2.74c.34-.59.92-1.71,1.74-3.35a85.49,85.49,0,0,1,9.53-14.83,60.37,60.37,0,0,1,11.2-10.78,45.82,45.82,0,0,1,12.41-6.61,39.44,39.44,0,0,1,13.25-2.29c1.26,0,2.13,0,2.61-.07a8.72,8.72,0,0,0,2.8-1,6.77,6.77,0,0,0,2.31-3,3.13,3.13,0,0,0-.77-3.43l-.61-.65a9.54,9.54,0,0,0-5.86-2.3A27.6,27.6,0,0,0,819.08,949.86Z" transform="translate(-615.26 -694.2)"/></g><g id="eyebrow_L_0_Layer0_0_FILL" data-name="eyebrow L 0 Layer0 0 FILL"><path d="M988.3,919a25.55,25.55,0,0,0-5.68-5.43A82.93,82.93,0,0,0,953.34,900,81.69,81.69,0,0,0,921,898.56a123,123,0,0,0-18.63,4.77,82.76,82.76,0,0,0-12.63,5.27,17.28,17.28,0,0,0-4.8,3.65,6.57,6.57,0,0,0-1.84,5.21,5.6,5.6,0,0,0,2,3.54,6.36,6.36,0,0,0,3.81,1.55,8.89,8.89,0,0,0,3.57-.81,32.67,32.67,0,0,0,3.38-1.75,75.16,75.16,0,0,1,34.36-9.47,74.35,74.35,0,0,1,34.9,6.85q7.44,3.36,11.22,7.6c2.32,2.61,3.52,3.94,3.59,4a6.58,6.58,0,0,0,4.42,2.1,5.12,5.12,0,0,0,3.54-1.3,6.67,6.67,0,0,0,2-3.33A9,9,0,0,0,988.3,919Z" transform="translate(-615.26 -694.2)"/></g><g id="eyes_0_Layer2_0_FILL" data-name="eyes 0 Layer2 0 FILL"><path class="cls-1" d="M757.49,1067.27a4.07,4.07,0,0,1,0,.5,58.59,58.59,0,0,0,18.23,41.76l0,0a57.6,57.6,0,0,0,42.48,17,56.75,56.75,0,0,0,41.7-18,58.14,58.14,0,0,0,16.79-42.57l0,0A59,59,0,0,0,868,1035.6a62.93,62.93,0,0,0-9.61-11.91q-17.74-17.36-42.4-17t-41.86,18.05q-17.07,17.7-16.66,42.57m139.14-48a65,65,0,0,0,.59,7.85q2.79,20.61,18.65,35.64,18.79,17.79,44.91,17.3t44.29-18.87q18.1-18.48,17.67-44.16a60,60,0,0,0-5.59-24.85,61.87,61.87,0,0,0-13.62-18.53q-18.81-17.82-44.93-17.37T914.33,975.2Q896.18,993.65,896.63,1019.25Z" transform="translate(-615.26 -694.2)"/></g><g id="pupil_0_Layer0_0_FILL" data-name="pupil 0 Layer0 0 FILL"><path d="M958.64,981.81c-1,0-2.09.1-3.14.21a39.38,39.38,0,0,0-24.76,11.68,37.85,37.85,0,0,0-11,27.88,37.1,37.1,0,0,0,9.47,24.55,3.35,3.35,0,0,1,.3.48l2.32,2.29a51.13,51.13,0,0,0,6,4.91,39.34,39.34,0,0,0,22.15,6,38.55,38.55,0,0,0,27.8-11.94,38.22,38.22,0,0,0-1-55.2,38,38,0,0,0-17.92-9.93,38.51,38.51,0,0,0-10.16-1m-13.47,19.82a5,5,0,0,1,1.37,3.22q0,2.74-2.41,6.56-2.93,4.37-5.72,7.76a5.6,5.6,0,0,1-2.25,1.74,2.44,2.44,0,0,1-2.36,0,4.84,4.84,0,0,1-1.91-1.6,10.56,10.56,0,0,1-1.25-4.63,11.54,11.54,0,0,1,.64-5.69,18.37,18.37,0,0,1,3.23-4,33.44,33.44,0,0,1,4.41-3.86,8.65,8.65,0,0,1,3.18-.91A4.19,4.19,0,0,1,945.17,1001.63Z" transform="translate(-615.26 -694.2)"/></g><g id="pupil02_0_Layer0_0_FILL" data-name="pupil02 0 Layer0 0 FILL"><path d="M862.31,1037.31a37.18,37.18,0,0,0-17.94-9.81c-.43-.1-.85-.18-1.27-.24a40.88,40.88,0,0,0-8.93-.87,18,18,0,0,0-3.09.29,38.51,38.51,0,0,0-24.7,11.55,37.72,37.72,0,0,0-11,27.82,36.83,36.83,0,0,0,9.42,24.45,4.3,4.3,0,0,0,.42.56c.67.73,1.4,1.47,2.18,2.21a38.77,38.77,0,0,0,24.87,10.91c1.1,0,2.19,0,3.27,0a38.25,38.25,0,0,0,27.79-11.84,38.37,38.37,0,0,0-1-55m-44.56,7.62a3.93,3.93,0,0,1,3,1.28,4.91,4.91,0,0,1,1.33,3.14q0,2.75-2.42,6.54a67.72,67.72,0,0,1-5.67,7.81,5.42,5.42,0,0,1-2.16,1.74,2.68,2.68,0,0,1-2.33,0,5.1,5.1,0,0,1-2-1.58,10.9,10.9,0,0,1-1.24-4.62,11.26,11.26,0,0,1,.66-5.78,16.07,16.07,0,0,1,3.2-3.84,24.35,24.35,0,0,1,4.4-3.84A7.43,7.43,0,0,1,817.75,1044.93Z" transform="translate(-615.26 -694.2)"/><path class="cls-1" d="M820.79,1046.21a3.93,3.93,0,0,0-3-1.28,7.43,7.43,0,0,0-3.19.83,24.35,24.35,0,0,0-4.4,3.84,16.07,16.07,0,0,0-3.2,3.84,11.26,11.26,0,0,0-.66,5.78,10.9,10.9,0,0,0,1.24,4.62,5.1,5.1,0,0,0,2,1.58,2.68,2.68,0,0,0,2.33,0,5.42,5.42,0,0,0,2.16-1.74,67.72,67.72,0,0,0,5.67-7.81q2.43-3.8,2.42-6.54A4.91,4.91,0,0,0,820.79,1046.21Z" transform="translate(-615.26 -694.2)"/></g><g id="eyes_0_Layer0_0_FILL" data-name="eyes 0 Layer0 0 FILL"><path d="M862.79,1019.48q-19.63-19.15-46.84-18.81t-46.18,19.9q-18.84,19.45-18.38,46.79t20,46.39c.6.58,1.19,1.15,1.79,1.71,0,0,0,0,0,0a5.94,5.94,0,0,0-2.22,5,45.56,45.56,0,0,0,6.25-1.67q17.65,13.92,41,13.67,27.21-.36,46.11-19.87t18.41-46.81l0,0q-.59-27.3-20-46.27M816,1006.65q24.66-.31,42.4,17a58.75,58.75,0,0,1,18.3,42.19l0,0a60.37,60.37,0,0,1-3,20.1c-1.06,0-2.37.17-3.95.37a349.14,349.14,0,0,0-90.87,25.95c-1.06-.91-2.1-1.87-3.13-2.87l0,0a58.46,58.46,0,0,1-18.2-42.26q-.42-24.87,16.66-42.57T816,1006.65m55.59,84.76a60.36,60.36,0,0,1-11.71,17.09,56.75,56.75,0,0,1-41.7,18,57.42,57.42,0,0,1-34.38-10.27l4.62-2a295.65,295.65,0,0,1,42.34-14.09q16.85-4.35,40.83-8.76M910,971q-19.9,20.26-19.42,48.35T911.67,1067c1.56,1.47,3.14,2.85,4.76,4.14l-.09.11a5.71,5.71,0,0,0-1.77,2.17,1.66,1.66,0,0,0,.3,2.18q1.21,1,3.53-.69l1.55-1.09q17.88,12.6,41,12.18,28.62-.46,48.53-20.73,14.84-15.09,18.3-34.66a20.21,20.21,0,0,0,2-.91,4.87,4.87,0,0,0,1.78-1.44,1.66,1.66,0,0,0,.26-1.9c-.38-.67-1.25-1-2.6-1l-.78,0a68.43,68.43,0,0,0,.34-8.41q-.48-28.09-21-47.63t-49.24-19Q929.86,950.82,910,971m-13.34,48.23q-.46-25.59,17.7-44t44.27-18.94q26.13-.45,44.93,17.37t19.21,43.38a64.89,64.89,0,0,1-.46,9l-1.46.26a251.77,251.77,0,0,0-55,16.27,225.41,225.41,0,0,0-44.42,24.94q-2.83-2.19-5.53-4.74-18.79-17.82-19.24-43.49m69.07,29.36a250.16,250.16,0,0,1,51.86-15.49c1.41-.25,2.61-.48,3.61-.67a59.64,59.64,0,0,1-16.1,28.72q-18.17,18.42-44.29,18.87-19.86.36-35.47-9.84A248.18,248.18,0,0,1,965.7,1048.61Z" transform="translate(-615.26 -694.2)"/><path class="cls-6" d="M859.89,1108.5a60.36,60.36,0,0,0,11.71-17.09q-24,4.41-40.83,8.76a295.65,295.65,0,0,0-42.34,14.09l-4.62,2a57.42,57.42,0,0,0,34.38,10.27,56.75,56.75,0,0,0,41.7-18m157.67-75.38a249.43,249.43,0,0,0-92.25,37.08q15.62,10.21,35.47,9.84,26.12-.45,44.29-18.87a59.64,59.64,0,0,0,16.1-28.72C1020.17,1032.64,1019,1032.87,1017.56,1033.12Z" transform="translate(-615.26 -694.2)"/></g><g id="mouth_0_Layer0_0_FILL" data-name="mouth 0 Layer0 0 FILL"><path d="M931.77,1105.21c-2.43,1.91-4.7,3.6-6.82,5.09a117.36,117.36,0,0,1-17.81,9.88,6.49,6.49,0,0,0-1.59.32,27.71,27.71,0,0,1-2.84-4.49q-.91-1.8-2.69-5.89l-1.32-3a.16.16,0,0,1,0-.08,4.15,4.15,0,0,1,.53-.32,6,6,0,0,0-1.23-2,11,11,0,0,0-1.13-2.53,10.77,10.77,0,0,0-1.33-1.41,5.3,5.3,0,0,0-1.26-.88,1.09,1.09,0,0,0-1.42.32,1.74,1.74,0,0,0-.25.84c0,.14,0,.35,0,.64a2.75,2.75,0,0,0-.85.72,4.73,4.73,0,0,0-1,2.33,7.66,7.66,0,0,0,.12,3.37l.17.49a8.84,8.84,0,0,0,.35,1.49l.06.1.15,1a17.81,17.81,0,0,0,1.33,4.32,44.74,44.74,0,0,0,2,4.08l0,0a12.92,12.92,0,0,0,1.28,2.58,19.43,19.43,0,0,0,1.51,1.76q-4.62,1.66-9.51,3.17t-8.14,2.13c-2.26.44-5.52,1-9.76,1.63l-12.29,1.78a99.11,99.11,0,0,0-10.16,1.88,21.27,21.27,0,0,0-7.54,3.58,12.49,12.49,0,0,0-4.34,7.25,13.77,13.77,0,0,0,.55,8.22,15.44,15.44,0,0,0,2.33,4.14,34,34,0,0,0,13.5,11.92,82.18,82.18,0,0,0,17.91,6.12q19,4.24,35.19,2.21,3.65-.45,9.37-1.55c3.83-.75,6.77-1.38,8.8-1.87a59,59,0,0,0,8.67-2.68c1.24-.48,3.08-1.29,5.52-2.41a88.94,88.94,0,0,0,24.31-12.33,29.54,29.54,0,0,0,4.5-3.64c.56-.38,1.13-.79,1.7-1.21a58.3,58.3,0,0,0,5.65-5,75.84,75.84,0,0,0,10-11.44q1.39-2,3.79-6.39c.41-.66.79-1.3,1.14-1.93a90.08,90.08,0,0,0,5.31-11.47c.16-.47.31-.93.45-1.39a45.67,45.67,0,0,0,2.14-17,42.79,42.79,0,0,0-4.13-16.2,16.88,16.88,0,0,0-5.17-6.64,14.93,14.93,0,0,0-3.46-2.35,14.12,14.12,0,0,0-6.6-1,22.76,22.76,0,0,0-6.87,1.76,39.44,39.44,0,0,0-8.44,4.94q-3.09,2.31-7.48,6.32l-14.49,13.46q-4.48,4.11-8.54,7.33m19.94-8.69q8.38-7.95,10.91-10.17a51.12,51.12,0,0,1,6.44-5,24.77,24.77,0,0,1,7.38-3.36q3.81-1,6.11.45a5.49,5.49,0,0,1,1.41,1.15,13.13,13.13,0,0,0,1.35,1.22,4.31,4.31,0,0,0,.62.51c.41.81.81,1.7,1.21,2.66a39.94,39.94,0,0,1,2.67,13q.48,11.43-5.24,23.7a76.47,76.47,0,0,1-6.75,11.44q-1.23-1.23-3.25-3.12a98.46,98.46,0,0,1-13.47-16.6q-3.55-5.43-9.39-15.87m10.49,52.3c-.76.46-1.62,1-2.59,1.69a147.61,147.61,0,0,1-14.59,9q-4.41,1.82-6.83,2.75l-1-.88a38.88,38.88,0,0,1-2.86-3A73,73,0,0,1,923.49,1140q-4.43-11.28-7-17.78a124.16,124.16,0,0,0,19.69-12,162.45,162.45,0,0,0,12.62-11,70.36,70.36,0,0,0,8,16.42q7.42,11.44,15.62,17.63a26.86,26.86,0,0,0,2.94,2c-1.57,2-3.29,4-5.14,6.09q-1.18,1.33-3.28,3.6l-1,.64-1.32,1.23-1.4,1a4.64,4.64,0,0,0-1.11.9m-119.61.42a6.47,6.47,0,0,1,.74-4.9q1.59-2.65,6.36-4a66.35,66.35,0,0,1,8.61-1.89q4.14-.68,11.52-1.73-.06.46-.15,1a24.89,24.89,0,0,0,.38,6.11,63.84,63.84,0,0,0,4.07,14.33,32.79,32.79,0,0,0,8.79,12,18.37,18.37,0,0,0,2,1.43q-4-.35-8.74-1.25a73.71,73.71,0,0,1-20.11-6.54,43.48,43.48,0,0,1-6.5-4,38.71,38.71,0,0,1-4.89-6,13.78,13.78,0,0,1-2-4.47m30.82-13a6.36,6.36,0,0,1,.83-.18,134.15,134.15,0,0,0,15.77-3.28q4.28-1.26,9.46-3.19,7.17-2.71,13.59-5.65a2.31,2.31,0,0,0,.11.47,30.58,30.58,0,0,0,1,3.51l2.91,9q1.46,4.38,2.11,5.85a49.24,49.24,0,0,0,4,7.65q1.67,2.64,4.82,7.22a50.49,50.49,0,0,0,4.46,5.57l.89.84c-1.94.72-3.76,1.33-5.45,1.85q-4.15,1.24-9.61,2.52-5.82,1.33-10,2a102.06,102.06,0,0,1-12.16,1.27c-1.69,0-3.36.07-5,.08a1.51,1.51,0,0,0-.18-.26c-.86-.83-2.25-2.43-4.18-4.78a61,61,0,0,1-5.73-8,44.23,44.23,0,0,1-2.23-4.86,83.83,83.83,0,0,1-5.34-17.63m65.76-52.46s0,.06,0,.1a3.23,3.23,0,0,0-.42,1.11c0,.59.2.94.63,1s.91-.17,1.53-.77a137.64,137.64,0,0,1,20.62-17.78,39.49,39.49,0,0,1,7.12-4.28,33.38,33.38,0,0,1,11.79-2,27,27,0,0,1,8.25,1q6.68,2.1,11.05,9.64l.9,3.19a95.55,95.55,0,0,1,2.74,11.6l.44,4a5.76,5.76,0,0,0,.31,1.25,1.25,1.25,0,0,0,1.16.61q.71-.11,1.14-1.17a5.52,5.52,0,0,0,.48-1,1.29,1.29,0,0,1,.16-.44,12.45,12.45,0,0,0,.44-3.9,2.38,2.38,0,0,1,0-.36,4.58,4.58,0,0,0,.08-.93q0-.69-.33-3.18l-.33-2c-.17-1.2-.45-2.67-.85-4.4a8.47,8.47,0,0,0-.38-1.21,12.91,12.91,0,0,0-.92-3.56,26.5,26.5,0,0,0-3-5.31,29.32,29.32,0,0,0-4.84-5.36c-.24-.17-.46-.33-.66-.49q-7.58-5.54-21.63-3.74a32.1,32.1,0,0,0-8.2,1.9,37.58,37.58,0,0,0-6.19,3.47.84.84,0,0,0-.18.15,66.63,66.63,0,0,0-20.79,22.76Z" transform="translate(-615.26 -694.2)"/><path class="cls-1" d="M874.24,1136a6.36,6.36,0,0,0-.83.18,83.83,83.83,0,0,0,5.34,17.63,44.23,44.23,0,0,0,2.23,4.86,61,61,0,0,0,5.73,8c1.93,2.35,3.32,4,4.18,4.78a1.51,1.51,0,0,1,.18.26c1.68,0,3.35,0,5-.08a102.06,102.06,0,0,0,12.16-1.27q4.2-.65,10-2,5.46-1.28,9.61-2.52c1.69-.52,3.51-1.13,5.45-1.85l-.89-.84a50.49,50.49,0,0,1-4.46-5.57q-3.15-4.59-4.82-7.22a49.24,49.24,0,0,1-4-7.65q-.66-1.47-2.11-5.85l-2.91-9a30.58,30.58,0,0,1-1-3.51,2.31,2.31,0,0,1-.11-.47q-6.43,2.94-13.59,5.65-5.19,1.93-9.46,3.19a134.15,134.15,0,0,1-15.77,3.28m-30.91,8.31a6.47,6.47,0,0,0-.74,4.9,13.78,13.78,0,0,0,2,4.47,38.71,38.71,0,0,0,4.89,6,43.48,43.48,0,0,0,6.5,4,73.71,73.71,0,0,0,20.11,6.54q4.77.9,8.74,1.25a18.37,18.37,0,0,1-2-1.43,32.79,32.79,0,0,1-8.79-12,63.84,63.84,0,0,1-4.07-14.33,24.89,24.89,0,0,1-.38-6.11q.09-.5.15-1-7.38,1.07-11.52,1.73a66.35,66.35,0,0,0-8.61,1.89q-4.77,1.39-6.36,4m116.28,6.17c1-.66,1.83-1.23,2.59-1.69a4.64,4.64,0,0,1,1.11-.9l1.4-1,1.32-1.23,1-.64q2.1-2.26,3.28-3.6c1.85-2,3.57-4.08,5.14-6.09a26.86,26.86,0,0,1-2.94-2q-8.19-6.18-15.62-17.63a70.36,70.36,0,0,1-8-16.42,162.45,162.45,0,0,1-12.62,11,124.16,124.16,0,0,1-19.69,12q2.54,6.49,7,17.78a73,73,0,0,0,10.84,18.36,38.88,38.88,0,0,0,2.86,3l1,.88q2.41-.93,6.83-2.75a147.61,147.61,0,0,0,14.59-9m3-64.16q-2.52,2.22-10.91,10.17,5.84,10.44,9.39,15.87a98.46,98.46,0,0,0,13.47,16.6q2,1.89,3.25,3.12a76.47,76.47,0,0,0,6.75-11.44q5.71-12.27,5.24-23.7a39.94,39.94,0,0,0-2.67-13c-.4-1-.8-1.85-1.21-2.66a4.31,4.31,0,0,1-.62-.51,13.13,13.13,0,0,1-1.35-1.22,5.49,5.49,0,0,0-1.41-1.15q-2.29-1.43-6.11-.45a24.77,24.77,0,0,0-7.38,3.36,51.12,51.12,0,0,0-6.44,5M931.19,1105l.42,0,.16.22q4.07-3.23,8.54-7.33l14.49-13.46q4.4-4,7.48-6.32a39.44,39.44,0,0,1,8.44-4.94,22.76,22.76,0,0,1,6.87-1.76,14.12,14.12,0,0,1,6.6,1,14.93,14.93,0,0,1,3.46,2.35,16.88,16.88,0,0,1,5.17,6.64,42.79,42.79,0,0,1,4.13,16.2,45.67,45.67,0,0,1-2.14,17c-.14.46-.29.92-.45,1.39l4,1.08a53.79,53.79,0,0,0,8.24-19.57,23,23,0,0,0,.48-7.14l-.21-.06a5.52,5.52,0,0,1-.48,1q-.43,1.07-1.14,1.17a1.25,1.25,0,0,1-1.16-.61,5.76,5.76,0,0,1-.31-1.25l-.44-4a95.55,95.55,0,0,0-2.74-11.6l-.9-3.19q-4.38-7.55-11.05-9.64a27,27,0,0,0-8.25-1,33.38,33.38,0,0,0-11.79,2,39.49,39.49,0,0,0-7.12,4.28,137.64,137.64,0,0,0-20.62,17.78c-.62.6-1.13.85-1.53.77s-.64-.44-.63-1a3.23,3.23,0,0,1,.42-1.11q-6.28,7.9-7.27,13.1A63.15,63.15,0,0,0,931.19,1105Z" transform="translate(-615.26 -694.2)"/></g><g id="whiskers_L_0_Layer0_0_FILL" data-name="whiskers L 0 Layer0 0 FILL"><path d="M1153.47,1102.37c.35-.46.25-1.06-.29-1.8a38.61,38.61,0,0,0-7.23-7.3,71.45,71.45,0,0,0-8.58-5.48,149.38,149.38,0,0,0-29.26-12.56q-17.7-5.45-32.25-4.88a69.62,69.62,0,0,0-16.58,2.67,61.32,61.32,0,0,0-15.75,7.21.86.86,0,0,0-.44.42.39.39,0,0,0,.29.51,1.32,1.32,0,0,0,.78-.05,87.09,87.09,0,0,1,25.63-5.28,100.48,100.48,0,0,1,25.56,2,126.55,126.55,0,0,1,24.33,7.65,179.28,179.28,0,0,1,22.78,11.61c4.59,2.7,7.73,4.48,9.45,5.34q1,.54,1.56-.06m-22.82-76.95a94.92,94.92,0,0,0-26.43,2.73,108.41,108.41,0,0,0-29.48,12.2,130.41,130.41,0,0,0-30.51,25.26,4.45,4.45,0,0,0-.91,1.37,1.06,1.06,0,0,0-.13.5.82.82,0,0,0,.44.76,1,1,0,0,0,.5.13,3.51,3.51,0,0,0,2-.83q16.65-13,26.84-19.5a118.27,118.27,0,0,1,24.23-12.5q17.83-6.43,40.11-4.94a137.72,137.72,0,0,1,17.57,2.31l4,.8a33.22,33.22,0,0,0,3.85.48,1.25,1.25,0,0,0,.7-.13.62.62,0,0,0,.33-.61,1.44,1.44,0,0,0-.89-1.09,44.17,44.17,0,0,0-9.12-3.42q-4.49-1.25-8.85-2A87.65,87.65,0,0,0,1130.65,1025.42Z" transform="translate(-615.26 -694.2)"/></g><g id="whiskers_R_0_Layer0_0_FILL" data-name="whiskers R 0 Layer0 0 FILL"><path d="M811.65,1167.08c-.14-.74-.81-1.11-2-1.12a65.16,65.16,0,0,0-11.46.78,92.74,92.74,0,0,0-35.89,12.76,141.6,141.6,0,0,0-12.34,8.77,167,167,0,0,0-28.66,28.32,3.21,3.21,0,0,0-.61,1.26c-.15.51-.08.81.23.91s.68,0,1.12-.45q17.63-15.63,24.74-21.24,14.26-11.23,26.44-17a107.54,107.54,0,0,1,17.56-6.43,160.65,160.65,0,0,1,17.86-3.85,4.07,4.07,0,0,0,2-.72,2.24,2.24,0,0,0,1-2m-34.81-25.44c-.9-.12-1.78-.22-2.63-.29a60.86,60.86,0,0,0-13.08.43,66.52,66.52,0,0,0-11.81,2.83,80.61,80.61,0,0,0-24.45,13.26,112.57,112.57,0,0,0-21.82,22.63,7.88,7.88,0,0,0-1.24,2.27,2.5,2.5,0,0,0-.28.85,1,1,0,0,0,0,.66,1.28,1.28,0,0,0,.2.75,46.46,46.46,0,0,0,4.74-3.58q.87-.85,4.6-4.44,24.84-23.07,47.43-27.22a63.55,63.55,0,0,1,19.36-.42,108.58,108.58,0,0,1,18.69,4.3q2.52.8,3.41-1.15c.06-.31.13-.59.2-.84a4.92,4.92,0,0,0,0-.67,2.47,2.47,0,0,0-.36-1.3,4.75,4.75,0,0,0-1.94-1.78A61.81,61.81,0,0,0,776.84,1141.64Z" transform="translate(-615.26 -694.2)"/></g><g id="nose_0_Layer0_0_FILL" data-name="nose 0 Layer0 0 FILL"><path d="M887.91,1081.46c-2.11.9-4.06,1.77-5.83,2.63q-2.34,1.15-4.58,2.35-2.88,1.53-5.82,3.23c-1.18.72-2.37,1.4-3.59,2A10,10,0,0,0,864,1096a11.45,11.45,0,0,0-.21,3.33,8.51,8.51,0,0,0,.6,3,6.82,6.82,0,0,0,2.3,3,69.37,69.37,0,0,0,5.87,3.8,28.52,28.52,0,0,0,6.06,2.51c2.06.51,4.13,1,6.19,1.6a40,40,0,0,0,4.21.53,17.83,17.83,0,0,0,5.37-1.09,10.11,10.11,0,0,0,4.77-4c.76-1.28,1.49-2.56,2.2-3.82a35.21,35.21,0,0,0,2.74-5.87,23.55,23.55,0,0,0,1.29-6.28q0-1.26,0-2.46a22.05,22.05,0,0,0-.29-2.36l0,0c.07-.79.1-1.44.1-2a10.31,10.31,0,0,0-.48-3.31,5.07,5.07,0,0,0-1.49-2.21,3.19,3.19,0,0,0-1.77-.6,9,9,0,0,0-1.58-.8c-1-.37-2.78-.29-5.2.26a37.41,37.41,0,0,0-6.77,2.28M884.6,1090c.81-.35,2.13-.83,3.95-1.44l10.26-3.44a5.7,5.7,0,0,1,.78,2.63,6.23,6.23,0,0,1-.31,1.57c-.75,2.85-1.43,5.15-2,6.92a51.22,51.22,0,0,1-4.4,9.54,8.36,8.36,0,0,0-.85,1.64,36.52,36.52,0,0,1-19-6.13,5,5,0,0,1-1.61-1.44,3.88,3.88,0,0,1-.46-1.87,14.38,14.38,0,0,1,3.29-3.25,14.71,14.71,0,0,1,1.9-.92l3.4-1.64.21,0a20.93,20.93,0,0,0,2.47-1Z" transform="translate(-615.26 -694.2)"/><path class="cls-8" d="M888.55,1088.54c-1.82.61-3.14,1.09-3.95,1.44l-2.39,1.14a20.93,20.93,0,0,1-2.47,1l-.21,0-3.4,1.64a14.71,14.71,0,0,0-1.9.92,14.38,14.38,0,0,0-3.29,3.25,3.88,3.88,0,0,0,.46,1.87,5,5,0,0,0,1.61,1.44,36.52,36.52,0,0,0,19,6.13,8.36,8.36,0,0,1,.85-1.64,51.22,51.22,0,0,0,4.4-9.54c.62-1.77,1.3-4.07,2-6.92a6.23,6.23,0,0,0,.31-1.57,5.7,5.7,0,0,0-.78-2.63Z" transform="translate(-615.26 -694.2)"/></g></svg>