<?xml version="1.0" encoding="utf-8"?>
<!-- Generator: Adobe Illustrator 26.0.3, SVG Export Plug-In . SVG Version: 6.00 Build 0)  -->
<svg version="1.1" id="Layer_1" xmlns="http://www.w3.org/2000/svg" xmlns:xlink="http://www.w3.org/1999/xlink" x="0px" y="0px"
	 viewBox="0 0 1920 1080" style="enable-background:new 0 0 1920 1080;" xml:space="preserve">
<style type="text/css">
	.st0{fill:#000007;fill-opacity:0;stroke:#000000;stroke-width:8;stroke-miterlimit:10;}
	.st1{opacity:0.16;fill:#ACACAC;}
	.st2{opacity:0.16;fill:#9FA0A0;}
	.st3{fill:#FEFFFF;}
</style>
<g>
	<path class="st0" d="M1060.9,725.34c-34.94,0.04-69.88,0.26-104.8-0.73c-15.12-0.43-30.19-1.41-45.01-4.77
		c-7.04-1.6-13.89-3.78-20.46-6.8c-18.15-8.33-30.45-21.98-37.11-40.78c-3.86-10.92-5.85-22.23-7.22-33.68
		c-1.9-15.92-2.42-31.93-3-47.93c-0.82-22.71-1.14-45.43-1.68-68.15c-0.3-12.71,0.11-25.42-0.32-38.14
		c-0.45-13.61-0.79-27.22-1.06-40.83c-0.2-9.53,0.73-19,1.79-28.45c1.88-16.63,4.72-33.08,9.66-49.11
		c2.86-9.3,6.48-18.28,11.15-26.84c10.97-20.11,27.27-34.27,48.12-43.42c13.54-5.95,27.72-9.76,42.18-12.64
		c20.05-3.99,40.33-6.24,60.69-7.88c35.86-2.9,71.77-3.55,107.72-2.75c19.31,0.43,38.6,1.51,57.84,3.31
		c16.15,1.51,32.22,3.5,48.13,6.72c12.28,2.48,24.31,5.78,35.82,10.83c19.54,8.59,33.88,22.39,42.32,42.13
		c3.24,7.57,5.6,15.42,7.33,23.45c2.72,12.55,4.05,25.28,4.9,38.08c1.89,28.7,1.35,57.43,1.24,86.16
		c-0.14,35.34,0.19,70.68-0.67,106.01c-0.4,16.42-1.19,32.81-3.58,49.09c-1.49,10.12-3.65,20.07-7.34,29.66
		c-6.99,18.17-19.68,30.79-37.3,38.71c-11.77,5.28-24.14,8.48-36.77,10.79c-16.17,2.96-32.5,4.52-48.89,5.54
		c-29.58,1.84-59.21,2.29-88.84,2.41C1084.13,725.38,1072.51,725.34,1060.9,725.34z"/>
	<path class="st1" d="M913.5,299.56c6.99-3.55,14.42-5.93,21.9-8.11c16.08-4.69,32.54-7.56,49.12-9.73
		c27.52-3.6,55.17-5.36,82.9-6.22c18.32-0.57,36.64-0.61,54.95-0.21c16.11,0.35,32.22,1.07,48.29,2.38
		c21.35,1.74,42.63,4.11,63.56,8.87c10.76,2.45,21.25,5.7,31.28,10.36c19.62,9.13,32.98,23.94,40.39,44.21
		c4.36,11.92,6.76,24.26,8.3,36.81c1.92,15.62,2.49,31.32,2.72,47.04c0.54,37.45-0.39,74.88-0.59,112.33
		c-0.04,8.31-0.16,16.62-0.26,24.93c-0.2,16.92-0.63,33.84-1.92,50.71c-1.13,14.78-2.82,29.5-7.01,43.8
		c-0.17,0.57-0.22,1.19-0.66,1.65c-0.67,2.26-2.33,2.94-4.42,2.49c-3.19-0.7-6.13,0.08-9.12,1c-9.13,2.79-18.62,3.81-27.95,5.57
		c-12,2.27-24.02,4.4-36.15,5.84c-8.34,0.98-16.72,1.53-25.09,2.2c-9.56,0.76-19.15,1.27-28.7,2.16c-3.68,0.34-7.39,0.6-11.07,0.71
		c-10.49,0.31-20.96,1.07-31.45,1.42c-17.49,0.59-34.98,1.16-52.48,1.09c-36.3-0.15-71.79-5.19-106.11-17.39
		c-24.44-8.69-46.95-20.9-67.25-37.11c-3.67-2.93-5.64-7-7.69-10.97c-6.66-12.86-11.22-26.52-15.06-40.44
		c-6.12-22.17-9.05-44.91-11.86-67.66c-1.1-8.92-1.62-17.91-2.16-26.9c-0.52-8.71-0.49-17.4-0.4-26.1
		c0.16-15.74,2.24-31.31,4.83-46.81c2.91-17.48,5.9-34.96,10.78-52.01c3.82-13.35,9.55-25.91,17.12-37.57
		c2.56-3.94,4.93-8.01,7.79-11.77c0.91-1.2,1.78-2.52,1.74-4.08C911.73,300.69,912.72,300.25,913.5,299.56z"/>
	<path class="st2" d="M912.31,300.17c-0.31,0.49-0.97,1.09-0.86,1.46c0.83,2.8-1.12,4.58-2.44,6.43
		c-4.96,7.01-9.77,14.14-13.64,21.79c-6.22,12.32-10.99,25.18-13.77,38.78c-1.67,8.18-3.42,16.34-5.01,24.54
		c-1.28,6.62-2.35,13.3-3.37,19.97c-0.78,5.1-1.42,10.23-2.13,15.33c-0.38,2.73-0.53,5.57-0.9,8.3c-0.53,3.86,0.02,7.78-0.97,11.59
		c-0.2,0.75-0.09,1.59-0.09,2.39c-0.01,8.01-0.38,16.04,0.13,24.02c0.32,5.05,0.16,10.14,0.92,15.19c0.47,3.12,0.35,6.35,0.72,9.52
		c0.57,4.83,0.91,9.68,1.61,14.5c0.48,3.34,0.85,6.7,1.37,10.04c0.74,4.71,1.19,9.46,1.96,14.16c1.06,6.47,2.22,12.92,3.5,19.34
		c0.95,4.78,2.03,9.54,3.29,14.25c1.61,6.06,3.24,12.13,5.25,18.07c2.07,6.12,4.38,12.17,7,18.11c2.02,4.59,4.46,8.93,6.76,13.35
		c1.67,3.22,4.56,5.27,7.32,7.38c12.82,9.77,26.49,18.16,41.05,25.09c13,6.19,26.47,11.04,40.33,14.94
		c9.69,2.73,19.47,4.98,29.34,6.89c4.48,0.87,9.03,1.37,13.55,2.01c4.23,0.6,8.46,1.15,12.68,1.72c0.3,0.04,0.6,0.07,0.9,0.07
		c6.39,0.02,12.76,0.49,19.14,0.72c12.09,0.45,24.19,0.78,36.26,0.38c8.19-0.27,16.39-0.09,24.55-0.63
		c4.69-0.31,9.44,0.13,14.03-0.59c4.97-0.78,10,0.25,14.89-1.04c0.28-0.07,0.6-0.05,0.9-0.03c5.3,0.41,10.56-0.5,15.84-0.72
		c5.55-0.23,11.1-0.81,16.66-1.18c5.36-0.36,10.73-0.68,16.06-1.22c5.73-0.59,11.48-0.91,17.21-1.53c4.24-0.46,8.47-1.1,12.73-1.48
		c4.63-0.42,9.21-1.49,13.81-2.28c7.15-1.23,14.31-2.38,21.43-3.72c8.4-1.58,16.88-2.78,25.03-5.49c1.58-0.53,3.11-0.52,4.7-0.05
		c2.05,0.61,3.94,0.46,5.24-1.55c-1.7,6.85-4.64,13.19-8.28,19.2c-7.83,12.94-19.41,21.33-33.11,27.12
		c-11.97,5.06-24.52,7.99-37.27,10.14c-15.51,2.62-31.15,3.98-46.84,4.93c-17.19,1.04-34.39,1.51-51.61,1.86
		c-49.85,1.02-99.7,0.57-149.55,0.35c-12.51-0.06-25.03-0.4-37.51-1.27c-14-0.97-27.88-2.75-41.17-7.66
		c-15.41-5.69-28.02-14.88-36.47-29.27c-5.34-9.09-8.45-18.98-10.58-29.22c-2.86-13.75-4.19-27.69-4.94-41.69
		c-1.34-25.19-2.18-50.39-2.89-75.6c-0.37-13.1-0.12-26.23-0.25-39.34c-0.1-10.21-0.04-20.43-0.62-30.62
		c-0.71-12.32-0.79-24.63-0.09-36.91c1.42-24.98,5.35-49.53,14.29-73.05c5.39-14.19,12.97-27.05,23.84-37.81
		c8.5-8.41,18.39-14.75,29.18-19.77C911.7,300.26,912.01,300.24,912.31,300.17z"/>
	<path class="st3" d="M1198.7,290.89c4.29-0.09,8.19,0.78,12.09,1.65c5.56,1.24,11.14,2.36,16.65,3.79
		c6.76,1.75,12.7,5.29,18.59,8.93c4.7,2.9,9.28,5.9,13.04,10.01c2.26,2.48,4.02,5.23,4.98,8.46c1.1,3.71-0.28,5.88-4.03,6.89
		c-4.04,1.09-7.78-0.19-11.4-1.5c-8.27-3-16.42-6.33-24.66-9.42c-7.6-2.84-14.98-6.16-22.38-9.46c-3.51-1.57-6.66-3.65-9.74-5.88
		c-1.64-1.19-2.88-2.79-3.78-4.6c-1.45-2.94-0.49-5.86,2.42-7.38C1193.14,290.99,1196.02,290.77,1198.7,290.89z"/>
	<path class="st3" d="M1295.64,358.36c0,1.1,0.13,2.21-0.02,3.29c-0.56,4.09-4.43,5.77-7.77,3.32c-1.69-1.24-3.14-2.77-4.28-4.57
		c-3.24-5.15-6.56-10.25-9.7-15.46c-1.33-2.21-2.47-4.56-2.36-7.3c0.13-3.21,2.56-5.08,5.64-4.32c3.18,0.78,5.93,2.39,8.34,4.52
		C1291.65,343.28,1295.33,350.02,1295.64,358.36z"/>
</g>
</svg>
